G04*
G04 #@! TF.GenerationSoftware,Altium Limited,Altium Designer,22.8.2 (66)*
G04*
G04 Layer_Color=16711935*
%FSLAX25Y25*%
%MOIN*%
G70*
G04*
G04 #@! TF.SameCoordinates,C3FD66B6-40D4-4EF1-9346-9CEE37E5CDB1*
G04*
G04*
G04 #@! TF.FilePolarity,Negative*
G04*
G01*
G75*
%ADD78C,0.16548*%
%ADD79C,0.10249*%
%ADD80R,0.10249X0.10249*%
%ADD81C,0.12611*%
%ADD82C,0.09461*%
%ADD83C,0.09461*%
%ADD84R,0.08800X0.08800*%
%ADD85C,0.08800*%
%ADD86O,0.07887X0.25603*%
%ADD87O,0.07887X0.22060*%
%ADD88O,0.22060X0.07887*%
%ADD89C,0.07887*%
%ADD90R,0.07887X0.07887*%
%ADD91C,0.22453*%
G54D78*
X811024Y-12795D02*
D03*
X19685D02*
D03*
G54D79*
X832677Y188976D02*
D03*
Y169291D02*
D03*
Y55118D02*
D03*
Y35433D02*
D03*
X9843Y78740D02*
D03*
Y98425D02*
D03*
Y212598D02*
D03*
Y232283D02*
D03*
G54D80*
X832677Y149606D02*
D03*
Y15748D02*
D03*
X9843Y118110D02*
D03*
Y251969D02*
D03*
G54D81*
X739764Y169291D02*
D03*
X795669Y145669D02*
D03*
Y192913D02*
D03*
X739764Y35433D02*
D03*
X795669Y11811D02*
D03*
Y59055D02*
D03*
X102756Y98425D02*
D03*
X46850Y122047D02*
D03*
Y74803D02*
D03*
X102756Y232283D02*
D03*
X46850Y255906D02*
D03*
Y208661D02*
D03*
G54D82*
X747638Y145669D02*
D03*
Y11811D02*
D03*
X94882Y122047D02*
D03*
Y255906D02*
D03*
G54D83*
X747638Y192913D02*
D03*
Y59055D02*
D03*
X94882Y74803D02*
D03*
Y208661D02*
D03*
G54D84*
X744095Y231159D02*
D03*
Y97301D02*
D03*
X98425Y36557D02*
D03*
Y170415D02*
D03*
G54D85*
X744095Y217659D02*
D03*
Y83801D02*
D03*
X98425Y50057D02*
D03*
Y183915D02*
D03*
G54D86*
X811516Y242323D02*
D03*
Y108465D02*
D03*
X31004Y25394D02*
D03*
Y159252D02*
D03*
G54D87*
X835138Y242323D02*
D03*
Y108465D02*
D03*
X7382Y25394D02*
D03*
Y159252D02*
D03*
G54D88*
X823327Y260827D02*
D03*
Y126969D02*
D03*
X19193Y6890D02*
D03*
Y140748D02*
D03*
G54D89*
X641890Y258858D02*
D03*
X631890D02*
D03*
X621890D02*
D03*
X611890D02*
D03*
X641890Y125000D02*
D03*
X631890D02*
D03*
X621890D02*
D03*
X611890D02*
D03*
X200630Y8858D02*
D03*
X210630D02*
D03*
X220630D02*
D03*
X230630D02*
D03*
X200630Y142717D02*
D03*
X210630D02*
D03*
X220630D02*
D03*
X230630D02*
D03*
G54D90*
X651890Y258858D02*
D03*
Y125000D02*
D03*
X190630Y8858D02*
D03*
Y142717D02*
D03*
G54D91*
X519685Y145669D02*
D03*
X744095Y255906D02*
D03*
X519685Y11811D02*
D03*
X744095Y122047D02*
D03*
X322835D02*
D03*
X98425Y11811D02*
D03*
X322835Y255906D02*
D03*
X98425Y145669D02*
D03*
M02*
