G04*
G04 #@! TF.GenerationSoftware,Altium Limited,Altium Designer,22.8.2 (66)*
G04*
G04 Layer_Color=65535*
%FSLAX25Y25*%
%MOIN*%
G70*
G04*
G04 #@! TF.SameCoordinates,13EA9874-455B-4FA2-A727-6D6EF1C97DE0*
G04*
G04*
G04 #@! TF.FilePolarity,Positive*
G04*
G01*
G75*
%ADD10C,0.01000*%
%ADD11C,0.00500*%
%ADD12C,0.00787*%
%ADD13C,0.00400*%
%ADD14C,0.00600*%
%ADD15R,0.02000X0.01500*%
%ADD16R,0.03937X0.03937*%
%ADD17R,0.04000X0.02000*%
G54D10*
X313996Y130886D02*
X313319Y130153D01*
X312702Y129368D01*
X312151Y128536D01*
X311667Y127663D01*
X311255Y126754D01*
X310916Y125815D01*
X310653Y124852D01*
X310468Y123871D01*
X310362Y122879D01*
X310336Y121881D01*
X310389Y120884D01*
X310521Y119895D01*
X310732Y118919D01*
X311020Y117964D01*
X311384Y117034D01*
X311820Y116137D01*
X312327Y115277D01*
X312901Y114460D01*
X313538Y113691D01*
X314234Y112976D01*
X314985Y112319D01*
X315787Y111724D01*
X316633Y111194D01*
X317518Y110734D01*
X318438Y110346D01*
X319386Y110032D01*
X320355Y109796D01*
X321341Y109637D01*
X322336Y109557D01*
X323334Y109557D01*
X324329Y109637D01*
X325314Y109796D01*
X326284Y110032D01*
X327231Y110346D01*
X328151Y110734D01*
X329036Y111194D01*
X329883Y111724D01*
X330684Y112319D01*
X331435Y112976D01*
X332131Y113691D01*
X332768Y114460D01*
X333342Y115277D01*
X333849Y116136D01*
X334285Y117034D01*
X334649Y117964D01*
X334937Y118919D01*
X335148Y119895D01*
X335280Y120884D01*
X335333Y121881D01*
X335307Y122879D01*
X335201Y123871D01*
X335016Y124852D01*
X334753Y125815D01*
X334415Y126754D01*
X334002Y127663D01*
X333519Y128536D01*
X332967Y129367D01*
X332351Y130153D01*
X331674Y130886D01*
G54D11*
X226378Y52165D02*
X225886Y53018D01*
X224902D01*
X224409Y52165D01*
X224902Y51313D01*
X225886D01*
X226378Y52165D01*
X25591Y78740D02*
X25327Y79724D01*
X24606Y80445D01*
X23622Y80709D01*
X22638Y80445D01*
X21917Y79724D01*
X21654Y78740D01*
X21917Y77756D01*
X22638Y77035D01*
X23622Y76772D01*
X24606Y77035D01*
X25327Y77756D01*
X25591Y78740D01*
Y118110D02*
X25327Y119095D01*
X24606Y119815D01*
X23622Y120079D01*
X22638Y119815D01*
X21917Y119095D01*
X21654Y118110D01*
X21917Y117126D01*
X22638Y116405D01*
X23622Y116142D01*
X24606Y116405D01*
X25327Y117126D01*
X25591Y118110D01*
Y98425D02*
X25327Y99409D01*
X24606Y100130D01*
X23622Y100394D01*
X22638Y100130D01*
X21917Y99409D01*
X21654Y98425D01*
X21917Y97441D01*
X22638Y96720D01*
X23622Y96457D01*
X24606Y96720D01*
X25327Y97441D01*
X25591Y98425D01*
X132874Y33268D02*
X133420Y32581D01*
X134297D01*
X134843Y33268D01*
X114173Y43307D02*
X114141Y44306D01*
X114047Y45301D01*
X113889Y46287D01*
X113669Y47262D01*
X113387Y48221D01*
X113045Y49160D01*
X112645Y50076D01*
X112187Y50964D01*
X111673Y51821D01*
X111107Y52644D01*
X110489Y53430D01*
X109823Y54175D01*
X109110Y54875D01*
X108355Y55530D01*
X107560Y56135D01*
X106728Y56689D01*
X105862Y57188D01*
X104967Y57632D01*
X104045Y58018D01*
X103101Y58345D01*
X102138Y58611D01*
X101160Y58816D01*
X100171Y58958D01*
X99174Y59037D01*
X98175Y59053D01*
X97177Y59006D01*
X96184Y58895D01*
X95200Y58721D01*
X94229Y58486D01*
X93274Y58189D01*
X92341Y57832D01*
X91432Y57417D01*
X90551Y56945D01*
X89702Y56418D01*
X88888Y55839D01*
X88112Y55209D01*
X87378Y54531D01*
X86689Y53807D01*
X86046Y53042D01*
X85454Y52237D01*
X84914Y51397D01*
X84428Y50523D01*
X83998Y49621D01*
X83627Y48693D01*
X83315Y47744D01*
X83064Y46777D01*
X82875Y45795D01*
X82749Y44804D01*
X82685Y43807D01*
Y42807D01*
X82749Y41810D01*
X82875Y40819D01*
X83064Y39838D01*
X83315Y38870D01*
X83627Y37921D01*
X83998Y36993D01*
X84428Y36091D01*
X84914Y35218D01*
X85454Y34377D01*
X86046Y33572D01*
X86689Y32807D01*
X87378Y32083D01*
X88112Y31405D01*
X88888Y30775D01*
X89702Y30196D01*
X90551Y29669D01*
X91432Y29197D01*
X92341Y28782D01*
X93274Y28425D01*
X94229Y28128D01*
X95200Y27893D01*
X96184Y27719D01*
X97177Y27609D01*
X98175Y27561D01*
X99174Y27577D01*
X100171Y27656D01*
X101160Y27798D01*
X102138Y28003D01*
X103101Y28269D01*
X104045Y28596D01*
X104967Y28982D01*
X105862Y29426D01*
X106728Y29926D01*
X107560Y30479D01*
X108355Y31084D01*
X109110Y31739D01*
X109823Y32440D01*
X110489Y33184D01*
X111107Y33970D01*
X111673Y34793D01*
X112187Y35650D01*
X112645Y36539D01*
X113045Y37454D01*
X113387Y38393D01*
X113669Y39352D01*
X113889Y40327D01*
X114047Y41313D01*
X114141Y42308D01*
X114173Y43307D01*
X107264Y2972D02*
X107941Y3706D01*
X108557Y4491D01*
X109109Y5322D01*
X109593Y6196D01*
X110005Y7104D01*
X110344Y8043D01*
X110607Y9006D01*
X110791Y9987D01*
X110898Y10980D01*
X110924Y11977D01*
X110871Y12974D01*
X110739Y13963D01*
X110528Y14939D01*
X110239Y15895D01*
X109876Y16824D01*
X109439Y17722D01*
X108933Y18582D01*
X108359Y19399D01*
X107722Y20167D01*
X107026Y20882D01*
X106274Y21539D01*
X105473Y22135D01*
X104627Y22664D01*
X103742Y23124D01*
X102822Y23512D01*
X101874Y23826D01*
X100905Y24063D01*
X99919Y24221D01*
X98924Y24301D01*
X97926Y24301D01*
X96931Y24221D01*
X95946Y24063D01*
X94976Y23826D01*
X94029Y23512D01*
X93109Y23124D01*
X92223Y22664D01*
X91377Y22135D01*
X90576Y21539D01*
X89825Y20882D01*
X89129Y20167D01*
X88491Y19399D01*
X87918Y18582D01*
X87411Y17722D01*
X86975Y16824D01*
X86611Y15895D01*
X86323Y14939D01*
X86112Y13963D01*
X85979Y12974D01*
X85926Y11977D01*
X85953Y10980D01*
X86059Y9987D01*
X86244Y9006D01*
X86506Y8043D01*
X86845Y7104D01*
X87258Y6196D01*
X87741Y5322D01*
X88293Y4491D01*
X88909Y3706D01*
X89586Y2972D01*
X191929Y48228D02*
X226378D01*
X191929D02*
Y85630D01*
X229331D01*
Y51181D02*
Y85630D01*
X226378Y48228D02*
X229331Y51181D01*
X233268Y50197D02*
Y50197D01*
Y50197D02*
X234252Y49213D01*
X232283D02*
X234252D01*
X232283D02*
X233268Y50197D01*
X233268D01*
X192850Y28238D02*
X200850D01*
X192850Y35738D02*
X200850D01*
X289799Y72648D02*
X297799D01*
X289799Y65148D02*
X297799D01*
X299331Y73272D02*
X299705Y72898D01*
X299331Y73272D02*
X300173D01*
X299799Y72898D02*
X300173Y73272D01*
X299705Y72898D02*
X299799D01*
X289799Y75482D02*
X297799D01*
X289799Y82982D02*
X297799D01*
X347378Y114971D02*
X355378D01*
X347378Y107471D02*
X355378D01*
X385827Y35433D02*
X415354D01*
X390945D02*
Y98425D01*
X385827D02*
X415354D01*
Y35433D02*
Y98425D01*
X320866Y35433D02*
X322835D01*
X320866D02*
Y43307D01*
Y90551D02*
Y98425D01*
X322835D01*
X289799Y97254D02*
X297799D01*
X289799Y89754D02*
X297799D01*
X289799Y106112D02*
X297799D01*
X289799Y98612D02*
X297799D01*
X347378Y9537D02*
X355378D01*
X347378Y17037D02*
X355378D01*
X347378Y18888D02*
X355378D01*
X347378Y26388D02*
X355378D01*
X372969Y124321D02*
X380968D01*
X372969Y116821D02*
X380968D01*
X372969Y114971D02*
X380968D01*
X372969Y107471D02*
X380968D01*
X129858Y72037D02*
X137858D01*
X129858Y79537D02*
X137858D01*
X129858Y63179D02*
X137858D01*
X129858Y70679D02*
X137858D01*
X2953Y68925D02*
X25984Y68898D01*
Y127953D01*
X2953Y127925D02*
X25984Y127953D01*
X21654Y68898D02*
Y127953D01*
X33071Y67716D02*
X108268D01*
X33071D02*
Y129134D01*
X108268D01*
Y105512D02*
Y129134D01*
Y67716D02*
Y91339D01*
X130315Y122079D02*
Y122835D01*
Y117323D02*
Y118279D01*
X137402Y117323D02*
Y118179D01*
Y122079D02*
Y122835D01*
X127908Y117229D02*
X128408Y117729D01*
X127908Y117229D02*
X128908D01*
X128408Y117729D02*
X128908Y117229D01*
X130315Y117323D02*
X137402D01*
X130315Y122835D02*
X137402D01*
X131958Y117379D02*
Y122835D01*
X127858Y105291D02*
Y108291D01*
X139858D01*
Y105291D02*
Y108291D01*
X127858Y105291D02*
X139858D01*
X129858Y97254D02*
X137858D01*
X129858Y89754D02*
X137858D01*
X129858Y80896D02*
X137858D01*
X129858Y88396D02*
X137858D01*
X151575Y44783D02*
X152559D01*
X151575Y29035D02*
X152559D01*
X166339Y44783D02*
X167323D01*
X166339Y29035D02*
X167323D01*
Y44783D01*
X151575Y29035D02*
Y44783D01*
X155449Y26388D02*
X163449D01*
X155449Y18888D02*
X163449D01*
X162992Y55315D02*
Y56071D01*
Y59871D02*
Y60827D01*
X155905Y59971D02*
Y60827D01*
Y55315D02*
Y56071D01*
X164899Y60421D02*
X165399Y60921D01*
X164399D02*
X165399D01*
X164399D02*
X164899Y60421D01*
X155905Y60827D02*
X162992D01*
X155905Y55315D02*
X162992D01*
X161349D02*
Y60771D01*
X129858Y61821D02*
X137858D01*
X129858Y54321D02*
X137858D01*
X129858Y52963D02*
X137858D01*
X129858Y45463D02*
X137858D01*
X141358Y43354D02*
X141858Y43854D01*
X140858D02*
X141858D01*
X140858D02*
X141358Y43354D01*
X135858Y37354D02*
Y43354D01*
X128248Y37008D02*
X139469D01*
X128248Y43701D02*
X139469D01*
X134843Y33268D02*
X136417D01*
X131299D02*
X132874D01*
X131299Y21850D02*
X136417D01*
Y33268D01*
X131299Y21850D02*
Y33268D01*
X53087Y57392D02*
X61087D01*
X53087Y49892D02*
X61087D01*
X129858Y17037D02*
X137858D01*
X129858Y9537D02*
X137858D01*
X48031Y46102D02*
X66142D01*
X48031Y34606D02*
X66142D01*
X48031Y44854D02*
Y46102D01*
Y34606D02*
Y35854D01*
X66142Y34606D02*
Y35854D01*
Y44854D02*
Y46102D01*
X67587Y46354D02*
X69587D01*
X68587Y44854D02*
X69587Y46354D01*
X67587D02*
X68587Y44854D01*
X50394Y31004D02*
X63779D01*
X50394Y23130D02*
X63779D01*
X48031Y19527D02*
X66142D01*
X48031Y8032D02*
X66142D01*
X48031Y18280D02*
Y19527D01*
Y8032D02*
Y9279D01*
X66142Y8032D02*
Y9279D01*
Y18280D02*
Y19527D01*
X67587Y19780D02*
X69587D01*
X68587Y18280D02*
X69587Y19780D01*
X67587D02*
X68587Y18280D01*
X2657Y43110D02*
X33760D01*
X2657Y7677D02*
X5413Y7677D01*
X31004D02*
X33760D01*
Y39173D02*
Y43110D01*
Y7677D02*
Y11614D01*
X218441Y107471D02*
X226441D01*
X218441Y114971D02*
X226441D01*
X179380Y11358D02*
X181880Y8858D01*
X179380Y6358D02*
Y11358D01*
Y6358D02*
X181880Y8858D01*
X185630Y3858D02*
Y13858D01*
Y3858D02*
X235630D01*
X185630Y13858D02*
X235630D01*
Y3858D02*
Y13858D01*
X218441Y26388D02*
X226441D01*
X218441Y18888D02*
X226441D01*
X155449Y89754D02*
X163449D01*
X155449Y97254D02*
X163449D01*
X192850Y18888D02*
X200850D01*
X192850Y26388D02*
X200850D01*
X155449Y63179D02*
X163449D01*
X155449Y70679D02*
X163449D01*
X192850Y107471D02*
X200850D01*
X192850Y114971D02*
X200850D01*
X218441Y35246D02*
X226441D01*
X218441Y27746D02*
X226441D01*
X192850Y98612D02*
X200850D01*
X192850Y106112D02*
X200850D01*
X218441Y98612D02*
X226441D01*
X218441Y106112D02*
X226441D01*
X257811Y98612D02*
X265811D01*
X257811Y106112D02*
X265811D01*
X256695Y19783D02*
X267895D01*
X256695Y25492D02*
X267895D01*
X257811Y27746D02*
X265811D01*
X257811Y35246D02*
X265811D01*
X257811Y10029D02*
X265811D01*
X257811Y17529D02*
X265811D01*
X257811Y74990D02*
X265811D01*
X257811Y82490D02*
X265811D01*
X257811Y47057D02*
X265811D01*
X257811Y39557D02*
X265811D01*
X257811Y89754D02*
X265811D01*
X257811Y97254D02*
X265811D01*
G54D12*
X124409Y31496D02*
X123622D01*
X124409D01*
G54D13*
X98425Y61024D02*
Y63976D01*
X255906Y57480D02*
Y64567D01*
X267717Y57480D02*
Y64567D01*
X260630Y70866D02*
X262992D01*
X260630Y51181D02*
X262992D01*
G54D14*
X114929Y30058D02*
Y25893D01*
X115762Y25060D01*
X117428D01*
X118261Y25893D01*
Y30058D01*
X119928Y29225D02*
X120761Y30058D01*
X122427D01*
X123260Y29225D01*
Y28392D01*
X122427Y27559D01*
X121594D01*
X122427D01*
X123260Y26726D01*
Y25893D01*
X122427Y25060D01*
X120761D01*
X119928Y25893D01*
X404299Y106338D02*
Y102173D01*
X405132Y101339D01*
X406798D01*
X407631Y102173D01*
Y106338D01*
X412630Y101339D02*
X409298D01*
X412630Y104672D01*
Y105505D01*
X411797Y106338D01*
X410131D01*
X409298Y105505D01*
X35015Y60001D02*
Y64999D01*
X37514D01*
X38347Y64166D01*
Y62500D01*
X37514Y61667D01*
X35015D01*
X36681D02*
X38347Y60001D01*
X40013Y64999D02*
Y60001D01*
X43346D01*
X45012D02*
X46678D01*
X45845D01*
Y64999D01*
X45012Y64166D01*
X116898Y91005D02*
Y96003D01*
X119397D01*
X120230Y95170D01*
Y93504D01*
X119397Y92671D01*
X116898D01*
X118564D02*
X120230Y91005D01*
X121896Y91838D02*
X122729Y91005D01*
X124395D01*
X125228Y91838D01*
Y95170D01*
X124395Y96003D01*
X122729D01*
X121896Y95170D01*
Y94337D01*
X122729Y93504D01*
X125228D01*
X116898Y82147D02*
Y87145D01*
X119397D01*
X120230Y86312D01*
Y84646D01*
X119397Y83813D01*
X116898D01*
X118564D02*
X120230Y82147D01*
X121896Y86312D02*
X122729Y87145D01*
X124395D01*
X125228Y86312D01*
Y85479D01*
X124395Y84646D01*
X125228Y83813D01*
Y82980D01*
X124395Y82147D01*
X122729D01*
X121896Y82980D01*
Y83813D01*
X122729Y84646D01*
X121896Y85479D01*
Y86312D01*
X122729Y84646D02*
X124395D01*
X385106Y117579D02*
Y122578D01*
X387606D01*
X388439Y121745D01*
Y120079D01*
X387606Y119246D01*
X385106D01*
X386772D02*
X388439Y117579D01*
X390105Y122578D02*
X393437D01*
Y121745D01*
X390105Y118413D01*
Y117579D01*
X359516Y108721D02*
Y113720D01*
X362015D01*
X362848Y112887D01*
Y111221D01*
X362015Y110387D01*
X359516D01*
X361182D02*
X362848Y108721D01*
X367846Y113720D02*
X366180Y112887D01*
X364514Y111221D01*
Y109554D01*
X365347Y108721D01*
X367013D01*
X367846Y109554D01*
Y110387D01*
X367013Y111221D01*
X364514D01*
X360008Y20139D02*
Y25137D01*
X362507D01*
X363340Y24304D01*
Y22638D01*
X362507Y21805D01*
X360008D01*
X361674D02*
X363340Y20139D01*
X368338Y25137D02*
X365006D01*
Y22638D01*
X366672Y23471D01*
X367506D01*
X368338Y22638D01*
Y20972D01*
X367506Y20139D01*
X365839D01*
X365006Y20972D01*
X360008Y10788D02*
Y15787D01*
X362507D01*
X363340Y14954D01*
Y13287D01*
X362507Y12454D01*
X360008D01*
X361674D02*
X363340Y10788D01*
X367506D02*
Y15787D01*
X365006Y13287D01*
X368338D01*
X116898Y64922D02*
Y69920D01*
X119397D01*
X120230Y69087D01*
Y67421D01*
X119397Y66588D01*
X116898D01*
X118564D02*
X120230Y64922D01*
X121896Y69087D02*
X122729Y69920D01*
X124395D01*
X125228Y69087D01*
Y68254D01*
X124395Y67421D01*
X123562D01*
X124395D01*
X125228Y66588D01*
Y65755D01*
X124395Y64922D01*
X122729D01*
X121896Y65755D01*
X121896Y105125D02*
Y108458D01*
X121063Y109291D01*
X119397D01*
X118564Y108458D01*
Y105125D01*
X119397Y104292D01*
X121063D01*
X120230Y105958D02*
X121896Y104292D01*
X121063D02*
X121896Y105125D01*
X123562Y104292D02*
X125228D01*
X124395D01*
Y109291D01*
X123562Y108458D01*
X68026Y24568D02*
Y29566D01*
X70525D01*
X71358Y28733D01*
Y27067D01*
X70525Y26234D01*
X68026D01*
X73024Y24568D02*
X74691D01*
X73857D01*
Y29566D01*
X73024Y28733D01*
X156117Y52696D02*
Y47698D01*
X159449D01*
X161115D02*
X162781D01*
X161948D01*
Y52696D01*
X161115Y51863D01*
X116898Y123070D02*
Y118072D01*
X119397D01*
X120230Y118905D01*
Y122237D01*
X119397Y123070D01*
X116898D01*
X125228D02*
X123562Y122237D01*
X121896Y120571D01*
Y118905D01*
X122729Y118072D01*
X124395D01*
X125228Y118905D01*
Y119738D01*
X124395Y120571D01*
X121896D01*
X115913Y42854D02*
Y37855D01*
X118413D01*
X119246Y38688D01*
Y42020D01*
X118413Y42854D01*
X115913D01*
X124244D02*
X120912D01*
Y40354D01*
X122578Y41187D01*
X123411D01*
X124244Y40354D01*
Y38688D01*
X123411Y37855D01*
X121745D01*
X120912Y38688D01*
X301445Y71397D02*
Y66399D01*
X303944D01*
X304777Y67232D01*
Y70564D01*
X303944Y71397D01*
X301445D01*
X308943Y66399D02*
Y71397D01*
X306443Y68898D01*
X309776D01*
X72455Y42854D02*
Y37855D01*
X74954D01*
X75787Y38688D01*
Y42020D01*
X74954Y42854D01*
X72455D01*
X77454Y42020D02*
X78287Y42854D01*
X79953D01*
X80786Y42020D01*
Y41187D01*
X79953Y40354D01*
X79120D01*
X79953D01*
X80786Y39521D01*
Y38688D01*
X79953Y37855D01*
X78287D01*
X77454Y38688D01*
X167473Y60570D02*
Y55572D01*
X169972D01*
X170805Y56405D01*
Y59737D01*
X169972Y60570D01*
X167473D01*
X175803Y55572D02*
X172471D01*
X175803Y58904D01*
Y59737D01*
X174970Y60570D01*
X173304D01*
X172471Y59737D01*
X72455Y16279D02*
Y11280D01*
X74954D01*
X75787Y12113D01*
Y15446D01*
X74954Y16279D01*
X72455D01*
X77454Y11280D02*
X79120D01*
X78287D01*
Y16279D01*
X77454Y15446D01*
X9463Y65150D02*
X8630Y65983D01*
X6964D01*
X6131Y65150D01*
Y61818D01*
X6964Y60985D01*
X8630D01*
X9463Y61818D01*
X11129Y60985D02*
Y65983D01*
X14461Y60985D01*
Y65983D01*
X19460Y60985D02*
X16127D01*
X19460Y64317D01*
Y65150D01*
X18627Y65983D01*
X16961D01*
X16127Y65150D01*
X16202Y50682D02*
X15369Y51515D01*
X13702D01*
X12869Y50682D01*
Y47350D01*
X13702Y46517D01*
X15369D01*
X16202Y47350D01*
X17868Y46517D02*
Y51515D01*
X21200Y46517D01*
Y51515D01*
X22866Y46517D02*
X24532D01*
X23699D01*
Y51515D01*
X22866Y50682D01*
X181480Y24304D02*
X180647Y25137D01*
X178981D01*
X178148Y24304D01*
Y20972D01*
X178981Y20139D01*
X180647D01*
X181480Y20972D01*
X183147Y20139D02*
X184813D01*
X183979D01*
Y25137D01*
X183147Y24304D01*
X187312Y20139D02*
X188978D01*
X188145D01*
Y25137D01*
X187312Y24304D01*
X304777Y95662D02*
X303944Y96495D01*
X302278D01*
X301445Y95662D01*
Y92330D01*
X302278Y91497D01*
X303944D01*
X304777Y92330D01*
X306443D02*
X307276Y91497D01*
X308943D01*
X309776Y92330D01*
Y95662D01*
X308943Y96495D01*
X307276D01*
X306443Y95662D01*
Y94829D01*
X307276Y93996D01*
X309776D01*
X304777Y104028D02*
X303944Y104861D01*
X302278D01*
X301445Y104028D01*
Y100696D01*
X302278Y99863D01*
X303944D01*
X304777Y100696D01*
X306443Y104028D02*
X307276Y104861D01*
X308943D01*
X309776Y104028D01*
Y103195D01*
X308943Y102362D01*
X309776Y101529D01*
Y100696D01*
X308943Y99863D01*
X307276D01*
X306443Y100696D01*
Y101529D01*
X307276Y102362D01*
X306443Y103195D01*
Y104028D01*
X307276Y102362D02*
X308943D01*
X388439Y112887D02*
X387606Y113720D01*
X385939D01*
X385106Y112887D01*
Y109554D01*
X385939Y108721D01*
X387606D01*
X388439Y109554D01*
X390105Y113720D02*
X393437D01*
Y112887D01*
X390105Y109554D01*
Y108721D01*
X120230Y59737D02*
X119397Y60570D01*
X117731D01*
X116898Y59737D01*
Y56405D01*
X117731Y55572D01*
X119397D01*
X120230Y56405D01*
X125228Y60570D02*
X123562Y59737D01*
X121896Y58071D01*
Y56405D01*
X122729Y55572D01*
X124395D01*
X125228Y56405D01*
Y57238D01*
X124395Y58071D01*
X121896D01*
X120230Y50879D02*
X119397Y51712D01*
X117731D01*
X116898Y50879D01*
Y47546D01*
X117731Y46713D01*
X119397D01*
X120230Y47546D01*
X125228Y51712D02*
X121896D01*
Y49213D01*
X123562Y50046D01*
X124395D01*
X125228Y49213D01*
Y47546D01*
X124395Y46713D01*
X122729D01*
X121896Y47546D01*
X120230Y14954D02*
X119397Y15787D01*
X117731D01*
X116898Y14954D01*
Y11621D01*
X117731Y10788D01*
X119397D01*
X120230Y11621D01*
X124395Y10788D02*
Y15787D01*
X121896Y13287D01*
X125228D01*
X43458Y55308D02*
X42625Y56141D01*
X40959D01*
X40126Y55308D01*
Y51976D01*
X40959Y51143D01*
X42625D01*
X43458Y51976D01*
X45124Y55308D02*
X45957Y56141D01*
X47624D01*
X48457Y55308D01*
Y54475D01*
X47624Y53642D01*
X46791D01*
X47624D01*
X48457Y52809D01*
Y51976D01*
X47624Y51143D01*
X45957D01*
X45124Y51976D01*
X80368Y59737D02*
X79535Y60570D01*
X77868D01*
X77035Y59737D01*
Y56405D01*
X77868Y55572D01*
X79535D01*
X80368Y56405D01*
X85366Y55572D02*
X82034D01*
X85366Y58904D01*
Y59737D01*
X84533Y60570D01*
X82867D01*
X82034Y59737D01*
X159449Y15938D02*
X158616Y16771D01*
X156950D01*
X156117Y15938D01*
Y12606D01*
X156950Y11772D01*
X158616D01*
X159449Y12606D01*
X161115Y11772D02*
X162781D01*
X161948D01*
Y16771D01*
X161115Y15938D01*
X284221Y25137D02*
X287553Y20139D01*
Y25137D02*
X284221Y20139D01*
X292551D02*
X289219D01*
X292551Y23471D01*
Y24304D01*
X291718Y25137D01*
X290052D01*
X289219Y24304D01*
X270728Y63523D02*
X274060Y58524D01*
Y63523D02*
X270728Y58524D01*
X275726D02*
X277392D01*
X276559D01*
Y63523D01*
X275726Y62690D01*
X232396Y92558D02*
Y88393D01*
X233229Y87560D01*
X234895D01*
X235728Y88393D01*
Y92558D01*
X237394Y87560D02*
X239061D01*
X238228D01*
Y92558D01*
X237394Y91725D01*
X176482Y28997D02*
Y33995D01*
X178981D01*
X179814Y33162D01*
Y31496D01*
X178981Y30663D01*
X176482D01*
X178148D02*
X179814Y28997D01*
X181480D02*
X183147D01*
X182313D01*
Y33995D01*
X181480Y33162D01*
X185646D02*
X186479Y33995D01*
X188145D01*
X188978Y33162D01*
Y32329D01*
X188145Y31496D01*
X187312D01*
X188145D01*
X188978Y30663D01*
Y29830D01*
X188145Y28997D01*
X186479D01*
X185646Y29830D01*
X230806Y20139D02*
Y25137D01*
X233305D01*
X234138Y24304D01*
Y22638D01*
X233305Y21805D01*
X230806D01*
X232472D02*
X234138Y20139D01*
X235804D02*
X237470D01*
X236637D01*
Y25137D01*
X235804Y24304D01*
X243302Y20139D02*
X239969D01*
X243302Y23471D01*
Y24304D01*
X242468Y25137D01*
X240802D01*
X239969Y24304D01*
X230806Y108721D02*
Y113720D01*
X233305D01*
X234138Y112887D01*
Y111221D01*
X233305Y110387D01*
X230806D01*
X232472D02*
X234138Y108721D01*
X235804D02*
X237470D01*
X236637D01*
Y113720D01*
X235804Y112887D01*
X239969Y108721D02*
X241635D01*
X240802D01*
Y113720D01*
X239969Y112887D01*
X167473Y91005D02*
Y96003D01*
X169972D01*
X170805Y95170D01*
Y93504D01*
X169972Y92671D01*
X167473D01*
X169139D02*
X170805Y91005D01*
X172471D02*
X174137D01*
X173304D01*
Y96003D01*
X172471Y95170D01*
X176636D02*
X177469Y96003D01*
X179135D01*
X179969Y95170D01*
Y91838D01*
X179135Y91005D01*
X177469D01*
X176636Y91838D01*
Y95170D01*
X301445Y76733D02*
Y81731D01*
X303944D01*
X304777Y80898D01*
Y79232D01*
X303944Y78399D01*
X301445D01*
X303111D02*
X304777Y76733D01*
X309776D02*
X306443D01*
X309776Y80065D01*
Y80898D01*
X308943Y81731D01*
X307276D01*
X306443Y80898D01*
X118564Y73288D02*
Y78287D01*
X121063D01*
X121896Y77454D01*
Y75787D01*
X121063Y74954D01*
X118564D01*
X120230D02*
X121896Y73288D01*
X123562D02*
X125228D01*
X124395D01*
Y78287D01*
X123562Y77454D01*
X242731Y10524D02*
X241898Y11357D01*
X240231D01*
X239399Y10524D01*
Y7192D01*
X240231Y6359D01*
X241898D01*
X242731Y7192D01*
X244397Y6359D02*
Y11357D01*
X247729Y6359D01*
Y11357D01*
X249395Y10524D02*
X250228Y11357D01*
X251894D01*
X252728Y10524D01*
Y9691D01*
X251894Y8858D01*
X251061D01*
X251894D01*
X252728Y8025D01*
Y7192D01*
X251894Y6359D01*
X250228D01*
X249395Y7192D01*
X180647Y112887D02*
X179814Y113720D01*
X178148D01*
X177315Y112887D01*
Y109554D01*
X178148Y108721D01*
X179814D01*
X180647Y109554D01*
X185646Y108721D02*
X182313D01*
X185646Y112054D01*
Y112887D01*
X184813Y113720D01*
X183147D01*
X182313Y112887D01*
X187312Y108721D02*
X188978D01*
X188145D01*
Y113720D01*
X187312Y112887D01*
X274727Y33162D02*
X273894Y33995D01*
X272227D01*
X271394Y33162D01*
Y29830D01*
X272227Y28997D01*
X273894D01*
X274727Y29830D01*
X279725Y28997D02*
X276393D01*
X279725Y32329D01*
Y33162D01*
X278892Y33995D01*
X277226D01*
X276393Y33162D01*
X281391D02*
X282224Y33995D01*
X283890D01*
X284723Y33162D01*
Y29830D01*
X283890Y28997D01*
X282224D01*
X281391Y29830D01*
Y33162D01*
X234138D02*
X233305Y33995D01*
X231639D01*
X230806Y33162D01*
Y29830D01*
X231639Y28997D01*
X233305D01*
X234138Y29830D01*
X235804Y28997D02*
X237470D01*
X236637D01*
Y33995D01*
X235804Y33162D01*
X239969Y29830D02*
X240802Y28997D01*
X242468D01*
X243302Y29830D01*
Y33162D01*
X242468Y33995D01*
X240802D01*
X239969Y33162D01*
Y32329D01*
X240802Y31496D01*
X243302D01*
X274643Y15446D02*
X273810Y16279D01*
X272144D01*
X271311Y15446D01*
Y12113D01*
X272144Y11280D01*
X273810D01*
X274643Y12113D01*
X276309Y11280D02*
X277976D01*
X277143D01*
Y16279D01*
X276309Y15446D01*
X280475D02*
X281308Y16279D01*
X282974D01*
X283807Y15446D01*
Y14613D01*
X282974Y13780D01*
X283807Y12946D01*
Y12113D01*
X282974Y11280D01*
X281308D01*
X280475Y12113D01*
Y12946D01*
X281308Y13780D01*
X280475Y14613D01*
Y15446D01*
X281308Y13780D02*
X282974D01*
X273167Y80406D02*
X272334Y81239D01*
X270668D01*
X269835Y80406D01*
Y77074D01*
X270668Y76241D01*
X272334D01*
X273167Y77074D01*
X274833Y76241D02*
X276499D01*
X275666D01*
Y81239D01*
X274833Y80406D01*
X278998Y81239D02*
X282331D01*
Y80406D01*
X278998Y77074D01*
Y76241D01*
X274643Y44973D02*
X273810Y45806D01*
X272144D01*
X271311Y44973D01*
Y41641D01*
X272144Y40808D01*
X273810D01*
X274643Y41641D01*
X276309Y40808D02*
X277976D01*
X277143D01*
Y45806D01*
X276309Y44973D01*
X283807Y45806D02*
X282141Y44973D01*
X280475Y43307D01*
Y41641D01*
X281308Y40808D01*
X282974D01*
X283807Y41641D01*
Y42474D01*
X282974Y43307D01*
X280475D01*
X170805Y68595D02*
X169972Y69428D01*
X168306D01*
X167473Y68595D01*
Y65263D01*
X168306Y64430D01*
X169972D01*
X170805Y65263D01*
X172471Y64430D02*
X174137D01*
X173304D01*
Y69428D01*
X172471Y68595D01*
X179969Y69428D02*
X176636D01*
Y66929D01*
X178302Y67762D01*
X179135D01*
X179969Y66929D01*
Y65263D01*
X179135Y64430D01*
X177469D01*
X176636Y65263D01*
X273167Y95170D02*
X272334Y96003D01*
X270668D01*
X269835Y95170D01*
Y91838D01*
X270668Y91005D01*
X272334D01*
X273167Y91838D01*
X274833Y91005D02*
X276499D01*
X275666D01*
Y96003D01*
X274833Y95170D01*
X281498Y91005D02*
Y96003D01*
X278998Y93504D01*
X282331D01*
X273167Y104028D02*
X272334Y104861D01*
X270668D01*
X269835Y104028D01*
Y100696D01*
X270668Y99863D01*
X272334D01*
X273167Y100696D01*
X274833Y99863D02*
X276499D01*
X275666D01*
Y104861D01*
X274833Y104028D01*
X278998D02*
X279831Y104861D01*
X281498D01*
X282331Y104028D01*
Y103195D01*
X281498Y102362D01*
X280664D01*
X281498D01*
X282331Y101529D01*
Y100696D01*
X281498Y99863D01*
X279831D01*
X278998Y100696D01*
X179814Y104028D02*
X178981Y104861D01*
X177315D01*
X176482Y104028D01*
Y100696D01*
X177315Y99863D01*
X178981D01*
X179814Y100696D01*
X181480Y99863D02*
X183147D01*
X182313D01*
Y104861D01*
X181480Y104028D01*
X188978Y99863D02*
X185646D01*
X188978Y103195D01*
Y104028D01*
X188145Y104861D01*
X186479D01*
X185646Y104028D01*
X234138D02*
X233305Y104861D01*
X231639D01*
X230806Y104028D01*
Y100696D01*
X231639Y99863D01*
X233305D01*
X234138Y100696D01*
X235804Y99863D02*
X237470D01*
X236637D01*
Y104861D01*
X235804Y104028D01*
X239969D02*
X240802Y104861D01*
X242468D01*
X243302Y104028D01*
Y100696D01*
X242468Y99863D01*
X240802D01*
X239969Y100696D01*
Y104028D01*
G54D15*
X297299Y73148D02*
D03*
Y64648D02*
D03*
G54D16*
X98425Y57087D02*
D03*
G54D17*
X63089Y45354D02*
D03*
Y35354D02*
D03*
X63087Y18780D02*
D03*
Y8780D02*
D03*
M02*
