M48
;Layer_Color=9474304
;FILE_FORMAT=2:5
INCH,LZ
;TYPE=PLATED
T1F00S00C0.01600
T2F00S00C0.03600
T3F00S00C0.03937
T5F00S00C0.05118
T6F00S00C0.13780
%
T01
X0127461Y0019685
X0133858
X0374508Y0005413
X038189Y0008366
X0367126Y011565
X0284941Y0108268
X0272638
X0270177Y0083661
X0302165Y00625
X0326772Y0028543
X028248Y0022638
X0252461Y0043307
X0217028Y0050197
X0213583Y0052658
X0206693Y0056102
X0225394Y0063976
X0207677Y0082677
X0205709Y0116142
X0225394Y0117618
X0232283Y0106791
X021309Y0027067
X01875Y0037402
X0169291Y0022638
X0133858Y0031004
X0148622Y0049213
X0143701Y0066929
Y0084646
X0143209Y0093973
X0122539Y0075787
X0118602Y0066929
Y0060532
Y0054134
X0169783Y0072835
T02
X0098425Y0036557
Y0050057
T03
X019063Y0008858
X020063
X021063
X022063
X023063
T05
X004685Y0074803
Y0122047
X0094882
X0102756Y0098425
X0094882Y0074803
X0009843Y007874
Y0098425
Y011811
T06
X0098425Y0011811
X0322835Y0122047
M30
