G04*
G04 #@! TF.GenerationSoftware,Altium Limited,Altium Designer,22.8.2 (66)*
G04*
G04 Layer_Color=2752767*
%FSLAX25Y25*%
%MOIN*%
G70*
G04*
G04 #@! TF.SameCoordinates,C3FD66B6-40D4-4EF1-9346-9CEE37E5CDB1*
G04*
G04*
G04 #@! TF.FilePolarity,Positive*
G04*
G01*
G75*
%ADD92C,0.00267*%
%ADD93C,0.00200*%
G54D92*
X811824Y-12795D02*
X811271Y-12034D01*
X810376Y-12325D01*
Y-13265D01*
X811271Y-13556D01*
X811824Y-12795D01*
X20485D02*
X19932Y-12034D01*
X19038Y-12325D01*
Y-13265D01*
X19932Y-13556D01*
X20485Y-12795D01*
G54D93*
X831877Y188176D02*
Y189776D01*
X833477D01*
Y188176D01*
X831877D01*
Y148806D02*
Y150406D01*
X833477D01*
Y148806D01*
X831877D01*
Y168491D02*
Y170091D01*
X833477D01*
Y168491D01*
X831877D01*
X738964Y168491D02*
Y170091D01*
X740564D01*
Y168491D01*
X738964D01*
X794869Y144869D02*
Y146469D01*
X796469D01*
Y144869D01*
X794869D01*
Y192113D02*
Y193713D01*
X796469D01*
Y192113D01*
X794869D01*
X746838Y144869D02*
Y146469D01*
X748438D01*
Y144869D01*
X746838D01*
Y192113D02*
Y193713D01*
X748438D01*
Y192113D01*
X746838D01*
X744095Y230360D02*
X743294Y231960D01*
X744895D01*
X744095Y230360D01*
Y216860D02*
X743294Y218460D01*
X744895D01*
X744095Y216860D01*
X811516Y241523D02*
X811916Y241923D01*
X812316D01*
X811916Y242323D01*
X812316Y242723D01*
X811916D01*
X811516Y243123D01*
X811116Y242723D01*
X810716D01*
X811116Y242323D01*
X810716Y241923D01*
X811116D01*
X811516Y241523D01*
X834338D02*
X834738Y242323D01*
X834338Y243123D01*
X835138Y242723D01*
X835938Y243123D01*
X835538Y242323D01*
X835938Y241523D01*
X835138Y241923D01*
X834338Y241523D01*
X822527Y260027D02*
X822927Y260827D01*
X822527Y261627D01*
X823327Y261227D01*
X824127Y261627D01*
X823727Y260827D01*
X824127Y260027D01*
X823327Y260427D01*
X822527Y260027D01*
X641490Y258458D02*
Y258058D01*
X642290D01*
Y258458D01*
X642690D01*
Y259258D01*
X642290D01*
Y259658D01*
X641490D01*
Y259258D01*
X641090D01*
Y258458D01*
X641490D01*
X631490D02*
Y258058D01*
X632290D01*
Y258458D01*
X632690D01*
Y259258D01*
X632290D01*
Y259658D01*
X631490D01*
Y259258D01*
X631090D01*
Y258458D01*
X631490D01*
X621490D02*
Y258058D01*
X622290D01*
Y258458D01*
X622690D01*
Y259258D01*
X622290D01*
Y259658D01*
X621490D01*
Y259258D01*
X621090D01*
Y258458D01*
X621490D01*
X611490D02*
Y258058D01*
X612290D01*
Y258458D01*
X612690D01*
Y259258D01*
X612290D01*
Y259658D01*
X611490D01*
Y259258D01*
X611090D01*
Y258458D01*
X611490D01*
X651490D02*
Y258058D01*
X652290D01*
Y258458D01*
X652690D01*
Y259258D01*
X652290D01*
Y259658D01*
X651490D01*
Y259258D01*
X651090D01*
Y258458D01*
X651490D01*
X518885Y144869D02*
X519285D01*
X519685Y145269D01*
X520085Y144869D01*
X520485D01*
Y145269D01*
X520085Y145669D01*
X520485Y146069D01*
Y146469D01*
X520085D01*
X519685Y146069D01*
X519285Y146469D01*
X518885D01*
Y146069D01*
X519285Y145669D01*
X518885Y145269D01*
Y144869D01*
X743294Y255105D02*
X743694D01*
X744095Y255505D01*
X744494Y255105D01*
X744895D01*
Y255505D01*
X744494Y255906D01*
X744895Y256306D01*
Y256705D01*
X744494D01*
X744095Y256306D01*
X743694Y256705D01*
X743294D01*
Y256306D01*
X743694Y255906D01*
X743294Y255505D01*
Y255105D01*
X723117Y207185D02*
X723917Y207985D01*
X724717Y207185D01*
X723917Y206385D01*
X723117Y207185D01*
Y213583D02*
X723917Y214383D01*
X724717Y213583D01*
X723917Y212783D01*
X723117Y213583D01*
X539554Y205217D02*
X540354Y206016D01*
X541154Y205217D01*
X540354Y204416D01*
X539554Y205217D01*
X609436Y160925D02*
X610236Y161725D01*
X611036Y160925D01*
X610236Y160125D01*
X609436Y160925D01*
X628629Y240650D02*
X629429Y241450D01*
X630229Y240650D01*
X629429Y239850D01*
X628629Y240650D01*
X707861Y248031D02*
X708661Y248832D01*
X709461Y248031D01*
X708661Y247232D01*
X707861Y248031D01*
X467212Y262303D02*
X468012Y263103D01*
X468812Y262303D01*
X468012Y261503D01*
X467212Y262303D01*
X474594Y152067D02*
X475394Y152867D01*
X476194Y152067D01*
X475394Y151267D01*
X474594Y152067D01*
X571543Y184055D02*
X572342Y184855D01*
X573142Y184055D01*
X572342Y183255D01*
X571543Y184055D01*
X672428Y245079D02*
X673228Y245879D01*
X674028Y245079D01*
X673228Y244279D01*
X672428Y245079D01*
X693098Y218504D02*
X693898Y219304D01*
X694698Y218504D01*
X693898Y217704D01*
X693098Y218504D01*
X636011Y151575D02*
X636811Y152375D01*
X637611Y151575D01*
X636811Y150775D01*
X636011Y151575D01*
X589259Y224410D02*
X590059Y225209D01*
X590859Y224410D01*
X590059Y223609D01*
X589259Y224410D01*
X635027Y211614D02*
X635827Y212414D01*
X636627Y211614D01*
X635827Y210814D01*
X635027Y211614D01*
X616326Y150098D02*
X617126Y150898D01*
X617926Y150098D01*
X617126Y149298D01*
X616326Y150098D01*
Y203740D02*
X617126Y204540D01*
X617926Y203740D01*
X617126Y202940D01*
X616326Y203740D01*
X654220Y230315D02*
X655020Y231115D01*
X655820Y230315D01*
X655020Y229515D01*
X654220Y230315D01*
X556779Y159449D02*
X557579Y160249D01*
X558379Y159449D01*
X557579Y158649D01*
X556779Y159449D01*
X569082D02*
X569882Y160249D01*
X570682Y159449D01*
X569882Y158649D01*
X569082Y159449D01*
X671936Y194882D02*
X672736Y195682D01*
X673536Y194882D01*
X672736Y194082D01*
X671936Y194882D01*
X628137Y215059D02*
X628937Y215859D01*
X629737Y215059D01*
X628937Y214259D01*
X628137Y215059D01*
X514948Y239173D02*
X515748Y239973D01*
X516548Y239173D01*
X515748Y238373D01*
X514948Y239173D01*
X698511Y173744D02*
X699311Y174544D01*
X700111Y173744D01*
X699311Y172944D01*
X698511Y173744D01*
X624692Y217520D02*
X625492Y218320D01*
X626292Y217520D01*
X625492Y216720D01*
X624692Y217520D01*
X698019Y183071D02*
X698819Y183871D01*
X699619Y183071D01*
X698819Y182271D01*
X698019Y183071D01*
Y200787D02*
X698819Y201587D01*
X699619Y200787D01*
X698819Y199987D01*
X698019Y200787D01*
X723117D02*
X723917Y201587D01*
X724717Y200787D01*
X723917Y199987D01*
X723117Y200787D01*
X719180Y191929D02*
X719980Y192729D01*
X720780Y191929D01*
X719980Y191129D01*
X719180Y191929D01*
X459830Y259350D02*
X460630Y260150D01*
X461430Y259350D01*
X460630Y258550D01*
X459830Y259350D01*
X634043Y185039D02*
X634842Y185839D01*
X635642Y185039D01*
X634842Y184239D01*
X634043Y185039D01*
X714259Y248031D02*
X715059Y248832D01*
X715859Y248031D01*
X715059Y247232D01*
X714259Y248031D01*
X707861Y236713D02*
X708661Y237513D01*
X709461Y236713D01*
X708661Y235913D01*
X707861Y236713D01*
X559239Y245079D02*
X560039Y245879D01*
X560839Y245079D01*
X560039Y244279D01*
X559239Y245079D01*
X831877Y54318D02*
Y55918D01*
X833477D01*
Y54318D01*
X831877D01*
Y14948D02*
Y16548D01*
X833477D01*
Y14948D01*
X831877D01*
Y34633D02*
Y36233D01*
X833477D01*
Y34633D01*
X831877D01*
X738964Y34633D02*
Y36233D01*
X740564D01*
Y34633D01*
X738964D01*
X794869Y11011D02*
Y12611D01*
X796469D01*
Y11011D01*
X794869D01*
Y58255D02*
Y59855D01*
X796469D01*
Y58255D01*
X794869D01*
X746838Y11011D02*
Y12611D01*
X748438D01*
Y11011D01*
X746838D01*
Y58255D02*
Y59855D01*
X748438D01*
Y58255D01*
X746838D01*
X744095Y96501D02*
X743294Y98101D01*
X744895D01*
X744095Y96501D01*
Y83001D02*
X743294Y84601D01*
X744895D01*
X744095Y83001D01*
X811516Y107665D02*
X811916Y108065D01*
X812316D01*
X811916Y108465D01*
X812316Y108865D01*
X811916D01*
X811516Y109265D01*
X811116Y108865D01*
X810716D01*
X811116Y108465D01*
X810716Y108065D01*
X811116D01*
X811516Y107665D01*
X834338D02*
X834738Y108465D01*
X834338Y109265D01*
X835138Y108865D01*
X835938Y109265D01*
X835538Y108465D01*
X835938Y107665D01*
X835138Y108065D01*
X834338Y107665D01*
X822527Y126169D02*
X822927Y126969D01*
X822527Y127769D01*
X823327Y127368D01*
X824127Y127769D01*
X823727Y126969D01*
X824127Y126169D01*
X823327Y126568D01*
X822527Y126169D01*
X641490Y124600D02*
Y124200D01*
X642290D01*
Y124600D01*
X642690D01*
Y125400D01*
X642290D01*
Y125800D01*
X641490D01*
Y125400D01*
X641090D01*
Y124600D01*
X641490D01*
X631490D02*
Y124200D01*
X632290D01*
Y124600D01*
X632690D01*
Y125400D01*
X632290D01*
Y125800D01*
X631490D01*
Y125400D01*
X631090D01*
Y124600D01*
X631490D01*
X621490D02*
Y124200D01*
X622290D01*
Y124600D01*
X622690D01*
Y125400D01*
X622290D01*
Y125800D01*
X621490D01*
Y125400D01*
X621090D01*
Y124600D01*
X621490D01*
X611490D02*
Y124200D01*
X612290D01*
Y124600D01*
X612690D01*
Y125400D01*
X612290D01*
Y125800D01*
X611490D01*
Y125400D01*
X611090D01*
Y124600D01*
X611490D01*
X651490D02*
Y124200D01*
X652290D01*
Y124600D01*
X652690D01*
Y125400D01*
X652290D01*
Y125800D01*
X651490D01*
Y125400D01*
X651090D01*
Y124600D01*
X651490D01*
X518885Y11011D02*
X519285D01*
X519685Y11411D01*
X520085Y11011D01*
X520485D01*
Y11411D01*
X520085Y11811D01*
X520485Y12211D01*
Y12611D01*
X520085D01*
X519685Y12211D01*
X519285Y12611D01*
X518885D01*
Y12211D01*
X519285Y11811D01*
X518885Y11411D01*
Y11011D01*
X743294Y121247D02*
X743694D01*
X744095Y121647D01*
X744494Y121247D01*
X744895D01*
Y121647D01*
X744494Y122047D01*
X744895Y122447D01*
Y122847D01*
X744494D01*
X744095Y122447D01*
X743694Y122847D01*
X743294D01*
Y122447D01*
X743694Y122047D01*
X743294Y121647D01*
Y121247D01*
X723117Y73327D02*
X723917Y74127D01*
X724717Y73327D01*
X723917Y72527D01*
X723117Y73327D01*
Y79724D02*
X723917Y80524D01*
X724717Y79724D01*
X723917Y78924D01*
X723117Y79724D01*
X539554Y71358D02*
X540354Y72158D01*
X541154Y71358D01*
X540354Y70558D01*
X539554Y71358D01*
X609436Y27067D02*
X610236Y27867D01*
X611036Y27067D01*
X610236Y26267D01*
X609436Y27067D01*
X628629Y106791D02*
X629429Y107591D01*
X630229Y106791D01*
X629429Y105991D01*
X628629Y106791D01*
X707861Y114173D02*
X708661Y114973D01*
X709461Y114173D01*
X708661Y113373D01*
X707861Y114173D01*
X467212Y128445D02*
X468012Y129245D01*
X468812Y128445D01*
X468012Y127645D01*
X467212Y128445D01*
X474594Y18209D02*
X475394Y19009D01*
X476194Y18209D01*
X475394Y17409D01*
X474594Y18209D01*
X571543Y50197D02*
X572342Y50997D01*
X573142Y50197D01*
X572342Y49397D01*
X571543Y50197D01*
X672428Y111221D02*
X673228Y112021D01*
X674028Y111221D01*
X673228Y110421D01*
X672428Y111221D01*
X693098Y84646D02*
X693898Y85446D01*
X694698Y84646D01*
X693898Y83846D01*
X693098Y84646D01*
X636011Y17717D02*
X636811Y18517D01*
X637611Y17717D01*
X636811Y16917D01*
X636011Y17717D01*
X589259Y90551D02*
X590059Y91351D01*
X590859Y90551D01*
X590059Y89751D01*
X589259Y90551D01*
X635027Y77756D02*
X635827Y78556D01*
X636627Y77756D01*
X635827Y76956D01*
X635027Y77756D01*
X616326Y16240D02*
X617126Y17040D01*
X617926Y16240D01*
X617126Y15440D01*
X616326Y16240D01*
Y69882D02*
X617126Y70682D01*
X617926Y69882D01*
X617126Y69082D01*
X616326Y69882D01*
X654220Y96457D02*
X655020Y97257D01*
X655820Y96457D01*
X655020Y95657D01*
X654220Y96457D01*
X556779Y25591D02*
X557579Y26391D01*
X558379Y25591D01*
X557579Y24791D01*
X556779Y25591D01*
X569082D02*
X569882Y26391D01*
X570682Y25591D01*
X569882Y24791D01*
X569082Y25591D01*
X671936Y61024D02*
X672736Y61824D01*
X673536Y61024D01*
X672736Y60224D01*
X671936Y61024D01*
X628137Y81201D02*
X628937Y82001D01*
X629737Y81201D01*
X628937Y80401D01*
X628137Y81201D01*
X514948Y105315D02*
X515748Y106115D01*
X516548Y105315D01*
X515748Y104515D01*
X514948Y105315D01*
X698511Y39886D02*
X699311Y40686D01*
X700111Y39886D01*
X699311Y39086D01*
X698511Y39886D01*
X624692Y83661D02*
X625492Y84461D01*
X626292Y83661D01*
X625492Y82861D01*
X624692Y83661D01*
X698019Y49213D02*
X698819Y50013D01*
X699619Y49213D01*
X698819Y48413D01*
X698019Y49213D01*
Y66929D02*
X698819Y67729D01*
X699619Y66929D01*
X698819Y66129D01*
X698019Y66929D01*
X723117D02*
X723917Y67729D01*
X724717Y66929D01*
X723917Y66129D01*
X723117Y66929D01*
X719180Y58071D02*
X719980Y58871D01*
X720780Y58071D01*
X719980Y57271D01*
X719180Y58071D01*
X459830Y125492D02*
X460630Y126292D01*
X461430Y125492D01*
X460630Y124692D01*
X459830Y125492D01*
X634043Y51181D02*
X634842Y51981D01*
X635642Y51181D01*
X634842Y50381D01*
X634043Y51181D01*
X714259Y114173D02*
X715059Y114973D01*
X715859Y114173D01*
X715059Y113373D01*
X714259Y114173D01*
X707861Y102854D02*
X708661Y103654D01*
X709461Y102854D01*
X708661Y102054D01*
X707861Y102854D01*
X559239Y111221D02*
X560039Y112021D01*
X560839Y111221D01*
X560039Y110421D01*
X559239Y111221D01*
X9042Y77940D02*
Y79540D01*
X10643D01*
Y77940D01*
X9042D01*
Y117310D02*
Y118910D01*
X10643D01*
Y117310D01*
X9042D01*
Y97625D02*
Y99225D01*
X10643D01*
Y97625D01*
X9042D01*
X101956Y97625D02*
Y99225D01*
X103556D01*
Y97625D01*
X101956D01*
X46050Y121247D02*
Y122847D01*
X47650D01*
Y121247D01*
X46050D01*
Y74003D02*
Y75603D01*
X47650D01*
Y74003D01*
X46050D01*
X94082Y121247D02*
Y122847D01*
X95682D01*
Y121247D01*
X94082D01*
Y74003D02*
Y75603D01*
X95682D01*
Y74003D01*
X94082D01*
X98425Y35757D02*
X97625Y37357D01*
X99225D01*
X98425Y35757D01*
Y49257D02*
X97625Y50857D01*
X99225D01*
X98425Y49257D01*
X31004Y24594D02*
X31404Y24994D01*
X31804D01*
X31404Y25394D01*
X31804Y25794D01*
X31404D01*
X31004Y26194D01*
X30604Y25794D01*
X30204D01*
X30604Y25394D01*
X30204Y24994D01*
X30604D01*
X31004Y24594D01*
X6582D02*
X6982Y25394D01*
X6582Y26194D01*
X7382Y25794D01*
X8182Y26194D01*
X7782Y25394D01*
X8182Y24594D01*
X7382Y24994D01*
X6582Y24594D01*
X18393Y6090D02*
X18793Y6890D01*
X18393Y7690D01*
X19193Y7290D01*
X19993Y7690D01*
X19593Y6890D01*
X19993Y6090D01*
X19193Y6490D01*
X18393Y6090D01*
X200230Y8458D02*
Y8058D01*
X201030D01*
Y8458D01*
X201430D01*
Y9258D01*
X201030D01*
Y9658D01*
X200230D01*
Y9258D01*
X199830D01*
Y8458D01*
X200230D01*
X210230D02*
Y8058D01*
X211030D01*
Y8458D01*
X211430D01*
Y9258D01*
X211030D01*
Y9658D01*
X210230D01*
Y9258D01*
X209830D01*
Y8458D01*
X210230D01*
X220230D02*
Y8058D01*
X221030D01*
Y8458D01*
X221430D01*
Y9258D01*
X221030D01*
Y9658D01*
X220230D01*
Y9258D01*
X219830D01*
Y8458D01*
X220230D01*
X230230D02*
Y8058D01*
X231030D01*
Y8458D01*
X231430D01*
Y9258D01*
X231030D01*
Y9658D01*
X230230D01*
Y9258D01*
X229830D01*
Y8458D01*
X230230D01*
X190230D02*
Y8058D01*
X191030D01*
Y8458D01*
X191430D01*
Y9258D01*
X191030D01*
Y9658D01*
X190230D01*
Y9258D01*
X189830D01*
Y8458D01*
X190230D01*
X322035Y121247D02*
X322435D01*
X322835Y121647D01*
X323235Y121247D01*
X323635D01*
Y121647D01*
X323235Y122047D01*
X323635Y122447D01*
Y122847D01*
X323235D01*
X322835Y122447D01*
X322435Y122847D01*
X322035D01*
Y122447D01*
X322435Y122047D01*
X322035Y121647D01*
Y121247D01*
X97625Y11011D02*
X98025D01*
X98425Y11411D01*
X98825Y11011D01*
X99225D01*
Y11411D01*
X98825Y11811D01*
X99225Y12211D01*
Y12611D01*
X98825D01*
X98425Y12211D01*
X98025Y12611D01*
X97625D01*
Y12211D01*
X98025Y11811D01*
X97625Y11411D01*
Y11011D01*
X117802Y60532D02*
X118602Y61331D01*
X119402Y60532D01*
X118602Y59732D01*
X117802Y60532D01*
Y54134D02*
X118602Y54934D01*
X119402Y54134D01*
X118602Y53334D01*
X117802Y54134D01*
X301365Y62500D02*
X302165Y63300D01*
X302965Y62500D01*
X302165Y61700D01*
X301365Y62500D01*
X231484Y106791D02*
X232283Y107591D01*
X233084Y106791D01*
X232283Y105991D01*
X231484Y106791D01*
X212291Y27067D02*
X213090Y27867D01*
X213891Y27067D01*
X213090Y26267D01*
X212291Y27067D01*
X133058Y19685D02*
X133858Y20485D01*
X134658Y19685D01*
X133858Y18885D01*
X133058Y19685D01*
X373708Y5413D02*
X374508Y6213D01*
X375308Y5413D01*
X374508Y4613D01*
X373708Y5413D01*
X366326Y115650D02*
X367126Y116450D01*
X367926Y115650D01*
X367126Y114850D01*
X366326Y115650D01*
X269377Y83661D02*
X270177Y84461D01*
X270977Y83661D01*
X270177Y82861D01*
X269377Y83661D01*
X168491Y22638D02*
X169291Y23438D01*
X170091Y22638D01*
X169291Y21838D01*
X168491Y22638D01*
X147822Y49213D02*
X148622Y50013D01*
X149422Y49213D01*
X148622Y48413D01*
X147822Y49213D01*
X204909Y116142D02*
X205709Y116942D01*
X206509Y116142D01*
X205709Y115342D01*
X204909Y116142D01*
X251661Y43307D02*
X252461Y44107D01*
X253261Y43307D01*
X252461Y42507D01*
X251661Y43307D01*
X205893Y56102D02*
X206693Y56902D01*
X207493Y56102D01*
X206693Y55302D01*
X205893Y56102D01*
X224594Y117618D02*
X225394Y118418D01*
X226194Y117618D01*
X225394Y116818D01*
X224594Y117618D01*
Y63976D02*
X225394Y64776D01*
X226194Y63976D01*
X225394Y63176D01*
X224594Y63976D01*
X186700Y37402D02*
X187500Y38202D01*
X188300Y37402D01*
X187500Y36602D01*
X186700Y37402D01*
X284141Y108268D02*
X284941Y109068D01*
X285741Y108268D01*
X284941Y107468D01*
X284141Y108268D01*
X271838D02*
X272638Y109068D01*
X273438Y108268D01*
X272638Y107468D01*
X271838Y108268D01*
X168983Y72835D02*
X169783Y73635D01*
X170583Y72835D01*
X169783Y72035D01*
X168983Y72835D01*
X212783Y52658D02*
X213583Y53457D01*
X214383Y52658D01*
X213583Y51858D01*
X212783Y52658D01*
X325972Y28543D02*
X326772Y29343D01*
X327572Y28543D01*
X326772Y27743D01*
X325972Y28543D01*
X142409Y93973D02*
X143209Y94773D01*
X144009Y93973D01*
X143209Y93173D01*
X142409Y93973D01*
X216228Y50197D02*
X217028Y50997D01*
X217828Y50197D01*
X217028Y49397D01*
X216228Y50197D01*
X142901Y84646D02*
X143701Y85446D01*
X144501Y84646D01*
X143701Y83846D01*
X142901Y84646D01*
Y66929D02*
X143701Y67729D01*
X144501Y66929D01*
X143701Y66129D01*
X142901Y66929D01*
X117802D02*
X118602Y67729D01*
X119402Y66929D01*
X118602Y66129D01*
X117802Y66929D01*
X121739Y75787D02*
X122539Y76587D01*
X123339Y75787D01*
X122539Y74987D01*
X121739Y75787D01*
X381090Y8366D02*
X381890Y9166D01*
X382690Y8366D01*
X381890Y7566D01*
X381090Y8366D01*
X206877Y82677D02*
X207677Y83477D01*
X208477Y82677D01*
X207677Y81877D01*
X206877Y82677D01*
X126661Y19685D02*
X127461Y20485D01*
X128261Y19685D01*
X127461Y18885D01*
X126661Y19685D01*
X133058Y31004D02*
X133858Y31804D01*
X134658Y31004D01*
X133858Y30204D01*
X133058Y31004D01*
X281680Y22638D02*
X282480Y23438D01*
X283280Y22638D01*
X282480Y21838D01*
X281680Y22638D01*
X9042Y211798D02*
Y213398D01*
X10643D01*
Y211798D01*
X9042D01*
Y251168D02*
Y252768D01*
X10643D01*
Y251168D01*
X9042D01*
Y231484D02*
Y233084D01*
X10643D01*
Y231484D01*
X9042D01*
X101956Y231483D02*
Y233083D01*
X103556D01*
Y231483D01*
X101956D01*
X46050Y255106D02*
Y256706D01*
X47650D01*
Y255106D01*
X46050D01*
Y207861D02*
Y209461D01*
X47650D01*
Y207861D01*
X46050D01*
X94082Y255106D02*
Y256706D01*
X95682D01*
Y255106D01*
X94082D01*
Y207861D02*
Y209461D01*
X95682D01*
Y207861D01*
X94082D01*
X98425Y169615D02*
X97625Y171215D01*
X99225D01*
X98425Y169615D01*
Y183115D02*
X97625Y184715D01*
X99225D01*
X98425Y183115D01*
X31004Y158452D02*
X31404Y158852D01*
X31804D01*
X31404Y159252D01*
X31804Y159652D01*
X31404D01*
X31004Y160052D01*
X30604Y159652D01*
X30204D01*
X30604Y159252D01*
X30204Y158852D01*
X30604D01*
X31004Y158452D01*
X6582D02*
X6982Y159252D01*
X6582Y160052D01*
X7382Y159652D01*
X8182Y160052D01*
X7782Y159252D01*
X8182Y158452D01*
X7382Y158852D01*
X6582Y158452D01*
X18393Y139948D02*
X18793Y140748D01*
X18393Y141548D01*
X19193Y141148D01*
X19993Y141548D01*
X19593Y140748D01*
X19993Y139948D01*
X19193Y140348D01*
X18393Y139948D01*
X200230Y142316D02*
Y141917D01*
X201030D01*
Y142316D01*
X201430D01*
Y143116D01*
X201030D01*
Y143517D01*
X200230D01*
Y143116D01*
X199830D01*
Y142316D01*
X200230D01*
X210230D02*
Y141917D01*
X211030D01*
Y142316D01*
X211430D01*
Y143116D01*
X211030D01*
Y143517D01*
X210230D01*
Y143116D01*
X209830D01*
Y142316D01*
X210230D01*
X220230D02*
Y141917D01*
X221030D01*
Y142316D01*
X221430D01*
Y143116D01*
X221030D01*
Y143517D01*
X220230D01*
Y143116D01*
X219830D01*
Y142316D01*
X220230D01*
X230230D02*
Y141917D01*
X231030D01*
Y142316D01*
X231430D01*
Y143116D01*
X231030D01*
Y143517D01*
X230230D01*
Y143116D01*
X229830D01*
Y142316D01*
X230230D01*
X190230D02*
Y141917D01*
X191030D01*
Y142316D01*
X191430D01*
Y143116D01*
X191030D01*
Y143517D01*
X190230D01*
Y143116D01*
X189830D01*
Y142316D01*
X190230D01*
X322035Y255105D02*
X322435D01*
X322835Y255505D01*
X323235Y255105D01*
X323635D01*
Y255505D01*
X323235Y255906D01*
X323635Y256306D01*
Y256705D01*
X323235D01*
X322835Y256306D01*
X322435Y256705D01*
X322035D01*
Y256306D01*
X322435Y255906D01*
X322035Y255505D01*
Y255105D01*
X97625Y144869D02*
X98025D01*
X98425Y145269D01*
X98825Y144869D01*
X99225D01*
Y145269D01*
X98825Y145669D01*
X99225Y146069D01*
Y146469D01*
X98825D01*
X98425Y146069D01*
X98025Y146469D01*
X97625D01*
Y146069D01*
X98025Y145669D01*
X97625Y145269D01*
Y144869D01*
X117802Y194390D02*
X118602Y195190D01*
X119402Y194390D01*
X118602Y193590D01*
X117802Y194390D01*
Y187992D02*
X118602Y188792D01*
X119402Y187992D01*
X118602Y187192D01*
X117802Y187992D01*
X301365Y196358D02*
X302165Y197158D01*
X302965Y196358D01*
X302165Y195558D01*
X301365Y196358D01*
X231484Y240650D02*
X232283Y241450D01*
X233084Y240650D01*
X232283Y239850D01*
X231484Y240650D01*
X212291Y160925D02*
X213090Y161725D01*
X213891Y160925D01*
X213090Y160125D01*
X212291Y160925D01*
X133058Y153543D02*
X133858Y154343D01*
X134658Y153543D01*
X133858Y152743D01*
X133058Y153543D01*
X373708Y139272D02*
X374508Y140072D01*
X375308Y139272D01*
X374508Y138472D01*
X373708Y139272D01*
X366326Y249508D02*
X367126Y250308D01*
X367926Y249508D01*
X367126Y248708D01*
X366326Y249508D01*
X269377Y217520D02*
X270177Y218320D01*
X270977Y217520D01*
X270177Y216720D01*
X269377Y217520D01*
X168491Y156496D02*
X169291Y157296D01*
X170091Y156496D01*
X169291Y155696D01*
X168491Y156496D01*
X147822Y183071D02*
X148622Y183871D01*
X149422Y183071D01*
X148622Y182271D01*
X147822Y183071D01*
X204909Y250000D02*
X205709Y250800D01*
X206509Y250000D01*
X205709Y249200D01*
X204909Y250000D01*
X251661Y177165D02*
X252461Y177965D01*
X253261Y177165D01*
X252461Y176365D01*
X251661Y177165D01*
X205893Y189961D02*
X206693Y190761D01*
X207493Y189961D01*
X206693Y189161D01*
X205893Y189961D01*
X224594Y251476D02*
X225394Y252276D01*
X226194Y251476D01*
X225394Y250676D01*
X224594Y251476D01*
Y197835D02*
X225394Y198635D01*
X226194Y197835D01*
X225394Y197035D01*
X224594Y197835D01*
X186700Y171260D02*
X187500Y172060D01*
X188300Y171260D01*
X187500Y170460D01*
X186700Y171260D01*
X284141Y242126D02*
X284941Y242926D01*
X285741Y242126D01*
X284941Y241326D01*
X284141Y242126D01*
X271838D02*
X272638Y242926D01*
X273438Y242126D01*
X272638Y241326D01*
X271838Y242126D01*
X168983Y206693D02*
X169783Y207493D01*
X170583Y206693D01*
X169783Y205893D01*
X168983Y206693D01*
X212783Y186516D02*
X213583Y187316D01*
X214383Y186516D01*
X213583Y185716D01*
X212783Y186516D01*
X325972Y162402D02*
X326772Y163202D01*
X327572Y162402D01*
X326772Y161602D01*
X325972Y162402D01*
X142409Y227831D02*
X143209Y228631D01*
X144009Y227831D01*
X143209Y227031D01*
X142409Y227831D01*
X216228Y184055D02*
X217028Y184855D01*
X217828Y184055D01*
X217028Y183255D01*
X216228Y184055D01*
X142901Y218504D02*
X143701Y219304D01*
X144501Y218504D01*
X143701Y217704D01*
X142901Y218504D01*
Y200787D02*
X143701Y201587D01*
X144501Y200787D01*
X143701Y199987D01*
X142901Y200787D01*
X117802D02*
X118602Y201587D01*
X119402Y200787D01*
X118602Y199987D01*
X117802Y200787D01*
X121739Y209646D02*
X122539Y210446D01*
X123339Y209646D01*
X122539Y208846D01*
X121739Y209646D01*
X381090Y142224D02*
X381890Y143024D01*
X382690Y142224D01*
X381890Y141424D01*
X381090Y142224D01*
X206877Y216535D02*
X207677Y217335D01*
X208477Y216535D01*
X207677Y215735D01*
X206877Y216535D01*
X126661Y153543D02*
X127461Y154343D01*
X128261Y153543D01*
X127461Y152743D01*
X126661Y153543D01*
X133058Y164862D02*
X133858Y165662D01*
X134658Y164862D01*
X133858Y164062D01*
X133058Y164862D01*
X281680Y156496D02*
X282480Y157296D01*
X283280Y156496D01*
X282480Y155696D01*
X281680Y156496D01*
M02*
