M48
;Layer_Color=9474304
;FILE_FORMAT=2:5
INCH,LZ
;TYPE=PLATED
T4F00S00C0.03937
%
G90
G05
T04
G00X002313Y000689
M15
G01X0015256
M16
G00X0811516Y0113386
M15
G01Y0103543
M16
G00X0835138Y0112402
M15
G01Y0104528
M16
G00X081939Y0126969
M15
G01X0827264
M16
G00X002313Y0140748
M15
G01X0015256
M16
G00X0031004Y0154331
M15
G01Y0164173
M16
G00X0007382Y0155315
M15
G01Y0163189
M16
G00X0007382Y0021457
M15
G01Y0029331
M16
G00X0031004Y0020472
M15
G01Y0030315
M16
G00X0811516Y0247244
M15
G01Y0237402
M16
G00X0835138Y024626
M15
G01Y0238386
M16
G00X081939Y0260827
M15
G01X0827264
M16
M17
M30
