M48
;Layer_Color=9474304
;FILE_FORMAT=2:5
INCH,LZ
;TYPE=PLATED
T1F00S00C0.01600
T2F00S00C0.03600
T3F00S00C0.03937
T5F00S00C0.05118
T6F00S00C0.13780
T7F00S00C0.15748
%
T01
X0374508Y0005413
X038189Y0008366
X0617126Y001624
X0636811Y0017717
X0634842Y0051181
X0635827Y0077756
X0628937Y0081201
X0625492Y0083661
X0617126Y0069882
X0629429Y0106791
X065502Y0096457
X0673228Y0111221
X0708661Y0114173
X0715059
X0708661Y0102854
X0693898Y0084646
X0698819Y0066929
Y0049213
X0699311Y0039886
X071998Y0058071
X0723917Y0066929
Y0073327
Y0079724
X0672736Y0061024
X0610236Y0027067
X0617126Y0150098
X0610236Y0160925
X0636811Y0151575
X0699311Y0173744
X0569882Y0159449
X0557579
X0560039Y0111221
X0515748Y0105315
X0540354Y0071358
X0572342Y0050197
X0569882Y0025591
X0557579
X0475394Y0018209
X0468012Y0128445
X046063Y0125492
X0475394Y0152067
X0590059Y0090551
X0367126Y011565
X0374508Y0139272
X038189Y0142224
X0326772Y0162402
X0302165Y00625
X0326772Y0028543
X028248Y0022638
X0252461Y0043307
X0217028Y0050197
X0213583Y0052658
X0206693Y0056102
X0225394Y0063976
X0207677Y0082677
X0205709Y0116142
X0225394Y0117618
X0232283Y0106791
X0272638Y0108268
X0284941
X0270177Y0083661
X028248Y0156496
X021309Y0160925
X01875Y017126
X0169291Y0156496
X0169783Y0072835
X0143701Y0066929
Y0084646
X0143209Y0093973
X0148622Y0049213
X0169291Y0022638
X01875Y0037402
X021309Y0027067
X0133858Y0031004
Y0019685
X0127461
X0118602Y0054134
Y0060532
Y0066929
X0122539Y0075787
X0127461Y0153543
X0133858
Y0164862
X0118602Y0187992
Y019439
Y0200787
X0122539Y0209646
X0143701Y0218504
X0143209Y0227831
X0143701Y0200787
X0148622Y0183071
X0169783Y0206693
X0207677Y0216535
X0206693Y0189961
X0213583Y0186516
X0217028Y0184055
X0225394Y0197835
X0252461Y0177165
X0270177Y021752
X0272638Y0242126
X0284941
X0232283Y024065
X0225394Y0251476
X0205709Y025
X0302165Y0196358
X0367126Y0249508
X046063Y025935
X0468012Y0262303
X0515748Y0239173
X0560039Y0245079
X0590059Y022441
X0572342Y0184055
X0540354Y0205217
X0617126Y020374
X0625492Y021752
X0628937Y0215059
X0635827Y0211614
X0634842Y0185039
X0672736Y0194882
X0698819Y0200787
Y0183071
X071998Y0191929
X0723917Y0200787
Y0207185
Y0213583
X0693898Y0218504
X0708661Y0236713
Y0248031
X0715059
X0673228Y0245079
X065502Y0230315
X0629429Y024065
T02
X0744095Y0083801
Y0097301
X0098425Y0050057
Y0036557
Y0170415
Y0183915
X0744095Y0217659
Y0231159
T03
X019063Y0008858
X020063
X021063
X022063
X023063
X061189Y0125
X062189
X063189
X064189
X065189
X023063Y0142717
X022063
X021063
X020063
X019063
X061189Y0258858
X062189
X063189
X064189
X065189
T05
X0747638Y0011811
X0795669
X0832677Y0015748
Y0035433
Y0055118
X0795669Y0059055
Y0145669
X0832677Y0149606
Y0169291
X0739764Y0169291
X0747638Y0145669
Y0059055
X0739764Y0035433
X0094882Y0074803
X0102756Y0098425
X0094882Y0122047
X004685
X0009843Y011811
Y0098425
Y007874
X004685Y0074803
Y0208661
X0009843Y0212598
Y0232283
Y0251969
X004685Y0255906
X0094882
X0102756Y0232283
X0094882Y0208661
X0747638Y0192913
X0795669
X0832677Y0188976
T06
X0098425Y0011811
X0519685
X0744095Y0122047
X0519685Y0145669
X0322835Y0122047
X0098425Y0145669
X0322835Y0255906
X0744095
T07
X0019685Y-0012795
X0811024
M30
