G04*
G04 #@! TF.GenerationSoftware,Altium Limited,Altium Designer,22.8.2 (66)*
G04*
G04 Layer_Color=8388736*
%FSLAX25Y25*%
%MOIN*%
G70*
G04*
G04 #@! TF.SameCoordinates,13EA9874-455B-4FA2-A727-6D6EF1C97DE0*
G04*
G04*
G04 #@! TF.FilePolarity,Negative*
G04*
G01*
G75*
%ADD34C,0.07874*%
%ADD35R,0.01981X0.05524*%
%ADD36R,0.05524X0.01981*%
%ADD37R,0.06115X0.06706*%
%ADD38R,0.05918X0.06706*%
%ADD39R,0.07887X0.04737*%
%ADD40R,0.04737X0.10642*%
%ADD41R,0.03123X0.02572*%
%ADD42R,0.03550X0.03943*%
%ADD43R,0.12611X0.06902*%
%ADD44R,0.04343X0.04540*%
%ADD45R,0.04731X0.02762*%
%ADD46R,0.10642X0.07493*%
%ADD47R,0.04737X0.07099*%
%ADD48R,0.10249X0.06706*%
%ADD49R,0.05721X0.07099*%
%ADD50C,0.10249*%
%ADD51R,0.10249X0.10249*%
%ADD52C,0.12611*%
%ADD53C,0.09461*%
%ADD54C,0.09461*%
%ADD55R,0.08800X0.08800*%
%ADD56C,0.08800*%
%ADD57O,0.07887X0.25603*%
%ADD58O,0.07887X0.22060*%
%ADD59O,0.22060X0.07887*%
%ADD60C,0.07887*%
%ADD61R,0.07887X0.07887*%
%ADD62C,0.22453*%
G54D34*
X39370Y7874D02*
D03*
G54D35*
X225394Y44291D02*
D03*
X223425D02*
D03*
X221457D02*
D03*
X219488D02*
D03*
X217520D02*
D03*
X215551D02*
D03*
X213583D02*
D03*
X211614D02*
D03*
X209646D02*
D03*
X207677D02*
D03*
X205709D02*
D03*
X203740D02*
D03*
X201772D02*
D03*
X199803D02*
D03*
X197835D02*
D03*
X195866D02*
D03*
Y89567D02*
D03*
X197835D02*
D03*
X199803D02*
D03*
X201772D02*
D03*
X203740D02*
D03*
X205709D02*
D03*
X207677D02*
D03*
X209646D02*
D03*
X211614D02*
D03*
X213583D02*
D03*
X215551D02*
D03*
X217520D02*
D03*
X219488D02*
D03*
X221457D02*
D03*
X223425D02*
D03*
X225394D02*
D03*
G54D36*
X187992Y52165D02*
D03*
Y54134D02*
D03*
Y56102D02*
D03*
Y58071D02*
D03*
Y60039D02*
D03*
Y62008D02*
D03*
Y63976D02*
D03*
Y65945D02*
D03*
Y67913D02*
D03*
Y69882D02*
D03*
Y71850D02*
D03*
Y73819D02*
D03*
Y75787D02*
D03*
Y77756D02*
D03*
Y79724D02*
D03*
Y81693D02*
D03*
X233268D02*
D03*
Y79724D02*
D03*
Y77756D02*
D03*
Y75787D02*
D03*
Y73819D02*
D03*
Y71850D02*
D03*
Y69882D02*
D03*
Y67913D02*
D03*
Y65945D02*
D03*
Y63976D02*
D03*
Y62008D02*
D03*
Y60039D02*
D03*
Y58071D02*
D03*
Y56102D02*
D03*
Y54134D02*
D03*
Y52165D02*
D03*
G54D37*
X200591Y31988D02*
D03*
X193110D02*
D03*
X297539Y79232D02*
D03*
X290059D02*
D03*
X347638Y111221D02*
D03*
X355118D02*
D03*
X355118Y13287D02*
D03*
X347638D02*
D03*
X355118Y22638D02*
D03*
X347638D02*
D03*
X373228Y120571D02*
D03*
X380709D02*
D03*
X137598Y75787D02*
D03*
X130118D02*
D03*
X137598Y66929D02*
D03*
X130118D02*
D03*
X130118Y93504D02*
D03*
X137598D02*
D03*
X137598Y84646D02*
D03*
X130118D02*
D03*
X226181Y111221D02*
D03*
X218701D02*
D03*
X218701Y22638D02*
D03*
X226181D02*
D03*
X163189Y93504D02*
D03*
X155709D02*
D03*
G54D38*
X290059Y68898D02*
D03*
X297539D02*
D03*
X290059Y93504D02*
D03*
X297539D02*
D03*
X290059Y102362D02*
D03*
X297539D02*
D03*
X373228Y111221D02*
D03*
X380709D02*
D03*
X155709Y22638D02*
D03*
X163189D02*
D03*
X130118Y58071D02*
D03*
X137598D02*
D03*
X130118Y49213D02*
D03*
X137598D02*
D03*
X53347Y53642D02*
D03*
X60827D02*
D03*
X130118Y13287D02*
D03*
X137598D02*
D03*
X200591Y22638D02*
D03*
X193110D02*
D03*
X163189Y66929D02*
D03*
X155709D02*
D03*
X200591Y111221D02*
D03*
X193110D02*
D03*
X218701Y31496D02*
D03*
X226181D02*
D03*
X200591Y102362D02*
D03*
X193110D02*
D03*
X226181D02*
D03*
X218701D02*
D03*
X265551D02*
D03*
X258071D02*
D03*
X265551Y31496D02*
D03*
X258071D02*
D03*
X265551Y13780D02*
D03*
X258071D02*
D03*
X265551Y78740D02*
D03*
X258071D02*
D03*
Y43307D02*
D03*
X265551D02*
D03*
Y93504D02*
D03*
X258071D02*
D03*
G54D39*
X320866Y86614D02*
D03*
Y78740D02*
D03*
Y70866D02*
D03*
Y62992D02*
D03*
Y55118D02*
D03*
Y47244D02*
D03*
D03*
G54D40*
X381890Y96850D02*
D03*
Y37008D02*
D03*
X374016D02*
D03*
X366142D02*
D03*
X358268D02*
D03*
X350394D02*
D03*
X342520D02*
D03*
X334646D02*
D03*
X326772D02*
D03*
Y96850D02*
D03*
X334646D02*
D03*
X342520D02*
D03*
X350394D02*
D03*
X358268D02*
D03*
X366142D02*
D03*
X374016D02*
D03*
G54D41*
X129429Y120079D02*
D03*
X138287D02*
D03*
X163878Y58071D02*
D03*
X155020D02*
D03*
G54D42*
X137598Y102854D02*
D03*
X133858Y110728D02*
D03*
X130118Y102854D02*
D03*
G54D43*
X159449Y42520D02*
D03*
Y31299D02*
D03*
G54D44*
X140059Y40354D02*
D03*
X127657D02*
D03*
G54D45*
X139370Y31299D02*
D03*
Y27559D02*
D03*
Y23819D02*
D03*
X128347D02*
D03*
Y27559D02*
D03*
Y31299D02*
D03*
X251870Y24409D02*
D03*
Y20866D02*
D03*
G54D46*
X49213Y40354D02*
D03*
X64961D02*
D03*
X49213Y13780D02*
D03*
X64961D02*
D03*
G54D47*
X51181Y27067D02*
D03*
X62992D02*
D03*
G54D48*
X273721Y22638D02*
D03*
G54D49*
X257480Y53740D02*
D03*
X266142Y68307D02*
D03*
X257480D02*
D03*
X266142Y53740D02*
D03*
G54D50*
X9843Y78740D02*
D03*
Y98425D02*
D03*
G54D51*
Y118110D02*
D03*
G54D52*
X102756Y98425D02*
D03*
X46850Y122047D02*
D03*
Y74803D02*
D03*
G54D53*
X94882Y122047D02*
D03*
G54D54*
Y74803D02*
D03*
G54D55*
X98425Y36557D02*
D03*
G54D56*
Y50057D02*
D03*
G54D57*
X31004Y25394D02*
D03*
G54D58*
X7382D02*
D03*
G54D59*
X19193Y6890D02*
D03*
G54D60*
X200630Y8858D02*
D03*
X210630D02*
D03*
X220630D02*
D03*
X230630D02*
D03*
G54D61*
X190630D02*
D03*
G54D62*
X322835Y122047D02*
D03*
X98425Y11811D02*
D03*
M02*
