G04*
G04 #@! TF.GenerationSoftware,Altium Limited,Altium Designer,22.8.2 (66)*
G04*
G04 Layer_Physical_Order=1*
G04 Layer_Color=255*
%FSLAX25Y25*%
%MOIN*%
G70*
G04*
G04 #@! TF.SameCoordinates,13EA9874-455B-4FA2-A727-6D6EF1C97DE0*
G04*
G04*
G04 #@! TF.FilePolarity,Positive*
G04*
G01*
G75*
%ADD18C,0.03937*%
%ADD19R,0.01181X0.04724*%
%ADD20R,0.04724X0.01181*%
%ADD21R,0.05315X0.05906*%
%ADD22R,0.05118X0.05906*%
%ADD23R,0.07087X0.03937*%
%ADD24R,0.03937X0.09843*%
%ADD25R,0.02323X0.01772*%
%ADD26R,0.03150X0.03543*%
%ADD27R,0.11811X0.06102*%
%ADD28R,0.03543X0.03740*%
%ADD29R,0.04331X0.02362*%
%ADD30R,0.09843X0.06693*%
%ADD31R,0.03937X0.06299*%
%ADD32R,0.09449X0.05906*%
%ADD33R,0.04921X0.06299*%
%ADD63C,0.00800*%
%ADD64C,0.04000*%
%ADD65C,0.00900*%
%ADD66C,0.01500*%
%ADD67C,0.03000*%
%ADD68C,0.02000*%
%ADD69C,0.06000*%
%ADD70C,0.05000*%
%ADD71C,0.09449*%
%ADD72R,0.09449X0.09449*%
%ADD73C,0.11811*%
%ADD74C,0.08661*%
%ADD75C,0.08661*%
%ADD76R,0.08000X0.08000*%
%ADD77C,0.08000*%
%ADD78O,0.07087X0.24803*%
%ADD79O,0.07087X0.21260*%
%ADD80O,0.21260X0.07087*%
%ADD81C,0.07087*%
%ADD82R,0.07087X0.07087*%
%ADD83C,0.21654*%
%ADD84C,0.03200*%
G36*
X98485Y124588D02*
X99006Y124150D01*
X99536Y123762D01*
X100076Y123427D01*
X100626Y123143D01*
X101185Y122910D01*
X101754Y122730D01*
X102333Y122600D01*
X102922Y122523D01*
X103520Y122497D01*
Y121597D01*
X102922Y121572D01*
X102333Y121494D01*
X101754Y121365D01*
X101185Y121184D01*
X100626Y120952D01*
X100076Y120668D01*
X99536Y120332D01*
X99006Y119945D01*
X98485Y119506D01*
X97975Y119016D01*
Y125079D01*
X98485Y124588D01*
D02*
G37*
G36*
X98485Y77344D02*
X99006Y76905D01*
X99536Y76518D01*
X100076Y76182D01*
X100626Y75898D01*
X101185Y75666D01*
X101754Y75485D01*
X102333Y75356D01*
X102922Y75279D01*
X103520Y75253D01*
Y74353D01*
X102922Y74327D01*
X102333Y74250D01*
X101754Y74121D01*
X101185Y73940D01*
X100626Y73708D01*
X100076Y73424D01*
X99536Y73088D01*
X99006Y72701D01*
X98485Y72262D01*
X97975Y71772D01*
Y77835D01*
X98485Y77344D01*
D02*
G37*
G36*
X221051Y15428D02*
X221113Y14943D01*
X221217Y14467D01*
X221363Y13999D01*
X221550Y13542D01*
X221779Y13093D01*
X222049Y12653D01*
X222361Y12223D01*
X222715Y11801D01*
X223110Y11389D01*
X218150D01*
X218545Y11801D01*
X218899Y12223D01*
X219211Y12653D01*
X219481Y13093D01*
X219710Y13542D01*
X219897Y13999D01*
X220043Y14467D01*
X220147Y14943D01*
X220209Y15428D01*
X220230Y15922D01*
X221030D01*
X221051Y15428D01*
D02*
G37*
G54D18*
X39370Y7874D02*
D03*
G54D19*
X225394Y44291D02*
D03*
X223425D02*
D03*
X221457D02*
D03*
X219488D02*
D03*
X217520D02*
D03*
X215551D02*
D03*
X213583D02*
D03*
X211614D02*
D03*
X209646D02*
D03*
X207677D02*
D03*
X205709D02*
D03*
X203740D02*
D03*
X201772D02*
D03*
X199803D02*
D03*
X197835D02*
D03*
X195866D02*
D03*
Y89567D02*
D03*
X197835D02*
D03*
X199803D02*
D03*
X201772D02*
D03*
X203740D02*
D03*
X205709D02*
D03*
X207677D02*
D03*
X209646D02*
D03*
X211614D02*
D03*
X213583D02*
D03*
X215551D02*
D03*
X217520D02*
D03*
X219488D02*
D03*
X221457D02*
D03*
X223425D02*
D03*
X225394D02*
D03*
G54D20*
X187992Y52165D02*
D03*
Y54134D02*
D03*
Y56102D02*
D03*
Y58071D02*
D03*
Y60039D02*
D03*
Y62008D02*
D03*
Y63976D02*
D03*
Y65945D02*
D03*
Y67913D02*
D03*
Y69882D02*
D03*
Y71850D02*
D03*
Y73819D02*
D03*
Y75787D02*
D03*
Y77756D02*
D03*
Y79724D02*
D03*
Y81693D02*
D03*
X233268D02*
D03*
Y79724D02*
D03*
Y77756D02*
D03*
Y75787D02*
D03*
Y73819D02*
D03*
Y71850D02*
D03*
Y69882D02*
D03*
Y67913D02*
D03*
Y65945D02*
D03*
Y63976D02*
D03*
Y62008D02*
D03*
Y60039D02*
D03*
Y58071D02*
D03*
Y56102D02*
D03*
Y54134D02*
D03*
Y52165D02*
D03*
G54D21*
X200591Y31988D02*
D03*
X193110D02*
D03*
X297539Y79232D02*
D03*
X290059D02*
D03*
X347638Y111221D02*
D03*
X355118D02*
D03*
X355118Y13287D02*
D03*
X347638D02*
D03*
X355118Y22638D02*
D03*
X347638D02*
D03*
X373228Y120571D02*
D03*
X380709D02*
D03*
X137598Y75787D02*
D03*
X130118D02*
D03*
X137598Y66929D02*
D03*
X130118D02*
D03*
X130118Y93504D02*
D03*
X137598D02*
D03*
X137598Y84646D02*
D03*
X130118D02*
D03*
X226181Y111221D02*
D03*
X218701D02*
D03*
X218701Y22638D02*
D03*
X226181D02*
D03*
X163189Y93504D02*
D03*
X155709D02*
D03*
G54D22*
X290059Y68898D02*
D03*
X297539D02*
D03*
X290059Y93504D02*
D03*
X297539D02*
D03*
X290059Y102362D02*
D03*
X297539D02*
D03*
X373228Y111221D02*
D03*
X380709D02*
D03*
X155709Y22638D02*
D03*
X163189D02*
D03*
X130118Y58071D02*
D03*
X137598D02*
D03*
X130118Y49213D02*
D03*
X137598D02*
D03*
X53347Y53642D02*
D03*
X60827D02*
D03*
X130118Y13287D02*
D03*
X137598D02*
D03*
X200591Y22638D02*
D03*
X193110D02*
D03*
X163189Y66929D02*
D03*
X155709D02*
D03*
X200591Y111221D02*
D03*
X193110D02*
D03*
X218701Y31496D02*
D03*
X226181D02*
D03*
X200591Y102362D02*
D03*
X193110D02*
D03*
X226181D02*
D03*
X218701D02*
D03*
X265551D02*
D03*
X258071D02*
D03*
X265551Y31496D02*
D03*
X258071D02*
D03*
X265551Y13780D02*
D03*
X258071D02*
D03*
X265551Y78740D02*
D03*
X258071D02*
D03*
Y43307D02*
D03*
X265551D02*
D03*
Y93504D02*
D03*
X258071D02*
D03*
G54D23*
X320866Y86614D02*
D03*
Y78740D02*
D03*
Y70866D02*
D03*
Y62992D02*
D03*
Y55118D02*
D03*
Y47244D02*
D03*
D03*
G54D24*
X381890Y96850D02*
D03*
Y37008D02*
D03*
X374016D02*
D03*
X366142D02*
D03*
X358268D02*
D03*
X350394D02*
D03*
X342520D02*
D03*
X334646D02*
D03*
X326772D02*
D03*
Y96850D02*
D03*
X334646D02*
D03*
X342520D02*
D03*
X350394D02*
D03*
X358268D02*
D03*
X366142D02*
D03*
X374016D02*
D03*
G54D25*
X129429Y120079D02*
D03*
X138287D02*
D03*
X163878Y58071D02*
D03*
X155020D02*
D03*
G54D26*
X137598Y102854D02*
D03*
X133858Y110728D02*
D03*
X130118Y102854D02*
D03*
G54D27*
X159449Y42520D02*
D03*
Y31299D02*
D03*
G54D28*
X140059Y40354D02*
D03*
X127657D02*
D03*
G54D29*
X139370Y31299D02*
D03*
Y27559D02*
D03*
Y23819D02*
D03*
X128347D02*
D03*
Y27559D02*
D03*
Y31299D02*
D03*
X251870Y24409D02*
D03*
Y20866D02*
D03*
G54D30*
X49213Y40354D02*
D03*
X64961D02*
D03*
X49213Y13780D02*
D03*
X64961D02*
D03*
G54D31*
X51181Y27067D02*
D03*
X62992D02*
D03*
G54D32*
X273721Y22638D02*
D03*
G54D33*
X257480Y53740D02*
D03*
X266142Y68307D02*
D03*
X257480D02*
D03*
X266142Y53740D02*
D03*
G54D63*
X142974Y93738D02*
X143209D01*
X301580Y68898D02*
X302165Y68312D01*
Y62500D02*
Y68312D01*
X223917Y95965D02*
X231815D01*
X232283Y96433D01*
X223425Y89567D02*
Y95473D01*
X223917Y95965D01*
X232283Y96433D02*
Y102362D01*
X213583Y96433D02*
X214051Y95965D01*
X220988D02*
X221457Y95496D01*
X213583Y96433D02*
Y102362D01*
X221457Y89567D02*
Y95496D01*
X214051Y95965D02*
X220988D01*
X223425Y89567D02*
X223425Y89567D01*
X226181Y101969D02*
Y102362D01*
X213090Y31004D02*
Y36933D01*
X297539Y68898D02*
X301580D01*
X133858Y19685D02*
Y27559D01*
X128347D02*
X133858D01*
X374508Y5413D02*
Y36516D01*
X367091Y112322D02*
Y115614D01*
X367126Y115650D01*
X367091Y112322D02*
X367559Y111853D01*
X372595D01*
X373228Y111221D01*
X270177Y78740D02*
Y83661D01*
X265551Y78740D02*
Y78740D01*
X270177D01*
Y68307D02*
Y78740D01*
X266142Y68307D02*
X270177D01*
X150591Y22638D02*
Y31299D01*
Y22638D02*
X155709D01*
X168823Y58071D02*
X169291Y57602D01*
X163878Y58071D02*
X168823D01*
X164665Y22638D02*
X169291D01*
X163189Y21161D02*
X164665Y22638D01*
X169291D02*
Y57602D01*
X185039Y96457D02*
Y102362D01*
Y96457D02*
X195866D01*
X208661Y94488D02*
Y119095D01*
X187992D02*
X208661D01*
X200272Y94488D02*
X208661D01*
X199803Y94020D02*
X200272Y94488D01*
X199803Y89567D02*
Y94020D01*
X205709Y96457D02*
Y102362D01*
X197835Y89567D02*
Y96457D01*
X205709D01*
X197835Y89567D02*
X197835D01*
X187992Y111221D02*
Y119095D01*
Y111221D02*
X193110D01*
X233268Y52165D02*
Y52165D01*
Y52165D02*
X239173D01*
Y31496D02*
Y52165D01*
X252461Y43307D02*
Y53740D01*
X245079Y20669D02*
Y56102D01*
X247047Y31496D02*
Y58071D01*
X233268D02*
Y58071D01*
X252461Y53740D02*
X257480D01*
X233268Y58071D02*
X247047D01*
X233268Y56102D02*
X245079D01*
X169783Y66929D02*
X178642D01*
Y54134D02*
Y66929D01*
X180610Y56102D02*
X187992D01*
X180610D02*
Y93504D01*
X163189D02*
X180610D01*
X176673Y52165D02*
Y62008D01*
X155709D02*
X176673D01*
X155709D02*
Y66929D01*
X137598Y75787D02*
X148622D01*
X286417Y69390D02*
X290551D01*
Y68898D02*
Y69390D01*
X286417D02*
Y79232D01*
X290551D01*
X282480Y22638D02*
Y31027D01*
X282012Y31496D02*
X282480Y31027D01*
X265551Y31496D02*
X282012D01*
X252461Y43307D02*
X258071D01*
Y43307D02*
Y43307D01*
X210091Y22638D02*
X218701D01*
X209622Y23106D02*
Y38901D01*
X210091Y39370D01*
X217520D01*
X209622Y23106D02*
X210091Y22638D01*
X213090Y36933D02*
X213559Y37402D01*
X223425D01*
X187992Y56102D02*
X187992Y56102D01*
X206693D02*
X206693Y56102D01*
X187992Y56102D02*
X206693D01*
X225394Y63976D02*
X233268D01*
X187500Y31988D02*
Y37402D01*
Y22638D02*
X193110D01*
X187500D02*
Y31988D01*
X193110D01*
X206201Y16240D02*
Y22638D01*
X195866Y44291D02*
X195866D01*
X206201Y16240D02*
X220630D01*
Y8858D02*
Y16240D01*
X284941Y102362D02*
Y108268D01*
Y93504D02*
Y102362D01*
X290059D01*
X284941Y93504D02*
X290059D01*
X272638Y108268D02*
X272638D01*
X213583Y52658D02*
X213583Y52658D01*
X213583Y44291D02*
Y52658D01*
X326772Y28543D02*
X326772D01*
X148622Y58071D02*
X155020D01*
X147638D02*
X148622D01*
X187992Y125000D02*
X187992D01*
X213090D02*
X213583D01*
X143209Y93738D02*
Y93973D01*
X142740Y93504D02*
X142974Y93738D01*
X137598Y98917D02*
X142740D01*
X137598Y93504D02*
X142740D01*
X143209Y93973D02*
Y98449D01*
X142740Y98917D02*
X143209Y98449D01*
X137598Y98917D02*
Y102854D01*
X217520Y44291D02*
X217520D01*
Y39370D02*
Y44291D01*
X217028Y50005D02*
Y50197D01*
X187992Y54134D02*
Y54134D01*
X137598Y66929D02*
X143701D01*
X122539Y75787D02*
X130118D01*
X215551Y44291D02*
Y48528D01*
X215551Y44291D02*
X215551Y44291D01*
Y48528D02*
X217028Y50005D01*
X381890Y37008D02*
X381890D01*
X381890Y8366D02*
Y37008D01*
X374016D02*
X374508Y36516D01*
X206201Y31988D02*
Y38386D01*
Y22638D02*
Y31988D01*
X200591D02*
X206201D01*
X200591Y22638D02*
X206201D01*
X195866Y38386D02*
X206201D01*
X195866D02*
Y44291D01*
X178642Y54134D02*
X187992D01*
X176673Y52165D02*
X187992D01*
X124016Y19685D02*
X127461D01*
X124016D02*
Y23819D01*
X128347D01*
Y31299D02*
X133858D01*
Y31004D02*
Y31299D01*
X247047Y88090D02*
X272638D01*
X247047Y73819D02*
Y88090D01*
X272638D02*
Y93504D01*
X245079D02*
X250984D01*
X245079Y75787D02*
Y93504D01*
X233268Y73819D02*
X247047D01*
X233268Y75787D02*
X245079D01*
X199803Y89567D02*
X199803D01*
X195866D02*
Y96457D01*
X195866Y89567D02*
X195866D01*
X223425Y37402D02*
Y44291D01*
X232283Y31496D02*
Y37402D01*
X225394D02*
X232283D01*
X225394D02*
Y44291D01*
X225394D02*
X225394D01*
X213583Y102362D02*
X218701D01*
X281496Y13780D02*
X282480Y14764D01*
Y22638D01*
X273721D02*
X282480D01*
X265551Y13780D02*
X281496D01*
X245079D02*
Y20669D01*
X245276Y20866D02*
X251870D01*
X245079Y20669D02*
X245276Y20866D01*
X247244Y24409D02*
X251870D01*
X247047Y24606D02*
X247244Y24409D01*
X245079Y13780D02*
X258071D01*
X247047Y24606D02*
Y31496D01*
X258071D01*
X253937Y78740D02*
X258071D01*
X253937Y73819D02*
Y78740D01*
X266142Y53740D02*
Y60039D01*
Y48228D02*
Y53740D01*
Y48228D02*
X269685D01*
Y43307D02*
Y48228D01*
X265551Y43307D02*
X269685D01*
X253937Y73819D02*
X257480D01*
Y68307D02*
Y73819D01*
Y62008D02*
Y68307D01*
X233268Y60039D02*
X266142D01*
X233268Y62008D02*
X257480D01*
G54D64*
X118602Y58071D02*
X130118D01*
X118602Y60532D02*
Y66929D01*
Y58071D02*
Y60532D01*
Y55114D02*
Y58071D01*
X98425Y50197D02*
X118602D01*
X97933Y50057D02*
Y61024D01*
X7382Y6890D02*
Y25394D01*
X118602Y50197D02*
Y54134D01*
X112697Y5413D02*
Y36557D01*
Y5413D02*
X145669D01*
X98425Y36557D02*
X112697D01*
X118602Y13287D02*
Y40354D01*
Y13287D02*
X130118D01*
X185039Y125000D02*
X187992D01*
X148622D02*
X185039D01*
X159449Y42520D02*
Y49213D01*
X148622D02*
X159449D01*
X148622Y66929D02*
Y75787D01*
Y58071D02*
Y66929D01*
Y75787D02*
Y93504D01*
X306102D02*
Y102362D01*
X250984Y125000D02*
X303759D01*
X306102Y122657D01*
Y102362D02*
Y122657D01*
X148622Y49213D02*
Y58071D01*
X213583Y125000D02*
X250984D01*
X187992D02*
X213090D01*
X148622Y93504D02*
Y125000D01*
X137598Y49213D02*
X148622D01*
X137598Y58071D02*
X147638D01*
X7382Y25394D02*
Y38011D01*
X118602Y40354D02*
Y49213D01*
Y66929D02*
X130118D01*
X118602Y49213D02*
Y50197D01*
Y49213D02*
X130118D01*
X145669Y13287D02*
Y23819D01*
X98425Y50057D02*
Y50197D01*
X137598Y13287D02*
X145669D01*
Y5413D02*
Y13287D01*
X97933Y50057D02*
X98425D01*
X38386Y61024D02*
X97933D01*
X38386Y53642D02*
Y61024D01*
X64961Y40354D02*
X75295D01*
Y36557D02*
Y40354D01*
Y27067D02*
Y36557D01*
X98425D01*
X75295Y40354D02*
Y53642D01*
X60827D02*
X75295D01*
X38386Y41339D02*
X48228D01*
X10709D02*
X38386D01*
Y53642D01*
X53347D01*
X48228Y41339D02*
X49213Y40354D01*
X7382Y38011D02*
X10709Y41339D01*
X7382Y6890D02*
X19193D01*
X31004Y25394D02*
X39370D01*
Y13780D02*
Y25394D01*
X62992Y27067D02*
X75295D01*
X51181Y26575D02*
X57087D01*
X51181D02*
Y27067D01*
X57087Y13780D02*
Y26575D01*
Y13780D02*
X64961D01*
X39370D02*
X49213D01*
G54D65*
X94882Y122047D02*
X106791D01*
X108760Y124016D02*
X142717D01*
X106791Y122047D02*
X108760Y124016D01*
X366142Y96850D02*
Y105807D01*
X360728Y111221D02*
X366142Y105807D01*
X355118Y111221D02*
X360728D01*
X137598Y84646D02*
X143701D01*
X94882Y74803D02*
X112170D01*
X112697Y75330D02*
Y119552D01*
X113224Y120079D02*
X129429D01*
X112170Y74803D02*
X112697Y75330D01*
Y119552D02*
X113224Y120079D01*
X334646Y13287D02*
Y37008D01*
Y13287D02*
X347638D01*
X349902Y28543D02*
Y37008D01*
X341535Y22638D02*
X347638D01*
X341535D02*
Y28543D01*
X349902D01*
Y37008D02*
X350394D01*
X386319Y111221D02*
Y120079D01*
Y104823D02*
Y111221D01*
X380709D02*
X386319D01*
X380709Y120079D02*
X386319D01*
X380709D02*
Y120571D01*
X381890Y104823D02*
X386319D01*
X381890Y96850D02*
Y104823D01*
X207677Y82677D02*
Y89567D01*
Y82677D02*
X207677D01*
X142717Y120079D02*
Y124016D01*
X123524Y98917D02*
X130118D01*
Y102854D01*
X123524Y93504D02*
Y98917D01*
Y84646D02*
Y93504D01*
X130118D01*
X123524Y84646D02*
X130118D01*
X142717Y114665D02*
Y120079D01*
X133858Y114665D02*
X142717D01*
X133858Y110728D02*
Y114665D01*
X138287Y120079D02*
X142717D01*
G54D66*
X226181Y102362D02*
X232283D01*
Y106791D01*
X213090Y27067D02*
Y31004D01*
X213583Y31496D01*
X218701D01*
X306102Y6890D02*
X360834D01*
X239173D02*
X306102D01*
Y79232D01*
X185039Y102362D02*
Y125000D01*
Y102362D02*
X193110D01*
X205709Y111221D02*
Y116142D01*
X200591Y111221D02*
X205709D01*
Y102362D02*
Y111221D01*
X232283Y31496D02*
X239173D01*
X226181D02*
X232283D01*
X239173Y6890D02*
Y31496D01*
X361713Y7768D02*
Y13287D01*
X360834Y6890D02*
X361713Y7768D01*
X298031Y79232D02*
X306102D01*
X163189Y66929D02*
X169783D01*
Y72835D01*
X148622Y66929D02*
X155709D01*
X306102Y79232D02*
Y93504D01*
X225394Y117618D02*
X230831D01*
X231299Y117149D01*
Y111221D02*
Y117149D01*
X226181Y111221D02*
X231299D01*
X230630Y8858D02*
Y22638D01*
X226181D02*
X230630D01*
X272638Y102362D02*
Y108268D01*
X355118Y22638D02*
X361713D01*
Y13287D02*
Y22638D01*
X355118Y13287D02*
X361713D01*
X250984Y102362D02*
Y125000D01*
X213583Y111221D02*
Y125000D01*
X148622Y93504D02*
X155709D01*
X213583Y102362D02*
Y111221D01*
X218701D01*
X272638Y93504D02*
Y102362D01*
X265551Y93504D02*
X272638D01*
X250984D02*
X258071D01*
X265551Y102362D02*
X272638D01*
X250984Y93504D02*
Y102362D01*
X200591D02*
X205709D01*
X250984D02*
X258071D01*
G54D67*
X118602Y40354D02*
X127657D01*
X147146Y31299D02*
X150591D01*
X147146D02*
Y40354D01*
X140059D02*
X147146D01*
X150591Y31299D02*
X159449D01*
X140059Y40276D02*
Y40354D01*
Y40276D02*
X140331Y40005D01*
G54D68*
X139370Y31299D02*
X147146D01*
X326772Y28543D02*
Y37008D01*
X297539Y93504D02*
X306102D01*
Y102362D02*
X312992D01*
X297539D02*
X306102D01*
X326772Y96850D02*
Y107776D01*
X312992D02*
X326772D01*
X341535D01*
Y111221D01*
X312992Y102362D02*
Y107776D01*
X341535Y111221D02*
X347638D01*
X341535D02*
Y120571D01*
X373228D01*
X145669Y23819D02*
Y27559D01*
X139370Y23819D02*
X145669D01*
X139370Y27559D02*
X145669D01*
G54D69*
X23622Y78740D02*
X27559Y74803D01*
X46850D01*
X9843Y78740D02*
X23622D01*
X27559Y122047D02*
X46850D01*
X23622Y118110D02*
X27559Y122047D01*
X9843Y118110D02*
X23622D01*
X9843Y98425D02*
X102756D01*
G54D70*
Y98425D02*
Y98425D01*
G54D71*
X9843Y78740D02*
D03*
Y98425D02*
D03*
G54D72*
Y118110D02*
D03*
G54D73*
X102756Y98425D02*
D03*
X46850Y122047D02*
D03*
Y74803D02*
D03*
G54D74*
X94882Y122047D02*
D03*
G54D75*
Y74803D02*
D03*
G54D76*
X98425Y36557D02*
D03*
G54D77*
Y50057D02*
D03*
G54D78*
X31004Y25394D02*
D03*
G54D79*
X7382D02*
D03*
G54D80*
X19193Y6890D02*
D03*
G54D81*
X200630Y8858D02*
D03*
X210630D02*
D03*
X220630D02*
D03*
X230630D02*
D03*
G54D82*
X190630D02*
D03*
G54D83*
X322835Y122047D02*
D03*
X98425Y11811D02*
D03*
G54D84*
X118602Y60532D02*
D03*
Y54134D02*
D03*
X302165Y62500D02*
D03*
X232283Y106791D02*
D03*
X213090Y27067D02*
D03*
X133858Y19685D02*
D03*
X374508Y5413D02*
D03*
X367126Y115650D02*
D03*
X270177Y83661D02*
D03*
X169291Y22638D02*
D03*
X148622Y49213D02*
D03*
X205709Y116142D02*
D03*
X252461Y43307D02*
D03*
X206693Y56102D02*
D03*
X225394Y117618D02*
D03*
Y63976D02*
D03*
X187500Y37402D02*
D03*
X284941Y108268D02*
D03*
X272638D02*
D03*
X169783Y72835D02*
D03*
X213583Y52658D02*
D03*
X326772Y28543D02*
D03*
X143209Y93973D02*
D03*
X217028Y50197D02*
D03*
X143701Y84646D02*
D03*
Y66929D02*
D03*
X118602D02*
D03*
X122539Y75787D02*
D03*
X381890Y8366D02*
D03*
X207677Y82677D02*
D03*
X127461Y19685D02*
D03*
X133858Y31004D02*
D03*
X282480Y22638D02*
D03*
M02*
