G04*
G04 #@! TF.GenerationSoftware,Altium Limited,Altium Designer,22.8.2 (66)*
G04*
G04 Layer_Color=8421504*
%FSLAX25Y25*%
%MOIN*%
G70*
G04*
G04 #@! TF.SameCoordinates,13EA9874-455B-4FA2-A727-6D6EF1C97DE0*
G04*
G04*
G04 #@! TF.FilePolarity,Positive*
G04*
G01*
G75*
%ADD18C,0.03937*%
%ADD19R,0.01181X0.04724*%
%ADD20R,0.04724X0.01181*%
%ADD21R,0.05315X0.05906*%
%ADD22R,0.05118X0.05906*%
%ADD23R,0.07087X0.03937*%
%ADD24R,0.03937X0.09843*%
%ADD25R,0.02323X0.01772*%
%ADD26R,0.03150X0.03543*%
%ADD27R,0.11811X0.06102*%
%ADD28R,0.03543X0.03740*%
%ADD29R,0.04331X0.02362*%
%ADD30R,0.09843X0.06693*%
%ADD31R,0.03937X0.06299*%
%ADD32R,0.09449X0.05906*%
%ADD33R,0.04921X0.06299*%
G54D18*
X39370Y7874D02*
D03*
G54D19*
X225394Y44291D02*
D03*
X223425D02*
D03*
X221457D02*
D03*
X219488D02*
D03*
X217520D02*
D03*
X215551D02*
D03*
X213583D02*
D03*
X211614D02*
D03*
X209646D02*
D03*
X207677D02*
D03*
X205709D02*
D03*
X203740D02*
D03*
X201772D02*
D03*
X199803D02*
D03*
X197835D02*
D03*
X195866D02*
D03*
Y89567D02*
D03*
X197835D02*
D03*
X199803D02*
D03*
X201772D02*
D03*
X203740D02*
D03*
X205709D02*
D03*
X207677D02*
D03*
X209646D02*
D03*
X211614D02*
D03*
X213583D02*
D03*
X215551D02*
D03*
X217520D02*
D03*
X219488D02*
D03*
X221457D02*
D03*
X223425D02*
D03*
X225394D02*
D03*
G54D20*
X187992Y52165D02*
D03*
Y54134D02*
D03*
Y56102D02*
D03*
Y58071D02*
D03*
Y60039D02*
D03*
Y62008D02*
D03*
Y63976D02*
D03*
Y65945D02*
D03*
Y67913D02*
D03*
Y69882D02*
D03*
Y71850D02*
D03*
Y73819D02*
D03*
Y75787D02*
D03*
Y77756D02*
D03*
Y79724D02*
D03*
Y81693D02*
D03*
X233268D02*
D03*
Y79724D02*
D03*
Y77756D02*
D03*
Y75787D02*
D03*
Y73819D02*
D03*
Y71850D02*
D03*
Y69882D02*
D03*
Y67913D02*
D03*
Y65945D02*
D03*
Y63976D02*
D03*
Y62008D02*
D03*
Y60039D02*
D03*
Y58071D02*
D03*
Y56102D02*
D03*
Y54134D02*
D03*
Y52165D02*
D03*
G54D21*
X200591Y31988D02*
D03*
X193110D02*
D03*
X297539Y79232D02*
D03*
X290059D02*
D03*
X347638Y111221D02*
D03*
X355118D02*
D03*
X355118Y13287D02*
D03*
X347638D02*
D03*
X355118Y22638D02*
D03*
X347638D02*
D03*
X373228Y120571D02*
D03*
X380709D02*
D03*
X137598Y75787D02*
D03*
X130118D02*
D03*
X137598Y66929D02*
D03*
X130118D02*
D03*
X130118Y93504D02*
D03*
X137598D02*
D03*
X137598Y84646D02*
D03*
X130118D02*
D03*
X226181Y111221D02*
D03*
X218701D02*
D03*
X218701Y22638D02*
D03*
X226181D02*
D03*
X163189Y93504D02*
D03*
X155709D02*
D03*
G54D22*
X290059Y68898D02*
D03*
X297539D02*
D03*
X290059Y93504D02*
D03*
X297539D02*
D03*
X290059Y102362D02*
D03*
X297539D02*
D03*
X373228Y111221D02*
D03*
X380709D02*
D03*
X155709Y22638D02*
D03*
X163189D02*
D03*
X130118Y58071D02*
D03*
X137598D02*
D03*
X130118Y49213D02*
D03*
X137598D02*
D03*
X53347Y53642D02*
D03*
X60827D02*
D03*
X130118Y13287D02*
D03*
X137598D02*
D03*
X200591Y22638D02*
D03*
X193110D02*
D03*
X163189Y66929D02*
D03*
X155709D02*
D03*
X200591Y111221D02*
D03*
X193110D02*
D03*
X218701Y31496D02*
D03*
X226181D02*
D03*
X200591Y102362D02*
D03*
X193110D02*
D03*
X226181D02*
D03*
X218701D02*
D03*
X265551D02*
D03*
X258071D02*
D03*
X265551Y31496D02*
D03*
X258071D02*
D03*
X265551Y13780D02*
D03*
X258071D02*
D03*
X265551Y78740D02*
D03*
X258071D02*
D03*
Y43307D02*
D03*
X265551D02*
D03*
Y93504D02*
D03*
X258071D02*
D03*
G54D23*
X320866Y86614D02*
D03*
Y78740D02*
D03*
Y70866D02*
D03*
Y62992D02*
D03*
Y55118D02*
D03*
Y47244D02*
D03*
D03*
G54D24*
X381890Y96850D02*
D03*
Y37008D02*
D03*
X374016D02*
D03*
X366142D02*
D03*
X358268D02*
D03*
X350394D02*
D03*
X342520D02*
D03*
X334646D02*
D03*
X326772D02*
D03*
Y96850D02*
D03*
X334646D02*
D03*
X342520D02*
D03*
X350394D02*
D03*
X358268D02*
D03*
X366142D02*
D03*
X374016D02*
D03*
G54D25*
X129429Y120079D02*
D03*
X138287D02*
D03*
X163878Y58071D02*
D03*
X155020D02*
D03*
G54D26*
X137598Y102854D02*
D03*
X133858Y110728D02*
D03*
X130118Y102854D02*
D03*
G54D27*
X159449Y42520D02*
D03*
Y31299D02*
D03*
G54D28*
X140059Y40354D02*
D03*
X127657D02*
D03*
G54D29*
X139370Y31299D02*
D03*
Y27559D02*
D03*
Y23819D02*
D03*
X128347D02*
D03*
Y27559D02*
D03*
Y31299D02*
D03*
X251870Y24409D02*
D03*
Y20866D02*
D03*
G54D30*
X49213Y40354D02*
D03*
X64961D02*
D03*
X49213Y13780D02*
D03*
X64961D02*
D03*
G54D31*
X51181Y27067D02*
D03*
X62992D02*
D03*
G54D32*
X273721Y22638D02*
D03*
G54D33*
X257480Y53740D02*
D03*
X266142Y68307D02*
D03*
X257480D02*
D03*
X266142Y53740D02*
D03*
M02*
