G04*
G04 #@! TF.GenerationSoftware,Altium Limited,Altium Designer,22.8.2 (66)*
G04*
G04 Layer_Color=65535*
%FSLAX25Y25*%
%MOIN*%
G70*
G04*
G04 #@! TF.SameCoordinates,C3FD66B6-40D4-4EF1-9346-9CEE37E5CDB1*
G04*
G04*
G04 #@! TF.FilePolarity,Positive*
G04*
G01*
G75*
%ADD31C,0.02000*%
%ADD50C,0.01000*%
%ADD51C,0.00500*%
%ADD52C,0.00787*%
%ADD53C,0.00400*%
%ADD54C,0.00600*%
%ADD55R,0.02000X0.01500*%
%ADD56R,0.03937X0.03937*%
%ADD57R,0.04000X0.02000*%
%ADD58R,0.03937X0.03937*%
%ADD59R,0.03937X0.03937*%
%ADD60R,0.03937X0.03937*%
G54D31*
X692500Y-8503D02*
Y-15167D01*
X693833Y-16500D01*
X696499D01*
X697832Y-15167D01*
Y-8503D01*
X700497D02*
X705829D01*
X703163D01*
Y-16500D01*
X708495D02*
Y-8503D01*
X713826Y-16500D01*
Y-8503D01*
X724490Y-12501D02*
X729821D01*
X745816Y-8503D02*
X740485D01*
Y-12501D01*
X743150D01*
X740485D01*
Y-16500D01*
X748482D02*
Y-8503D01*
X752481D01*
X753814Y-9836D01*
Y-12501D01*
X752481Y-13834D01*
X748482D01*
X751148D02*
X753814Y-16500D01*
X756479Y-8503D02*
Y-16500D01*
X760478D01*
X761811Y-15167D01*
Y-13834D01*
X760478Y-12501D01*
X756479D01*
X760478D01*
X761811Y-11168D01*
Y-9836D01*
X760478Y-8503D01*
X756479D01*
X764477Y-16500D02*
Y-11168D01*
X767142Y-8503D01*
X769808Y-11168D01*
Y-16500D01*
Y-12501D01*
X764477D01*
G54D50*
X528524Y136830D02*
X529201Y137564D01*
X529817Y138349D01*
X530369Y139181D01*
X530853Y140054D01*
X531265Y140963D01*
X531604Y141902D01*
X531866Y142865D01*
X532051Y143845D01*
X532157Y144838D01*
X532184Y145836D01*
X532131Y146832D01*
X531998Y147822D01*
X531787Y148797D01*
X531499Y149753D01*
X531136Y150682D01*
X530699Y151580D01*
X530193Y152440D01*
X529619Y153257D01*
X528982Y154025D01*
X528286Y154740D01*
X527534Y155397D01*
X526733Y155993D01*
X525887Y156522D01*
X525001Y156982D01*
X524082Y157370D01*
X523134Y157684D01*
X522164Y157921D01*
X521179Y158080D01*
X520184Y158159D01*
X519186Y158159D01*
X518191Y158080D01*
X517206Y157921D01*
X516236Y157684D01*
X515288Y157371D01*
X514369Y156983D01*
X513483Y156522D01*
X512637Y155993D01*
X511836Y155398D01*
X511085Y154740D01*
X510388Y154025D01*
X509751Y153257D01*
X509178Y152440D01*
X508671Y151580D01*
X508234Y150682D01*
X507871Y149753D01*
X507583Y148797D01*
X507372Y147822D01*
X507239Y146832D01*
X507186Y145836D01*
X507213Y144838D01*
X507319Y143845D01*
X507504Y142865D01*
X507766Y141902D01*
X508105Y140963D01*
X508517Y140054D01*
X509001Y139181D01*
X509553Y138349D01*
X510169Y137564D01*
X510846Y136830D01*
X528524Y2972D02*
X529201Y3706D01*
X529817Y4491D01*
X530369Y5322D01*
X530853Y6196D01*
X531265Y7104D01*
X531604Y8043D01*
X531866Y9006D01*
X532051Y9987D01*
X532157Y10980D01*
X532184Y11977D01*
X532131Y12974D01*
X531998Y13963D01*
X531787Y14939D01*
X531499Y15895D01*
X531136Y16824D01*
X530699Y17722D01*
X530193Y18582D01*
X529619Y19399D01*
X528982Y20167D01*
X528286Y20882D01*
X527534Y21539D01*
X526733Y22135D01*
X525887Y22664D01*
X525001Y23124D01*
X524082Y23512D01*
X523134Y23826D01*
X522164Y24063D01*
X521179Y24221D01*
X520184Y24301D01*
X519186Y24301D01*
X518191Y24221D01*
X517206Y24063D01*
X516236Y23826D01*
X515288Y23512D01*
X514369Y23124D01*
X513483Y22664D01*
X512637Y22135D01*
X511836Y21539D01*
X511085Y20882D01*
X510388Y20167D01*
X509751Y19399D01*
X509178Y18582D01*
X508671Y17722D01*
X508234Y16824D01*
X507871Y15895D01*
X507583Y14939D01*
X507372Y13963D01*
X507239Y12974D01*
X507186Y11977D01*
X507213Y10980D01*
X507319Y9987D01*
X507504Y9006D01*
X507766Y8043D01*
X508105Y7104D01*
X508517Y6196D01*
X509001Y5322D01*
X509553Y4491D01*
X510169Y3706D01*
X510846Y2972D01*
X313996Y130886D02*
X313319Y130153D01*
X312702Y129368D01*
X312151Y128536D01*
X311667Y127663D01*
X311255Y126754D01*
X310916Y125815D01*
X310653Y124852D01*
X310468Y123871D01*
X310362Y122879D01*
X310336Y121881D01*
X310389Y120884D01*
X310521Y119895D01*
X310732Y118919D01*
X311020Y117964D01*
X311384Y117034D01*
X311820Y116137D01*
X312327Y115277D01*
X312901Y114460D01*
X313538Y113691D01*
X314234Y112976D01*
X314985Y112319D01*
X315787Y111724D01*
X316633Y111194D01*
X317518Y110734D01*
X318438Y110346D01*
X319386Y110032D01*
X320355Y109796D01*
X321341Y109637D01*
X322336Y109557D01*
X323334Y109557D01*
X324329Y109637D01*
X325314Y109796D01*
X326284Y110032D01*
X327231Y110346D01*
X328151Y110734D01*
X329036Y111194D01*
X329883Y111724D01*
X330684Y112319D01*
X331435Y112976D01*
X332131Y113691D01*
X332768Y114460D01*
X333342Y115277D01*
X333849Y116136D01*
X334285Y117034D01*
X334649Y117964D01*
X334937Y118919D01*
X335148Y119895D01*
X335280Y120884D01*
X335333Y121881D01*
X335307Y122879D01*
X335201Y123871D01*
X335016Y124852D01*
X334753Y125815D01*
X334415Y126754D01*
X334002Y127663D01*
X333519Y128536D01*
X332967Y129367D01*
X332351Y130153D01*
X331674Y130886D01*
X313996Y264744D02*
X313319Y264011D01*
X312702Y263226D01*
X312151Y262394D01*
X311667Y261521D01*
X311255Y260612D01*
X310916Y259673D01*
X310653Y258710D01*
X310468Y257729D01*
X310362Y256737D01*
X310336Y255739D01*
X310389Y254742D01*
X310521Y253753D01*
X310732Y252778D01*
X311020Y251822D01*
X311384Y250892D01*
X311820Y249995D01*
X312327Y249135D01*
X312901Y248318D01*
X313538Y247550D01*
X314234Y246834D01*
X314985Y246177D01*
X315787Y245582D01*
X316633Y245053D01*
X317518Y244592D01*
X318438Y244204D01*
X319386Y243891D01*
X320355Y243654D01*
X321341Y243495D01*
X322336Y243415D01*
X323334Y243415D01*
X324329Y243495D01*
X325314Y243654D01*
X326284Y243891D01*
X327231Y244204D01*
X328151Y244592D01*
X329036Y245053D01*
X329883Y245582D01*
X330684Y246177D01*
X331435Y246834D01*
X332131Y247550D01*
X332768Y248318D01*
X333342Y249135D01*
X333849Y249995D01*
X334285Y250892D01*
X334649Y251822D01*
X334937Y252778D01*
X335148Y253753D01*
X335280Y254742D01*
X335333Y255739D01*
X335307Y256737D01*
X335201Y257729D01*
X335016Y258710D01*
X334753Y259673D01*
X334415Y260612D01*
X334002Y261521D01*
X333519Y262394D01*
X332967Y263226D01*
X332351Y264011D01*
X331674Y264744D01*
G54D51*
X616142Y215551D02*
X616634Y214699D01*
X617618D01*
X618110Y215551D01*
X617618Y216404D01*
X616634D01*
X616142Y215551D01*
X816929Y188976D02*
X817193Y187992D01*
X817913Y187272D01*
X818898Y187008D01*
X819882Y187272D01*
X820602Y187992D01*
X820866Y188976D01*
X820602Y189961D01*
X819882Y190681D01*
X818898Y190945D01*
X817913Y190681D01*
X817193Y189961D01*
X816929Y188976D01*
Y149606D02*
X817193Y148622D01*
X817913Y147901D01*
X818898Y147638D01*
X819882Y147901D01*
X820602Y148622D01*
X820866Y149606D01*
X820602Y150591D01*
X819882Y151311D01*
X818898Y151575D01*
X817913Y151311D01*
X817193Y150591D01*
X816929Y149606D01*
Y169291D02*
X817193Y168307D01*
X817913Y167587D01*
X818898Y167323D01*
X819882Y167587D01*
X820602Y168307D01*
X820866Y169291D01*
X820602Y170276D01*
X819882Y170996D01*
X818898Y171260D01*
X817913Y170996D01*
X817193Y170276D01*
X816929Y169291D01*
X709646Y234449D02*
X709100Y235136D01*
X708223D01*
X707677Y234449D01*
X728346Y224410D02*
X728378Y223411D01*
X728473Y222416D01*
X728631Y221429D01*
X728851Y220454D01*
X729133Y219496D01*
X729474Y218556D01*
X729875Y217641D01*
X730333Y216753D01*
X730846Y215895D01*
X731413Y215072D01*
X732031Y214287D01*
X732697Y213542D01*
X733409Y212841D01*
X734164Y212187D01*
X734960Y211581D01*
X735792Y211028D01*
X736657Y210528D01*
X737552Y210085D01*
X738474Y209699D01*
X739419Y209372D01*
X740382Y209105D01*
X741360Y208901D01*
X742349Y208758D01*
X743345Y208679D01*
X744344Y208663D01*
X745342Y208711D01*
X746336Y208822D01*
X747320Y208995D01*
X748291Y209231D01*
X749245Y209528D01*
X750179Y209884D01*
X751088Y210299D01*
X751968Y210771D01*
X752818Y211298D01*
X753632Y211878D01*
X754407Y212508D01*
X755141Y213186D01*
X755831Y213909D01*
X756473Y214675D01*
X757066Y215479D01*
X757606Y216320D01*
X758092Y217193D01*
X758521Y218096D01*
X758893Y219023D01*
X759205Y219973D01*
X759456Y220940D01*
X759645Y221921D01*
X759771Y222912D01*
X759835Y223910D01*
Y224909D01*
X759771Y225906D01*
X759645Y226898D01*
X759456Y227879D01*
X759205Y228846D01*
X758893Y229796D01*
X758521Y230723D01*
X758092Y231626D01*
X757606Y232499D01*
X757066Y233340D01*
X756473Y234144D01*
X755831Y234910D01*
X755141Y235633D01*
X754407Y236311D01*
X753632Y236941D01*
X752818Y237521D01*
X751969Y238048D01*
X751088Y238520D01*
X750179Y238935D01*
X749245Y239291D01*
X748291Y239588D01*
X747320Y239824D01*
X746336Y239997D01*
X745343Y240108D01*
X744345Y240156D01*
X743345Y240140D01*
X742349Y240060D01*
X741360Y239918D01*
X740382Y239714D01*
X739419Y239447D01*
X738474Y239121D01*
X737553Y238734D01*
X736657Y238291D01*
X735792Y237791D01*
X734960Y237238D01*
X734165Y236632D01*
X733409Y235978D01*
X732697Y235277D01*
X732031Y234532D01*
X731413Y233747D01*
X730847Y232924D01*
X730333Y232066D01*
X729875Y231178D01*
X729475Y230263D01*
X729133Y229324D01*
X728851Y228365D01*
X728631Y227390D01*
X728473Y226403D01*
X728378Y225409D01*
X728346Y224410D01*
X735256Y264744D02*
X734579Y264011D01*
X733962Y263226D01*
X733411Y262394D01*
X732927Y261521D01*
X732514Y260612D01*
X732176Y259673D01*
X731913Y258710D01*
X731728Y257729D01*
X731622Y256737D01*
X731596Y255739D01*
X731649Y254742D01*
X731781Y253753D01*
X731992Y252778D01*
X732280Y251822D01*
X732644Y250892D01*
X733080Y249995D01*
X733587Y249135D01*
X734161Y248318D01*
X734798Y247550D01*
X735494Y246834D01*
X736245Y246177D01*
X737046Y245582D01*
X737893Y245053D01*
X738778Y244592D01*
X739698Y244204D01*
X740645Y243891D01*
X741615Y243654D01*
X742600Y243495D01*
X743595Y243415D01*
X744593Y243415D01*
X745588Y243495D01*
X746574Y243654D01*
X747543Y243891D01*
X748491Y244204D01*
X749411Y244592D01*
X750296Y245053D01*
X751143Y245582D01*
X751944Y246177D01*
X752695Y246834D01*
X753391Y247550D01*
X754028Y248318D01*
X754602Y249135D01*
X755109Y249995D01*
X755545Y250892D01*
X755909Y251822D01*
X756197Y252778D01*
X756408Y253753D01*
X756540Y254742D01*
X756593Y255739D01*
X756567Y256737D01*
X756461Y257729D01*
X756276Y258710D01*
X756013Y259673D01*
X755675Y260612D01*
X755262Y261521D01*
X754778Y262394D01*
X754227Y263226D01*
X753610Y264011D01*
X752933Y264744D01*
X650591Y219488D02*
X616142D01*
X650591D02*
Y182087D01*
X613189D01*
Y216535D02*
Y182087D01*
X616142Y219488D02*
X613189Y216535D01*
X609252Y217520D02*
Y217520D01*
Y217520D02*
X608268Y218504D01*
X610236D02*
X608268D01*
X610236D02*
X609252Y217520D01*
X609252D01*
X649669Y239478D02*
X641669D01*
X649669Y231978D02*
X641669D01*
X552720Y195069D02*
X544721D01*
X552720Y202569D02*
X544721D01*
X543189Y194445D02*
X542815Y194819D01*
X543189Y194445D02*
X542346D01*
X542721Y194819D02*
X542346Y194445D01*
X542815Y194819D02*
X542721D01*
X552720Y192234D02*
X544721D01*
X552720Y184734D02*
X544721D01*
X495142Y152746D02*
X487142D01*
X495142Y160246D02*
X487142D01*
X456693Y232283D02*
X427165D01*
X451575D02*
Y169291D01*
X456693D02*
X427165D01*
Y232283D02*
Y169291D01*
X521654Y232283D02*
X519685D01*
X521654D02*
Y224410D01*
Y177165D02*
Y169291D01*
X519685D01*
X552720Y170463D02*
X544721D01*
X552720Y177963D02*
X544721D01*
X552720Y161604D02*
X544721D01*
X552720Y169104D02*
X544721D01*
X495142Y258179D02*
X487142D01*
X495142Y250679D02*
X487142D01*
X495142Y248829D02*
X487142D01*
X495142Y241329D02*
X487142D01*
X469551Y143396D02*
X461551D01*
X469551Y150896D02*
X461551D01*
X469551Y152746D02*
X461551D01*
X469551Y160246D02*
X461551D01*
X712661Y195679D02*
X704661D01*
X712661Y188179D02*
X704661D01*
X712661Y204537D02*
X704661D01*
X712661Y197037D02*
X704661D01*
X839567Y198791D02*
X816535Y198819D01*
Y139764D01*
X839567Y139791D02*
X816535Y139764D01*
X820866Y198819D02*
Y139764D01*
X809449Y200000D02*
X734252D01*
X809449D02*
Y138583D01*
X734252D01*
Y162205D02*
Y138583D01*
Y200000D02*
Y176378D01*
X712205Y145638D02*
Y144882D01*
Y150394D02*
Y149438D01*
X705118Y150394D02*
Y149538D01*
Y145638D02*
Y144882D01*
X714611Y150488D02*
X714111Y149988D01*
X714611Y150488D02*
X713611D01*
X714111Y149988D02*
X713611Y150488D01*
X712205Y150394D02*
X705118D01*
X712205Y144882D02*
X705118D01*
X710561Y150338D02*
Y144882D01*
X714661Y162425D02*
Y159425D01*
X702661D01*
Y162425D02*
Y159425D01*
X714661Y162425D02*
X702661D01*
X712661Y170463D02*
X704661D01*
X712661Y177963D02*
X704661D01*
X712661Y186821D02*
X704661D01*
X712661Y179321D02*
X704661D01*
X690945Y222933D02*
X689961D01*
X690945Y238681D02*
X689961D01*
X676181Y222933D02*
X675197D01*
X676181Y238681D02*
X675197D01*
Y222933D01*
X690945Y238681D02*
Y222933D01*
X687071Y241329D02*
X679071D01*
X687071Y248829D02*
X679071D01*
X679528Y212402D02*
Y211646D01*
Y207846D02*
Y206890D01*
X686614Y207746D02*
Y206890D01*
Y212402D02*
Y211646D01*
X677621Y207296D02*
X677121Y206796D01*
X678121D02*
X677121D01*
X678121D02*
X677621Y207296D01*
X686614Y206890D02*
X679528D01*
X686614Y212402D02*
X679528D01*
X681171D02*
Y206946D01*
X712661Y205896D02*
X704661D01*
X712661Y213396D02*
X704661D01*
X712661Y214754D02*
X704661D01*
X712661Y222254D02*
X704661D01*
X701161Y224362D02*
X700661Y223862D01*
X701661D02*
X700661D01*
X701661D02*
X701161Y224362D01*
X706661Y230362D02*
Y224362D01*
X714272Y230709D02*
X703051D01*
X714272Y224016D02*
X703051D01*
X707677Y234449D02*
X706102D01*
X711221D02*
X709646D01*
X711221Y245866D02*
X706102D01*
Y234449D01*
X711221Y245866D02*
Y234449D01*
X789433Y210325D02*
X781433D01*
X789433Y217825D02*
X781433D01*
X712661Y250679D02*
X704661D01*
X712661Y258179D02*
X704661D01*
X794488Y221614D02*
X776378D01*
X794488Y233110D02*
X776378D01*
X794488Y222862D02*
Y221614D01*
Y233110D02*
Y231862D01*
X776378Y233110D02*
Y231862D01*
Y222862D02*
Y221614D01*
X774933Y221362D02*
X772933D01*
X773933Y222862D02*
X772933Y221362D01*
X774933D02*
X773933Y222862D01*
X792126Y236713D02*
X778740D01*
X792126Y244587D02*
X778740D01*
X794488Y248189D02*
X776378D01*
X794488Y259685D02*
X776378D01*
X794488Y249437D02*
Y248189D01*
Y259685D02*
Y258437D01*
X776378Y259685D02*
Y258437D01*
Y249437D02*
Y248189D01*
X774933Y247937D02*
X772933D01*
X773933Y249437D02*
X772933Y247937D01*
X774933D02*
X773933Y249437D01*
X839862Y224606D02*
X808760D01*
X839862Y260039D02*
X837106Y260039D01*
X811516D02*
X808760D01*
Y228543D02*
Y224606D01*
Y260039D02*
Y256102D01*
X624079Y160246D02*
X616079D01*
X624079Y152746D02*
X616079D01*
X663140Y256358D02*
X660640Y258858D01*
X663140Y261358D02*
Y256358D01*
Y261358D02*
X660640Y258858D01*
X656890Y263858D02*
Y253858D01*
Y263858D02*
X606890D01*
X656890Y253858D02*
X606890D01*
Y263858D02*
Y253858D01*
X624079Y241329D02*
X616079D01*
X624079Y248829D02*
X616079D01*
X687071Y177963D02*
X679071D01*
X687071Y170463D02*
X679071D01*
X649669Y248829D02*
X641669D01*
X649669Y241329D02*
X641669D01*
X687071Y204537D02*
X679071D01*
X687071Y197037D02*
X679071D01*
X649669Y160246D02*
X641669D01*
X649669Y152746D02*
X641669D01*
X624079Y232470D02*
X616079D01*
X624079Y239970D02*
X616079D01*
X649669Y169104D02*
X641669D01*
X649669Y161604D02*
X641669D01*
X624079Y169104D02*
X616079D01*
X624079Y161604D02*
X616079D01*
X584709Y169104D02*
X576709D01*
X584709Y161604D02*
X576709D01*
X585824Y247933D02*
X574624D01*
X585824Y242224D02*
X574624D01*
X584709Y239970D02*
X576709D01*
X584709Y232470D02*
X576709D01*
X584709Y257687D02*
X576709D01*
X584709Y250187D02*
X576709D01*
X584709Y192726D02*
X576709D01*
X584709Y185226D02*
X576709D01*
X584709Y220659D02*
X576709D01*
X584709Y228159D02*
X576709D01*
X584709Y177963D02*
X576709D01*
X584709Y170463D02*
X576709D01*
X616142Y81693D02*
X616634Y80840D01*
X617618D01*
X618110Y81693D01*
X617618Y82545D01*
X616634D01*
X616142Y81693D01*
X816929Y55118D02*
X817193Y54134D01*
X817913Y53413D01*
X818898Y53150D01*
X819882Y53413D01*
X820602Y54134D01*
X820866Y55118D01*
X820602Y56102D01*
X819882Y56823D01*
X818898Y57087D01*
X817913Y56823D01*
X817193Y56102D01*
X816929Y55118D01*
Y15748D02*
X817193Y14764D01*
X817913Y14043D01*
X818898Y13780D01*
X819882Y14043D01*
X820602Y14764D01*
X820866Y15748D01*
X820602Y16732D01*
X819882Y17453D01*
X818898Y17717D01*
X817913Y17453D01*
X817193Y16732D01*
X816929Y15748D01*
Y35433D02*
X817193Y34449D01*
X817913Y33728D01*
X818898Y33465D01*
X819882Y33728D01*
X820602Y34449D01*
X820866Y35433D01*
X820602Y36417D01*
X819882Y37138D01*
X818898Y37402D01*
X817913Y37138D01*
X817193Y36417D01*
X816929Y35433D01*
X709646Y100591D02*
X709100Y101278D01*
X708223D01*
X707677Y100591D01*
X728346Y90551D02*
X728378Y89552D01*
X728473Y88558D01*
X728631Y87571D01*
X728851Y86596D01*
X729133Y85637D01*
X729474Y84698D01*
X729875Y83783D01*
X730333Y82894D01*
X730846Y82037D01*
X731413Y81214D01*
X732031Y80428D01*
X732697Y79684D01*
X733409Y78983D01*
X734164Y78328D01*
X734960Y77723D01*
X735792Y77170D01*
X736657Y76670D01*
X737552Y76226D01*
X738474Y75840D01*
X739419Y75513D01*
X740382Y75247D01*
X741360Y75042D01*
X742349Y74900D01*
X743345Y74821D01*
X744344Y74805D01*
X745342Y74853D01*
X746336Y74963D01*
X747320Y75137D01*
X748291Y75373D01*
X749245Y75669D01*
X750179Y76026D01*
X751088Y76441D01*
X751968Y76913D01*
X752818Y77440D01*
X753632Y78019D01*
X754407Y78650D01*
X755141Y79328D01*
X755831Y80051D01*
X756473Y80816D01*
X757066Y81621D01*
X757606Y82462D01*
X758092Y83335D01*
X758521Y84237D01*
X758893Y85165D01*
X759205Y86114D01*
X759456Y87082D01*
X759645Y88063D01*
X759771Y89054D01*
X759835Y90052D01*
Y91051D01*
X759771Y92048D01*
X759645Y93039D01*
X759456Y94021D01*
X759205Y94988D01*
X758893Y95937D01*
X758521Y96865D01*
X758092Y97767D01*
X757606Y98641D01*
X757066Y99481D01*
X756473Y100286D01*
X755831Y101051D01*
X755141Y101775D01*
X754407Y102453D01*
X753632Y103083D01*
X752818Y103663D01*
X751969Y104189D01*
X751088Y104661D01*
X750179Y105076D01*
X749245Y105433D01*
X748291Y105730D01*
X747320Y105965D01*
X746336Y106139D01*
X745343Y106250D01*
X744345Y106297D01*
X743345Y106281D01*
X742349Y106202D01*
X741360Y106060D01*
X740382Y105855D01*
X739419Y105589D01*
X738474Y105262D01*
X737553Y104876D01*
X736657Y104432D01*
X735792Y103933D01*
X734960Y103379D01*
X734165Y102774D01*
X733409Y102120D01*
X732697Y101419D01*
X732031Y100674D01*
X731413Y99888D01*
X730847Y99065D01*
X730333Y98208D01*
X729875Y97320D01*
X729475Y96404D01*
X729133Y95465D01*
X728851Y94507D01*
X728631Y93532D01*
X728473Y92545D01*
X728378Y91550D01*
X728346Y90551D01*
X735256Y130886D02*
X734579Y130153D01*
X733962Y129368D01*
X733411Y128536D01*
X732927Y127663D01*
X732514Y126754D01*
X732176Y125815D01*
X731913Y124852D01*
X731728Y123871D01*
X731622Y122879D01*
X731596Y121881D01*
X731649Y120884D01*
X731781Y119895D01*
X731992Y118919D01*
X732280Y117964D01*
X732644Y117034D01*
X733080Y116137D01*
X733587Y115277D01*
X734161Y114460D01*
X734798Y113691D01*
X735494Y112976D01*
X736245Y112319D01*
X737046Y111724D01*
X737893Y111194D01*
X738778Y110734D01*
X739698Y110346D01*
X740645Y110032D01*
X741615Y109796D01*
X742600Y109637D01*
X743595Y109557D01*
X744593Y109557D01*
X745588Y109637D01*
X746574Y109796D01*
X747543Y110032D01*
X748491Y110346D01*
X749411Y110734D01*
X750296Y111194D01*
X751143Y111724D01*
X751944Y112319D01*
X752695Y112976D01*
X753391Y113691D01*
X754028Y114460D01*
X754602Y115277D01*
X755109Y116136D01*
X755545Y117034D01*
X755909Y117964D01*
X756197Y118919D01*
X756408Y119895D01*
X756540Y120884D01*
X756593Y121881D01*
X756567Y122879D01*
X756461Y123871D01*
X756276Y124852D01*
X756013Y125815D01*
X755675Y126754D01*
X755262Y127663D01*
X754778Y128536D01*
X754227Y129367D01*
X753610Y130153D01*
X752933Y130886D01*
X650591Y85630D02*
X616142D01*
X650591D02*
Y48228D01*
X613189D01*
Y82677D02*
Y48228D01*
X616142Y85630D02*
X613189Y82677D01*
X609252Y83661D02*
Y83661D01*
Y83661D02*
X608268Y84646D01*
X610236D02*
X608268D01*
X610236D02*
X609252Y83661D01*
X609252D01*
X649669Y105620D02*
X641669D01*
X649669Y98120D02*
X641669D01*
X552720Y61211D02*
X544721D01*
X552720Y68711D02*
X544721D01*
X543189Y60587D02*
X542815Y60961D01*
X543189Y60587D02*
X542346D01*
X542721Y60961D02*
X542346Y60587D01*
X542815Y60961D02*
X542721D01*
X552720Y58376D02*
X544721D01*
X552720Y50876D02*
X544721D01*
X495142Y18888D02*
X487142D01*
X495142Y26388D02*
X487142D01*
X456693Y98425D02*
X427165D01*
X451575D02*
Y35433D01*
X456693D02*
X427165D01*
Y98425D02*
Y35433D01*
X521654Y98425D02*
X519685D01*
X521654D02*
Y90551D01*
Y43307D02*
Y35433D01*
X519685D01*
X552720Y36604D02*
X544721D01*
X552720Y44104D02*
X544721D01*
X552720Y27746D02*
X544721D01*
X552720Y35246D02*
X544721D01*
X495142Y124321D02*
X487142D01*
X495142Y116821D02*
X487142D01*
X495142Y114971D02*
X487142D01*
X495142Y107471D02*
X487142D01*
X469551Y9537D02*
X461551D01*
X469551Y17037D02*
X461551D01*
X469551Y18888D02*
X461551D01*
X469551Y26388D02*
X461551D01*
X712661Y61821D02*
X704661D01*
X712661Y54321D02*
X704661D01*
X712661Y70679D02*
X704661D01*
X712661Y63179D02*
X704661D01*
X839567Y64933D02*
X816535Y64961D01*
Y5906D01*
X839567Y5933D02*
X816535Y5906D01*
X820866Y64961D02*
Y5906D01*
X809449Y66142D02*
X734252D01*
X809449D02*
Y4724D01*
X734252D01*
Y28346D02*
Y4724D01*
Y66142D02*
Y42520D01*
X712205Y11779D02*
Y11024D01*
Y16535D02*
Y15579D01*
X705118Y16535D02*
Y15679D01*
Y11779D02*
Y11024D01*
X714611Y16630D02*
X714111Y16129D01*
X714611Y16630D02*
X713611D01*
X714111Y16129D02*
X713611Y16630D01*
X712205Y16535D02*
X705118D01*
X712205Y11024D02*
X705118D01*
X710561Y16479D02*
Y11024D01*
X714661Y28567D02*
Y25567D01*
X702661D01*
Y28567D02*
Y25567D01*
X714661Y28567D02*
X702661D01*
X712661Y36604D02*
X704661D01*
X712661Y44104D02*
X704661D01*
X712661Y52963D02*
X704661D01*
X712661Y45463D02*
X704661D01*
X690945Y89075D02*
X689961D01*
X690945Y104823D02*
X689961D01*
X676181Y89075D02*
X675197D01*
X676181Y104823D02*
X675197D01*
Y89075D01*
X690945Y104823D02*
Y89075D01*
X687071Y107471D02*
X679071D01*
X687071Y114971D02*
X679071D01*
X679528Y78543D02*
Y77787D01*
Y73987D02*
Y73032D01*
X686614Y73887D02*
Y73032D01*
Y78543D02*
Y77787D01*
X677621Y73437D02*
X677121Y72937D01*
X678121D02*
X677121D01*
X678121D02*
X677621Y73437D01*
X686614Y73032D02*
X679528D01*
X686614Y78543D02*
X679528D01*
X681171D02*
Y73087D01*
X712661Y72037D02*
X704661D01*
X712661Y79537D02*
X704661D01*
X712661Y80896D02*
X704661D01*
X712661Y88396D02*
X704661D01*
X701161Y90504D02*
X700661Y90004D01*
X701661D02*
X700661D01*
X701661D02*
X701161Y90504D01*
X706661Y96504D02*
Y90504D01*
X714272Y96850D02*
X703051D01*
X714272Y90158D02*
X703051D01*
X707677Y100591D02*
X706102D01*
X711221D02*
X709646D01*
X711221Y112008D02*
X706102D01*
Y100591D01*
X711221Y112008D02*
Y100591D01*
X789433Y76467D02*
X781433D01*
X789433Y83966D02*
X781433D01*
X712661Y116821D02*
X704661D01*
X712661Y124321D02*
X704661D01*
X794488Y87756D02*
X776378D01*
X794488Y99252D02*
X776378D01*
X794488Y89004D02*
Y87756D01*
Y99252D02*
Y98004D01*
X776378Y99252D02*
Y98004D01*
Y89004D02*
Y87756D01*
X774933Y87504D02*
X772933D01*
X773933Y89004D02*
X772933Y87504D01*
X774933D02*
X773933Y89004D01*
X792126Y102854D02*
X778740D01*
X792126Y110728D02*
X778740D01*
X794488Y114331D02*
X776378D01*
X794488Y125827D02*
X776378D01*
X794488Y115579D02*
Y114331D01*
Y125827D02*
Y124579D01*
X776378Y125827D02*
Y124579D01*
Y115579D02*
Y114331D01*
X774933Y114079D02*
X772933D01*
X773933Y115579D02*
X772933Y114079D01*
X774933D02*
X773933Y115579D01*
X839862Y90748D02*
X808760D01*
X839862Y126181D02*
X837106Y126181D01*
X811516D02*
X808760D01*
Y94685D02*
Y90748D01*
Y126181D02*
Y122244D01*
X624079Y26388D02*
X616079D01*
X624079Y18888D02*
X616079D01*
X663140Y122500D02*
X660640Y125000D01*
X663140Y127500D02*
Y122500D01*
Y127500D02*
X660640Y125000D01*
X656890Y130000D02*
Y120000D01*
Y130000D02*
X606890D01*
X656890Y120000D02*
X606890D01*
Y130000D02*
Y120000D01*
X624079Y107471D02*
X616079D01*
X624079Y114971D02*
X616079D01*
X687071Y44104D02*
X679071D01*
X687071Y36604D02*
X679071D01*
X649669Y114971D02*
X641669D01*
X649669Y107471D02*
X641669D01*
X687071Y70679D02*
X679071D01*
X687071Y63179D02*
X679071D01*
X649669Y26388D02*
X641669D01*
X649669Y18888D02*
X641669D01*
X624079Y98612D02*
X616079D01*
X624079Y106112D02*
X616079D01*
X649669Y35246D02*
X641669D01*
X649669Y27746D02*
X641669D01*
X624079Y35246D02*
X616079D01*
X624079Y27746D02*
X616079D01*
X584709Y35246D02*
X576709D01*
X584709Y27746D02*
X576709D01*
X585824Y114075D02*
X574624D01*
X585824Y108366D02*
X574624D01*
X584709Y106112D02*
X576709D01*
X584709Y98612D02*
X576709D01*
X584709Y123829D02*
X576709D01*
X584709Y116329D02*
X576709D01*
X584709Y58868D02*
X576709D01*
X584709Y51368D02*
X576709D01*
X584709Y86801D02*
X576709D01*
X584709Y94301D02*
X576709D01*
X584709Y44104D02*
X576709D01*
X584709Y36604D02*
X576709D01*
X226378Y52165D02*
X225886Y53018D01*
X224902D01*
X224409Y52165D01*
X224902Y51313D01*
X225886D01*
X226378Y52165D01*
X25591Y78740D02*
X25327Y79724D01*
X24606Y80445D01*
X23622Y80709D01*
X22638Y80445D01*
X21917Y79724D01*
X21654Y78740D01*
X21917Y77756D01*
X22638Y77035D01*
X23622Y76772D01*
X24606Y77035D01*
X25327Y77756D01*
X25591Y78740D01*
Y118110D02*
X25327Y119095D01*
X24606Y119815D01*
X23622Y120079D01*
X22638Y119815D01*
X21917Y119095D01*
X21654Y118110D01*
X21917Y117126D01*
X22638Y116405D01*
X23622Y116142D01*
X24606Y116405D01*
X25327Y117126D01*
X25591Y118110D01*
Y98425D02*
X25327Y99409D01*
X24606Y100130D01*
X23622Y100394D01*
X22638Y100130D01*
X21917Y99409D01*
X21654Y98425D01*
X21917Y97441D01*
X22638Y96720D01*
X23622Y96457D01*
X24606Y96720D01*
X25327Y97441D01*
X25591Y98425D01*
X132874Y33268D02*
X133420Y32581D01*
X134297D01*
X134843Y33268D01*
X114173Y43307D02*
X114141Y44306D01*
X114047Y45301D01*
X113889Y46287D01*
X113669Y47262D01*
X113387Y48221D01*
X113045Y49160D01*
X112645Y50076D01*
X112187Y50964D01*
X111673Y51821D01*
X111107Y52644D01*
X110489Y53430D01*
X109823Y54175D01*
X109110Y54875D01*
X108355Y55530D01*
X107560Y56135D01*
X106728Y56689D01*
X105862Y57188D01*
X104967Y57632D01*
X104045Y58018D01*
X103101Y58345D01*
X102138Y58611D01*
X101160Y58816D01*
X100171Y58958D01*
X99174Y59037D01*
X98175Y59053D01*
X97177Y59006D01*
X96184Y58895D01*
X95200Y58721D01*
X94229Y58486D01*
X93274Y58189D01*
X92341Y57832D01*
X91432Y57417D01*
X90551Y56945D01*
X89702Y56418D01*
X88888Y55839D01*
X88112Y55209D01*
X87378Y54531D01*
X86689Y53807D01*
X86046Y53042D01*
X85454Y52237D01*
X84914Y51397D01*
X84428Y50523D01*
X83998Y49621D01*
X83627Y48693D01*
X83315Y47744D01*
X83064Y46777D01*
X82875Y45795D01*
X82749Y44804D01*
X82685Y43807D01*
Y42807D01*
X82749Y41810D01*
X82875Y40819D01*
X83064Y39838D01*
X83315Y38870D01*
X83627Y37921D01*
X83998Y36993D01*
X84428Y36091D01*
X84914Y35218D01*
X85454Y34377D01*
X86046Y33572D01*
X86689Y32807D01*
X87378Y32083D01*
X88112Y31405D01*
X88888Y30775D01*
X89702Y30196D01*
X90551Y29669D01*
X91432Y29197D01*
X92341Y28782D01*
X93274Y28425D01*
X94229Y28128D01*
X95200Y27893D01*
X96184Y27719D01*
X97177Y27609D01*
X98175Y27561D01*
X99174Y27577D01*
X100171Y27656D01*
X101160Y27798D01*
X102138Y28003D01*
X103101Y28269D01*
X104045Y28596D01*
X104967Y28982D01*
X105862Y29426D01*
X106728Y29926D01*
X107560Y30479D01*
X108355Y31084D01*
X109110Y31739D01*
X109823Y32440D01*
X110489Y33184D01*
X111107Y33970D01*
X111673Y34793D01*
X112187Y35650D01*
X112645Y36539D01*
X113045Y37454D01*
X113387Y38393D01*
X113669Y39352D01*
X113889Y40327D01*
X114047Y41313D01*
X114141Y42308D01*
X114173Y43307D01*
X107264Y2972D02*
X107941Y3706D01*
X108557Y4491D01*
X109109Y5322D01*
X109593Y6196D01*
X110005Y7104D01*
X110344Y8043D01*
X110607Y9006D01*
X110791Y9987D01*
X110898Y10980D01*
X110924Y11977D01*
X110871Y12974D01*
X110739Y13963D01*
X110528Y14939D01*
X110239Y15895D01*
X109876Y16824D01*
X109439Y17722D01*
X108933Y18582D01*
X108359Y19399D01*
X107722Y20167D01*
X107026Y20882D01*
X106274Y21539D01*
X105473Y22135D01*
X104627Y22664D01*
X103742Y23124D01*
X102822Y23512D01*
X101874Y23826D01*
X100905Y24063D01*
X99919Y24221D01*
X98924Y24301D01*
X97926Y24301D01*
X96931Y24221D01*
X95946Y24063D01*
X94976Y23826D01*
X94029Y23512D01*
X93109Y23124D01*
X92223Y22664D01*
X91377Y22135D01*
X90576Y21539D01*
X89825Y20882D01*
X89129Y20167D01*
X88491Y19399D01*
X87918Y18582D01*
X87411Y17722D01*
X86975Y16824D01*
X86611Y15895D01*
X86323Y14939D01*
X86112Y13963D01*
X85979Y12974D01*
X85926Y11977D01*
X85953Y10980D01*
X86059Y9987D01*
X86244Y9006D01*
X86506Y8043D01*
X86845Y7104D01*
X87258Y6196D01*
X87741Y5322D01*
X88293Y4491D01*
X88909Y3706D01*
X89586Y2972D01*
X191929Y48228D02*
X226378D01*
X191929D02*
Y85630D01*
X229331D01*
Y51181D02*
Y85630D01*
X226378Y48228D02*
X229331Y51181D01*
X233268Y50197D02*
Y50197D01*
Y50197D02*
X234252Y49213D01*
X232283D02*
X234252D01*
X232283D02*
X233268Y50197D01*
X233268D01*
X192850Y28238D02*
X200850D01*
X192850Y35738D02*
X200850D01*
X289799Y72648D02*
X297799D01*
X289799Y65148D02*
X297799D01*
X299331Y73272D02*
X299705Y72898D01*
X299331Y73272D02*
X300173D01*
X299799Y72898D02*
X300173Y73272D01*
X299705Y72898D02*
X299799D01*
X289799Y75482D02*
X297799D01*
X289799Y82982D02*
X297799D01*
X347378Y114971D02*
X355378D01*
X347378Y107471D02*
X355378D01*
X385827Y35433D02*
X415354D01*
X390945D02*
Y98425D01*
X385827D02*
X415354D01*
Y35433D02*
Y98425D01*
X320866Y35433D02*
X322835D01*
X320866D02*
Y43307D01*
Y90551D02*
Y98425D01*
X322835D01*
X289799Y97254D02*
X297799D01*
X289799Y89754D02*
X297799D01*
X289799Y106112D02*
X297799D01*
X289799Y98612D02*
X297799D01*
X347378Y9537D02*
X355378D01*
X347378Y17037D02*
X355378D01*
X347378Y18888D02*
X355378D01*
X347378Y26388D02*
X355378D01*
X372969Y124321D02*
X380968D01*
X372969Y116821D02*
X380968D01*
X372969Y114971D02*
X380968D01*
X372969Y107471D02*
X380968D01*
X129858Y72037D02*
X137858D01*
X129858Y79537D02*
X137858D01*
X129858Y63179D02*
X137858D01*
X129858Y70679D02*
X137858D01*
X2953Y68925D02*
X25984Y68898D01*
Y127953D01*
X2953Y127925D02*
X25984Y127953D01*
X21654Y68898D02*
Y127953D01*
X33071Y67716D02*
X108268D01*
X33071D02*
Y129134D01*
X108268D01*
Y105512D02*
Y129134D01*
Y67716D02*
Y91339D01*
X130315Y122079D02*
Y122835D01*
Y117323D02*
Y118279D01*
X137402Y117323D02*
Y118179D01*
Y122079D02*
Y122835D01*
X127908Y117229D02*
X128408Y117729D01*
X127908Y117229D02*
X128908D01*
X128408Y117729D02*
X128908Y117229D01*
X130315Y117323D02*
X137402D01*
X130315Y122835D02*
X137402D01*
X131958Y117379D02*
Y122835D01*
X127858Y105291D02*
Y108291D01*
X139858D01*
Y105291D02*
Y108291D01*
X127858Y105291D02*
X139858D01*
X129858Y97254D02*
X137858D01*
X129858Y89754D02*
X137858D01*
X129858Y80896D02*
X137858D01*
X129858Y88396D02*
X137858D01*
X151575Y44783D02*
X152559D01*
X151575Y29035D02*
X152559D01*
X166339Y44783D02*
X167323D01*
X166339Y29035D02*
X167323D01*
Y44783D01*
X151575Y29035D02*
Y44783D01*
X155449Y26388D02*
X163449D01*
X155449Y18888D02*
X163449D01*
X162992Y55315D02*
Y56071D01*
Y59871D02*
Y60827D01*
X155905Y59971D02*
Y60827D01*
Y55315D02*
Y56071D01*
X164899Y60421D02*
X165399Y60921D01*
X164399D02*
X165399D01*
X164399D02*
X164899Y60421D01*
X155905Y60827D02*
X162992D01*
X155905Y55315D02*
X162992D01*
X161349D02*
Y60771D01*
X129858Y61821D02*
X137858D01*
X129858Y54321D02*
X137858D01*
X129858Y52963D02*
X137858D01*
X129858Y45463D02*
X137858D01*
X141358Y43354D02*
X141858Y43854D01*
X140858D02*
X141858D01*
X140858D02*
X141358Y43354D01*
X135858Y37354D02*
Y43354D01*
X128248Y37008D02*
X139469D01*
X128248Y43701D02*
X139469D01*
X134843Y33268D02*
X136417D01*
X131299D02*
X132874D01*
X131299Y21850D02*
X136417D01*
Y33268D01*
X131299Y21850D02*
Y33268D01*
X53087Y57392D02*
X61087D01*
X53087Y49892D02*
X61087D01*
X129858Y17037D02*
X137858D01*
X129858Y9537D02*
X137858D01*
X48031Y46102D02*
X66142D01*
X48031Y34606D02*
X66142D01*
X48031Y44854D02*
Y46102D01*
Y34606D02*
Y35854D01*
X66142Y34606D02*
Y35854D01*
Y44854D02*
Y46102D01*
X67587Y46354D02*
X69587D01*
X68587Y44854D02*
X69587Y46354D01*
X67587D02*
X68587Y44854D01*
X50394Y31004D02*
X63779D01*
X50394Y23130D02*
X63779D01*
X48031Y19527D02*
X66142D01*
X48031Y8032D02*
X66142D01*
X48031Y18280D02*
Y19527D01*
Y8032D02*
Y9279D01*
X66142Y8032D02*
Y9279D01*
Y18280D02*
Y19527D01*
X67587Y19780D02*
X69587D01*
X68587Y18280D02*
X69587Y19780D01*
X67587D02*
X68587Y18280D01*
X2657Y43110D02*
X33760D01*
X2657Y7677D02*
X5413Y7677D01*
X31004D02*
X33760D01*
Y39173D02*
Y43110D01*
Y7677D02*
Y11614D01*
X218441Y107471D02*
X226441D01*
X218441Y114971D02*
X226441D01*
X179380Y11358D02*
X181880Y8858D01*
X179380Y6358D02*
Y11358D01*
Y6358D02*
X181880Y8858D01*
X185630Y3858D02*
Y13858D01*
Y3858D02*
X235630D01*
X185630Y13858D02*
X235630D01*
Y3858D02*
Y13858D01*
X218441Y26388D02*
X226441D01*
X218441Y18888D02*
X226441D01*
X155449Y89754D02*
X163449D01*
X155449Y97254D02*
X163449D01*
X192850Y18888D02*
X200850D01*
X192850Y26388D02*
X200850D01*
X155449Y63179D02*
X163449D01*
X155449Y70679D02*
X163449D01*
X192850Y107471D02*
X200850D01*
X192850Y114971D02*
X200850D01*
X218441Y35246D02*
X226441D01*
X218441Y27746D02*
X226441D01*
X192850Y98612D02*
X200850D01*
X192850Y106112D02*
X200850D01*
X218441Y98612D02*
X226441D01*
X218441Y106112D02*
X226441D01*
X257811Y98612D02*
X265811D01*
X257811Y106112D02*
X265811D01*
X256695Y19783D02*
X267895D01*
X256695Y25492D02*
X267895D01*
X257811Y27746D02*
X265811D01*
X257811Y35246D02*
X265811D01*
X257811Y10029D02*
X265811D01*
X257811Y17529D02*
X265811D01*
X257811Y74990D02*
X265811D01*
X257811Y82490D02*
X265811D01*
X257811Y47057D02*
X265811D01*
X257811Y39557D02*
X265811D01*
X257811Y89754D02*
X265811D01*
X257811Y97254D02*
X265811D01*
X226378Y186024D02*
X225886Y186876D01*
X224902D01*
X224409Y186024D01*
X224902Y185171D01*
X225886D01*
X226378Y186024D01*
X25591Y212598D02*
X25327Y213583D01*
X24606Y214303D01*
X23622Y214567D01*
X22638Y214303D01*
X21917Y213583D01*
X21654Y212598D01*
X21917Y211614D01*
X22638Y210894D01*
X23622Y210630D01*
X24606Y210894D01*
X25327Y211614D01*
X25591Y212598D01*
Y251969D02*
X25327Y252953D01*
X24606Y253673D01*
X23622Y253937D01*
X22638Y253673D01*
X21917Y252953D01*
X21654Y251969D01*
X21917Y250984D01*
X22638Y250264D01*
X23622Y250000D01*
X24606Y250264D01*
X25327Y250984D01*
X25591Y251969D01*
Y232283D02*
X25327Y233268D01*
X24606Y233988D01*
X23622Y234252D01*
X22638Y233988D01*
X21917Y233268D01*
X21654Y232283D01*
X21917Y231299D01*
X22638Y230579D01*
X23622Y230315D01*
X24606Y230579D01*
X25327Y231299D01*
X25591Y232283D01*
X132874Y167126D02*
X133420Y166439D01*
X134297D01*
X134843Y167126D01*
X114173Y177165D02*
X114141Y178164D01*
X114047Y179159D01*
X113889Y180146D01*
X113669Y181120D01*
X113387Y182079D01*
X113045Y183018D01*
X112645Y183934D01*
X112187Y184822D01*
X111673Y185679D01*
X111107Y186503D01*
X110489Y187288D01*
X109823Y188033D01*
X109110Y188734D01*
X108355Y189388D01*
X107560Y189993D01*
X106728Y190547D01*
X105862Y191047D01*
X104967Y191490D01*
X104045Y191876D01*
X103101Y192203D01*
X102138Y192470D01*
X101160Y192674D01*
X100171Y192816D01*
X99174Y192895D01*
X98175Y192911D01*
X97177Y192864D01*
X96184Y192753D01*
X95200Y192580D01*
X94229Y192344D01*
X93274Y192047D01*
X92341Y191691D01*
X91432Y191276D01*
X90551Y190804D01*
X89702Y190277D01*
X88888Y189697D01*
X88112Y189067D01*
X87378Y188389D01*
X86689Y187666D01*
X86046Y186900D01*
X85454Y186095D01*
X84914Y185255D01*
X84428Y184381D01*
X83998Y183479D01*
X83627Y182552D01*
X83315Y181602D01*
X83064Y180635D01*
X82875Y179654D01*
X82749Y178662D01*
X82685Y177665D01*
Y176666D01*
X82749Y175668D01*
X82875Y174677D01*
X83064Y173696D01*
X83315Y172729D01*
X83627Y171779D01*
X83998Y170852D01*
X84428Y169949D01*
X84914Y169076D01*
X85454Y168235D01*
X86046Y167431D01*
X86689Y166665D01*
X87378Y165942D01*
X88112Y165264D01*
X88888Y164634D01*
X89702Y164054D01*
X90551Y163527D01*
X91432Y163055D01*
X92341Y162640D01*
X93274Y162283D01*
X94229Y161987D01*
X95200Y161751D01*
X96184Y161578D01*
X97177Y161467D01*
X98175Y161419D01*
X99174Y161435D01*
X100171Y161514D01*
X101160Y161657D01*
X102138Y161861D01*
X103101Y162127D01*
X104045Y162454D01*
X104967Y162840D01*
X105862Y163284D01*
X106728Y163784D01*
X107560Y164337D01*
X108355Y164943D01*
X109110Y165597D01*
X109823Y166298D01*
X110489Y167043D01*
X111107Y167828D01*
X111673Y168651D01*
X112187Y169509D01*
X112645Y170397D01*
X113045Y171312D01*
X113387Y172251D01*
X113669Y173210D01*
X113889Y174185D01*
X114047Y175172D01*
X114141Y176166D01*
X114173Y177165D01*
X107264Y136830D02*
X107941Y137564D01*
X108557Y138349D01*
X109109Y139181D01*
X109593Y140054D01*
X110005Y140963D01*
X110344Y141902D01*
X110607Y142865D01*
X110791Y143845D01*
X110898Y144838D01*
X110924Y145836D01*
X110871Y146832D01*
X110739Y147822D01*
X110528Y148797D01*
X110239Y149753D01*
X109876Y150682D01*
X109439Y151580D01*
X108933Y152440D01*
X108359Y153257D01*
X107722Y154025D01*
X107026Y154740D01*
X106274Y155397D01*
X105473Y155993D01*
X104627Y156522D01*
X103742Y156982D01*
X102822Y157370D01*
X101874Y157684D01*
X100905Y157921D01*
X99919Y158080D01*
X98924Y158159D01*
X97926Y158159D01*
X96931Y158080D01*
X95946Y157921D01*
X94976Y157684D01*
X94029Y157371D01*
X93109Y156983D01*
X92223Y156522D01*
X91377Y155993D01*
X90576Y155398D01*
X89825Y154740D01*
X89129Y154025D01*
X88491Y153257D01*
X87918Y152440D01*
X87411Y151580D01*
X86975Y150682D01*
X86611Y149753D01*
X86323Y148797D01*
X86112Y147822D01*
X85979Y146832D01*
X85926Y145836D01*
X85953Y144838D01*
X86059Y143845D01*
X86244Y142865D01*
X86506Y141902D01*
X86845Y140963D01*
X87258Y140054D01*
X87741Y139181D01*
X88293Y138349D01*
X88909Y137564D01*
X89586Y136830D01*
X191929Y182087D02*
X226378D01*
X191929D02*
Y219488D01*
X229331D01*
Y185039D02*
Y219488D01*
X226378Y182087D02*
X229331Y185039D01*
X233268Y184055D02*
Y184055D01*
Y184055D02*
X234252Y183071D01*
X232283D02*
X234252D01*
X232283D02*
X233268Y184055D01*
X233268D01*
X192850Y162097D02*
X200850D01*
X192850Y169597D02*
X200850D01*
X289799Y206506D02*
X297799D01*
X289799Y199006D02*
X297799D01*
X299331Y207130D02*
X299705Y206756D01*
X299331Y207130D02*
X300173D01*
X299799Y206756D02*
X300173Y207130D01*
X299705Y206756D02*
X299799D01*
X289799Y209341D02*
X297799D01*
X289799Y216841D02*
X297799D01*
X347378Y248829D02*
X355378D01*
X347378Y241329D02*
X355378D01*
X385827Y169291D02*
X415354D01*
X390945D02*
Y232283D01*
X385827D02*
X415354D01*
Y169291D02*
Y232283D01*
X320866Y169291D02*
X322835D01*
X320866D02*
Y177165D01*
Y224410D02*
Y232283D01*
X322835D01*
X289799Y231112D02*
X297799D01*
X289799Y223612D02*
X297799D01*
X289799Y239970D02*
X297799D01*
X289799Y232470D02*
X297799D01*
X347378Y143396D02*
X355378D01*
X347378Y150896D02*
X355378D01*
X347378Y152746D02*
X355378D01*
X347378Y160246D02*
X355378D01*
X372969Y258179D02*
X380968D01*
X372969Y250679D02*
X380968D01*
X372969Y248829D02*
X380968D01*
X372969Y241329D02*
X380968D01*
X129858Y205896D02*
X137858D01*
X129858Y213396D02*
X137858D01*
X129858Y197037D02*
X137858D01*
X129858Y204537D02*
X137858D01*
X2953Y202783D02*
X25984Y202756D01*
Y261811D01*
X2953Y261784D02*
X25984Y261811D01*
X21654Y202756D02*
Y261811D01*
X33071Y201575D02*
X108268D01*
X33071D02*
Y262992D01*
X108268D01*
Y239370D02*
Y262992D01*
Y201575D02*
Y225197D01*
X130315Y255937D02*
Y256693D01*
Y251181D02*
Y252137D01*
X137402Y251181D02*
Y252037D01*
Y255937D02*
Y256693D01*
X127908Y251087D02*
X128408Y251587D01*
X127908Y251087D02*
X128908D01*
X128408Y251587D02*
X128908Y251087D01*
X130315Y251181D02*
X137402D01*
X130315Y256693D02*
X137402D01*
X131958Y251237D02*
Y256693D01*
X127858Y239150D02*
Y242150D01*
X139858D01*
Y239150D02*
Y242150D01*
X127858Y239150D02*
X139858D01*
X129858Y231112D02*
X137858D01*
X129858Y223612D02*
X137858D01*
X129858Y214754D02*
X137858D01*
X129858Y222254D02*
X137858D01*
X151575Y178642D02*
X152559D01*
X151575Y162894D02*
X152559D01*
X166339Y178642D02*
X167323D01*
X166339Y162894D02*
X167323D01*
Y178642D01*
X151575Y162894D02*
Y178642D01*
X155449Y160246D02*
X163449D01*
X155449Y152746D02*
X163449D01*
X162992Y189173D02*
Y189929D01*
Y193729D02*
Y194685D01*
X155905Y193829D02*
Y194685D01*
Y189173D02*
Y189929D01*
X164899Y194279D02*
X165399Y194779D01*
X164399D02*
X165399D01*
X164399D02*
X164899Y194279D01*
X155905Y194685D02*
X162992D01*
X155905Y189173D02*
X162992D01*
X161349D02*
Y194629D01*
X129858Y195679D02*
X137858D01*
X129858Y188179D02*
X137858D01*
X129858Y186821D02*
X137858D01*
X129858Y179321D02*
X137858D01*
X141358Y177213D02*
X141858Y177713D01*
X140858D02*
X141858D01*
X140858D02*
X141358Y177213D01*
X135858Y171213D02*
Y177213D01*
X128248Y170866D02*
X139469D01*
X128248Y177559D02*
X139469D01*
X134843Y167126D02*
X136417D01*
X131299D02*
X132874D01*
X131299Y155709D02*
X136417D01*
Y167126D01*
X131299Y155709D02*
Y167126D01*
X53087Y191250D02*
X61087D01*
X53087Y183750D02*
X61087D01*
X129858Y150896D02*
X137858D01*
X129858Y143396D02*
X137858D01*
X48031Y179961D02*
X66142D01*
X48031Y168465D02*
X66142D01*
X48031Y178713D02*
Y179961D01*
Y168465D02*
Y169713D01*
X66142Y168465D02*
Y169713D01*
Y178713D02*
Y179961D01*
X67587Y180213D02*
X69587D01*
X68587Y178713D02*
X69587Y180213D01*
X67587D02*
X68587Y178713D01*
X50394Y164862D02*
X63779D01*
X50394Y156988D02*
X63779D01*
X48031Y153386D02*
X66142D01*
X48031Y141890D02*
X66142D01*
X48031Y152138D02*
Y153386D01*
Y141890D02*
Y143138D01*
X66142Y141890D02*
Y143138D01*
Y152138D02*
Y153386D01*
X67587Y153638D02*
X69587D01*
X68587Y152138D02*
X69587Y153638D01*
X67587D02*
X68587Y152138D01*
X2657Y176969D02*
X33760D01*
X2657Y141535D02*
X5413Y141535D01*
X31004D02*
X33760D01*
Y173031D02*
Y176969D01*
Y141535D02*
Y145472D01*
X218441Y241329D02*
X226441D01*
X218441Y248829D02*
X226441D01*
X179380Y145217D02*
X181880Y142717D01*
X179380Y140217D02*
Y145217D01*
Y140217D02*
X181880Y142717D01*
X185630Y137716D02*
Y147716D01*
Y137716D02*
X235630D01*
X185630Y147716D02*
X235630D01*
Y137716D02*
Y147716D01*
X218441Y160246D02*
X226441D01*
X218441Y152746D02*
X226441D01*
X155449Y223612D02*
X163449D01*
X155449Y231112D02*
X163449D01*
X192850Y152746D02*
X200850D01*
X192850Y160246D02*
X200850D01*
X155449Y197037D02*
X163449D01*
X155449Y204537D02*
X163449D01*
X192850Y241329D02*
X200850D01*
X192850Y248829D02*
X200850D01*
X218441Y169104D02*
X226441D01*
X218441Y161604D02*
X226441D01*
X192850Y232470D02*
X200850D01*
X192850Y239970D02*
X200850D01*
X218441Y232470D02*
X226441D01*
X218441Y239970D02*
X226441D01*
X257811Y232470D02*
X265811D01*
X257811Y239970D02*
X265811D01*
X256695Y153642D02*
X267895D01*
X256695Y159350D02*
X267895D01*
X257811Y161604D02*
X265811D01*
X257811Y169104D02*
X265811D01*
X257811Y143888D02*
X265811D01*
X257811Y151388D02*
X265811D01*
X257811Y208848D02*
X265811D01*
X257811Y216348D02*
X265811D01*
X257811Y180915D02*
X265811D01*
X257811Y173415D02*
X265811D01*
X257811Y223612D02*
X265811D01*
X257811Y231112D02*
X265811D01*
G54D52*
X718110Y236221D02*
X718898D01*
X718110D01*
Y102362D02*
X718898D01*
X718110D01*
X124409Y31496D02*
X123622D01*
X124409D01*
Y165354D02*
X123622D01*
X124409D01*
G54D53*
X744095Y206693D02*
Y203740D01*
X586614Y210236D02*
Y203150D01*
X574803Y210236D02*
Y203150D01*
X581890Y196850D02*
X579528D01*
X581890Y216535D02*
X579528D01*
X744095Y72835D02*
Y69882D01*
X586614Y76378D02*
Y69291D01*
X574803Y76378D02*
Y69291D01*
X581890Y62992D02*
X579528D01*
X581890Y82677D02*
X579528D01*
X98425Y61024D02*
Y63976D01*
X255906Y57480D02*
Y64567D01*
X267717Y57480D02*
Y64567D01*
X260630Y70866D02*
X262992D01*
X260630Y51181D02*
X262992D01*
X98425Y194882D02*
Y197835D01*
X255906Y191339D02*
Y198425D01*
X267717Y191339D02*
Y198425D01*
X260630Y204724D02*
X262992D01*
X260630Y185039D02*
X262992D01*
G54D54*
X727591Y237658D02*
Y241824D01*
X726757Y242657D01*
X725091D01*
X724258Y241824D01*
Y237658D01*
X722592Y238491D02*
X721759Y237658D01*
X720093D01*
X719260Y238491D01*
Y239324D01*
X720093Y240158D01*
X720926D01*
X720093D01*
X719260Y240990D01*
Y241824D01*
X720093Y242657D01*
X721759D01*
X722592Y241824D01*
X438220Y161379D02*
Y165544D01*
X437387Y166377D01*
X435721D01*
X434888Y165544D01*
Y161379D01*
X429890Y166377D02*
X433222D01*
X429890Y163045D01*
Y162212D01*
X430723Y161379D01*
X432389D01*
X433222Y162212D01*
X807505Y207716D02*
Y202717D01*
X805005D01*
X804172Y203550D01*
Y205217D01*
X805005Y206050D01*
X807505D01*
X805838D02*
X804172Y207716D01*
X802506Y202717D02*
Y207716D01*
X799174D01*
X797508D02*
X795842D01*
X796675D01*
Y202717D01*
X797508Y203550D01*
X725622Y176712D02*
Y171713D01*
X723123D01*
X722290Y172547D01*
Y174213D01*
X723123Y175046D01*
X725622D01*
X723956D02*
X722290Y176712D01*
X720624Y175879D02*
X719791Y176712D01*
X718124D01*
X717291Y175879D01*
Y172547D01*
X718124Y171713D01*
X719791D01*
X720624Y172547D01*
Y173380D01*
X719791Y174213D01*
X717291D01*
X725622Y185570D02*
Y180572D01*
X723123D01*
X722290Y181405D01*
Y183071D01*
X723123Y183904D01*
X725622D01*
X723956D02*
X722290Y185570D01*
X720624Y181405D02*
X719791Y180572D01*
X718124D01*
X717291Y181405D01*
Y182238D01*
X718124Y183071D01*
X717291Y183904D01*
Y184737D01*
X718124Y185570D01*
X719791D01*
X720624Y184737D01*
Y183904D01*
X719791Y183071D01*
X720624Y182238D01*
Y181405D01*
X719791Y183071D02*
X718124D01*
X457413Y150137D02*
Y145139D01*
X454914D01*
X454081Y145972D01*
Y147638D01*
X454914Y148471D01*
X457413D01*
X455747D02*
X454081Y150137D01*
X452415Y145139D02*
X449083D01*
Y145972D01*
X452415Y149304D01*
Y150137D01*
X483004Y158995D02*
Y153997D01*
X480505D01*
X479672Y154830D01*
Y156496D01*
X480505Y157329D01*
X483004D01*
X481338D02*
X479672Y158995D01*
X474673Y153997D02*
X476339Y154830D01*
X478006Y156496D01*
Y158162D01*
X477173Y158995D01*
X475506D01*
X474673Y158162D01*
Y157329D01*
X475506Y156496D01*
X478006D01*
X482512Y247578D02*
Y242580D01*
X480013D01*
X479179Y243413D01*
Y245079D01*
X480013Y245912D01*
X482512D01*
X480846D02*
X479179Y247578D01*
X474181Y242580D02*
X477513D01*
Y245079D01*
X475847Y244246D01*
X475014D01*
X474181Y245079D01*
Y246745D01*
X475014Y247578D01*
X476680D01*
X477513Y246745D01*
X482512Y256928D02*
Y251930D01*
X480013D01*
X479179Y252763D01*
Y254429D01*
X480013Y255262D01*
X482512D01*
X480846D02*
X479179Y256928D01*
X475014D02*
Y251930D01*
X477513Y254429D01*
X474181D01*
X725622Y202795D02*
Y197796D01*
X723123D01*
X722290Y198629D01*
Y200295D01*
X723123Y201128D01*
X725622D01*
X723956D02*
X722290Y202795D01*
X720624Y198629D02*
X719791Y197796D01*
X718124D01*
X717291Y198629D01*
Y199462D01*
X718124Y200295D01*
X718958D01*
X718124D01*
X717291Y201128D01*
Y201961D01*
X718124Y202795D01*
X719791D01*
X720624Y201961D01*
X720624Y162591D02*
Y159259D01*
X721457Y158426D01*
X723123D01*
X723956Y159259D01*
Y162591D01*
X723123Y163424D01*
X721457D01*
X722290Y161758D02*
X720624Y163424D01*
X721457D02*
X720624Y162591D01*
X718958Y163424D02*
X717291D01*
X718124D01*
Y158426D01*
X718958Y159259D01*
X774494Y243149D02*
Y238150D01*
X771994D01*
X771161Y238983D01*
Y240650D01*
X771994Y241483D01*
X774494D01*
X769495Y243149D02*
X767829D01*
X768662D01*
Y238150D01*
X769495Y238983D01*
X686403Y215020D02*
Y220019D01*
X683071D01*
X681405D02*
X679739D01*
X680572D01*
Y215020D01*
X681405Y215854D01*
X725622Y144647D02*
Y149645D01*
X723123D01*
X722290Y148812D01*
Y145480D01*
X723123Y144647D01*
X725622D01*
X717291D02*
X718958Y145480D01*
X720624Y147146D01*
Y148812D01*
X719791Y149645D01*
X718124D01*
X717291Y148812D01*
Y147979D01*
X718124Y147146D01*
X720624D01*
X726606Y224863D02*
Y229861D01*
X724107D01*
X723274Y229028D01*
Y225696D01*
X724107Y224863D01*
X726606D01*
X718276D02*
X721608D01*
Y227362D01*
X719942Y226529D01*
X719109D01*
X718276Y227362D01*
Y229028D01*
X719109Y229861D01*
X720775D01*
X721608Y229028D01*
X541075Y196320D02*
Y201318D01*
X538576D01*
X537743Y200485D01*
Y197153D01*
X538576Y196320D01*
X541075D01*
X533577Y201318D02*
Y196320D01*
X536076Y198819D01*
X532744D01*
X770064Y224863D02*
Y229861D01*
X767565D01*
X766732Y229028D01*
Y225696D01*
X767565Y224863D01*
X770064D01*
X765066Y225696D02*
X764233Y224863D01*
X762567D01*
X761734Y225696D01*
Y226529D01*
X762567Y227362D01*
X763400D01*
X762567D01*
X761734Y228195D01*
Y229028D01*
X762567Y229861D01*
X764233D01*
X765066Y229028D01*
X675047Y207147D02*
Y212145D01*
X672548D01*
X671715Y211312D01*
Y207979D01*
X672548Y207147D01*
X675047D01*
X666717Y212145D02*
X670049D01*
X666717Y208813D01*
Y207979D01*
X667550Y207147D01*
X669216D01*
X670049Y207979D01*
X770064Y251438D02*
Y256436D01*
X767565D01*
X766732Y255603D01*
Y252271D01*
X767565Y251438D01*
X770064D01*
X765066Y256436D02*
X763400D01*
X764233D01*
Y251438D01*
X765066Y252271D01*
X833057Y202566D02*
X833890Y201733D01*
X835556D01*
X836389Y202566D01*
Y205898D01*
X835556Y206732D01*
X833890D01*
X833057Y205898D01*
X831390Y206732D02*
Y201733D01*
X828058Y206732D01*
Y201733D01*
X823060Y206732D02*
X826392D01*
X823060Y203399D01*
Y202566D01*
X823893Y201733D01*
X825559D01*
X826392Y202566D01*
X826318Y217035D02*
X827151Y216202D01*
X828817D01*
X829650Y217035D01*
Y220367D01*
X828817Y221200D01*
X827151D01*
X826318Y220367D01*
X824652Y221200D02*
Y216202D01*
X821320Y221200D01*
Y216202D01*
X819654Y221200D02*
X817988D01*
X818820D01*
Y216202D01*
X819654Y217035D01*
X661039Y243413D02*
X661872Y242580D01*
X663539D01*
X664372Y243413D01*
Y246745D01*
X663539Y247578D01*
X661872D01*
X661039Y246745D01*
X659373Y247578D02*
X657707D01*
X658540D01*
Y242580D01*
X659373Y243413D01*
X655208Y247578D02*
X653542D01*
X654375D01*
Y242580D01*
X655208Y243413D01*
X537743Y172054D02*
X538576Y171221D01*
X540242D01*
X541075Y172054D01*
Y175387D01*
X540242Y176220D01*
X538576D01*
X537743Y175387D01*
X536076D02*
X535243Y176220D01*
X533577D01*
X532744Y175387D01*
Y172054D01*
X533577Y171221D01*
X535243D01*
X536076Y172054D01*
Y172887D01*
X535243Y173721D01*
X532744D01*
X537743Y163688D02*
X538576Y162855D01*
X540242D01*
X541075Y163688D01*
Y167020D01*
X540242Y167853D01*
X538576D01*
X537743Y167020D01*
X536076Y163688D02*
X535243Y162855D01*
X533577D01*
X532744Y163688D01*
Y164521D01*
X533577Y165354D01*
X532744Y166187D01*
Y167020D01*
X533577Y167853D01*
X535243D01*
X536076Y167020D01*
Y166187D01*
X535243Y165354D01*
X536076Y164521D01*
Y163688D01*
X535243Y165354D02*
X533577D01*
X454081Y154830D02*
X454914Y153997D01*
X456580D01*
X457413Y154830D01*
Y158162D01*
X456580Y158995D01*
X454914D01*
X454081Y158162D01*
X452415Y153997D02*
X449083D01*
Y154830D01*
X452415Y158162D01*
Y158995D01*
X722290Y207980D02*
X723123Y207147D01*
X724789D01*
X725622Y207980D01*
Y211312D01*
X724789Y212145D01*
X723123D01*
X722290Y211312D01*
X717291Y207147D02*
X718958Y207980D01*
X720624Y209646D01*
Y211312D01*
X719791Y212145D01*
X718124D01*
X717291Y211312D01*
Y210479D01*
X718124Y209646D01*
X720624D01*
X722290Y216838D02*
X723123Y216005D01*
X724789D01*
X725622Y216838D01*
Y220170D01*
X724789Y221003D01*
X723123D01*
X722290Y220170D01*
X717291Y216005D02*
X720624D01*
Y218504D01*
X718958Y217671D01*
X718124D01*
X717291Y218504D01*
Y220170D01*
X718124Y221003D01*
X719791D01*
X720624Y220170D01*
X722290Y252763D02*
X723123Y251930D01*
X724789D01*
X725622Y252763D01*
Y256095D01*
X724789Y256928D01*
X723123D01*
X722290Y256095D01*
X718124Y256928D02*
Y251930D01*
X720624Y254429D01*
X717291D01*
X799061Y212409D02*
X799895Y211576D01*
X801561D01*
X802394Y212409D01*
Y215741D01*
X801561Y216574D01*
X799895D01*
X799061Y215741D01*
X797395Y212409D02*
X796562Y211576D01*
X794896D01*
X794063Y212409D01*
Y213242D01*
X794896Y214075D01*
X795729D01*
X794896D01*
X794063Y214908D01*
Y215741D01*
X794896Y216574D01*
X796562D01*
X797395Y215741D01*
X762152Y207979D02*
X762985Y207147D01*
X764651D01*
X765484Y207979D01*
Y211312D01*
X764651Y212145D01*
X762985D01*
X762152Y211312D01*
X757154Y212145D02*
X760486D01*
X757154Y208813D01*
Y207979D01*
X757987Y207147D01*
X759653D01*
X760486Y207979D01*
X683071Y251779D02*
X683904Y250946D01*
X685570D01*
X686403Y251779D01*
Y255111D01*
X685570Y255944D01*
X683904D01*
X683071Y255111D01*
X681405Y255944D02*
X679739D01*
X680572D01*
Y250946D01*
X681405Y251779D01*
X558299Y242580D02*
X554967Y247578D01*
Y242580D02*
X558299Y247578D01*
X549968D02*
X553301D01*
X549968Y244246D01*
Y243413D01*
X550802Y242580D01*
X552468D01*
X553301Y243413D01*
X571792Y204194D02*
X568460Y209192D01*
Y204194D02*
X571792Y209192D01*
X566793D02*
X565127D01*
X565960D01*
Y204194D01*
X566793Y205027D01*
X610124Y175158D02*
Y179324D01*
X609291Y180157D01*
X607624D01*
X606791Y179324D01*
Y175158D01*
X605125Y180157D02*
X603459D01*
X604292D01*
Y175158D01*
X605125Y175991D01*
X666038Y238720D02*
Y233721D01*
X663539D01*
X662706Y234554D01*
Y236221D01*
X663539Y237053D01*
X666038D01*
X664372D02*
X662706Y238720D01*
X661039D02*
X659373D01*
X660206D01*
Y233721D01*
X661039Y234554D01*
X656874D02*
X656041Y233721D01*
X654375D01*
X653542Y234554D01*
Y235387D01*
X654375Y236221D01*
X655208D01*
X654375D01*
X653542Y237053D01*
Y237887D01*
X654375Y238720D01*
X656041D01*
X656874Y237887D01*
X611714Y247578D02*
Y242580D01*
X609215D01*
X608382Y243413D01*
Y245079D01*
X609215Y245912D01*
X611714D01*
X610048D02*
X608382Y247578D01*
X606716D02*
X605050D01*
X605883D01*
Y242580D01*
X606716Y243413D01*
X599218Y247578D02*
X602550D01*
X599218Y244246D01*
Y243413D01*
X600051Y242580D01*
X601717D01*
X602550Y243413D01*
X611714Y158995D02*
Y153997D01*
X609215D01*
X608382Y154830D01*
Y156496D01*
X609215Y157329D01*
X611714D01*
X610048D02*
X608382Y158995D01*
X606716D02*
X605050D01*
X605883D01*
Y153997D01*
X606716Y154830D01*
X602550Y158995D02*
X600884D01*
X601717D01*
Y153997D01*
X602550Y154830D01*
X675047Y176712D02*
Y171713D01*
X672548D01*
X671715Y172547D01*
Y174213D01*
X672548Y175046D01*
X675047D01*
X673381D02*
X671715Y176712D01*
X670049D02*
X668383D01*
X669216D01*
Y171713D01*
X670049Y172547D01*
X665883D02*
X665050Y171713D01*
X663384D01*
X662551Y172547D01*
Y175879D01*
X663384Y176712D01*
X665050D01*
X665883Y175879D01*
Y172547D01*
X541075Y190983D02*
Y185985D01*
X538576D01*
X537743Y186818D01*
Y188484D01*
X538576Y189317D01*
X541075D01*
X539409D02*
X537743Y190983D01*
X532744D02*
X536076D01*
X532744Y187651D01*
Y186818D01*
X533577Y185985D01*
X535243D01*
X536076Y186818D01*
X723956Y194428D02*
Y189430D01*
X721457D01*
X720624Y190263D01*
Y191929D01*
X721457Y192762D01*
X723956D01*
X722290D02*
X720624Y194428D01*
X718958D02*
X717291D01*
X718124D01*
Y189430D01*
X718958Y190263D01*
X599789Y257192D02*
X600622Y256359D01*
X602288D01*
X603121Y257192D01*
Y260524D01*
X602288Y261357D01*
X600622D01*
X599789Y260524D01*
X598123Y261357D02*
Y256359D01*
X594791Y261357D01*
Y256359D01*
X593124Y257192D02*
X592291Y256359D01*
X590625D01*
X589792Y257192D01*
Y258025D01*
X590625Y258858D01*
X591458D01*
X590625D01*
X589792Y259691D01*
Y260524D01*
X590625Y261357D01*
X592291D01*
X593124Y260524D01*
X661872Y154830D02*
X662706Y153997D01*
X664372D01*
X665205Y154830D01*
Y158162D01*
X664372Y158995D01*
X662706D01*
X661872Y158162D01*
X656874Y158995D02*
X660206D01*
X656874Y155663D01*
Y154830D01*
X657707Y153997D01*
X659373D01*
X660206Y154830D01*
X655208Y158995D02*
X653542D01*
X654375D01*
Y153997D01*
X655208Y154830D01*
X567793Y234554D02*
X568626Y233721D01*
X570292D01*
X571125Y234554D01*
Y237887D01*
X570292Y238720D01*
X568626D01*
X567793Y237887D01*
X562795Y238720D02*
X566127D01*
X562795Y235387D01*
Y234554D01*
X563628Y233721D01*
X565294D01*
X566127Y234554D01*
X561129D02*
X560295Y233721D01*
X558629D01*
X557796Y234554D01*
Y237887D01*
X558629Y238720D01*
X560295D01*
X561129Y237887D01*
Y234554D01*
X608382D02*
X609215Y233721D01*
X610881D01*
X611714Y234554D01*
Y237887D01*
X610881Y238720D01*
X609215D01*
X608382Y237887D01*
X606716Y238720D02*
X605050D01*
X605883D01*
Y233721D01*
X606716Y234554D01*
X602550Y237887D02*
X601717Y238720D01*
X600051D01*
X599218Y237887D01*
Y234554D01*
X600051Y233721D01*
X601717D01*
X602550Y234554D01*
Y235387D01*
X601717Y236221D01*
X599218D01*
X567876Y252271D02*
X568709Y251438D01*
X570376D01*
X571209Y252271D01*
Y255603D01*
X570376Y256436D01*
X568709D01*
X567876Y255603D01*
X566210Y256436D02*
X564544D01*
X565377D01*
Y251438D01*
X566210Y252271D01*
X562045D02*
X561212Y251438D01*
X559546D01*
X558713Y252271D01*
Y253104D01*
X559546Y253937D01*
X558713Y254770D01*
Y255603D01*
X559546Y256436D01*
X561212D01*
X562045Y255603D01*
Y254770D01*
X561212Y253937D01*
X562045Y253104D01*
Y252271D01*
X561212Y253937D02*
X559546D01*
X569353Y187310D02*
X570186Y186477D01*
X571852D01*
X572685Y187310D01*
Y190642D01*
X571852Y191476D01*
X570186D01*
X569353Y190642D01*
X567687Y191476D02*
X566020D01*
X566854D01*
Y186477D01*
X567687Y187310D01*
X563521Y186477D02*
X560189D01*
Y187310D01*
X563521Y190642D01*
Y191476D01*
X567876Y222743D02*
X568709Y221910D01*
X570376D01*
X571209Y222743D01*
Y226076D01*
X570376Y226909D01*
X568709D01*
X567876Y226076D01*
X566210Y226909D02*
X564544D01*
X565377D01*
Y221910D01*
X566210Y222743D01*
X558713Y221910D02*
X560379Y222743D01*
X562045Y224410D01*
Y226076D01*
X561212Y226909D01*
X559546D01*
X558713Y226076D01*
Y225242D01*
X559546Y224410D01*
X562045D01*
X671715Y199121D02*
X672548Y198288D01*
X674214D01*
X675047Y199121D01*
Y202453D01*
X674214Y203287D01*
X672548D01*
X671715Y202453D01*
X670049Y203287D02*
X668383D01*
X669216D01*
Y198288D01*
X670049Y199121D01*
X662551Y198288D02*
X665883D01*
Y200787D01*
X664217Y199954D01*
X663384D01*
X662551Y200787D01*
Y202453D01*
X663384Y203287D01*
X665050D01*
X665883Y202453D01*
X569353Y172547D02*
X570186Y171713D01*
X571852D01*
X572685Y172547D01*
Y175879D01*
X571852Y176712D01*
X570186D01*
X569353Y175879D01*
X567687Y176712D02*
X566020D01*
X566854D01*
Y171713D01*
X567687Y172547D01*
X561022Y176712D02*
Y171713D01*
X563521Y174213D01*
X560189D01*
X569353Y163688D02*
X570186Y162855D01*
X571852D01*
X572685Y163688D01*
Y167020D01*
X571852Y167853D01*
X570186D01*
X569353Y167020D01*
X567687Y167853D02*
X566020D01*
X566854D01*
Y162855D01*
X567687Y163688D01*
X563521D02*
X562688Y162855D01*
X561022D01*
X560189Y163688D01*
Y164521D01*
X561022Y165354D01*
X561855D01*
X561022D01*
X560189Y166187D01*
Y167020D01*
X561022Y167853D01*
X562688D01*
X563521Y167020D01*
X662706Y163688D02*
X663539Y162855D01*
X665205D01*
X666038Y163688D01*
Y167020D01*
X665205Y167853D01*
X663539D01*
X662706Y167020D01*
X661039Y167853D02*
X659373D01*
X660206D01*
Y162855D01*
X661039Y163688D01*
X653542Y167853D02*
X656874D01*
X653542Y164521D01*
Y163688D01*
X654375Y162855D01*
X656041D01*
X656874Y163688D01*
X608382D02*
X609215Y162855D01*
X610881D01*
X611714Y163688D01*
Y167020D01*
X610881Y167853D01*
X609215D01*
X608382Y167020D01*
X606716Y167853D02*
X605050D01*
X605883D01*
Y162855D01*
X606716Y163688D01*
X602550D02*
X601717Y162855D01*
X600051D01*
X599218Y163688D01*
Y167020D01*
X600051Y167853D01*
X601717D01*
X602550Y167020D01*
Y163688D01*
X727591Y103800D02*
Y107965D01*
X726757Y108798D01*
X725091D01*
X724258Y107965D01*
Y103800D01*
X722592Y104633D02*
X721759Y103800D01*
X720093D01*
X719260Y104633D01*
Y105466D01*
X720093Y106299D01*
X720926D01*
X720093D01*
X719260Y107132D01*
Y107965D01*
X720093Y108798D01*
X721759D01*
X722592Y107965D01*
X438220Y27520D02*
Y31686D01*
X437387Y32519D01*
X435721D01*
X434888Y31686D01*
Y27520D01*
X429890Y32519D02*
X433222D01*
X429890Y29187D01*
Y28354D01*
X430723Y27520D01*
X432389D01*
X433222Y28354D01*
X807505Y73857D02*
Y68859D01*
X805005D01*
X804172Y69692D01*
Y71358D01*
X805005Y72191D01*
X807505D01*
X805838D02*
X804172Y73857D01*
X802506Y68859D02*
Y73857D01*
X799174D01*
X797508D02*
X795842D01*
X796675D01*
Y68859D01*
X797508Y69692D01*
X725622Y42854D02*
Y37855D01*
X723123D01*
X722290Y38688D01*
Y40354D01*
X723123Y41187D01*
X725622D01*
X723956D02*
X722290Y42854D01*
X720624Y42020D02*
X719791Y42854D01*
X718124D01*
X717291Y42020D01*
Y38688D01*
X718124Y37855D01*
X719791D01*
X720624Y38688D01*
Y39521D01*
X719791Y40354D01*
X717291D01*
X725622Y51712D02*
Y46713D01*
X723123D01*
X722290Y47546D01*
Y49213D01*
X723123Y50046D01*
X725622D01*
X723956D02*
X722290Y51712D01*
X720624Y47546D02*
X719791Y46713D01*
X718124D01*
X717291Y47546D01*
Y48379D01*
X718124Y49213D01*
X717291Y50046D01*
Y50879D01*
X718124Y51712D01*
X719791D01*
X720624Y50879D01*
Y50046D01*
X719791Y49213D01*
X720624Y48379D01*
Y47546D01*
X719791Y49213D02*
X718124D01*
X457413Y16279D02*
Y11280D01*
X454914D01*
X454081Y12113D01*
Y13780D01*
X454914Y14613D01*
X457413D01*
X455747D02*
X454081Y16279D01*
X452415Y11280D02*
X449083D01*
Y12113D01*
X452415Y15446D01*
Y16279D01*
X483004Y25137D02*
Y20139D01*
X480505D01*
X479672Y20972D01*
Y22638D01*
X480505Y23471D01*
X483004D01*
X481338D02*
X479672Y25137D01*
X474673Y20139D02*
X476339Y20972D01*
X478006Y22638D01*
Y24304D01*
X477173Y25137D01*
X475506D01*
X474673Y24304D01*
Y23471D01*
X475506Y22638D01*
X478006D01*
X482512Y113720D02*
Y108721D01*
X480013D01*
X479179Y109554D01*
Y111221D01*
X480013Y112054D01*
X482512D01*
X480846D02*
X479179Y113720D01*
X474181Y108721D02*
X477513D01*
Y111221D01*
X475847Y110387D01*
X475014D01*
X474181Y111221D01*
Y112887D01*
X475014Y113720D01*
X476680D01*
X477513Y112887D01*
X482512Y123070D02*
Y118072D01*
X480013D01*
X479179Y118905D01*
Y120571D01*
X480013Y121404D01*
X482512D01*
X480846D02*
X479179Y123070D01*
X475014D02*
Y118072D01*
X477513Y120571D01*
X474181D01*
X725622Y68936D02*
Y63938D01*
X723123D01*
X722290Y64771D01*
Y66437D01*
X723123Y67270D01*
X725622D01*
X723956D02*
X722290Y68936D01*
X720624Y64771D02*
X719791Y63938D01*
X718124D01*
X717291Y64771D01*
Y65604D01*
X718124Y66437D01*
X718958D01*
X718124D01*
X717291Y67270D01*
Y68103D01*
X718124Y68936D01*
X719791D01*
X720624Y68103D01*
X720624Y28733D02*
Y25401D01*
X721457Y24568D01*
X723123D01*
X723956Y25401D01*
Y28733D01*
X723123Y29566D01*
X721457D01*
X722290Y27900D02*
X720624Y29566D01*
X721457D02*
X720624Y28733D01*
X718958Y29566D02*
X717291D01*
X718124D01*
Y24568D01*
X718958Y25401D01*
X774494Y109291D02*
Y104292D01*
X771994D01*
X771161Y105125D01*
Y106791D01*
X771994Y107624D01*
X774494D01*
X769495Y109291D02*
X767829D01*
X768662D01*
Y104292D01*
X769495Y105125D01*
X686403Y81162D02*
Y86161D01*
X683071D01*
X681405D02*
X679739D01*
X680572D01*
Y81162D01*
X681405Y81995D01*
X725622Y10788D02*
Y15787D01*
X723123D01*
X722290Y14954D01*
Y11621D01*
X723123Y10788D01*
X725622D01*
X717291D02*
X718958Y11621D01*
X720624Y13287D01*
Y14954D01*
X719791Y15787D01*
X718124D01*
X717291Y14954D01*
Y14120D01*
X718124Y13287D01*
X720624D01*
X726606Y91005D02*
Y96003D01*
X724107D01*
X723274Y95170D01*
Y91838D01*
X724107Y91005D01*
X726606D01*
X718276D02*
X721608D01*
Y93504D01*
X719942Y92671D01*
X719109D01*
X718276Y93504D01*
Y95170D01*
X719109Y96003D01*
X720775D01*
X721608Y95170D01*
X541075Y62461D02*
Y67460D01*
X538576D01*
X537743Y66627D01*
Y63295D01*
X538576Y62461D01*
X541075D01*
X533577Y67460D02*
Y62461D01*
X536076Y64961D01*
X532744D01*
X770064Y91005D02*
Y96003D01*
X767565D01*
X766732Y95170D01*
Y91838D01*
X767565Y91005D01*
X770064D01*
X765066Y91838D02*
X764233Y91005D01*
X762567D01*
X761734Y91838D01*
Y92671D01*
X762567Y93504D01*
X763400D01*
X762567D01*
X761734Y94337D01*
Y95170D01*
X762567Y96003D01*
X764233D01*
X765066Y95170D01*
X675047Y73288D02*
Y78287D01*
X672548D01*
X671715Y77454D01*
Y74121D01*
X672548Y73288D01*
X675047D01*
X666717Y78287D02*
X670049D01*
X666717Y74954D01*
Y74121D01*
X667550Y73288D01*
X669216D01*
X670049Y74121D01*
X770064Y117579D02*
Y122578D01*
X767565D01*
X766732Y121745D01*
Y118413D01*
X767565Y117579D01*
X770064D01*
X765066Y122578D02*
X763400D01*
X764233D01*
Y117579D01*
X765066Y118413D01*
X833057Y68708D02*
X833890Y67875D01*
X835556D01*
X836389Y68708D01*
Y72040D01*
X835556Y72873D01*
X833890D01*
X833057Y72040D01*
X831390Y72873D02*
Y67875D01*
X828058Y72873D01*
Y67875D01*
X823060Y72873D02*
X826392D01*
X823060Y69541D01*
Y68708D01*
X823893Y67875D01*
X825559D01*
X826392Y68708D01*
X826318Y83176D02*
X827151Y82343D01*
X828817D01*
X829650Y83176D01*
Y86509D01*
X828817Y87342D01*
X827151D01*
X826318Y86509D01*
X824652Y87342D02*
Y82343D01*
X821320Y87342D01*
Y82343D01*
X819654Y87342D02*
X817988D01*
X818820D01*
Y82343D01*
X819654Y83176D01*
X661039Y109554D02*
X661872Y108721D01*
X663539D01*
X664372Y109554D01*
Y112887D01*
X663539Y113720D01*
X661872D01*
X661039Y112887D01*
X659373Y113720D02*
X657707D01*
X658540D01*
Y108721D01*
X659373Y109554D01*
X655208Y113720D02*
X653542D01*
X654375D01*
Y108721D01*
X655208Y109554D01*
X537743Y38196D02*
X538576Y37363D01*
X540242D01*
X541075Y38196D01*
Y41528D01*
X540242Y42361D01*
X538576D01*
X537743Y41528D01*
X536076D02*
X535243Y42361D01*
X533577D01*
X532744Y41528D01*
Y38196D01*
X533577Y37363D01*
X535243D01*
X536076Y38196D01*
Y39029D01*
X535243Y39862D01*
X532744D01*
X537743Y29830D02*
X538576Y28997D01*
X540242D01*
X541075Y29830D01*
Y33162D01*
X540242Y33995D01*
X538576D01*
X537743Y33162D01*
X536076Y29830D02*
X535243Y28997D01*
X533577D01*
X532744Y29830D01*
Y30663D01*
X533577Y31496D01*
X532744Y32329D01*
Y33162D01*
X533577Y33995D01*
X535243D01*
X536076Y33162D01*
Y32329D01*
X535243Y31496D01*
X536076Y30663D01*
Y29830D01*
X535243Y31496D02*
X533577D01*
X454081Y20972D02*
X454914Y20139D01*
X456580D01*
X457413Y20972D01*
Y24304D01*
X456580Y25137D01*
X454914D01*
X454081Y24304D01*
X452415Y20139D02*
X449083D01*
Y20972D01*
X452415Y24304D01*
Y25137D01*
X722290Y74121D02*
X723123Y73288D01*
X724789D01*
X725622Y74121D01*
Y77454D01*
X724789Y78287D01*
X723123D01*
X722290Y77454D01*
X717291Y73288D02*
X718958Y74121D01*
X720624Y75787D01*
Y77454D01*
X719791Y78287D01*
X718124D01*
X717291Y77454D01*
Y76621D01*
X718124Y75787D01*
X720624D01*
X722290Y82980D02*
X723123Y82147D01*
X724789D01*
X725622Y82980D01*
Y86312D01*
X724789Y87145D01*
X723123D01*
X722290Y86312D01*
X717291Y82147D02*
X720624D01*
Y84646D01*
X718958Y83813D01*
X718124D01*
X717291Y84646D01*
Y86312D01*
X718124Y87145D01*
X719791D01*
X720624Y86312D01*
X722290Y118905D02*
X723123Y118072D01*
X724789D01*
X725622Y118905D01*
Y122237D01*
X724789Y123070D01*
X723123D01*
X722290Y122237D01*
X718124Y123070D02*
Y118072D01*
X720624Y120571D01*
X717291D01*
X799061Y78550D02*
X799895Y77717D01*
X801561D01*
X802394Y78550D01*
Y81883D01*
X801561Y82716D01*
X799895D01*
X799061Y81883D01*
X797395Y78550D02*
X796562Y77717D01*
X794896D01*
X794063Y78550D01*
Y79383D01*
X794896Y80216D01*
X795729D01*
X794896D01*
X794063Y81050D01*
Y81883D01*
X794896Y82716D01*
X796562D01*
X797395Y81883D01*
X762152Y74121D02*
X762985Y73288D01*
X764651D01*
X765484Y74121D01*
Y77454D01*
X764651Y78287D01*
X762985D01*
X762152Y77454D01*
X757154Y78287D02*
X760486D01*
X757154Y74954D01*
Y74121D01*
X757987Y73288D01*
X759653D01*
X760486Y74121D01*
X683071Y117920D02*
X683904Y117087D01*
X685570D01*
X686403Y117920D01*
Y121253D01*
X685570Y122086D01*
X683904D01*
X683071Y121253D01*
X681405Y122086D02*
X679739D01*
X680572D01*
Y117087D01*
X681405Y117920D01*
X558299Y108721D02*
X554967Y113720D01*
Y108721D02*
X558299Y113720D01*
X549968D02*
X553301D01*
X549968Y110387D01*
Y109554D01*
X550802Y108721D01*
X552468D01*
X553301Y109554D01*
X571792Y70336D02*
X568460Y75334D01*
Y70336D02*
X571792Y75334D01*
X566793D02*
X565127D01*
X565960D01*
Y70336D01*
X566793Y71169D01*
X610124Y41300D02*
Y45465D01*
X609291Y46298D01*
X607624D01*
X606791Y45465D01*
Y41300D01*
X605125Y46298D02*
X603459D01*
X604292D01*
Y41300D01*
X605125Y42133D01*
X666038Y104861D02*
Y99863D01*
X663539D01*
X662706Y100696D01*
Y102362D01*
X663539Y103195D01*
X666038D01*
X664372D02*
X662706Y104861D01*
X661039D02*
X659373D01*
X660206D01*
Y99863D01*
X661039Y100696D01*
X656874D02*
X656041Y99863D01*
X654375D01*
X653542Y100696D01*
Y101529D01*
X654375Y102362D01*
X655208D01*
X654375D01*
X653542Y103195D01*
Y104028D01*
X654375Y104861D01*
X656041D01*
X656874Y104028D01*
X611714Y113720D02*
Y108721D01*
X609215D01*
X608382Y109554D01*
Y111221D01*
X609215Y112054D01*
X611714D01*
X610048D02*
X608382Y113720D01*
X606716D02*
X605050D01*
X605883D01*
Y108721D01*
X606716Y109554D01*
X599218Y113720D02*
X602550D01*
X599218Y110387D01*
Y109554D01*
X600051Y108721D01*
X601717D01*
X602550Y109554D01*
X611714Y25137D02*
Y20139D01*
X609215D01*
X608382Y20972D01*
Y22638D01*
X609215Y23471D01*
X611714D01*
X610048D02*
X608382Y25137D01*
X606716D02*
X605050D01*
X605883D01*
Y20139D01*
X606716Y20972D01*
X602550Y25137D02*
X600884D01*
X601717D01*
Y20139D01*
X602550Y20972D01*
X675047Y42854D02*
Y37855D01*
X672548D01*
X671715Y38688D01*
Y40354D01*
X672548Y41187D01*
X675047D01*
X673381D02*
X671715Y42854D01*
X670049D02*
X668383D01*
X669216D01*
Y37855D01*
X670049Y38688D01*
X665883D02*
X665050Y37855D01*
X663384D01*
X662551Y38688D01*
Y42020D01*
X663384Y42854D01*
X665050D01*
X665883Y42020D01*
Y38688D01*
X541075Y57125D02*
Y52127D01*
X538576D01*
X537743Y52960D01*
Y54626D01*
X538576Y55459D01*
X541075D01*
X539409D02*
X537743Y57125D01*
X532744D02*
X536076D01*
X532744Y53793D01*
Y52960D01*
X533577Y52127D01*
X535243D01*
X536076Y52960D01*
X723956Y60570D02*
Y55572D01*
X721457D01*
X720624Y56405D01*
Y58071D01*
X721457Y58904D01*
X723956D01*
X722290D02*
X720624Y60570D01*
X718958D02*
X717291D01*
X718124D01*
Y55572D01*
X718958Y56405D01*
X599789Y123334D02*
X600622Y122501D01*
X602288D01*
X603121Y123334D01*
Y126666D01*
X602288Y127499D01*
X600622D01*
X599789Y126666D01*
X598123Y127499D02*
Y122501D01*
X594791Y127499D01*
Y122501D01*
X593124Y123334D02*
X592291Y122501D01*
X590625D01*
X589792Y123334D01*
Y124167D01*
X590625Y125000D01*
X591458D01*
X590625D01*
X589792Y125833D01*
Y126666D01*
X590625Y127499D01*
X592291D01*
X593124Y126666D01*
X661872Y20972D02*
X662706Y20139D01*
X664372D01*
X665205Y20972D01*
Y24304D01*
X664372Y25137D01*
X662706D01*
X661872Y24304D01*
X656874Y25137D02*
X660206D01*
X656874Y21805D01*
Y20972D01*
X657707Y20139D01*
X659373D01*
X660206Y20972D01*
X655208Y25137D02*
X653542D01*
X654375D01*
Y20139D01*
X655208Y20972D01*
X567793Y100696D02*
X568626Y99863D01*
X570292D01*
X571125Y100696D01*
Y104028D01*
X570292Y104861D01*
X568626D01*
X567793Y104028D01*
X562795Y104861D02*
X566127D01*
X562795Y101529D01*
Y100696D01*
X563628Y99863D01*
X565294D01*
X566127Y100696D01*
X561129D02*
X560295Y99863D01*
X558629D01*
X557796Y100696D01*
Y104028D01*
X558629Y104861D01*
X560295D01*
X561129Y104028D01*
Y100696D01*
X608382D02*
X609215Y99863D01*
X610881D01*
X611714Y100696D01*
Y104028D01*
X610881Y104861D01*
X609215D01*
X608382Y104028D01*
X606716Y104861D02*
X605050D01*
X605883D01*
Y99863D01*
X606716Y100696D01*
X602550Y104028D02*
X601717Y104861D01*
X600051D01*
X599218Y104028D01*
Y100696D01*
X600051Y99863D01*
X601717D01*
X602550Y100696D01*
Y101529D01*
X601717Y102362D01*
X599218D01*
X567876Y118413D02*
X568709Y117580D01*
X570376D01*
X571209Y118413D01*
Y121745D01*
X570376Y122578D01*
X568709D01*
X567876Y121745D01*
X566210Y122578D02*
X564544D01*
X565377D01*
Y117580D01*
X566210Y118413D01*
X562045D02*
X561212Y117580D01*
X559546D01*
X558713Y118413D01*
Y119246D01*
X559546Y120079D01*
X558713Y120912D01*
Y121745D01*
X559546Y122578D01*
X561212D01*
X562045Y121745D01*
Y120912D01*
X561212Y120079D01*
X562045Y119246D01*
Y118413D01*
X561212Y120079D02*
X559546D01*
X569353Y53452D02*
X570186Y52619D01*
X571852D01*
X572685Y53452D01*
Y56784D01*
X571852Y57617D01*
X570186D01*
X569353Y56784D01*
X567687Y57617D02*
X566020D01*
X566854D01*
Y52619D01*
X567687Y53452D01*
X563521Y52619D02*
X560189D01*
Y53452D01*
X563521Y56784D01*
Y57617D01*
X567876Y88885D02*
X568709Y88052D01*
X570376D01*
X571209Y88885D01*
Y92217D01*
X570376Y93050D01*
X568709D01*
X567876Y92217D01*
X566210Y93050D02*
X564544D01*
X565377D01*
Y88052D01*
X566210Y88885D01*
X558713Y88052D02*
X560379Y88885D01*
X562045Y90551D01*
Y92217D01*
X561212Y93050D01*
X559546D01*
X558713Y92217D01*
Y91384D01*
X559546Y90551D01*
X562045D01*
X671715Y65263D02*
X672548Y64430D01*
X674214D01*
X675047Y65263D01*
Y68595D01*
X674214Y69428D01*
X672548D01*
X671715Y68595D01*
X670049Y69428D02*
X668383D01*
X669216D01*
Y64430D01*
X670049Y65263D01*
X662551Y64430D02*
X665883D01*
Y66929D01*
X664217Y66096D01*
X663384D01*
X662551Y66929D01*
Y68595D01*
X663384Y69428D01*
X665050D01*
X665883Y68595D01*
X569353Y38688D02*
X570186Y37855D01*
X571852D01*
X572685Y38688D01*
Y42020D01*
X571852Y42854D01*
X570186D01*
X569353Y42020D01*
X567687Y42854D02*
X566020D01*
X566854D01*
Y37855D01*
X567687Y38688D01*
X561022Y42854D02*
Y37855D01*
X563521Y40354D01*
X560189D01*
X569353Y29830D02*
X570186Y28997D01*
X571852D01*
X572685Y29830D01*
Y33162D01*
X571852Y33995D01*
X570186D01*
X569353Y33162D01*
X567687Y33995D02*
X566020D01*
X566854D01*
Y28997D01*
X567687Y29830D01*
X563521D02*
X562688Y28997D01*
X561022D01*
X560189Y29830D01*
Y30663D01*
X561022Y31496D01*
X561855D01*
X561022D01*
X560189Y32329D01*
Y33162D01*
X561022Y33995D01*
X562688D01*
X563521Y33162D01*
X662706Y29830D02*
X663539Y28997D01*
X665205D01*
X666038Y29830D01*
Y33162D01*
X665205Y33995D01*
X663539D01*
X662706Y33162D01*
X661039Y33995D02*
X659373D01*
X660206D01*
Y28997D01*
X661039Y29830D01*
X653542Y33995D02*
X656874D01*
X653542Y30663D01*
Y29830D01*
X654375Y28997D01*
X656041D01*
X656874Y29830D01*
X608382D02*
X609215Y28997D01*
X610881D01*
X611714Y29830D01*
Y33162D01*
X610881Y33995D01*
X609215D01*
X608382Y33162D01*
X606716Y33995D02*
X605050D01*
X605883D01*
Y28997D01*
X606716Y29830D01*
X602550D02*
X601717Y28997D01*
X600051D01*
X599218Y29830D01*
Y33162D01*
X600051Y33995D01*
X601717D01*
X602550Y33162D01*
Y29830D01*
X114929Y30058D02*
Y25893D01*
X115762Y25060D01*
X117428D01*
X118261Y25893D01*
Y30058D01*
X119928Y29225D02*
X120761Y30058D01*
X122427D01*
X123260Y29225D01*
Y28392D01*
X122427Y27559D01*
X121594D01*
X122427D01*
X123260Y26726D01*
Y25893D01*
X122427Y25060D01*
X120761D01*
X119928Y25893D01*
X404299Y106338D02*
Y102173D01*
X405132Y101339D01*
X406798D01*
X407631Y102173D01*
Y106338D01*
X412630Y101339D02*
X409298D01*
X412630Y104672D01*
Y105505D01*
X411797Y106338D01*
X410131D01*
X409298Y105505D01*
X35015Y60001D02*
Y64999D01*
X37514D01*
X38347Y64166D01*
Y62500D01*
X37514Y61667D01*
X35015D01*
X36681D02*
X38347Y60001D01*
X40013Y64999D02*
Y60001D01*
X43346D01*
X45012D02*
X46678D01*
X45845D01*
Y64999D01*
X45012Y64166D01*
X116898Y91005D02*
Y96003D01*
X119397D01*
X120230Y95170D01*
Y93504D01*
X119397Y92671D01*
X116898D01*
X118564D02*
X120230Y91005D01*
X121896Y91838D02*
X122729Y91005D01*
X124395D01*
X125228Y91838D01*
Y95170D01*
X124395Y96003D01*
X122729D01*
X121896Y95170D01*
Y94337D01*
X122729Y93504D01*
X125228D01*
X116898Y82147D02*
Y87145D01*
X119397D01*
X120230Y86312D01*
Y84646D01*
X119397Y83813D01*
X116898D01*
X118564D02*
X120230Y82147D01*
X121896Y86312D02*
X122729Y87145D01*
X124395D01*
X125228Y86312D01*
Y85479D01*
X124395Y84646D01*
X125228Y83813D01*
Y82980D01*
X124395Y82147D01*
X122729D01*
X121896Y82980D01*
Y83813D01*
X122729Y84646D01*
X121896Y85479D01*
Y86312D01*
X122729Y84646D02*
X124395D01*
X385106Y117579D02*
Y122578D01*
X387606D01*
X388439Y121745D01*
Y120079D01*
X387606Y119246D01*
X385106D01*
X386772D02*
X388439Y117579D01*
X390105Y122578D02*
X393437D01*
Y121745D01*
X390105Y118413D01*
Y117579D01*
X359516Y108721D02*
Y113720D01*
X362015D01*
X362848Y112887D01*
Y111221D01*
X362015Y110387D01*
X359516D01*
X361182D02*
X362848Y108721D01*
X367846Y113720D02*
X366180Y112887D01*
X364514Y111221D01*
Y109554D01*
X365347Y108721D01*
X367013D01*
X367846Y109554D01*
Y110387D01*
X367013Y111221D01*
X364514D01*
X360008Y20139D02*
Y25137D01*
X362507D01*
X363340Y24304D01*
Y22638D01*
X362507Y21805D01*
X360008D01*
X361674D02*
X363340Y20139D01*
X368338Y25137D02*
X365006D01*
Y22638D01*
X366672Y23471D01*
X367506D01*
X368338Y22638D01*
Y20972D01*
X367506Y20139D01*
X365839D01*
X365006Y20972D01*
X360008Y10788D02*
Y15787D01*
X362507D01*
X363340Y14954D01*
Y13287D01*
X362507Y12454D01*
X360008D01*
X361674D02*
X363340Y10788D01*
X367506D02*
Y15787D01*
X365006Y13287D01*
X368338D01*
X116898Y64922D02*
Y69920D01*
X119397D01*
X120230Y69087D01*
Y67421D01*
X119397Y66588D01*
X116898D01*
X118564D02*
X120230Y64922D01*
X121896Y69087D02*
X122729Y69920D01*
X124395D01*
X125228Y69087D01*
Y68254D01*
X124395Y67421D01*
X123562D01*
X124395D01*
X125228Y66588D01*
Y65755D01*
X124395Y64922D01*
X122729D01*
X121896Y65755D01*
X121896Y105125D02*
Y108458D01*
X121063Y109291D01*
X119397D01*
X118564Y108458D01*
Y105125D01*
X119397Y104292D01*
X121063D01*
X120230Y105958D02*
X121896Y104292D01*
X121063D02*
X121896Y105125D01*
X123562Y104292D02*
X125228D01*
X124395D01*
Y109291D01*
X123562Y108458D01*
X68026Y24568D02*
Y29566D01*
X70525D01*
X71358Y28733D01*
Y27067D01*
X70525Y26234D01*
X68026D01*
X73024Y24568D02*
X74691D01*
X73857D01*
Y29566D01*
X73024Y28733D01*
X156117Y52696D02*
Y47698D01*
X159449D01*
X161115D02*
X162781D01*
X161948D01*
Y52696D01*
X161115Y51863D01*
X116898Y123070D02*
Y118072D01*
X119397D01*
X120230Y118905D01*
Y122237D01*
X119397Y123070D01*
X116898D01*
X125228D02*
X123562Y122237D01*
X121896Y120571D01*
Y118905D01*
X122729Y118072D01*
X124395D01*
X125228Y118905D01*
Y119738D01*
X124395Y120571D01*
X121896D01*
X115913Y42854D02*
Y37855D01*
X118413D01*
X119246Y38688D01*
Y42020D01*
X118413Y42854D01*
X115913D01*
X124244D02*
X120912D01*
Y40354D01*
X122578Y41187D01*
X123411D01*
X124244Y40354D01*
Y38688D01*
X123411Y37855D01*
X121745D01*
X120912Y38688D01*
X301445Y71397D02*
Y66399D01*
X303944D01*
X304777Y67232D01*
Y70564D01*
X303944Y71397D01*
X301445D01*
X308943Y66399D02*
Y71397D01*
X306443Y68898D01*
X309776D01*
X72455Y42854D02*
Y37855D01*
X74954D01*
X75787Y38688D01*
Y42020D01*
X74954Y42854D01*
X72455D01*
X77454Y42020D02*
X78287Y42854D01*
X79953D01*
X80786Y42020D01*
Y41187D01*
X79953Y40354D01*
X79120D01*
X79953D01*
X80786Y39521D01*
Y38688D01*
X79953Y37855D01*
X78287D01*
X77454Y38688D01*
X167473Y60570D02*
Y55572D01*
X169972D01*
X170805Y56405D01*
Y59737D01*
X169972Y60570D01*
X167473D01*
X175803Y55572D02*
X172471D01*
X175803Y58904D01*
Y59737D01*
X174970Y60570D01*
X173304D01*
X172471Y59737D01*
X72455Y16279D02*
Y11280D01*
X74954D01*
X75787Y12113D01*
Y15446D01*
X74954Y16279D01*
X72455D01*
X77454Y11280D02*
X79120D01*
X78287D01*
Y16279D01*
X77454Y15446D01*
X9463Y65150D02*
X8630Y65983D01*
X6964D01*
X6131Y65150D01*
Y61818D01*
X6964Y60985D01*
X8630D01*
X9463Y61818D01*
X11129Y60985D02*
Y65983D01*
X14461Y60985D01*
Y65983D01*
X19460Y60985D02*
X16127D01*
X19460Y64317D01*
Y65150D01*
X18627Y65983D01*
X16961D01*
X16127Y65150D01*
X16202Y50682D02*
X15369Y51515D01*
X13702D01*
X12869Y50682D01*
Y47350D01*
X13702Y46517D01*
X15369D01*
X16202Y47350D01*
X17868Y46517D02*
Y51515D01*
X21200Y46517D01*
Y51515D01*
X22866Y46517D02*
X24532D01*
X23699D01*
Y51515D01*
X22866Y50682D01*
X181480Y24304D02*
X180647Y25137D01*
X178981D01*
X178148Y24304D01*
Y20972D01*
X178981Y20139D01*
X180647D01*
X181480Y20972D01*
X183147Y20139D02*
X184813D01*
X183979D01*
Y25137D01*
X183147Y24304D01*
X187312Y20139D02*
X188978D01*
X188145D01*
Y25137D01*
X187312Y24304D01*
X304777Y95662D02*
X303944Y96495D01*
X302278D01*
X301445Y95662D01*
Y92330D01*
X302278Y91497D01*
X303944D01*
X304777Y92330D01*
X306443D02*
X307276Y91497D01*
X308943D01*
X309776Y92330D01*
Y95662D01*
X308943Y96495D01*
X307276D01*
X306443Y95662D01*
Y94829D01*
X307276Y93996D01*
X309776D01*
X304777Y104028D02*
X303944Y104861D01*
X302278D01*
X301445Y104028D01*
Y100696D01*
X302278Y99863D01*
X303944D01*
X304777Y100696D01*
X306443Y104028D02*
X307276Y104861D01*
X308943D01*
X309776Y104028D01*
Y103195D01*
X308943Y102362D01*
X309776Y101529D01*
Y100696D01*
X308943Y99863D01*
X307276D01*
X306443Y100696D01*
Y101529D01*
X307276Y102362D01*
X306443Y103195D01*
Y104028D01*
X307276Y102362D02*
X308943D01*
X388439Y112887D02*
X387606Y113720D01*
X385939D01*
X385106Y112887D01*
Y109554D01*
X385939Y108721D01*
X387606D01*
X388439Y109554D01*
X390105Y113720D02*
X393437D01*
Y112887D01*
X390105Y109554D01*
Y108721D01*
X120230Y59737D02*
X119397Y60570D01*
X117731D01*
X116898Y59737D01*
Y56405D01*
X117731Y55572D01*
X119397D01*
X120230Y56405D01*
X125228Y60570D02*
X123562Y59737D01*
X121896Y58071D01*
Y56405D01*
X122729Y55572D01*
X124395D01*
X125228Y56405D01*
Y57238D01*
X124395Y58071D01*
X121896D01*
X120230Y50879D02*
X119397Y51712D01*
X117731D01*
X116898Y50879D01*
Y47546D01*
X117731Y46713D01*
X119397D01*
X120230Y47546D01*
X125228Y51712D02*
X121896D01*
Y49213D01*
X123562Y50046D01*
X124395D01*
X125228Y49213D01*
Y47546D01*
X124395Y46713D01*
X122729D01*
X121896Y47546D01*
X120230Y14954D02*
X119397Y15787D01*
X117731D01*
X116898Y14954D01*
Y11621D01*
X117731Y10788D01*
X119397D01*
X120230Y11621D01*
X124395Y10788D02*
Y15787D01*
X121896Y13287D01*
X125228D01*
X43458Y55308D02*
X42625Y56141D01*
X40959D01*
X40126Y55308D01*
Y51976D01*
X40959Y51143D01*
X42625D01*
X43458Y51976D01*
X45124Y55308D02*
X45957Y56141D01*
X47624D01*
X48457Y55308D01*
Y54475D01*
X47624Y53642D01*
X46791D01*
X47624D01*
X48457Y52809D01*
Y51976D01*
X47624Y51143D01*
X45957D01*
X45124Y51976D01*
X80368Y59737D02*
X79535Y60570D01*
X77868D01*
X77035Y59737D01*
Y56405D01*
X77868Y55572D01*
X79535D01*
X80368Y56405D01*
X85366Y55572D02*
X82034D01*
X85366Y58904D01*
Y59737D01*
X84533Y60570D01*
X82867D01*
X82034Y59737D01*
X159449Y15938D02*
X158616Y16771D01*
X156950D01*
X156117Y15938D01*
Y12606D01*
X156950Y11772D01*
X158616D01*
X159449Y12606D01*
X161115Y11772D02*
X162781D01*
X161948D01*
Y16771D01*
X161115Y15938D01*
X284221Y25137D02*
X287553Y20139D01*
Y25137D02*
X284221Y20139D01*
X292551D02*
X289219D01*
X292551Y23471D01*
Y24304D01*
X291718Y25137D01*
X290052D01*
X289219Y24304D01*
X270728Y63523D02*
X274060Y58524D01*
Y63523D02*
X270728Y58524D01*
X275726D02*
X277392D01*
X276559D01*
Y63523D01*
X275726Y62690D01*
X232396Y92558D02*
Y88393D01*
X233229Y87560D01*
X234895D01*
X235728Y88393D01*
Y92558D01*
X237394Y87560D02*
X239061D01*
X238228D01*
Y92558D01*
X237394Y91725D01*
X176482Y28997D02*
Y33995D01*
X178981D01*
X179814Y33162D01*
Y31496D01*
X178981Y30663D01*
X176482D01*
X178148D02*
X179814Y28997D01*
X181480D02*
X183147D01*
X182313D01*
Y33995D01*
X181480Y33162D01*
X185646D02*
X186479Y33995D01*
X188145D01*
X188978Y33162D01*
Y32329D01*
X188145Y31496D01*
X187312D01*
X188145D01*
X188978Y30663D01*
Y29830D01*
X188145Y28997D01*
X186479D01*
X185646Y29830D01*
X230806Y20139D02*
Y25137D01*
X233305D01*
X234138Y24304D01*
Y22638D01*
X233305Y21805D01*
X230806D01*
X232472D02*
X234138Y20139D01*
X235804D02*
X237470D01*
X236637D01*
Y25137D01*
X235804Y24304D01*
X243302Y20139D02*
X239969D01*
X243302Y23471D01*
Y24304D01*
X242468Y25137D01*
X240802D01*
X239969Y24304D01*
X230806Y108721D02*
Y113720D01*
X233305D01*
X234138Y112887D01*
Y111221D01*
X233305Y110387D01*
X230806D01*
X232472D02*
X234138Y108721D01*
X235804D02*
X237470D01*
X236637D01*
Y113720D01*
X235804Y112887D01*
X239969Y108721D02*
X241635D01*
X240802D01*
Y113720D01*
X239969Y112887D01*
X167473Y91005D02*
Y96003D01*
X169972D01*
X170805Y95170D01*
Y93504D01*
X169972Y92671D01*
X167473D01*
X169139D02*
X170805Y91005D01*
X172471D02*
X174137D01*
X173304D01*
Y96003D01*
X172471Y95170D01*
X176636D02*
X177469Y96003D01*
X179135D01*
X179969Y95170D01*
Y91838D01*
X179135Y91005D01*
X177469D01*
X176636Y91838D01*
Y95170D01*
X301445Y76733D02*
Y81731D01*
X303944D01*
X304777Y80898D01*
Y79232D01*
X303944Y78399D01*
X301445D01*
X303111D02*
X304777Y76733D01*
X309776D02*
X306443D01*
X309776Y80065D01*
Y80898D01*
X308943Y81731D01*
X307276D01*
X306443Y80898D01*
X118564Y73288D02*
Y78287D01*
X121063D01*
X121896Y77454D01*
Y75787D01*
X121063Y74954D01*
X118564D01*
X120230D02*
X121896Y73288D01*
X123562D02*
X125228D01*
X124395D01*
Y78287D01*
X123562Y77454D01*
X242731Y10524D02*
X241898Y11357D01*
X240231D01*
X239399Y10524D01*
Y7192D01*
X240231Y6359D01*
X241898D01*
X242731Y7192D01*
X244397Y6359D02*
Y11357D01*
X247729Y6359D01*
Y11357D01*
X249395Y10524D02*
X250228Y11357D01*
X251894D01*
X252728Y10524D01*
Y9691D01*
X251894Y8858D01*
X251061D01*
X251894D01*
X252728Y8025D01*
Y7192D01*
X251894Y6359D01*
X250228D01*
X249395Y7192D01*
X180647Y112887D02*
X179814Y113720D01*
X178148D01*
X177315Y112887D01*
Y109554D01*
X178148Y108721D01*
X179814D01*
X180647Y109554D01*
X185646Y108721D02*
X182313D01*
X185646Y112054D01*
Y112887D01*
X184813Y113720D01*
X183147D01*
X182313Y112887D01*
X187312Y108721D02*
X188978D01*
X188145D01*
Y113720D01*
X187312Y112887D01*
X274727Y33162D02*
X273894Y33995D01*
X272227D01*
X271394Y33162D01*
Y29830D01*
X272227Y28997D01*
X273894D01*
X274727Y29830D01*
X279725Y28997D02*
X276393D01*
X279725Y32329D01*
Y33162D01*
X278892Y33995D01*
X277226D01*
X276393Y33162D01*
X281391D02*
X282224Y33995D01*
X283890D01*
X284723Y33162D01*
Y29830D01*
X283890Y28997D01*
X282224D01*
X281391Y29830D01*
Y33162D01*
X234138D02*
X233305Y33995D01*
X231639D01*
X230806Y33162D01*
Y29830D01*
X231639Y28997D01*
X233305D01*
X234138Y29830D01*
X235804Y28997D02*
X237470D01*
X236637D01*
Y33995D01*
X235804Y33162D01*
X239969Y29830D02*
X240802Y28997D01*
X242468D01*
X243302Y29830D01*
Y33162D01*
X242468Y33995D01*
X240802D01*
X239969Y33162D01*
Y32329D01*
X240802Y31496D01*
X243302D01*
X274643Y15446D02*
X273810Y16279D01*
X272144D01*
X271311Y15446D01*
Y12113D01*
X272144Y11280D01*
X273810D01*
X274643Y12113D01*
X276309Y11280D02*
X277976D01*
X277143D01*
Y16279D01*
X276309Y15446D01*
X280475D02*
X281308Y16279D01*
X282974D01*
X283807Y15446D01*
Y14613D01*
X282974Y13780D01*
X283807Y12946D01*
Y12113D01*
X282974Y11280D01*
X281308D01*
X280475Y12113D01*
Y12946D01*
X281308Y13780D01*
X280475Y14613D01*
Y15446D01*
X281308Y13780D02*
X282974D01*
X273167Y80406D02*
X272334Y81239D01*
X270668D01*
X269835Y80406D01*
Y77074D01*
X270668Y76241D01*
X272334D01*
X273167Y77074D01*
X274833Y76241D02*
X276499D01*
X275666D01*
Y81239D01*
X274833Y80406D01*
X278998Y81239D02*
X282331D01*
Y80406D01*
X278998Y77074D01*
Y76241D01*
X274643Y44973D02*
X273810Y45806D01*
X272144D01*
X271311Y44973D01*
Y41641D01*
X272144Y40808D01*
X273810D01*
X274643Y41641D01*
X276309Y40808D02*
X277976D01*
X277143D01*
Y45806D01*
X276309Y44973D01*
X283807Y45806D02*
X282141Y44973D01*
X280475Y43307D01*
Y41641D01*
X281308Y40808D01*
X282974D01*
X283807Y41641D01*
Y42474D01*
X282974Y43307D01*
X280475D01*
X170805Y68595D02*
X169972Y69428D01*
X168306D01*
X167473Y68595D01*
Y65263D01*
X168306Y64430D01*
X169972D01*
X170805Y65263D01*
X172471Y64430D02*
X174137D01*
X173304D01*
Y69428D01*
X172471Y68595D01*
X179969Y69428D02*
X176636D01*
Y66929D01*
X178302Y67762D01*
X179135D01*
X179969Y66929D01*
Y65263D01*
X179135Y64430D01*
X177469D01*
X176636Y65263D01*
X273167Y95170D02*
X272334Y96003D01*
X270668D01*
X269835Y95170D01*
Y91838D01*
X270668Y91005D01*
X272334D01*
X273167Y91838D01*
X274833Y91005D02*
X276499D01*
X275666D01*
Y96003D01*
X274833Y95170D01*
X281498Y91005D02*
Y96003D01*
X278998Y93504D01*
X282331D01*
X273167Y104028D02*
X272334Y104861D01*
X270668D01*
X269835Y104028D01*
Y100696D01*
X270668Y99863D01*
X272334D01*
X273167Y100696D01*
X274833Y99863D02*
X276499D01*
X275666D01*
Y104861D01*
X274833Y104028D01*
X278998D02*
X279831Y104861D01*
X281498D01*
X282331Y104028D01*
Y103195D01*
X281498Y102362D01*
X280664D01*
X281498D01*
X282331Y101529D01*
Y100696D01*
X281498Y99863D01*
X279831D01*
X278998Y100696D01*
X179814Y104028D02*
X178981Y104861D01*
X177315D01*
X176482Y104028D01*
Y100696D01*
X177315Y99863D01*
X178981D01*
X179814Y100696D01*
X181480Y99863D02*
X183147D01*
X182313D01*
Y104861D01*
X181480Y104028D01*
X188978Y99863D02*
X185646D01*
X188978Y103195D01*
Y104028D01*
X188145Y104861D01*
X186479D01*
X185646Y104028D01*
X234138D02*
X233305Y104861D01*
X231639D01*
X230806Y104028D01*
Y100696D01*
X231639Y99863D01*
X233305D01*
X234138Y100696D01*
X235804Y99863D02*
X237470D01*
X236637D01*
Y104861D01*
X235804Y104028D01*
X239969D02*
X240802Y104861D01*
X242468D01*
X243302Y104028D01*
Y100696D01*
X242468Y99863D01*
X240802D01*
X239969Y100696D01*
Y104028D01*
X114929Y163917D02*
Y159751D01*
X115762Y158918D01*
X117428D01*
X118261Y159751D01*
Y163917D01*
X119928Y163084D02*
X120761Y163917D01*
X122427D01*
X123260Y163084D01*
Y162250D01*
X122427Y161417D01*
X121594D01*
X122427D01*
X123260Y160584D01*
Y159751D01*
X122427Y158918D01*
X120761D01*
X119928Y159751D01*
X404299Y240196D02*
Y236031D01*
X405132Y235198D01*
X406798D01*
X407631Y236031D01*
Y240196D01*
X412630Y235198D02*
X409298D01*
X412630Y238530D01*
Y239363D01*
X411797Y240196D01*
X410131D01*
X409298Y239363D01*
X35015Y193859D02*
Y198857D01*
X37514D01*
X38347Y198024D01*
Y196358D01*
X37514Y195525D01*
X35015D01*
X36681D02*
X38347Y193859D01*
X40013Y198857D02*
Y193859D01*
X43346D01*
X45012D02*
X46678D01*
X45845D01*
Y198857D01*
X45012Y198024D01*
X116898Y224863D02*
Y229861D01*
X119397D01*
X120230Y229028D01*
Y227362D01*
X119397Y226529D01*
X116898D01*
X118564D02*
X120230Y224863D01*
X121896Y225696D02*
X122729Y224863D01*
X124395D01*
X125228Y225696D01*
Y229028D01*
X124395Y229861D01*
X122729D01*
X121896Y229028D01*
Y228195D01*
X122729Y227362D01*
X125228D01*
X116898Y216005D02*
Y221003D01*
X119397D01*
X120230Y220170D01*
Y218504D01*
X119397Y217671D01*
X116898D01*
X118564D02*
X120230Y216005D01*
X121896Y220170D02*
X122729Y221003D01*
X124395D01*
X125228Y220170D01*
Y219337D01*
X124395Y218504D01*
X125228Y217671D01*
Y216838D01*
X124395Y216005D01*
X122729D01*
X121896Y216838D01*
Y217671D01*
X122729Y218504D01*
X121896Y219337D01*
Y220170D01*
X122729Y218504D02*
X124395D01*
X385106Y251438D02*
Y256436D01*
X387606D01*
X388439Y255603D01*
Y253937D01*
X387606Y253104D01*
X385106D01*
X386772D02*
X388439Y251438D01*
X390105Y256436D02*
X393437D01*
Y255603D01*
X390105Y252271D01*
Y251438D01*
X359516Y242580D02*
Y247578D01*
X362015D01*
X362848Y246745D01*
Y245079D01*
X362015Y244246D01*
X359516D01*
X361182D02*
X362848Y242580D01*
X367846Y247578D02*
X366180Y246745D01*
X364514Y245079D01*
Y243413D01*
X365347Y242580D01*
X367013D01*
X367846Y243413D01*
Y244246D01*
X367013Y245079D01*
X364514D01*
X360008Y153997D02*
Y158995D01*
X362507D01*
X363340Y158162D01*
Y156496D01*
X362507Y155663D01*
X360008D01*
X361674D02*
X363340Y153997D01*
X368338Y158995D02*
X365006D01*
Y156496D01*
X366672Y157329D01*
X367506D01*
X368338Y156496D01*
Y154830D01*
X367506Y153997D01*
X365839D01*
X365006Y154830D01*
X360008Y144647D02*
Y149645D01*
X362507D01*
X363340Y148812D01*
Y147146D01*
X362507Y146313D01*
X360008D01*
X361674D02*
X363340Y144647D01*
X367506D02*
Y149645D01*
X365006Y147146D01*
X368338D01*
X116898Y198780D02*
Y203779D01*
X119397D01*
X120230Y202946D01*
Y201279D01*
X119397Y200447D01*
X116898D01*
X118564D02*
X120230Y198780D01*
X121896Y202946D02*
X122729Y203779D01*
X124395D01*
X125228Y202946D01*
Y202113D01*
X124395Y201279D01*
X123562D01*
X124395D01*
X125228Y200447D01*
Y199613D01*
X124395Y198780D01*
X122729D01*
X121896Y199613D01*
X121896Y238983D02*
Y242316D01*
X121063Y243149D01*
X119397D01*
X118564Y242316D01*
Y238983D01*
X119397Y238150D01*
X121063D01*
X120230Y239817D02*
X121896Y238150D01*
X121063D02*
X121896Y238983D01*
X123562Y238150D02*
X125228D01*
X124395D01*
Y243149D01*
X123562Y242316D01*
X68026Y158426D02*
Y163424D01*
X70525D01*
X71358Y162591D01*
Y160925D01*
X70525Y160092D01*
X68026D01*
X73024Y158426D02*
X74691D01*
X73857D01*
Y163424D01*
X73024Y162591D01*
X156117Y186554D02*
Y181556D01*
X159449D01*
X161115D02*
X162781D01*
X161948D01*
Y186554D01*
X161115Y185721D01*
X116898Y256928D02*
Y251930D01*
X119397D01*
X120230Y252763D01*
Y256095D01*
X119397Y256928D01*
X116898D01*
X125228D02*
X123562Y256095D01*
X121896Y254429D01*
Y252763D01*
X122729Y251930D01*
X124395D01*
X125228Y252763D01*
Y253596D01*
X124395Y254429D01*
X121896D01*
X115913Y176712D02*
Y171713D01*
X118413D01*
X119246Y172547D01*
Y175879D01*
X118413Y176712D01*
X115913D01*
X124244D02*
X120912D01*
Y174213D01*
X122578Y175046D01*
X123411D01*
X124244Y174213D01*
Y172547D01*
X123411Y171713D01*
X121745D01*
X120912Y172547D01*
X301445Y205255D02*
Y200257D01*
X303944D01*
X304777Y201090D01*
Y204422D01*
X303944Y205255D01*
X301445D01*
X308943Y200257D02*
Y205255D01*
X306443Y202756D01*
X309776D01*
X72455Y176712D02*
Y171713D01*
X74954D01*
X75787Y172547D01*
Y175879D01*
X74954Y176712D01*
X72455D01*
X77454Y175879D02*
X78287Y176712D01*
X79953D01*
X80786Y175879D01*
Y175046D01*
X79953Y174213D01*
X79120D01*
X79953D01*
X80786Y173380D01*
Y172547D01*
X79953Y171713D01*
X78287D01*
X77454Y172547D01*
X167473Y194428D02*
Y189430D01*
X169972D01*
X170805Y190263D01*
Y193595D01*
X169972Y194428D01*
X167473D01*
X175803Y189430D02*
X172471D01*
X175803Y192762D01*
Y193595D01*
X174970Y194428D01*
X173304D01*
X172471Y193595D01*
X72455Y150137D02*
Y145139D01*
X74954D01*
X75787Y145972D01*
Y149304D01*
X74954Y150137D01*
X72455D01*
X77454Y145139D02*
X79120D01*
X78287D01*
Y150137D01*
X77454Y149304D01*
X9463Y199009D02*
X8630Y199842D01*
X6964D01*
X6131Y199009D01*
Y195676D01*
X6964Y194843D01*
X8630D01*
X9463Y195676D01*
X11129Y194843D02*
Y199842D01*
X14461Y194843D01*
Y199842D01*
X19460Y194843D02*
X16127D01*
X19460Y198176D01*
Y199009D01*
X18627Y199842D01*
X16961D01*
X16127Y199009D01*
X16202Y184540D02*
X15369Y185373D01*
X13702D01*
X12869Y184540D01*
Y181208D01*
X13702Y180375D01*
X15369D01*
X16202Y181208D01*
X17868Y180375D02*
Y185373D01*
X21200Y180375D01*
Y185373D01*
X22866Y180375D02*
X24532D01*
X23699D01*
Y185373D01*
X22866Y184540D01*
X181480Y158162D02*
X180647Y158995D01*
X178981D01*
X178148Y158162D01*
Y154830D01*
X178981Y153997D01*
X180647D01*
X181480Y154830D01*
X183147Y153997D02*
X184813D01*
X183979D01*
Y158995D01*
X183147Y158162D01*
X187312Y153997D02*
X188978D01*
X188145D01*
Y158995D01*
X187312Y158162D01*
X304777Y229521D02*
X303944Y230353D01*
X302278D01*
X301445Y229521D01*
Y226188D01*
X302278Y225355D01*
X303944D01*
X304777Y226188D01*
X306443D02*
X307276Y225355D01*
X308943D01*
X309776Y226188D01*
Y229521D01*
X308943Y230353D01*
X307276D01*
X306443Y229521D01*
Y228687D01*
X307276Y227854D01*
X309776D01*
X304777Y237887D02*
X303944Y238720D01*
X302278D01*
X301445Y237887D01*
Y234554D01*
X302278Y233721D01*
X303944D01*
X304777Y234554D01*
X306443Y237887D02*
X307276Y238720D01*
X308943D01*
X309776Y237887D01*
Y237053D01*
X308943Y236221D01*
X309776Y235387D01*
Y234554D01*
X308943Y233721D01*
X307276D01*
X306443Y234554D01*
Y235387D01*
X307276Y236221D01*
X306443Y237053D01*
Y237887D01*
X307276Y236221D02*
X308943D01*
X388439Y246745D02*
X387606Y247578D01*
X385939D01*
X385106Y246745D01*
Y243413D01*
X385939Y242580D01*
X387606D01*
X388439Y243413D01*
X390105Y247578D02*
X393437D01*
Y246745D01*
X390105Y243413D01*
Y242580D01*
X120230Y193595D02*
X119397Y194428D01*
X117731D01*
X116898Y193595D01*
Y190263D01*
X117731Y189430D01*
X119397D01*
X120230Y190263D01*
X125228Y194428D02*
X123562Y193595D01*
X121896Y191929D01*
Y190263D01*
X122729Y189430D01*
X124395D01*
X125228Y190263D01*
Y191096D01*
X124395Y191929D01*
X121896D01*
X120230Y184737D02*
X119397Y185570D01*
X117731D01*
X116898Y184737D01*
Y181405D01*
X117731Y180572D01*
X119397D01*
X120230Y181405D01*
X125228Y185570D02*
X121896D01*
Y183071D01*
X123562Y183904D01*
X124395D01*
X125228Y183071D01*
Y181405D01*
X124395Y180572D01*
X122729D01*
X121896Y181405D01*
X120230Y148812D02*
X119397Y149645D01*
X117731D01*
X116898Y148812D01*
Y145480D01*
X117731Y144647D01*
X119397D01*
X120230Y145480D01*
X124395Y144647D02*
Y149645D01*
X121896Y147146D01*
X125228D01*
X43458Y189166D02*
X42625Y189999D01*
X40959D01*
X40126Y189166D01*
Y185834D01*
X40959Y185001D01*
X42625D01*
X43458Y185834D01*
X45124Y189166D02*
X45957Y189999D01*
X47624D01*
X48457Y189166D01*
Y188333D01*
X47624Y187500D01*
X46791D01*
X47624D01*
X48457Y186667D01*
Y185834D01*
X47624Y185001D01*
X45957D01*
X45124Y185834D01*
X80368Y193595D02*
X79535Y194428D01*
X77868D01*
X77035Y193595D01*
Y190263D01*
X77868Y189430D01*
X79535D01*
X80368Y190263D01*
X85366Y189430D02*
X82034D01*
X85366Y192762D01*
Y193595D01*
X84533Y194428D01*
X82867D01*
X82034Y193595D01*
X159449Y149796D02*
X158616Y150629D01*
X156950D01*
X156117Y149796D01*
Y146464D01*
X156950Y145631D01*
X158616D01*
X159449Y146464D01*
X161115Y145631D02*
X162781D01*
X161948D01*
Y150629D01*
X161115Y149796D01*
X284221Y158995D02*
X287553Y153997D01*
Y158995D02*
X284221Y153997D01*
X292551D02*
X289219D01*
X292551Y157329D01*
Y158162D01*
X291718Y158995D01*
X290052D01*
X289219Y158162D01*
X270728Y197381D02*
X274060Y192383D01*
Y197381D02*
X270728Y192383D01*
X275726D02*
X277392D01*
X276559D01*
Y197381D01*
X275726Y196548D01*
X232396Y226416D02*
Y222251D01*
X233229Y221418D01*
X234895D01*
X235728Y222251D01*
Y226416D01*
X237394Y221418D02*
X239061D01*
X238228D01*
Y226416D01*
X237394Y225584D01*
X176482Y162855D02*
Y167853D01*
X178981D01*
X179814Y167020D01*
Y165354D01*
X178981Y164521D01*
X176482D01*
X178148D02*
X179814Y162855D01*
X181480D02*
X183147D01*
X182313D01*
Y167853D01*
X181480Y167020D01*
X185646D02*
X186479Y167853D01*
X188145D01*
X188978Y167020D01*
Y166187D01*
X188145Y165354D01*
X187312D01*
X188145D01*
X188978Y164521D01*
Y163688D01*
X188145Y162855D01*
X186479D01*
X185646Y163688D01*
X230806Y153997D02*
Y158995D01*
X233305D01*
X234138Y158162D01*
Y156496D01*
X233305Y155663D01*
X230806D01*
X232472D02*
X234138Y153997D01*
X235804D02*
X237470D01*
X236637D01*
Y158995D01*
X235804Y158162D01*
X243302Y153997D02*
X239969D01*
X243302Y157329D01*
Y158162D01*
X242468Y158995D01*
X240802D01*
X239969Y158162D01*
X230806Y242580D02*
Y247578D01*
X233305D01*
X234138Y246745D01*
Y245079D01*
X233305Y244246D01*
X230806D01*
X232472D02*
X234138Y242580D01*
X235804D02*
X237470D01*
X236637D01*
Y247578D01*
X235804Y246745D01*
X239969Y242580D02*
X241635D01*
X240802D01*
Y247578D01*
X239969Y246745D01*
X167473Y224863D02*
Y229861D01*
X169972D01*
X170805Y229028D01*
Y227362D01*
X169972Y226529D01*
X167473D01*
X169139D02*
X170805Y224863D01*
X172471D02*
X174137D01*
X173304D01*
Y229861D01*
X172471Y229028D01*
X176636D02*
X177469Y229861D01*
X179135D01*
X179969Y229028D01*
Y225696D01*
X179135Y224863D01*
X177469D01*
X176636Y225696D01*
Y229028D01*
X301445Y210591D02*
Y215590D01*
X303944D01*
X304777Y214757D01*
Y213090D01*
X303944Y212258D01*
X301445D01*
X303111D02*
X304777Y210591D01*
X309776D02*
X306443D01*
X309776Y213924D01*
Y214757D01*
X308943Y215590D01*
X307276D01*
X306443Y214757D01*
X118564Y207147D02*
Y212145D01*
X121063D01*
X121896Y211312D01*
Y209646D01*
X121063Y208813D01*
X118564D01*
X120230D02*
X121896Y207147D01*
X123562D02*
X125228D01*
X124395D01*
Y212145D01*
X123562Y211312D01*
X242731Y144383D02*
X241898Y145216D01*
X240231D01*
X239399Y144383D01*
Y141050D01*
X240231Y140217D01*
X241898D01*
X242731Y141050D01*
X244397Y140217D02*
Y145216D01*
X247729Y140217D01*
Y145216D01*
X249395Y144383D02*
X250228Y145216D01*
X251894D01*
X252728Y144383D01*
Y143550D01*
X251894Y142717D01*
X251061D01*
X251894D01*
X252728Y141884D01*
Y141050D01*
X251894Y140217D01*
X250228D01*
X249395Y141050D01*
X180647Y246745D02*
X179814Y247578D01*
X178148D01*
X177315Y246745D01*
Y243413D01*
X178148Y242580D01*
X179814D01*
X180647Y243413D01*
X185646Y242580D02*
X182313D01*
X185646Y245912D01*
Y246745D01*
X184813Y247578D01*
X183147D01*
X182313Y246745D01*
X187312Y242580D02*
X188978D01*
X188145D01*
Y247578D01*
X187312Y246745D01*
X274727Y167020D02*
X273894Y167853D01*
X272227D01*
X271394Y167020D01*
Y163688D01*
X272227Y162855D01*
X273894D01*
X274727Y163688D01*
X279725Y162855D02*
X276393D01*
X279725Y166187D01*
Y167020D01*
X278892Y167853D01*
X277226D01*
X276393Y167020D01*
X281391D02*
X282224Y167853D01*
X283890D01*
X284723Y167020D01*
Y163688D01*
X283890Y162855D01*
X282224D01*
X281391Y163688D01*
Y167020D01*
X234138D02*
X233305Y167853D01*
X231639D01*
X230806Y167020D01*
Y163688D01*
X231639Y162855D01*
X233305D01*
X234138Y163688D01*
X235804Y162855D02*
X237470D01*
X236637D01*
Y167853D01*
X235804Y167020D01*
X239969Y163688D02*
X240802Y162855D01*
X242468D01*
X243302Y163688D01*
Y167020D01*
X242468Y167853D01*
X240802D01*
X239969Y167020D01*
Y166187D01*
X240802Y165354D01*
X243302D01*
X274643Y149304D02*
X273810Y150137D01*
X272144D01*
X271311Y149304D01*
Y145972D01*
X272144Y145139D01*
X273810D01*
X274643Y145972D01*
X276309Y145139D02*
X277976D01*
X277143D01*
Y150137D01*
X276309Y149304D01*
X280475D02*
X281308Y150137D01*
X282974D01*
X283807Y149304D01*
Y148471D01*
X282974Y147638D01*
X283807Y146805D01*
Y145972D01*
X282974Y145139D01*
X281308D01*
X280475Y145972D01*
Y146805D01*
X281308Y147638D01*
X280475Y148471D01*
Y149304D01*
X281308Y147638D02*
X282974D01*
X273167Y214265D02*
X272334Y215098D01*
X270668D01*
X269835Y214265D01*
Y210932D01*
X270668Y210099D01*
X272334D01*
X273167Y210932D01*
X274833Y210099D02*
X276499D01*
X275666D01*
Y215098D01*
X274833Y214265D01*
X278998Y215098D02*
X282331D01*
Y214265D01*
X278998Y210932D01*
Y210099D01*
X274643Y178832D02*
X273810Y179665D01*
X272144D01*
X271311Y178832D01*
Y175499D01*
X272144Y174666D01*
X273810D01*
X274643Y175499D01*
X276309Y174666D02*
X277976D01*
X277143D01*
Y179665D01*
X276309Y178832D01*
X283807Y179665D02*
X282141Y178832D01*
X280475Y177165D01*
Y175499D01*
X281308Y174666D01*
X282974D01*
X283807Y175499D01*
Y176332D01*
X282974Y177165D01*
X280475D01*
X170805Y202453D02*
X169972Y203287D01*
X168306D01*
X167473Y202453D01*
Y199121D01*
X168306Y198288D01*
X169972D01*
X170805Y199121D01*
X172471Y198288D02*
X174137D01*
X173304D01*
Y203287D01*
X172471Y202453D01*
X179969Y203287D02*
X176636D01*
Y200787D01*
X178302Y201621D01*
X179135D01*
X179969Y200787D01*
Y199121D01*
X179135Y198288D01*
X177469D01*
X176636Y199121D01*
X273167Y229028D02*
X272334Y229861D01*
X270668D01*
X269835Y229028D01*
Y225696D01*
X270668Y224863D01*
X272334D01*
X273167Y225696D01*
X274833Y224863D02*
X276499D01*
X275666D01*
Y229861D01*
X274833Y229028D01*
X281498Y224863D02*
Y229861D01*
X278998Y227362D01*
X282331D01*
X273167Y237887D02*
X272334Y238720D01*
X270668D01*
X269835Y237887D01*
Y234554D01*
X270668Y233721D01*
X272334D01*
X273167Y234554D01*
X274833Y233721D02*
X276499D01*
X275666D01*
Y238720D01*
X274833Y237887D01*
X278998D02*
X279831Y238720D01*
X281498D01*
X282331Y237887D01*
Y237053D01*
X281498Y236221D01*
X280664D01*
X281498D01*
X282331Y235387D01*
Y234554D01*
X281498Y233721D01*
X279831D01*
X278998Y234554D01*
X179814Y237887D02*
X178981Y238720D01*
X177315D01*
X176482Y237887D01*
Y234554D01*
X177315Y233721D01*
X178981D01*
X179814Y234554D01*
X181480Y233721D02*
X183147D01*
X182313D01*
Y238720D01*
X181480Y237887D01*
X188978Y233721D02*
X185646D01*
X188978Y237053D01*
Y237887D01*
X188145Y238720D01*
X186479D01*
X185646Y237887D01*
X234138D02*
X233305Y238720D01*
X231639D01*
X230806Y237887D01*
Y234554D01*
X231639Y233721D01*
X233305D01*
X234138Y234554D01*
X235804Y233721D02*
X237470D01*
X236637D01*
Y238720D01*
X235804Y237887D01*
X239969D02*
X240802Y238720D01*
X242468D01*
X243302Y237887D01*
Y234554D01*
X242468Y233721D01*
X240802D01*
X239969Y234554D01*
Y237887D01*
G54D55*
X545221Y194569D02*
D03*
Y203069D02*
D03*
Y60711D02*
D03*
Y69211D02*
D03*
X297299Y73148D02*
D03*
Y64648D02*
D03*
Y207006D02*
D03*
Y198506D02*
D03*
G54D56*
X744095Y210630D02*
D03*
G54D57*
X779430Y222362D02*
D03*
Y232362D02*
D03*
X779432Y248937D02*
D03*
Y258937D02*
D03*
X779430Y88504D02*
D03*
Y98504D02*
D03*
X779432Y115079D02*
D03*
Y125079D02*
D03*
X63089Y45354D02*
D03*
Y35354D02*
D03*
X63087Y18780D02*
D03*
Y8780D02*
D03*
X63089Y179213D02*
D03*
Y169213D02*
D03*
X63087Y152638D02*
D03*
Y142638D02*
D03*
G54D58*
X744095Y76772D02*
D03*
G54D59*
X98425Y57087D02*
D03*
G54D60*
Y190945D02*
D03*
M02*
