G04*
G04 #@! TF.GenerationSoftware,Altium Limited,Altium Designer,22.8.2 (66)*
G04*
G04 Layer_Color=16711935*
%FSLAX25Y25*%
%MOIN*%
G70*
G04*
G04 #@! TF.SameCoordinates,13EA9874-455B-4FA2-A727-6D6EF1C97DE0*
G04*
G04*
G04 #@! TF.FilePolarity,Negative*
G04*
G01*
G75*
%ADD50C,0.10249*%
%ADD51R,0.10249X0.10249*%
%ADD52C,0.12611*%
%ADD53C,0.09461*%
%ADD54C,0.09461*%
%ADD55R,0.08800X0.08800*%
%ADD56C,0.08800*%
%ADD57O,0.07887X0.25603*%
%ADD58O,0.07887X0.22060*%
%ADD59O,0.22060X0.07887*%
%ADD60C,0.07887*%
%ADD61R,0.07887X0.07887*%
%ADD62C,0.22453*%
G54D50*
X9843Y78740D02*
D03*
Y98425D02*
D03*
G54D51*
Y118110D02*
D03*
G54D52*
X102756Y98425D02*
D03*
X46850Y122047D02*
D03*
Y74803D02*
D03*
G54D53*
X94882Y122047D02*
D03*
G54D54*
Y74803D02*
D03*
G54D55*
X98425Y36557D02*
D03*
G54D56*
Y50057D02*
D03*
G54D57*
X31004Y25394D02*
D03*
G54D58*
X7382D02*
D03*
G54D59*
X19193Y6890D02*
D03*
G54D60*
X200630Y8858D02*
D03*
X210630D02*
D03*
X220630D02*
D03*
X230630D02*
D03*
G54D61*
X190630D02*
D03*
G54D62*
X322835Y122047D02*
D03*
X98425Y11811D02*
D03*
M02*
