G04*
G04 #@! TF.GenerationSoftware,Altium Limited,Altium Designer,22.8.2 (66)*
G04*
G04 Layer_Color=8388736*
%FSLAX25Y25*%
%MOIN*%
G70*
G04*
G04 #@! TF.SameCoordinates,C3FD66B6-40D4-4EF1-9346-9CEE37E5CDB1*
G04*
G04*
G04 #@! TF.FilePolarity,Negative*
G04*
G01*
G75*
%ADD61C,0.07874*%
%ADD62R,0.01981X0.05524*%
%ADD63R,0.05524X0.01981*%
%ADD64R,0.06115X0.06706*%
%ADD65R,0.05918X0.06706*%
%ADD66R,0.07887X0.04737*%
%ADD67R,0.04737X0.10642*%
%ADD68R,0.03123X0.02572*%
%ADD69R,0.03550X0.03943*%
%ADD70R,0.12611X0.06902*%
%ADD71R,0.04343X0.04540*%
%ADD72R,0.04731X0.02762*%
%ADD73R,0.10642X0.07493*%
%ADD74R,0.04737X0.07099*%
%ADD75R,0.10249X0.06706*%
%ADD76R,0.05721X0.07099*%
%ADD77R,0.03123X0.02572*%
%ADD78C,0.16548*%
%ADD79C,0.10249*%
%ADD80R,0.10249X0.10249*%
%ADD81C,0.12611*%
%ADD82C,0.09461*%
%ADD83C,0.09461*%
%ADD84R,0.08800X0.08800*%
%ADD85C,0.08800*%
%ADD86O,0.07887X0.25603*%
%ADD87O,0.07887X0.22060*%
%ADD88O,0.22060X0.07887*%
%ADD89C,0.07887*%
%ADD90R,0.07887X0.07887*%
%ADD91C,0.22453*%
G54D61*
X803150Y259842D02*
D03*
Y125984D02*
D03*
X39370Y7874D02*
D03*
Y141732D02*
D03*
G54D62*
X617126Y223425D02*
D03*
X619095D02*
D03*
X621063D02*
D03*
X623032D02*
D03*
X625000D02*
D03*
X626968D02*
D03*
X628937D02*
D03*
X630905D02*
D03*
X632874D02*
D03*
X634842D02*
D03*
X636811D02*
D03*
X638779D02*
D03*
X640748D02*
D03*
X642717D02*
D03*
X644685D02*
D03*
X646654D02*
D03*
Y178150D02*
D03*
X644685D02*
D03*
X642717D02*
D03*
X640748D02*
D03*
X638779D02*
D03*
X636811D02*
D03*
X634842D02*
D03*
X632874D02*
D03*
X630905D02*
D03*
X628937D02*
D03*
X626968D02*
D03*
X625000D02*
D03*
X623032D02*
D03*
X621063D02*
D03*
X619095D02*
D03*
X617126D02*
D03*
Y89567D02*
D03*
X619095D02*
D03*
X621063D02*
D03*
X623032D02*
D03*
X625000D02*
D03*
X626968D02*
D03*
X628937D02*
D03*
X630905D02*
D03*
X632874D02*
D03*
X634842D02*
D03*
X636811D02*
D03*
X638779D02*
D03*
X640748D02*
D03*
X642717D02*
D03*
X644685D02*
D03*
X646654D02*
D03*
Y44291D02*
D03*
X644685D02*
D03*
X642717D02*
D03*
X640748D02*
D03*
X638779D02*
D03*
X636811D02*
D03*
X634842D02*
D03*
X632874D02*
D03*
X630905D02*
D03*
X628937D02*
D03*
X626968D02*
D03*
X625000D02*
D03*
X623032D02*
D03*
X621063D02*
D03*
X619095D02*
D03*
X617126D02*
D03*
X225394Y44291D02*
D03*
X223425D02*
D03*
X221457D02*
D03*
X219488D02*
D03*
X217520D02*
D03*
X215551D02*
D03*
X213583D02*
D03*
X211614D02*
D03*
X209646D02*
D03*
X207677D02*
D03*
X205709D02*
D03*
X203740D02*
D03*
X201772D02*
D03*
X199803D02*
D03*
X197835D02*
D03*
X195866D02*
D03*
Y89567D02*
D03*
X197835D02*
D03*
X199803D02*
D03*
X201772D02*
D03*
X203740D02*
D03*
X205709D02*
D03*
X207677D02*
D03*
X209646D02*
D03*
X211614D02*
D03*
X213583D02*
D03*
X215551D02*
D03*
X217520D02*
D03*
X219488D02*
D03*
X221457D02*
D03*
X223425D02*
D03*
X225394D02*
D03*
Y178150D02*
D03*
X223425D02*
D03*
X221457D02*
D03*
X219488D02*
D03*
X217520D02*
D03*
X215551D02*
D03*
X213583D02*
D03*
X211614D02*
D03*
X209646D02*
D03*
X207677D02*
D03*
X205709D02*
D03*
X203740D02*
D03*
X201772D02*
D03*
X199803D02*
D03*
X197835D02*
D03*
X195866D02*
D03*
Y223425D02*
D03*
X197835D02*
D03*
X199803D02*
D03*
X201772D02*
D03*
X203740D02*
D03*
X205709D02*
D03*
X207677D02*
D03*
X209646D02*
D03*
X211614D02*
D03*
X213583D02*
D03*
X215551D02*
D03*
X217520D02*
D03*
X219488D02*
D03*
X221457D02*
D03*
X223425D02*
D03*
X225394D02*
D03*
G54D63*
X654528Y215551D02*
D03*
Y213583D02*
D03*
Y211614D02*
D03*
Y209646D02*
D03*
Y207677D02*
D03*
Y205709D02*
D03*
Y203740D02*
D03*
Y201772D02*
D03*
Y199803D02*
D03*
Y197835D02*
D03*
Y195866D02*
D03*
Y193898D02*
D03*
Y191929D02*
D03*
Y189961D02*
D03*
Y187992D02*
D03*
Y186024D02*
D03*
X609252D02*
D03*
Y187992D02*
D03*
Y189961D02*
D03*
Y191929D02*
D03*
Y193898D02*
D03*
Y195866D02*
D03*
Y197835D02*
D03*
Y199803D02*
D03*
Y201772D02*
D03*
Y203740D02*
D03*
Y205709D02*
D03*
Y207677D02*
D03*
Y209646D02*
D03*
Y211614D02*
D03*
Y213583D02*
D03*
Y215551D02*
D03*
X654528Y81693D02*
D03*
Y79724D02*
D03*
Y77756D02*
D03*
Y75787D02*
D03*
Y73819D02*
D03*
Y71850D02*
D03*
Y69882D02*
D03*
Y67913D02*
D03*
Y65945D02*
D03*
Y63976D02*
D03*
Y62008D02*
D03*
Y60039D02*
D03*
Y58071D02*
D03*
Y56102D02*
D03*
Y54134D02*
D03*
Y52165D02*
D03*
X609252D02*
D03*
Y54134D02*
D03*
Y56102D02*
D03*
Y58071D02*
D03*
Y60039D02*
D03*
Y62008D02*
D03*
Y63976D02*
D03*
Y65945D02*
D03*
Y67913D02*
D03*
Y69882D02*
D03*
Y71850D02*
D03*
Y73819D02*
D03*
Y75787D02*
D03*
Y77756D02*
D03*
Y79724D02*
D03*
Y81693D02*
D03*
X187992Y52165D02*
D03*
Y54134D02*
D03*
Y56102D02*
D03*
Y58071D02*
D03*
Y60039D02*
D03*
Y62008D02*
D03*
Y63976D02*
D03*
Y65945D02*
D03*
Y67913D02*
D03*
Y69882D02*
D03*
Y71850D02*
D03*
Y73819D02*
D03*
Y75787D02*
D03*
Y77756D02*
D03*
Y79724D02*
D03*
Y81693D02*
D03*
X233268D02*
D03*
Y79724D02*
D03*
Y77756D02*
D03*
Y75787D02*
D03*
Y73819D02*
D03*
Y71850D02*
D03*
Y69882D02*
D03*
Y67913D02*
D03*
Y65945D02*
D03*
Y63976D02*
D03*
Y62008D02*
D03*
Y60039D02*
D03*
Y58071D02*
D03*
Y56102D02*
D03*
Y54134D02*
D03*
Y52165D02*
D03*
X187992Y186024D02*
D03*
Y187992D02*
D03*
Y189961D02*
D03*
Y191929D02*
D03*
Y193898D02*
D03*
Y195866D02*
D03*
Y197835D02*
D03*
Y199803D02*
D03*
Y201772D02*
D03*
Y203740D02*
D03*
Y205709D02*
D03*
Y207677D02*
D03*
Y209646D02*
D03*
Y211614D02*
D03*
Y213583D02*
D03*
Y215551D02*
D03*
X233268D02*
D03*
Y213583D02*
D03*
Y211614D02*
D03*
Y209646D02*
D03*
Y207677D02*
D03*
Y205709D02*
D03*
Y203740D02*
D03*
Y201772D02*
D03*
Y199803D02*
D03*
Y197835D02*
D03*
Y195866D02*
D03*
Y193898D02*
D03*
Y191929D02*
D03*
Y189961D02*
D03*
Y187992D02*
D03*
Y186024D02*
D03*
G54D64*
X641929Y235728D02*
D03*
X649409D02*
D03*
X544980Y188484D02*
D03*
X552461D02*
D03*
X494882Y156496D02*
D03*
X487402D02*
D03*
X487402Y254429D02*
D03*
X494882D02*
D03*
X487402Y245079D02*
D03*
X494882D02*
D03*
X469291Y147146D02*
D03*
X461811D02*
D03*
X704921Y191929D02*
D03*
X712402D02*
D03*
X704921Y200787D02*
D03*
X712402D02*
D03*
X712402Y174213D02*
D03*
X704921D02*
D03*
X704921Y183071D02*
D03*
X712402D02*
D03*
X616339Y156496D02*
D03*
X623819D02*
D03*
X623819Y245079D02*
D03*
X616339D02*
D03*
X679331Y174213D02*
D03*
X686811D02*
D03*
X641929Y101870D02*
D03*
X649409D02*
D03*
X544980Y54626D02*
D03*
X552461D02*
D03*
X494882Y22638D02*
D03*
X487402D02*
D03*
X487402Y120571D02*
D03*
X494882D02*
D03*
X487402Y111221D02*
D03*
X494882D02*
D03*
X469291Y13287D02*
D03*
X461811D02*
D03*
X704921Y58071D02*
D03*
X712402D02*
D03*
X704921Y66929D02*
D03*
X712402D02*
D03*
X712402Y40354D02*
D03*
X704921D02*
D03*
X704921Y49213D02*
D03*
X712402D02*
D03*
X616339Y22638D02*
D03*
X623819D02*
D03*
X623819Y111221D02*
D03*
X616339D02*
D03*
X679331Y40354D02*
D03*
X686811D02*
D03*
X200591Y31988D02*
D03*
X193110D02*
D03*
X297539Y79232D02*
D03*
X290059D02*
D03*
X347638Y111221D02*
D03*
X355118D02*
D03*
X355118Y13287D02*
D03*
X347638D02*
D03*
X355118Y22638D02*
D03*
X347638D02*
D03*
X373228Y120571D02*
D03*
X380709D02*
D03*
X137598Y75787D02*
D03*
X130118D02*
D03*
X137598Y66929D02*
D03*
X130118D02*
D03*
X130118Y93504D02*
D03*
X137598D02*
D03*
X137598Y84646D02*
D03*
X130118D02*
D03*
X226181Y111221D02*
D03*
X218701D02*
D03*
X218701Y22638D02*
D03*
X226181D02*
D03*
X163189Y93504D02*
D03*
X155709D02*
D03*
X200591Y165847D02*
D03*
X193110D02*
D03*
X297539Y213090D02*
D03*
X290059D02*
D03*
X347638Y245079D02*
D03*
X355118D02*
D03*
X355118Y147146D02*
D03*
X347638D02*
D03*
X355118Y156496D02*
D03*
X347638D02*
D03*
X373228Y254429D02*
D03*
X380709D02*
D03*
X137598Y209646D02*
D03*
X130118D02*
D03*
X137598Y200787D02*
D03*
X130118D02*
D03*
X130118Y227362D02*
D03*
X137598D02*
D03*
X137598Y218504D02*
D03*
X130118D02*
D03*
X226181Y245079D02*
D03*
X218701D02*
D03*
X218701Y156496D02*
D03*
X226181D02*
D03*
X163189Y227362D02*
D03*
X155709D02*
D03*
G54D65*
X552461Y198819D02*
D03*
X544980D02*
D03*
X552461Y174213D02*
D03*
X544980D02*
D03*
X552461Y165354D02*
D03*
X544980D02*
D03*
X469291Y156496D02*
D03*
X461811D02*
D03*
X686811Y245079D02*
D03*
X679331D02*
D03*
X712402Y209646D02*
D03*
X704921D02*
D03*
X712402Y218504D02*
D03*
X704921D02*
D03*
X789173Y214075D02*
D03*
X781693D02*
D03*
X712402Y254429D02*
D03*
X704921D02*
D03*
X641929Y245079D02*
D03*
X649409D02*
D03*
X679331Y200787D02*
D03*
X686811D02*
D03*
X641929Y156496D02*
D03*
X649409D02*
D03*
X623819Y236221D02*
D03*
X616339D02*
D03*
X641929Y165354D02*
D03*
X649409D02*
D03*
X616339D02*
D03*
X623819D02*
D03*
X576968D02*
D03*
X584449D02*
D03*
X576968Y236221D02*
D03*
X584449D02*
D03*
X576968Y253937D02*
D03*
X584449D02*
D03*
X576968Y188976D02*
D03*
X584449D02*
D03*
Y224410D02*
D03*
X576968D02*
D03*
Y174213D02*
D03*
X584449D02*
D03*
X552461Y64961D02*
D03*
X544980D02*
D03*
X552461Y40354D02*
D03*
X544980D02*
D03*
X552461Y31496D02*
D03*
X544980D02*
D03*
X469291Y22638D02*
D03*
X461811D02*
D03*
X686811Y111221D02*
D03*
X679331D02*
D03*
X712402Y75787D02*
D03*
X704921D02*
D03*
X712402Y84646D02*
D03*
X704921D02*
D03*
X789173Y80216D02*
D03*
X781693D02*
D03*
X712402Y120571D02*
D03*
X704921D02*
D03*
X641929Y111221D02*
D03*
X649409D02*
D03*
X679331Y66929D02*
D03*
X686811D02*
D03*
X641929Y22638D02*
D03*
X649409D02*
D03*
X623819Y102362D02*
D03*
X616339D02*
D03*
X641929Y31496D02*
D03*
X649409D02*
D03*
X616339D02*
D03*
X623819D02*
D03*
X576968D02*
D03*
X584449D02*
D03*
X576968Y102362D02*
D03*
X584449D02*
D03*
X576968Y120079D02*
D03*
X584449D02*
D03*
X576968Y55118D02*
D03*
X584449D02*
D03*
Y90551D02*
D03*
X576968D02*
D03*
Y40354D02*
D03*
X584449D02*
D03*
X290059Y68898D02*
D03*
X297539D02*
D03*
X290059Y93504D02*
D03*
X297539D02*
D03*
X290059Y102362D02*
D03*
X297539D02*
D03*
X373228Y111221D02*
D03*
X380709D02*
D03*
X155709Y22638D02*
D03*
X163189D02*
D03*
X130118Y58071D02*
D03*
X137598D02*
D03*
X130118Y49213D02*
D03*
X137598D02*
D03*
X53347Y53642D02*
D03*
X60827D02*
D03*
X130118Y13287D02*
D03*
X137598D02*
D03*
X200591Y22638D02*
D03*
X193110D02*
D03*
X163189Y66929D02*
D03*
X155709D02*
D03*
X200591Y111221D02*
D03*
X193110D02*
D03*
X218701Y31496D02*
D03*
X226181D02*
D03*
X200591Y102362D02*
D03*
X193110D02*
D03*
X226181D02*
D03*
X218701D02*
D03*
X265551D02*
D03*
X258071D02*
D03*
X265551Y31496D02*
D03*
X258071D02*
D03*
X265551Y13780D02*
D03*
X258071D02*
D03*
X265551Y78740D02*
D03*
X258071D02*
D03*
Y43307D02*
D03*
X265551D02*
D03*
Y93504D02*
D03*
X258071D02*
D03*
X290059Y202756D02*
D03*
X297539D02*
D03*
X290059Y227362D02*
D03*
X297539D02*
D03*
X290059Y236221D02*
D03*
X297539D02*
D03*
X373228Y245079D02*
D03*
X380709D02*
D03*
X155709Y156496D02*
D03*
X163189D02*
D03*
X130118Y191929D02*
D03*
X137598D02*
D03*
X130118Y183071D02*
D03*
X137598D02*
D03*
X53347Y187500D02*
D03*
X60827D02*
D03*
X130118Y147146D02*
D03*
X137598D02*
D03*
X200591Y156496D02*
D03*
X193110D02*
D03*
X163189Y200787D02*
D03*
X155709D02*
D03*
X200591Y245079D02*
D03*
X193110D02*
D03*
X218701Y165354D02*
D03*
X226181D02*
D03*
X200591Y236221D02*
D03*
X193110D02*
D03*
X226181D02*
D03*
X218701D02*
D03*
X265551D02*
D03*
X258071D02*
D03*
X265551Y165354D02*
D03*
X258071D02*
D03*
X265551Y147638D02*
D03*
X258071D02*
D03*
X265551Y212598D02*
D03*
X258071D02*
D03*
Y177165D02*
D03*
X265551D02*
D03*
Y227362D02*
D03*
X258071D02*
D03*
G54D66*
X521654Y181102D02*
D03*
Y188976D02*
D03*
Y196850D02*
D03*
Y204724D02*
D03*
Y212598D02*
D03*
Y220472D02*
D03*
D03*
Y47244D02*
D03*
Y55118D02*
D03*
Y62992D02*
D03*
Y70866D02*
D03*
Y78740D02*
D03*
Y86614D02*
D03*
D03*
X320866Y86614D02*
D03*
Y78740D02*
D03*
Y70866D02*
D03*
Y62992D02*
D03*
Y55118D02*
D03*
Y47244D02*
D03*
D03*
Y220472D02*
D03*
Y212598D02*
D03*
Y204724D02*
D03*
Y196850D02*
D03*
Y188976D02*
D03*
Y181102D02*
D03*
D03*
G54D67*
X460630Y170866D02*
D03*
Y230709D02*
D03*
X468504D02*
D03*
X476378D02*
D03*
X484252D02*
D03*
X492126D02*
D03*
X500000D02*
D03*
X507874D02*
D03*
X515748D02*
D03*
Y170866D02*
D03*
X507874D02*
D03*
X500000D02*
D03*
X492126D02*
D03*
X484252D02*
D03*
X476378D02*
D03*
X468504D02*
D03*
X460630Y37008D02*
D03*
Y96850D02*
D03*
X468504D02*
D03*
X476378D02*
D03*
X484252D02*
D03*
X492126D02*
D03*
X500000D02*
D03*
X507874D02*
D03*
X515748D02*
D03*
Y37008D02*
D03*
X507874D02*
D03*
X500000D02*
D03*
X492126D02*
D03*
X484252D02*
D03*
X476378D02*
D03*
X468504D02*
D03*
X381890Y96850D02*
D03*
Y37008D02*
D03*
X374016D02*
D03*
X366142D02*
D03*
X358268D02*
D03*
X350394D02*
D03*
X342520D02*
D03*
X334646D02*
D03*
X326772D02*
D03*
Y96850D02*
D03*
X334646D02*
D03*
X342520D02*
D03*
X350394D02*
D03*
X358268D02*
D03*
X366142D02*
D03*
X374016D02*
D03*
X381890Y230709D02*
D03*
Y170866D02*
D03*
X374016D02*
D03*
X366142D02*
D03*
X358268D02*
D03*
X350394D02*
D03*
X342520D02*
D03*
X334646D02*
D03*
X326772D02*
D03*
Y230709D02*
D03*
X334646D02*
D03*
X342520D02*
D03*
X350394D02*
D03*
X358268D02*
D03*
X366142D02*
D03*
X374016D02*
D03*
G54D68*
X713091Y147638D02*
D03*
X704232D02*
D03*
X678642Y209646D02*
D03*
X687500D02*
D03*
X713091Y13780D02*
D03*
X704232D02*
D03*
X678642Y75787D02*
D03*
X687500D02*
D03*
X129429Y120079D02*
D03*
X138287D02*
D03*
X129429Y253937D02*
D03*
X138287D02*
D03*
G54D69*
X704921Y164862D02*
D03*
X708661Y156988D02*
D03*
X712402Y164862D02*
D03*
X704921Y31004D02*
D03*
X708661Y23130D02*
D03*
X712402Y31004D02*
D03*
X137598Y102854D02*
D03*
X133858Y110728D02*
D03*
X130118Y102854D02*
D03*
X137598Y236713D02*
D03*
X133858Y244587D02*
D03*
X130118Y236713D02*
D03*
G54D70*
X683071Y225197D02*
D03*
Y236417D02*
D03*
Y91339D02*
D03*
Y102559D02*
D03*
X159449Y42520D02*
D03*
Y31299D02*
D03*
Y176378D02*
D03*
Y165157D02*
D03*
G54D71*
X702461Y227362D02*
D03*
X714862D02*
D03*
X702461Y93504D02*
D03*
X714862D02*
D03*
X140059Y40354D02*
D03*
X127657D02*
D03*
X140059Y174213D02*
D03*
X127657D02*
D03*
G54D72*
X703150Y236417D02*
D03*
Y240158D02*
D03*
Y243898D02*
D03*
X714173D02*
D03*
Y240158D02*
D03*
Y236417D02*
D03*
X590650Y243307D02*
D03*
Y246850D02*
D03*
X703150Y102559D02*
D03*
Y106299D02*
D03*
Y110039D02*
D03*
X714173D02*
D03*
Y106299D02*
D03*
Y102559D02*
D03*
X590650Y109449D02*
D03*
Y112992D02*
D03*
X139370Y31299D02*
D03*
Y27559D02*
D03*
Y23819D02*
D03*
X128347D02*
D03*
Y27559D02*
D03*
Y31299D02*
D03*
X251870Y24409D02*
D03*
Y20866D02*
D03*
X139370Y165157D02*
D03*
Y161417D02*
D03*
Y157677D02*
D03*
X128347D02*
D03*
Y161417D02*
D03*
Y165157D02*
D03*
X251870Y158268D02*
D03*
Y154724D02*
D03*
G54D73*
X793307Y227362D02*
D03*
X777559D02*
D03*
X793307Y253937D02*
D03*
X777559D02*
D03*
X793307Y93504D02*
D03*
X777559D02*
D03*
X793307Y120079D02*
D03*
X777559D02*
D03*
X49213Y40354D02*
D03*
X64961D02*
D03*
X49213Y13780D02*
D03*
X64961D02*
D03*
X49213Y174213D02*
D03*
X64961D02*
D03*
X49213Y147638D02*
D03*
X64961D02*
D03*
G54D74*
X791339Y240650D02*
D03*
X779528D02*
D03*
X791339Y106791D02*
D03*
X779528D02*
D03*
X51181Y27067D02*
D03*
X62992D02*
D03*
X51181Y160925D02*
D03*
X62992D02*
D03*
G54D75*
X568799Y245079D02*
D03*
Y111221D02*
D03*
X273721Y22638D02*
D03*
Y156496D02*
D03*
G54D76*
X585039Y213976D02*
D03*
X576378Y199409D02*
D03*
X585039D02*
D03*
X576378Y213976D02*
D03*
X585039Y80118D02*
D03*
X576378Y65551D02*
D03*
X585039D02*
D03*
X576378Y80118D02*
D03*
X257480Y53740D02*
D03*
X266142Y68307D02*
D03*
X257480D02*
D03*
X266142Y53740D02*
D03*
X257480Y187598D02*
D03*
X266142Y202165D02*
D03*
X257480D02*
D03*
X266142Y187598D02*
D03*
G54D77*
X163878Y58071D02*
D03*
X155020D02*
D03*
X163878Y191929D02*
D03*
X155020D02*
D03*
G54D78*
X811024Y-12795D02*
D03*
X19685D02*
D03*
G54D79*
X832677Y188976D02*
D03*
Y169291D02*
D03*
Y55118D02*
D03*
Y35433D02*
D03*
X9843Y78740D02*
D03*
Y98425D02*
D03*
Y212598D02*
D03*
Y232283D02*
D03*
G54D80*
X832677Y149606D02*
D03*
Y15748D02*
D03*
X9843Y118110D02*
D03*
Y251969D02*
D03*
G54D81*
X739764Y169291D02*
D03*
X795669Y145669D02*
D03*
Y192913D02*
D03*
X739764Y35433D02*
D03*
X795669Y11811D02*
D03*
Y59055D02*
D03*
X102756Y98425D02*
D03*
X46850Y122047D02*
D03*
Y74803D02*
D03*
X102756Y232283D02*
D03*
X46850Y255906D02*
D03*
Y208661D02*
D03*
G54D82*
X747638Y145669D02*
D03*
Y11811D02*
D03*
X94882Y122047D02*
D03*
Y255906D02*
D03*
G54D83*
X747638Y192913D02*
D03*
Y59055D02*
D03*
X94882Y74803D02*
D03*
Y208661D02*
D03*
G54D84*
X744095Y231159D02*
D03*
Y97301D02*
D03*
X98425Y36557D02*
D03*
Y170415D02*
D03*
G54D85*
X744095Y217659D02*
D03*
Y83801D02*
D03*
X98425Y50057D02*
D03*
Y183915D02*
D03*
G54D86*
X811516Y242323D02*
D03*
Y108465D02*
D03*
X31004Y25394D02*
D03*
Y159252D02*
D03*
G54D87*
X835138Y242323D02*
D03*
Y108465D02*
D03*
X7382Y25394D02*
D03*
Y159252D02*
D03*
G54D88*
X823327Y260827D02*
D03*
Y126969D02*
D03*
X19193Y6890D02*
D03*
Y140748D02*
D03*
G54D89*
X641890Y258858D02*
D03*
X631890D02*
D03*
X621890D02*
D03*
X611890D02*
D03*
X641890Y125000D02*
D03*
X631890D02*
D03*
X621890D02*
D03*
X611890D02*
D03*
X200630Y8858D02*
D03*
X210630D02*
D03*
X220630D02*
D03*
X230630D02*
D03*
X200630Y142717D02*
D03*
X210630D02*
D03*
X220630D02*
D03*
X230630D02*
D03*
G54D90*
X651890Y258858D02*
D03*
Y125000D02*
D03*
X190630Y8858D02*
D03*
Y142717D02*
D03*
G54D91*
X519685Y145669D02*
D03*
X744095Y255906D02*
D03*
X519685Y11811D02*
D03*
X744095Y122047D02*
D03*
X322835D02*
D03*
X98425Y11811D02*
D03*
X322835Y255906D02*
D03*
X98425Y145669D02*
D03*
M02*
