G04*
G04 #@! TF.GenerationSoftware,Altium Limited,Altium Designer,22.8.2 (66)*
G04*
G04 Layer_Color=8421504*
%FSLAX25Y25*%
%MOIN*%
G70*
G04*
G04 #@! TF.SameCoordinates,C3FD66B6-40D4-4EF1-9346-9CEE37E5CDB1*
G04*
G04*
G04 #@! TF.FilePolarity,Positive*
G04*
G01*
G75*
%ADD10C,0.03937*%
%ADD11R,0.01181X0.04724*%
%ADD12R,0.04724X0.01181*%
%ADD13R,0.05315X0.05906*%
%ADD14R,0.05118X0.05906*%
%ADD15R,0.07087X0.03937*%
%ADD16R,0.03937X0.09843*%
%ADD17R,0.02323X0.01772*%
%ADD18R,0.03150X0.03543*%
%ADD19R,0.11811X0.06102*%
%ADD20R,0.03543X0.03740*%
%ADD21R,0.04331X0.02362*%
%ADD22R,0.09843X0.06693*%
%ADD23R,0.03937X0.06299*%
%ADD24R,0.09449X0.05906*%
%ADD25R,0.04921X0.06299*%
%ADD34R,0.02323X0.01772*%
G54D10*
X803150Y259842D02*
D03*
Y125984D02*
D03*
X39370Y7874D02*
D03*
Y141732D02*
D03*
G54D11*
X617126Y223425D02*
D03*
X619095D02*
D03*
X621063D02*
D03*
X623032D02*
D03*
X625000D02*
D03*
X626968D02*
D03*
X628937D02*
D03*
X630905D02*
D03*
X632874D02*
D03*
X634842D02*
D03*
X636811D02*
D03*
X638779D02*
D03*
X640748D02*
D03*
X642717D02*
D03*
X644685D02*
D03*
X646654D02*
D03*
Y178150D02*
D03*
X644685D02*
D03*
X642717D02*
D03*
X640748D02*
D03*
X638779D02*
D03*
X636811D02*
D03*
X634842D02*
D03*
X632874D02*
D03*
X630905D02*
D03*
X628937D02*
D03*
X626968D02*
D03*
X625000D02*
D03*
X623032D02*
D03*
X621063D02*
D03*
X619095D02*
D03*
X617126D02*
D03*
Y89567D02*
D03*
X619095D02*
D03*
X621063D02*
D03*
X623032D02*
D03*
X625000D02*
D03*
X626968D02*
D03*
X628937D02*
D03*
X630905D02*
D03*
X632874D02*
D03*
X634842D02*
D03*
X636811D02*
D03*
X638779D02*
D03*
X640748D02*
D03*
X642717D02*
D03*
X644685D02*
D03*
X646654D02*
D03*
Y44291D02*
D03*
X644685D02*
D03*
X642717D02*
D03*
X640748D02*
D03*
X638779D02*
D03*
X636811D02*
D03*
X634842D02*
D03*
X632874D02*
D03*
X630905D02*
D03*
X628937D02*
D03*
X626968D02*
D03*
X625000D02*
D03*
X623032D02*
D03*
X621063D02*
D03*
X619095D02*
D03*
X617126D02*
D03*
X225394Y44291D02*
D03*
X223425D02*
D03*
X221457D02*
D03*
X219488D02*
D03*
X217520D02*
D03*
X215551D02*
D03*
X213583D02*
D03*
X211614D02*
D03*
X209646D02*
D03*
X207677D02*
D03*
X205709D02*
D03*
X203740D02*
D03*
X201772D02*
D03*
X199803D02*
D03*
X197835D02*
D03*
X195866D02*
D03*
Y89567D02*
D03*
X197835D02*
D03*
X199803D02*
D03*
X201772D02*
D03*
X203740D02*
D03*
X205709D02*
D03*
X207677D02*
D03*
X209646D02*
D03*
X211614D02*
D03*
X213583D02*
D03*
X215551D02*
D03*
X217520D02*
D03*
X219488D02*
D03*
X221457D02*
D03*
X223425D02*
D03*
X225394D02*
D03*
Y178150D02*
D03*
X223425D02*
D03*
X221457D02*
D03*
X219488D02*
D03*
X217520D02*
D03*
X215551D02*
D03*
X213583D02*
D03*
X211614D02*
D03*
X209646D02*
D03*
X207677D02*
D03*
X205709D02*
D03*
X203740D02*
D03*
X201772D02*
D03*
X199803D02*
D03*
X197835D02*
D03*
X195866D02*
D03*
Y223425D02*
D03*
X197835D02*
D03*
X199803D02*
D03*
X201772D02*
D03*
X203740D02*
D03*
X205709D02*
D03*
X207677D02*
D03*
X209646D02*
D03*
X211614D02*
D03*
X213583D02*
D03*
X215551D02*
D03*
X217520D02*
D03*
X219488D02*
D03*
X221457D02*
D03*
X223425D02*
D03*
X225394D02*
D03*
G54D12*
X654528Y215551D02*
D03*
Y213583D02*
D03*
Y211614D02*
D03*
Y209646D02*
D03*
Y207677D02*
D03*
Y205709D02*
D03*
Y203740D02*
D03*
Y201772D02*
D03*
Y199803D02*
D03*
Y197835D02*
D03*
Y195866D02*
D03*
Y193898D02*
D03*
Y191929D02*
D03*
Y189961D02*
D03*
Y187992D02*
D03*
Y186024D02*
D03*
X609252D02*
D03*
Y187992D02*
D03*
Y189961D02*
D03*
Y191929D02*
D03*
Y193898D02*
D03*
Y195866D02*
D03*
Y197835D02*
D03*
Y199803D02*
D03*
Y201772D02*
D03*
Y203740D02*
D03*
Y205709D02*
D03*
Y207677D02*
D03*
Y209646D02*
D03*
Y211614D02*
D03*
Y213583D02*
D03*
Y215551D02*
D03*
X654528Y81693D02*
D03*
Y79724D02*
D03*
Y77756D02*
D03*
Y75787D02*
D03*
Y73819D02*
D03*
Y71850D02*
D03*
Y69882D02*
D03*
Y67913D02*
D03*
Y65945D02*
D03*
Y63976D02*
D03*
Y62008D02*
D03*
Y60039D02*
D03*
Y58071D02*
D03*
Y56102D02*
D03*
Y54134D02*
D03*
Y52165D02*
D03*
X609252D02*
D03*
Y54134D02*
D03*
Y56102D02*
D03*
Y58071D02*
D03*
Y60039D02*
D03*
Y62008D02*
D03*
Y63976D02*
D03*
Y65945D02*
D03*
Y67913D02*
D03*
Y69882D02*
D03*
Y71850D02*
D03*
Y73819D02*
D03*
Y75787D02*
D03*
Y77756D02*
D03*
Y79724D02*
D03*
Y81693D02*
D03*
X187992Y52165D02*
D03*
Y54134D02*
D03*
Y56102D02*
D03*
Y58071D02*
D03*
Y60039D02*
D03*
Y62008D02*
D03*
Y63976D02*
D03*
Y65945D02*
D03*
Y67913D02*
D03*
Y69882D02*
D03*
Y71850D02*
D03*
Y73819D02*
D03*
Y75787D02*
D03*
Y77756D02*
D03*
Y79724D02*
D03*
Y81693D02*
D03*
X233268D02*
D03*
Y79724D02*
D03*
Y77756D02*
D03*
Y75787D02*
D03*
Y73819D02*
D03*
Y71850D02*
D03*
Y69882D02*
D03*
Y67913D02*
D03*
Y65945D02*
D03*
Y63976D02*
D03*
Y62008D02*
D03*
Y60039D02*
D03*
Y58071D02*
D03*
Y56102D02*
D03*
Y54134D02*
D03*
Y52165D02*
D03*
X187992Y186024D02*
D03*
Y187992D02*
D03*
Y189961D02*
D03*
Y191929D02*
D03*
Y193898D02*
D03*
Y195866D02*
D03*
Y197835D02*
D03*
Y199803D02*
D03*
Y201772D02*
D03*
Y203740D02*
D03*
Y205709D02*
D03*
Y207677D02*
D03*
Y209646D02*
D03*
Y211614D02*
D03*
Y213583D02*
D03*
Y215551D02*
D03*
X233268D02*
D03*
Y213583D02*
D03*
Y211614D02*
D03*
Y209646D02*
D03*
Y207677D02*
D03*
Y205709D02*
D03*
Y203740D02*
D03*
Y201772D02*
D03*
Y199803D02*
D03*
Y197835D02*
D03*
Y195866D02*
D03*
Y193898D02*
D03*
Y191929D02*
D03*
Y189961D02*
D03*
Y187992D02*
D03*
Y186024D02*
D03*
G54D13*
X641929Y235728D02*
D03*
X649409D02*
D03*
X544980Y188484D02*
D03*
X552461D02*
D03*
X494882Y156496D02*
D03*
X487402D02*
D03*
X487402Y254429D02*
D03*
X494882D02*
D03*
X487402Y245079D02*
D03*
X494882D02*
D03*
X469291Y147146D02*
D03*
X461811D02*
D03*
X704921Y191929D02*
D03*
X712402D02*
D03*
X704921Y200787D02*
D03*
X712402D02*
D03*
X712402Y174213D02*
D03*
X704921D02*
D03*
X704921Y183071D02*
D03*
X712402D02*
D03*
X616339Y156496D02*
D03*
X623819D02*
D03*
X623819Y245079D02*
D03*
X616339D02*
D03*
X679331Y174213D02*
D03*
X686811D02*
D03*
X641929Y101870D02*
D03*
X649409D02*
D03*
X544980Y54626D02*
D03*
X552461D02*
D03*
X494882Y22638D02*
D03*
X487402D02*
D03*
X487402Y120571D02*
D03*
X494882D02*
D03*
X487402Y111221D02*
D03*
X494882D02*
D03*
X469291Y13287D02*
D03*
X461811D02*
D03*
X704921Y58071D02*
D03*
X712402D02*
D03*
X704921Y66929D02*
D03*
X712402D02*
D03*
X712402Y40354D02*
D03*
X704921D02*
D03*
X704921Y49213D02*
D03*
X712402D02*
D03*
X616339Y22638D02*
D03*
X623819D02*
D03*
X623819Y111221D02*
D03*
X616339D02*
D03*
X679331Y40354D02*
D03*
X686811D02*
D03*
X200591Y31988D02*
D03*
X193110D02*
D03*
X297539Y79232D02*
D03*
X290059D02*
D03*
X347638Y111221D02*
D03*
X355118D02*
D03*
X355118Y13287D02*
D03*
X347638D02*
D03*
X355118Y22638D02*
D03*
X347638D02*
D03*
X373228Y120571D02*
D03*
X380709D02*
D03*
X137598Y75787D02*
D03*
X130118D02*
D03*
X137598Y66929D02*
D03*
X130118D02*
D03*
X130118Y93504D02*
D03*
X137598D02*
D03*
X137598Y84646D02*
D03*
X130118D02*
D03*
X226181Y111221D02*
D03*
X218701D02*
D03*
X218701Y22638D02*
D03*
X226181D02*
D03*
X163189Y93504D02*
D03*
X155709D02*
D03*
X200591Y165847D02*
D03*
X193110D02*
D03*
X297539Y213090D02*
D03*
X290059D02*
D03*
X347638Y245079D02*
D03*
X355118D02*
D03*
X355118Y147146D02*
D03*
X347638D02*
D03*
X355118Y156496D02*
D03*
X347638D02*
D03*
X373228Y254429D02*
D03*
X380709D02*
D03*
X137598Y209646D02*
D03*
X130118D02*
D03*
X137598Y200787D02*
D03*
X130118D02*
D03*
X130118Y227362D02*
D03*
X137598D02*
D03*
X137598Y218504D02*
D03*
X130118D02*
D03*
X226181Y245079D02*
D03*
X218701D02*
D03*
X218701Y156496D02*
D03*
X226181D02*
D03*
X163189Y227362D02*
D03*
X155709D02*
D03*
G54D14*
X552461Y198819D02*
D03*
X544980D02*
D03*
X552461Y174213D02*
D03*
X544980D02*
D03*
X552461Y165354D02*
D03*
X544980D02*
D03*
X469291Y156496D02*
D03*
X461811D02*
D03*
X686811Y245079D02*
D03*
X679331D02*
D03*
X712402Y209646D02*
D03*
X704921D02*
D03*
X712402Y218504D02*
D03*
X704921D02*
D03*
X789173Y214075D02*
D03*
X781693D02*
D03*
X712402Y254429D02*
D03*
X704921D02*
D03*
X641929Y245079D02*
D03*
X649409D02*
D03*
X679331Y200787D02*
D03*
X686811D02*
D03*
X641929Y156496D02*
D03*
X649409D02*
D03*
X623819Y236221D02*
D03*
X616339D02*
D03*
X641929Y165354D02*
D03*
X649409D02*
D03*
X616339D02*
D03*
X623819D02*
D03*
X576968D02*
D03*
X584449D02*
D03*
X576968Y236221D02*
D03*
X584449D02*
D03*
X576968Y253937D02*
D03*
X584449D02*
D03*
X576968Y188976D02*
D03*
X584449D02*
D03*
Y224410D02*
D03*
X576968D02*
D03*
Y174213D02*
D03*
X584449D02*
D03*
X552461Y64961D02*
D03*
X544980D02*
D03*
X552461Y40354D02*
D03*
X544980D02*
D03*
X552461Y31496D02*
D03*
X544980D02*
D03*
X469291Y22638D02*
D03*
X461811D02*
D03*
X686811Y111221D02*
D03*
X679331D02*
D03*
X712402Y75787D02*
D03*
X704921D02*
D03*
X712402Y84646D02*
D03*
X704921D02*
D03*
X789173Y80216D02*
D03*
X781693D02*
D03*
X712402Y120571D02*
D03*
X704921D02*
D03*
X641929Y111221D02*
D03*
X649409D02*
D03*
X679331Y66929D02*
D03*
X686811D02*
D03*
X641929Y22638D02*
D03*
X649409D02*
D03*
X623819Y102362D02*
D03*
X616339D02*
D03*
X641929Y31496D02*
D03*
X649409D02*
D03*
X616339D02*
D03*
X623819D02*
D03*
X576968D02*
D03*
X584449D02*
D03*
X576968Y102362D02*
D03*
X584449D02*
D03*
X576968Y120079D02*
D03*
X584449D02*
D03*
X576968Y55118D02*
D03*
X584449D02*
D03*
Y90551D02*
D03*
X576968D02*
D03*
Y40354D02*
D03*
X584449D02*
D03*
X290059Y68898D02*
D03*
X297539D02*
D03*
X290059Y93504D02*
D03*
X297539D02*
D03*
X290059Y102362D02*
D03*
X297539D02*
D03*
X373228Y111221D02*
D03*
X380709D02*
D03*
X155709Y22638D02*
D03*
X163189D02*
D03*
X130118Y58071D02*
D03*
X137598D02*
D03*
X130118Y49213D02*
D03*
X137598D02*
D03*
X53347Y53642D02*
D03*
X60827D02*
D03*
X130118Y13287D02*
D03*
X137598D02*
D03*
X200591Y22638D02*
D03*
X193110D02*
D03*
X163189Y66929D02*
D03*
X155709D02*
D03*
X200591Y111221D02*
D03*
X193110D02*
D03*
X218701Y31496D02*
D03*
X226181D02*
D03*
X200591Y102362D02*
D03*
X193110D02*
D03*
X226181D02*
D03*
X218701D02*
D03*
X265551D02*
D03*
X258071D02*
D03*
X265551Y31496D02*
D03*
X258071D02*
D03*
X265551Y13780D02*
D03*
X258071D02*
D03*
X265551Y78740D02*
D03*
X258071D02*
D03*
Y43307D02*
D03*
X265551D02*
D03*
Y93504D02*
D03*
X258071D02*
D03*
X290059Y202756D02*
D03*
X297539D02*
D03*
X290059Y227362D02*
D03*
X297539D02*
D03*
X290059Y236221D02*
D03*
X297539D02*
D03*
X373228Y245079D02*
D03*
X380709D02*
D03*
X155709Y156496D02*
D03*
X163189D02*
D03*
X130118Y191929D02*
D03*
X137598D02*
D03*
X130118Y183071D02*
D03*
X137598D02*
D03*
X53347Y187500D02*
D03*
X60827D02*
D03*
X130118Y147146D02*
D03*
X137598D02*
D03*
X200591Y156496D02*
D03*
X193110D02*
D03*
X163189Y200787D02*
D03*
X155709D02*
D03*
X200591Y245079D02*
D03*
X193110D02*
D03*
X218701Y165354D02*
D03*
X226181D02*
D03*
X200591Y236221D02*
D03*
X193110D02*
D03*
X226181D02*
D03*
X218701D02*
D03*
X265551D02*
D03*
X258071D02*
D03*
X265551Y165354D02*
D03*
X258071D02*
D03*
X265551Y147638D02*
D03*
X258071D02*
D03*
X265551Y212598D02*
D03*
X258071D02*
D03*
Y177165D02*
D03*
X265551D02*
D03*
Y227362D02*
D03*
X258071D02*
D03*
G54D15*
X521654Y181102D02*
D03*
Y188976D02*
D03*
Y196850D02*
D03*
Y204724D02*
D03*
Y212598D02*
D03*
Y220472D02*
D03*
D03*
Y47244D02*
D03*
Y55118D02*
D03*
Y62992D02*
D03*
Y70866D02*
D03*
Y78740D02*
D03*
Y86614D02*
D03*
D03*
X320866Y86614D02*
D03*
Y78740D02*
D03*
Y70866D02*
D03*
Y62992D02*
D03*
Y55118D02*
D03*
Y47244D02*
D03*
D03*
Y220472D02*
D03*
Y212598D02*
D03*
Y204724D02*
D03*
Y196850D02*
D03*
Y188976D02*
D03*
Y181102D02*
D03*
D03*
G54D16*
X460630Y170866D02*
D03*
Y230709D02*
D03*
X468504D02*
D03*
X476378D02*
D03*
X484252D02*
D03*
X492126D02*
D03*
X500000D02*
D03*
X507874D02*
D03*
X515748D02*
D03*
Y170866D02*
D03*
X507874D02*
D03*
X500000D02*
D03*
X492126D02*
D03*
X484252D02*
D03*
X476378D02*
D03*
X468504D02*
D03*
X460630Y37008D02*
D03*
Y96850D02*
D03*
X468504D02*
D03*
X476378D02*
D03*
X484252D02*
D03*
X492126D02*
D03*
X500000D02*
D03*
X507874D02*
D03*
X515748D02*
D03*
Y37008D02*
D03*
X507874D02*
D03*
X500000D02*
D03*
X492126D02*
D03*
X484252D02*
D03*
X476378D02*
D03*
X468504D02*
D03*
X381890Y96850D02*
D03*
Y37008D02*
D03*
X374016D02*
D03*
X366142D02*
D03*
X358268D02*
D03*
X350394D02*
D03*
X342520D02*
D03*
X334646D02*
D03*
X326772D02*
D03*
Y96850D02*
D03*
X334646D02*
D03*
X342520D02*
D03*
X350394D02*
D03*
X358268D02*
D03*
X366142D02*
D03*
X374016D02*
D03*
X381890Y230709D02*
D03*
Y170866D02*
D03*
X374016D02*
D03*
X366142D02*
D03*
X358268D02*
D03*
X350394D02*
D03*
X342520D02*
D03*
X334646D02*
D03*
X326772D02*
D03*
Y230709D02*
D03*
X334646D02*
D03*
X342520D02*
D03*
X350394D02*
D03*
X358268D02*
D03*
X366142D02*
D03*
X374016D02*
D03*
G54D17*
X713091Y147638D02*
D03*
X704232D02*
D03*
X678642Y209646D02*
D03*
X687500D02*
D03*
X713091Y13780D02*
D03*
X704232D02*
D03*
X678642Y75787D02*
D03*
X687500D02*
D03*
X129429Y120079D02*
D03*
X138287D02*
D03*
X129429Y253937D02*
D03*
X138287D02*
D03*
G54D18*
X704921Y164862D02*
D03*
X708661Y156988D02*
D03*
X712402Y164862D02*
D03*
X704921Y31004D02*
D03*
X708661Y23130D02*
D03*
X712402Y31004D02*
D03*
X137598Y102854D02*
D03*
X133858Y110728D02*
D03*
X130118Y102854D02*
D03*
X137598Y236713D02*
D03*
X133858Y244587D02*
D03*
X130118Y236713D02*
D03*
G54D19*
X683071Y225197D02*
D03*
Y236417D02*
D03*
Y91339D02*
D03*
Y102559D02*
D03*
X159449Y42520D02*
D03*
Y31299D02*
D03*
Y176378D02*
D03*
Y165157D02*
D03*
G54D20*
X702461Y227362D02*
D03*
X714862D02*
D03*
X702461Y93504D02*
D03*
X714862D02*
D03*
X140059Y40354D02*
D03*
X127657D02*
D03*
X140059Y174213D02*
D03*
X127657D02*
D03*
G54D21*
X703150Y236417D02*
D03*
Y240158D02*
D03*
Y243898D02*
D03*
X714173D02*
D03*
Y240158D02*
D03*
Y236417D02*
D03*
X590650Y243307D02*
D03*
Y246850D02*
D03*
X703150Y102559D02*
D03*
Y106299D02*
D03*
Y110039D02*
D03*
X714173D02*
D03*
Y106299D02*
D03*
Y102559D02*
D03*
X590650Y109449D02*
D03*
Y112992D02*
D03*
X139370Y31299D02*
D03*
Y27559D02*
D03*
Y23819D02*
D03*
X128347D02*
D03*
Y27559D02*
D03*
Y31299D02*
D03*
X251870Y24409D02*
D03*
Y20866D02*
D03*
X139370Y165157D02*
D03*
Y161417D02*
D03*
Y157677D02*
D03*
X128347D02*
D03*
Y161417D02*
D03*
Y165157D02*
D03*
X251870Y158268D02*
D03*
Y154724D02*
D03*
G54D22*
X793307Y227362D02*
D03*
X777559D02*
D03*
X793307Y253937D02*
D03*
X777559D02*
D03*
X793307Y93504D02*
D03*
X777559D02*
D03*
X793307Y120079D02*
D03*
X777559D02*
D03*
X49213Y40354D02*
D03*
X64961D02*
D03*
X49213Y13780D02*
D03*
X64961D02*
D03*
X49213Y174213D02*
D03*
X64961D02*
D03*
X49213Y147638D02*
D03*
X64961D02*
D03*
G54D23*
X791339Y240650D02*
D03*
X779528D02*
D03*
X791339Y106791D02*
D03*
X779528D02*
D03*
X51181Y27067D02*
D03*
X62992D02*
D03*
X51181Y160925D02*
D03*
X62992D02*
D03*
G54D24*
X568799Y245079D02*
D03*
Y111221D02*
D03*
X273721Y22638D02*
D03*
Y156496D02*
D03*
G54D25*
X585039Y213976D02*
D03*
X576378Y199409D02*
D03*
X585039D02*
D03*
X576378Y213976D02*
D03*
X585039Y80118D02*
D03*
X576378Y65551D02*
D03*
X585039D02*
D03*
X576378Y80118D02*
D03*
X257480Y53740D02*
D03*
X266142Y68307D02*
D03*
X257480D02*
D03*
X266142Y53740D02*
D03*
X257480Y187598D02*
D03*
X266142Y202165D02*
D03*
X257480D02*
D03*
X266142Y187598D02*
D03*
G54D34*
X163878Y58071D02*
D03*
X155020D02*
D03*
X163878Y191929D02*
D03*
X155020D02*
D03*
M02*
