G04*
G04 #@! TF.GenerationSoftware,Altium Limited,Altium Designer,22.8.2 (66)*
G04*
G04 Layer_Physical_Order=2*
G04 Layer_Color=16711680*
%FSLAX25Y25*%
%MOIN*%
G70*
G04*
G04 #@! TF.SameCoordinates,C3FD66B6-40D4-4EF1-9346-9CEE37E5CDB1*
G04*
G04*
G04 #@! TF.FilePolarity,Positive*
G04*
G01*
G75*
%ADD26C,0.00800*%
%ADD27C,0.04000*%
%ADD28C,0.00900*%
%ADD35C,0.15748*%
%ADD36C,0.09449*%
%ADD37R,0.09449X0.09449*%
%ADD38C,0.11811*%
%ADD39C,0.08661*%
%ADD40C,0.08661*%
%ADD41R,0.08000X0.08000*%
%ADD42C,0.08000*%
%ADD43O,0.07087X0.24803*%
%ADD44O,0.07087X0.21260*%
%ADD45O,0.21260X0.07087*%
%ADD46C,0.07087*%
%ADD47R,0.07087X0.07087*%
%ADD48C,0.21654*%
%ADD49C,0.03200*%
%ADD50C,0.01000*%
G36*
X732283Y137152D02*
X528264D01*
X528073Y137614D01*
X528553Y138095D01*
X529629Y139576D01*
X530460Y141206D01*
X531026Y142947D01*
X531312Y144754D01*
Y146584D01*
X531026Y148392D01*
X530460Y150132D01*
X529629Y151763D01*
X528553Y153244D01*
X527259Y154538D01*
X525779Y155613D01*
X524148Y156444D01*
X522408Y157010D01*
X520600Y157296D01*
X518770D01*
X516962Y157010D01*
X515222Y156444D01*
X513591Y155613D01*
X512111Y154538D01*
X510817Y153244D01*
X509741Y151763D01*
X508910Y150132D01*
X508345Y148392D01*
X508058Y146584D01*
Y144754D01*
X508345Y142947D01*
X508910Y141206D01*
X509741Y139576D01*
X510817Y138095D01*
X511297Y137614D01*
X511106Y137152D01*
X454232D01*
Y264423D01*
X466030D01*
X466237Y263923D01*
X465977Y263663D01*
X465612Y262780D01*
Y261826D01*
X465923Y261074D01*
X465694Y260574D01*
X462721D01*
X462665Y260710D01*
X461989Y261385D01*
X461107Y261750D01*
X460152D01*
X459270Y261385D01*
X458595Y260710D01*
X458230Y259828D01*
Y258873D01*
X458595Y257991D01*
X459270Y257316D01*
X460152Y256950D01*
X461107D01*
X461989Y257316D01*
X462665Y257991D01*
X462721Y258127D01*
X601139D01*
Y249484D01*
X601232Y249016D01*
X601497Y248619D01*
X601966Y248151D01*
X602363Y247885D01*
X602831Y247792D01*
X622300D01*
Y219488D01*
X622393Y219020D01*
X622658Y218623D01*
X623148Y218133D01*
X623092Y217997D01*
Y217042D01*
X623457Y216160D01*
X624133Y215485D01*
X625015Y215120D01*
X625970D01*
X626121Y215182D01*
X626537Y214905D01*
Y214582D01*
X626902Y213700D01*
X627577Y213024D01*
X628460Y212659D01*
X629414D01*
X630297Y213024D01*
X630972Y213700D01*
X631337Y214582D01*
Y215536D01*
X630972Y216419D01*
X630297Y217094D01*
X630161Y217150D01*
Y223917D01*
X630067Y224385D01*
X629802Y224782D01*
X627208Y227377D01*
Y238487D01*
X627708Y238694D01*
X627833Y238569D01*
X628426Y238227D01*
X628929Y238092D01*
Y240650D01*
Y243207D01*
X628426Y243072D01*
X627833Y242730D01*
X627708Y242605D01*
X627208Y242812D01*
Y250676D01*
X627115Y251145D01*
X626849Y251541D01*
X626381Y252010D01*
X625984Y252275D01*
X625516Y252368D01*
X605554D01*
Y261319D01*
X605461Y261787D01*
X605196Y262184D01*
X604799Y262449D01*
X604331Y262542D01*
X470412D01*
Y262780D01*
X470046Y263663D01*
X469787Y263923D01*
X469994Y264423D01*
X732283Y264423D01*
Y137152D01*
D02*
G37*
G36*
X91076Y206594D02*
X91035Y206607D01*
X90926Y206619D01*
X90502Y206637D01*
X87598Y206661D01*
Y210661D01*
X91076Y210728D01*
Y206594D01*
D02*
G37*
G36*
X751485Y194968D02*
X751594Y194956D01*
X752017Y194938D01*
X754921Y194913D01*
Y190913D01*
X751443Y190847D01*
Y194980D01*
X751485Y194968D01*
D02*
G37*
G36*
X314447Y263961D02*
X313966Y263480D01*
X312891Y261999D01*
X312060Y260369D01*
X311494Y258628D01*
X311208Y256821D01*
Y254991D01*
X311494Y253183D01*
X312060Y251442D01*
X312891Y249812D01*
X313966Y248331D01*
X315260Y247037D01*
X316741Y245961D01*
X318372Y245131D01*
X320112Y244565D01*
X321920Y244279D01*
X323750D01*
X325557Y244565D01*
X327298Y245131D01*
X328928Y245961D01*
X330409Y247037D01*
X331703Y248331D01*
X332779Y249812D01*
X333610Y251442D01*
X334175Y253183D01*
X334461Y254991D01*
Y256821D01*
X334175Y258628D01*
X333610Y260369D01*
X332779Y261999D01*
X331703Y263480D01*
X331222Y263961D01*
X331414Y264423D01*
X388287D01*
Y137152D01*
X376490D01*
X376283Y137652D01*
X376542Y137912D01*
X376908Y138794D01*
Y139749D01*
X376596Y140501D01*
X376826Y141001D01*
X379799D01*
X379855Y140865D01*
X380530Y140190D01*
X381412Y139824D01*
X382367D01*
X383249Y140190D01*
X383924Y140865D01*
X384290Y141747D01*
Y142702D01*
X383924Y143584D01*
X383249Y144259D01*
X382367Y144624D01*
X381412D01*
X380530Y144259D01*
X379855Y143584D01*
X379799Y143448D01*
X241381D01*
Y152090D01*
X241288Y152559D01*
X241023Y152956D01*
X240554Y153424D01*
X240157Y153689D01*
X239689Y153783D01*
X220220D01*
Y182087D01*
X220126Y182555D01*
X219861Y182952D01*
X219371Y183442D01*
X219428Y183578D01*
Y184532D01*
X219062Y185415D01*
X218387Y186090D01*
X217505Y186455D01*
X216550D01*
X216398Y186392D01*
X215983Y186670D01*
Y186993D01*
X215617Y187875D01*
X214942Y188550D01*
X214060Y188916D01*
X213105D01*
X212223Y188550D01*
X211548Y187875D01*
X211183Y186993D01*
Y186038D01*
X211548Y185156D01*
X212223Y184481D01*
X212359Y184425D01*
Y177657D01*
X212452Y177189D01*
X212718Y176792D01*
X215312Y174198D01*
Y163088D01*
X214812Y162881D01*
X214687Y163006D01*
X214094Y163348D01*
X213591Y163483D01*
Y160925D01*
Y158368D01*
X214094Y158502D01*
X214687Y158845D01*
X214812Y158970D01*
X215312Y158763D01*
Y150898D01*
X215405Y150430D01*
X215670Y150033D01*
X216139Y149565D01*
X216536Y149299D01*
X217004Y149206D01*
X236965D01*
Y140256D01*
X237059Y139788D01*
X237324Y139391D01*
X237721Y139126D01*
X238189Y139032D01*
X372108D01*
Y138794D01*
X372473Y137912D01*
X372733Y137652D01*
X372526Y137152D01*
X110236Y137152D01*
Y264423D01*
X314256D01*
X314447Y263961D01*
D02*
G37*
G36*
X732283Y3294D02*
X528264D01*
X528073Y3756D01*
X528553Y4237D01*
X529629Y5717D01*
X530460Y7348D01*
X531026Y9088D01*
X531312Y10896D01*
Y12726D01*
X531026Y14534D01*
X530460Y16274D01*
X529629Y17905D01*
X528553Y19385D01*
X527259Y20679D01*
X525779Y21755D01*
X524148Y22586D01*
X522408Y23152D01*
X520600Y23438D01*
X518770D01*
X516962Y23152D01*
X515222Y22586D01*
X513591Y21755D01*
X512111Y20679D01*
X510817Y19385D01*
X509741Y17905D01*
X508910Y16274D01*
X508345Y14534D01*
X508058Y12726D01*
Y10896D01*
X508345Y9088D01*
X508910Y7348D01*
X509741Y5717D01*
X510817Y4237D01*
X511297Y3756D01*
X511106Y3294D01*
X454232D01*
Y130564D01*
X466030D01*
X466237Y130064D01*
X465977Y129804D01*
X465612Y128922D01*
Y127968D01*
X465923Y127216D01*
X465694Y126716D01*
X462721D01*
X462665Y126852D01*
X461989Y127527D01*
X461107Y127892D01*
X460152D01*
X459270Y127527D01*
X458595Y126852D01*
X458230Y125970D01*
Y125015D01*
X458595Y124133D01*
X459270Y123458D01*
X460152Y123092D01*
X461107D01*
X461989Y123458D01*
X462665Y124133D01*
X462721Y124269D01*
X601139D01*
Y115626D01*
X601232Y115158D01*
X601497Y114761D01*
X601966Y114292D01*
X602363Y114027D01*
X602831Y113934D01*
X622300D01*
Y85630D01*
X622393Y85162D01*
X622658Y84765D01*
X623148Y84275D01*
X623092Y84139D01*
Y83184D01*
X623457Y82302D01*
X624133Y81627D01*
X625015Y81261D01*
X625970D01*
X626121Y81324D01*
X626537Y81046D01*
Y80723D01*
X626902Y79841D01*
X627577Y79166D01*
X628460Y78801D01*
X629414D01*
X630297Y79166D01*
X630972Y79841D01*
X631337Y80723D01*
Y81678D01*
X630972Y82560D01*
X630297Y83235D01*
X630161Y83292D01*
Y90059D01*
X630067Y90527D01*
X629802Y90924D01*
X627208Y93519D01*
Y104629D01*
X627708Y104836D01*
X627833Y104711D01*
X628426Y104368D01*
X628929Y104234D01*
Y106791D01*
Y109349D01*
X628426Y109214D01*
X627833Y108872D01*
X627708Y108747D01*
X627208Y108954D01*
Y116818D01*
X627115Y117286D01*
X626849Y117683D01*
X626381Y118152D01*
X625984Y118417D01*
X625516Y118510D01*
X605554D01*
Y127461D01*
X605461Y127929D01*
X605196Y128326D01*
X604799Y128591D01*
X604331Y128684D01*
X470412D01*
Y128922D01*
X470046Y129804D01*
X469787Y130064D01*
X469994Y130564D01*
X732283Y130564D01*
Y3294D01*
D02*
G37*
G36*
X91076Y72736D02*
X91035Y72749D01*
X90926Y72760D01*
X90502Y72779D01*
X87598Y72803D01*
Y76803D01*
X91076Y76870D01*
Y72736D01*
D02*
G37*
G36*
X751485Y61109D02*
X751594Y61098D01*
X752017Y61079D01*
X754921Y61055D01*
Y57055D01*
X751443Y56988D01*
Y61122D01*
X751485Y61109D01*
D02*
G37*
G36*
X314447Y130102D02*
X313966Y129622D01*
X312891Y128141D01*
X312060Y126510D01*
X311494Y124770D01*
X311208Y122962D01*
Y121132D01*
X311494Y119325D01*
X312060Y117584D01*
X312891Y115954D01*
X313966Y114473D01*
X315260Y113179D01*
X316741Y112103D01*
X318372Y111272D01*
X320112Y110707D01*
X321920Y110421D01*
X323750D01*
X325557Y110707D01*
X327298Y111272D01*
X328928Y112103D01*
X330409Y113179D01*
X331703Y114473D01*
X332779Y115954D01*
X333610Y117584D01*
X334175Y119325D01*
X334461Y121132D01*
Y122962D01*
X334175Y124770D01*
X333610Y126510D01*
X332779Y128141D01*
X331703Y129622D01*
X331222Y130102D01*
X331414Y130564D01*
X388287D01*
Y3294D01*
X376490D01*
X376283Y3794D01*
X376542Y4054D01*
X376908Y4936D01*
Y5891D01*
X376596Y6643D01*
X376826Y7143D01*
X379799D01*
X379855Y7007D01*
X380530Y6331D01*
X381412Y5966D01*
X382367D01*
X383249Y6331D01*
X383924Y7007D01*
X384290Y7889D01*
Y8844D01*
X383924Y9726D01*
X383249Y10401D01*
X382367Y10766D01*
X381412D01*
X380530Y10401D01*
X379855Y9726D01*
X379799Y9590D01*
X241381D01*
Y18232D01*
X241288Y18700D01*
X241023Y19097D01*
X240554Y19566D01*
X240157Y19831D01*
X239689Y19924D01*
X220220D01*
Y48228D01*
X220126Y48697D01*
X219861Y49093D01*
X219371Y49584D01*
X219428Y49720D01*
Y50674D01*
X219062Y51556D01*
X218387Y52232D01*
X217505Y52597D01*
X216550D01*
X216398Y52534D01*
X215983Y52812D01*
Y53135D01*
X215617Y54017D01*
X214942Y54692D01*
X214060Y55058D01*
X213105D01*
X212223Y54692D01*
X211548Y54017D01*
X211183Y53135D01*
Y52180D01*
X211548Y51298D01*
X212223Y50623D01*
X212359Y50567D01*
Y43799D01*
X212452Y43331D01*
X212718Y42934D01*
X215312Y40340D01*
Y29230D01*
X214812Y29022D01*
X214687Y29147D01*
X214094Y29490D01*
X213591Y29625D01*
Y27067D01*
Y24509D01*
X214094Y24644D01*
X214687Y24986D01*
X214812Y25111D01*
X215312Y24904D01*
Y17040D01*
X215405Y16572D01*
X215670Y16175D01*
X216139Y15706D01*
X216536Y15441D01*
X217004Y15348D01*
X236965D01*
Y6398D01*
X237059Y5929D01*
X237324Y5533D01*
X237721Y5267D01*
X238189Y5174D01*
X372108D01*
Y4936D01*
X372473Y4054D01*
X372733Y3794D01*
X372526Y3294D01*
X110236Y3294D01*
Y130564D01*
X314256D01*
X314447Y130102D01*
D02*
G37*
%LPC*%
G36*
X612488Y263402D02*
X612390D01*
Y259358D01*
X616433D01*
Y259456D01*
X616123Y260612D01*
X615525Y261648D01*
X614679Y262494D01*
X613643Y263092D01*
X612488Y263402D01*
D02*
G37*
G36*
X611390D02*
X611292D01*
X610136Y263092D01*
X609100Y262494D01*
X608254Y261648D01*
X607656Y260612D01*
X607346Y259456D01*
Y259358D01*
X611390D01*
Y263402D01*
D02*
G37*
G36*
X622462Y263202D02*
X621318D01*
X620213Y262906D01*
X619223Y262334D01*
X618414Y261525D01*
X617842Y260535D01*
X617547Y259430D01*
Y258286D01*
X617842Y257182D01*
X618414Y256191D01*
X619223Y255383D01*
X620213Y254811D01*
X621318Y254515D01*
X622462D01*
X623566Y254811D01*
X624557Y255383D01*
X625365Y256191D01*
X625937Y257182D01*
X626233Y258286D01*
Y259430D01*
X625937Y260535D01*
X625365Y261525D01*
X624557Y262334D01*
X623566Y262906D01*
X622462Y263202D01*
D02*
G37*
G36*
X616433Y258358D02*
X612390D01*
Y254315D01*
X612488D01*
X613643Y254625D01*
X614679Y255223D01*
X615525Y256069D01*
X616123Y257105D01*
X616433Y258260D01*
Y258358D01*
D02*
G37*
G36*
X611390D02*
X607346D01*
Y258260D01*
X607656Y257105D01*
X608254Y256069D01*
X609100Y255223D01*
X610136Y254625D01*
X611292Y254315D01*
X611390D01*
Y258358D01*
D02*
G37*
G36*
X709161Y250589D02*
Y248532D01*
X711219D01*
X711084Y249035D01*
X710742Y249628D01*
X710258Y250112D01*
X709665Y250454D01*
X709161Y250589D01*
D02*
G37*
G36*
X708161D02*
X707658Y250454D01*
X707065Y250112D01*
X706581Y249628D01*
X706239Y249035D01*
X706104Y248532D01*
X708161D01*
Y250589D01*
D02*
G37*
G36*
X711219Y247532D02*
X706104D01*
X706239Y247028D01*
X706369Y246802D01*
X706080Y246302D01*
X675319D01*
X675263Y246438D01*
X674588Y247113D01*
X673706Y247479D01*
X672751D01*
X671869Y247113D01*
X671194Y246438D01*
X670828Y245556D01*
Y244601D01*
X671194Y243719D01*
X671869Y243044D01*
X672751Y242679D01*
X673706D01*
X674588Y243044D01*
X675263Y243719D01*
X675319Y243855D01*
X706186D01*
X707438Y242603D01*
Y238804D01*
X707302Y238747D01*
X706627Y238072D01*
X706261Y237190D01*
Y236235D01*
X706627Y235353D01*
X707302Y234678D01*
X708184Y234313D01*
X709139D01*
X710021Y234678D01*
X710696Y235353D01*
X711061Y236235D01*
Y237190D01*
X710696Y238072D01*
X710021Y238747D01*
X709885Y238804D01*
Y243110D01*
X709792Y243579D01*
X709527Y243975D01*
X708570Y244932D01*
X708778Y245431D01*
X709004D01*
X709665Y245609D01*
X710258Y245951D01*
X710742Y246435D01*
X711084Y247028D01*
X711219Y247532D01*
D02*
G37*
G36*
X560539Y247637D02*
Y245579D01*
X562597D01*
X562462Y246082D01*
X562120Y246675D01*
X561636Y247159D01*
X561043Y247502D01*
X560539Y247637D01*
D02*
G37*
G36*
X559539D02*
X559036Y247502D01*
X558443Y247159D01*
X557959Y246675D01*
X557617Y246082D01*
X557482Y245579D01*
X559539D01*
Y247637D01*
D02*
G37*
G36*
X562597Y244579D02*
X560539D01*
Y242521D01*
X561043Y242656D01*
X561636Y242998D01*
X562120Y243482D01*
X562462Y244075D01*
X562597Y244579D01*
D02*
G37*
G36*
X559539D02*
X557482D01*
X557617Y244075D01*
X557959Y243482D01*
X558443Y242998D01*
X559036Y242656D01*
X559539Y242521D01*
Y244579D01*
D02*
G37*
G36*
X629929Y243207D02*
Y241150D01*
X631987D01*
X631852Y241653D01*
X631510Y242246D01*
X631026Y242730D01*
X630433Y243072D01*
X629929Y243207D01*
D02*
G37*
G36*
X516248Y241731D02*
Y239673D01*
X518306D01*
X518171Y240177D01*
X517829Y240770D01*
X517345Y241254D01*
X516752Y241596D01*
X516248Y241731D01*
D02*
G37*
G36*
X515248D02*
X514745Y241596D01*
X514152Y241254D01*
X513667Y240770D01*
X513325Y240177D01*
X513190Y239673D01*
X515248D01*
Y241731D01*
D02*
G37*
G36*
X631987Y240150D02*
X629929D01*
Y238092D01*
X630433Y238227D01*
X631026Y238569D01*
X631510Y239053D01*
X631852Y239646D01*
X631987Y240150D01*
D02*
G37*
G36*
X518306Y238673D02*
X516248D01*
Y236615D01*
X516752Y236750D01*
X517345Y237093D01*
X517829Y237577D01*
X518171Y238170D01*
X518306Y238673D01*
D02*
G37*
G36*
X515248D02*
X513190D01*
X513325Y238170D01*
X513667Y237577D01*
X514152Y237093D01*
X514745Y236750D01*
X515248Y236615D01*
Y238673D01*
D02*
G37*
G36*
X655520Y232873D02*
Y230815D01*
X657577D01*
X657443Y231318D01*
X657100Y231911D01*
X656616Y232396D01*
X656023Y232738D01*
X655520Y232873D01*
D02*
G37*
G36*
X654520D02*
X654016Y232738D01*
X653423Y232396D01*
X652939Y231911D01*
X652597Y231318D01*
X652462Y230815D01*
X654520D01*
Y232873D01*
D02*
G37*
G36*
X657577Y229815D02*
X655520D01*
Y227757D01*
X656023Y227892D01*
X656616Y228235D01*
X657100Y228718D01*
X657443Y229311D01*
X657577Y229815D01*
D02*
G37*
G36*
X654520D02*
X652462D01*
X652597Y229311D01*
X652939Y228718D01*
X653423Y228235D01*
X654016Y227892D01*
X654520Y227757D01*
Y229815D01*
D02*
G37*
G36*
X590559Y226967D02*
Y224909D01*
X592617D01*
X592482Y225413D01*
X592140Y226006D01*
X591655Y226490D01*
X591063Y226832D01*
X590559Y226967D01*
D02*
G37*
G36*
X589559D02*
X589055Y226832D01*
X588463Y226490D01*
X587979Y226006D01*
X587636Y225413D01*
X587501Y224909D01*
X589559D01*
Y226967D01*
D02*
G37*
G36*
X592617Y223909D02*
X590559D01*
Y221852D01*
X591063Y221987D01*
X591655Y222329D01*
X592140Y222813D01*
X592482Y223406D01*
X592617Y223909D01*
D02*
G37*
G36*
X589559D02*
X587501D01*
X587636Y223406D01*
X587979Y222813D01*
X588463Y222329D01*
X589055Y221987D01*
X589559Y221852D01*
Y223909D01*
D02*
G37*
G36*
X656233Y263202D02*
X647546D01*
Y254515D01*
X656233D01*
Y256034D01*
X664499D01*
Y218504D01*
X664595Y217773D01*
X664877Y217092D01*
X665326Y216507D01*
X665911Y216058D01*
X666592Y215776D01*
X667323Y215680D01*
X693898D01*
X694629Y215776D01*
X695310Y216058D01*
X695895Y216507D01*
X696343Y217092D01*
X696626Y217773D01*
X696722Y218504D01*
X696626Y219235D01*
X696343Y219916D01*
X695895Y220501D01*
X695310Y220950D01*
X694629Y221232D01*
X693898Y221328D01*
X670147D01*
Y258858D01*
X670051Y259589D01*
X669769Y260270D01*
X669320Y260855D01*
X668735Y261304D01*
X668054Y261586D01*
X667323Y261682D01*
X656233D01*
Y263202D01*
D02*
G37*
G36*
X724417Y216140D02*
Y214083D01*
X726475D01*
X726340Y214586D01*
X725998Y215179D01*
X725514Y215663D01*
X724921Y216005D01*
X724417Y216140D01*
D02*
G37*
G36*
X723417D02*
X722914Y216005D01*
X722321Y215663D01*
X721837Y215179D01*
X721494Y214586D01*
X721360Y214083D01*
X723417D01*
Y216140D01*
D02*
G37*
G36*
X726475Y213083D02*
X724417D01*
Y211025D01*
X724921Y211160D01*
X725514Y211502D01*
X725998Y211986D01*
X726340Y212579D01*
X726475Y213083D01*
D02*
G37*
G36*
X723417D02*
X721360D01*
X721494Y212579D01*
X721837Y211986D01*
X722321Y211502D01*
X722914Y211160D01*
X723417Y211025D01*
Y213083D01*
D02*
G37*
G36*
X632462Y263202D02*
X631318D01*
X630213Y262906D01*
X629223Y262334D01*
X628414Y261525D01*
X627843Y260535D01*
X627547Y259430D01*
Y258286D01*
X627843Y257182D01*
X628414Y256191D01*
X628783Y255823D01*
X628821Y255763D01*
X629197Y255370D01*
X629515Y254992D01*
X629792Y254610D01*
X630029Y254224D01*
X630228Y253835D01*
X630389Y253441D01*
X630513Y253041D01*
X630602Y252635D01*
X630655Y252219D01*
X630666Y251963D01*
Y250492D01*
X630759Y250024D01*
X631025Y249627D01*
X634603Y246048D01*
Y213705D01*
X634467Y213649D01*
X633792Y212974D01*
X633427Y212092D01*
Y211137D01*
X633792Y210255D01*
X634467Y209580D01*
X635349Y209214D01*
X636304D01*
X637186Y209580D01*
X637861Y210255D01*
X638227Y211137D01*
Y212092D01*
X637861Y212974D01*
X637186Y213649D01*
X637050Y213705D01*
Y246555D01*
X636957Y247023D01*
X636692Y247420D01*
X633113Y250999D01*
Y251963D01*
X633124Y252219D01*
X633178Y252635D01*
X633266Y253041D01*
X633391Y253441D01*
X633552Y253835D01*
X633751Y254224D01*
X633988Y254610D01*
X634265Y254992D01*
X634582Y255370D01*
X634959Y255763D01*
X634997Y255823D01*
X635365Y256191D01*
X635937Y257182D01*
X636233Y258286D01*
Y259430D01*
X635937Y260535D01*
X635365Y261525D01*
X634557Y262334D01*
X633566Y262906D01*
X632462Y263202D01*
D02*
G37*
G36*
X724417Y209743D02*
Y207685D01*
X726475D01*
X726340Y208189D01*
X725998Y208782D01*
X725514Y209266D01*
X724921Y209608D01*
X724417Y209743D01*
D02*
G37*
G36*
X723417D02*
X722914Y209608D01*
X722321Y209266D01*
X721837Y208782D01*
X721494Y208189D01*
X721360Y207685D01*
X723417D01*
Y209743D01*
D02*
G37*
G36*
X540854Y207774D02*
Y205716D01*
X542912D01*
X542777Y206220D01*
X542435Y206813D01*
X541951Y207297D01*
X541358Y207639D01*
X540854Y207774D01*
D02*
G37*
G36*
X539854D02*
X539351Y207639D01*
X538758Y207297D01*
X538274Y206813D01*
X537931Y206220D01*
X537797Y205716D01*
X539854D01*
Y207774D01*
D02*
G37*
G36*
X642462Y263202D02*
X641318D01*
X640213Y262906D01*
X639223Y262334D01*
X638414Y261525D01*
X637843Y260535D01*
X637546Y259430D01*
Y258286D01*
X637843Y257182D01*
X638414Y256191D01*
X638783Y255823D01*
X638821Y255763D01*
X639197Y255370D01*
X639515Y254992D01*
X639792Y254610D01*
X640029Y254224D01*
X640228Y253835D01*
X640389Y253441D01*
X640513Y253041D01*
X640602Y252635D01*
X640656Y252219D01*
X640666Y251963D01*
Y204964D01*
X619217D01*
X619161Y205100D01*
X618485Y205775D01*
X617603Y206140D01*
X616649D01*
X615766Y205775D01*
X615091Y205100D01*
X614726Y204218D01*
Y203263D01*
X615091Y202381D01*
X615766Y201706D01*
X615903Y201649D01*
Y152189D01*
X615766Y152133D01*
X615091Y151458D01*
X614726Y150576D01*
Y149621D01*
X615091Y148739D01*
X615766Y148064D01*
X616649Y147698D01*
X617603D01*
X618485Y148064D01*
X619161Y148739D01*
X619526Y149621D01*
Y150576D01*
X619161Y151458D01*
X618485Y152133D01*
X618350Y152189D01*
Y201649D01*
X618485Y201706D01*
X619161Y202381D01*
X619217Y202517D01*
X641421D01*
X641889Y202610D01*
X642286Y202875D01*
X642755Y203344D01*
X643020Y203741D01*
X643113Y204209D01*
Y251963D01*
X643124Y252219D01*
X643178Y252635D01*
X643266Y253041D01*
X643391Y253441D01*
X643552Y253835D01*
X643751Y254224D01*
X643988Y254610D01*
X644265Y254992D01*
X644582Y255370D01*
X644959Y255763D01*
X644997Y255823D01*
X645365Y256191D01*
X645937Y257182D01*
X646233Y258286D01*
Y259430D01*
X645937Y260535D01*
X645365Y261525D01*
X644557Y262334D01*
X643566Y262906D01*
X642462Y263202D01*
D02*
G37*
G36*
X726475Y206685D02*
X724417D01*
Y204627D01*
X724921Y204762D01*
X725514Y205104D01*
X725998Y205589D01*
X726340Y206182D01*
X726475Y206685D01*
D02*
G37*
G36*
X723417D02*
X721360D01*
X721494Y206182D01*
X721837Y205589D01*
X722321Y205104D01*
X722914Y204762D01*
X723417Y204627D01*
Y206685D01*
D02*
G37*
G36*
X542912Y204716D02*
X540854D01*
Y202659D01*
X541358Y202794D01*
X541951Y203136D01*
X542435Y203620D01*
X542777Y204213D01*
X542912Y204716D01*
D02*
G37*
G36*
X539854D02*
X537797D01*
X537931Y204213D01*
X538274Y203620D01*
X538758Y203136D01*
X539351Y202794D01*
X539854Y202659D01*
Y204716D01*
D02*
G37*
G36*
X715536Y250431D02*
X714582D01*
X713700Y250066D01*
X713024Y249391D01*
X712659Y248509D01*
Y247554D01*
X713024Y246672D01*
X713700Y245997D01*
X713835Y245940D01*
Y202011D01*
X700910D01*
X700853Y202147D01*
X700178Y202822D01*
X699296Y203187D01*
X698342D01*
X697459Y202822D01*
X696784Y202147D01*
X696419Y201265D01*
Y200310D01*
X696784Y199428D01*
X697459Y198753D01*
X698342Y198387D01*
X699296D01*
X700178Y198753D01*
X700853Y199428D01*
X700910Y199564D01*
X718757D01*
Y194020D01*
X718621Y193964D01*
X717946Y193289D01*
X717580Y192406D01*
Y191452D01*
X717946Y190570D01*
X718621Y189894D01*
X719503Y189529D01*
X720458D01*
X721340Y189894D01*
X722015Y190570D01*
X722380Y191452D01*
Y192406D01*
X722015Y193289D01*
X721340Y193964D01*
X721204Y194020D01*
Y199287D01*
X721704Y199421D01*
X721837Y199191D01*
X722321Y198707D01*
X722914Y198365D01*
X723417Y198230D01*
Y200787D01*
Y203345D01*
X722914Y203210D01*
X722321Y202868D01*
X721837Y202384D01*
X721494Y201791D01*
X721454Y201641D01*
X720913Y201552D01*
X720846Y201653D01*
X720448Y201918D01*
X719980Y202011D01*
X716283D01*
Y245940D01*
X716419Y245997D01*
X717094Y246672D01*
X717459Y247554D01*
Y248509D01*
X717094Y249391D01*
X716419Y250066D01*
X715536Y250431D01*
D02*
G37*
G36*
X724417Y203345D02*
Y201287D01*
X726475D01*
X726340Y201791D01*
X725998Y202384D01*
X725514Y202868D01*
X724921Y203210D01*
X724417Y203345D01*
D02*
G37*
G36*
X726475Y200287D02*
X724417D01*
Y198230D01*
X724921Y198365D01*
X725514Y198707D01*
X725998Y199191D01*
X726340Y199784D01*
X726475Y200287D01*
D02*
G37*
G36*
X673236Y197440D02*
Y195382D01*
X675294D01*
X675159Y195885D01*
X674817Y196478D01*
X674333Y196962D01*
X673740Y197305D01*
X673236Y197440D01*
D02*
G37*
G36*
X672236D02*
X671733Y197305D01*
X671140Y196962D01*
X670656Y196478D01*
X670313Y195885D01*
X670179Y195382D01*
X672236D01*
Y197440D01*
D02*
G37*
G36*
X675294Y194382D02*
X673236D01*
Y192324D01*
X673740Y192459D01*
X674333Y192801D01*
X674817Y193285D01*
X675159Y193878D01*
X675294Y194382D01*
D02*
G37*
G36*
X672236D02*
X670179D01*
X670313Y193878D01*
X670656Y193285D01*
X671140Y192801D01*
X671733Y192459D01*
X672236Y192324D01*
Y194382D01*
D02*
G37*
G36*
X572843Y186613D02*
Y184555D01*
X574900D01*
X574765Y185059D01*
X574423Y185652D01*
X573939Y186136D01*
X573346Y186478D01*
X572843Y186613D01*
D02*
G37*
G36*
X571842D02*
X571339Y186478D01*
X570746Y186136D01*
X570262Y185652D01*
X569920Y185059D01*
X569785Y184555D01*
X571842D01*
Y186613D01*
D02*
G37*
G36*
X574900Y183555D02*
X572843D01*
Y181497D01*
X573346Y181632D01*
X573939Y181975D01*
X574423Y182459D01*
X574765Y183052D01*
X574900Y183555D01*
D02*
G37*
G36*
X571842D02*
X569785D01*
X569920Y183052D01*
X570262Y182459D01*
X570746Y181975D01*
X571339Y181632D01*
X571842Y181497D01*
Y183555D01*
D02*
G37*
G36*
X635320Y187439D02*
X634365D01*
X633483Y187074D01*
X632808Y186399D01*
X632443Y185517D01*
Y184562D01*
X632808Y183680D01*
X633483Y183005D01*
X634365Y182639D01*
X635320D01*
X635405Y182675D01*
X635910Y182170D01*
X636323Y181893D01*
X636811Y181796D01*
X696749D01*
X696784Y181711D01*
X697459Y181036D01*
X698342Y180671D01*
X699296D01*
X700178Y181036D01*
X700853Y181711D01*
X701219Y182594D01*
Y183548D01*
X700853Y184430D01*
X700178Y185106D01*
X699296Y185471D01*
X698342D01*
X697459Y185106D01*
X696784Y184430D01*
X696749Y184345D01*
X637694D01*
X637243Y184562D01*
Y185517D01*
X636877Y186399D01*
X636202Y187074D01*
X635320Y187439D01*
D02*
G37*
G36*
X699811Y176302D02*
Y174244D01*
X701869D01*
X701734Y174748D01*
X701392Y175340D01*
X700908Y175824D01*
X700315Y176167D01*
X699811Y176302D01*
D02*
G37*
G36*
X698811D02*
X698308Y176167D01*
X697715Y175824D01*
X697230Y175340D01*
X696888Y174748D01*
X696753Y174244D01*
X698811D01*
Y176302D01*
D02*
G37*
G36*
X701869Y173244D02*
X699811D01*
Y171186D01*
X700315Y171321D01*
X700908Y171663D01*
X701392Y172148D01*
X701734Y172740D01*
X701869Y173244D01*
D02*
G37*
G36*
X698811D02*
X696753D01*
X696888Y172740D01*
X697230Y172148D01*
X697715Y171663D01*
X698308Y171321D01*
X698811Y171186D01*
Y173244D01*
D02*
G37*
G36*
X610736Y163483D02*
Y161425D01*
X612794D01*
X612659Y161929D01*
X612317Y162522D01*
X611833Y163006D01*
X611240Y163348D01*
X610736Y163483D01*
D02*
G37*
G36*
X609736D02*
X609233Y163348D01*
X608640Y163006D01*
X608156Y162522D01*
X607813Y161929D01*
X607679Y161425D01*
X609736D01*
Y163483D01*
D02*
G37*
G36*
X570382Y162007D02*
Y159949D01*
X572440D01*
X572305Y160452D01*
X571962Y161045D01*
X571478Y161529D01*
X570886Y161872D01*
X570382Y162007D01*
D02*
G37*
G36*
X569382D02*
X568878Y161872D01*
X568286Y161529D01*
X567801Y161045D01*
X567459Y160452D01*
X567324Y159949D01*
X569382D01*
Y162007D01*
D02*
G37*
G36*
X558079D02*
Y159949D01*
X560137D01*
X560002Y160452D01*
X559659Y161045D01*
X559175Y161529D01*
X558582Y161872D01*
X558079Y162007D01*
D02*
G37*
G36*
X557079D02*
X556575Y161872D01*
X555982Y161529D01*
X555498Y161045D01*
X555156Y160452D01*
X555021Y159949D01*
X557079D01*
Y162007D01*
D02*
G37*
G36*
X612794Y160425D02*
X610736D01*
Y158368D01*
X611240Y158502D01*
X611833Y158845D01*
X612317Y159329D01*
X612659Y159922D01*
X612794Y160425D01*
D02*
G37*
G36*
X609736D02*
X607679D01*
X607813Y159922D01*
X608156Y159329D01*
X608640Y158845D01*
X609233Y158502D01*
X609736Y158368D01*
Y160425D01*
D02*
G37*
G36*
X572440Y158949D02*
X570382D01*
Y156891D01*
X570886Y157026D01*
X571478Y157368D01*
X571962Y157852D01*
X572305Y158445D01*
X572440Y158949D01*
D02*
G37*
G36*
X569382D02*
X567324D01*
X567459Y158445D01*
X567801Y157852D01*
X568286Y157368D01*
X568878Y157026D01*
X569382Y156891D01*
Y158949D01*
D02*
G37*
G36*
X560137D02*
X558079D01*
Y156891D01*
X558582Y157026D01*
X559175Y157368D01*
X559659Y157852D01*
X560002Y158445D01*
X560137Y158949D01*
D02*
G37*
G36*
X557079D02*
X555021D01*
X555156Y158445D01*
X555498Y157852D01*
X555982Y157368D01*
X556575Y157026D01*
X557079Y156891D01*
Y158949D01*
D02*
G37*
G36*
X475894Y154625D02*
Y152567D01*
X477951D01*
X477816Y153070D01*
X477474Y153663D01*
X476990Y154148D01*
X476397Y154490D01*
X475894Y154625D01*
D02*
G37*
G36*
X474894D02*
X474390Y154490D01*
X473797Y154148D01*
X473313Y153663D01*
X472971Y153070D01*
X472836Y152567D01*
X474894D01*
Y154625D01*
D02*
G37*
G36*
X637311Y154133D02*
Y152075D01*
X639369D01*
X639234Y152578D01*
X638892Y153171D01*
X638408Y153655D01*
X637815Y153998D01*
X637311Y154133D01*
D02*
G37*
G36*
X636311D02*
X635808Y153998D01*
X635215Y153655D01*
X634730Y153171D01*
X634388Y152578D01*
X634253Y152075D01*
X636311D01*
Y154133D01*
D02*
G37*
G36*
X477951Y151567D02*
X475894D01*
Y149509D01*
X476397Y149644D01*
X476990Y149986D01*
X477474Y150470D01*
X477816Y151063D01*
X477951Y151567D01*
D02*
G37*
G36*
X474894D02*
X472836D01*
X472971Y151063D01*
X473313Y150470D01*
X473797Y149986D01*
X474390Y149644D01*
X474894Y149509D01*
Y151567D01*
D02*
G37*
G36*
X639369Y151075D02*
X637311D01*
Y149017D01*
X637815Y149152D01*
X638408Y149494D01*
X638892Y149978D01*
X639234Y150571D01*
X639369Y151075D01*
D02*
G37*
G36*
X636311D02*
X634253D01*
X634388Y150571D01*
X634730Y149978D01*
X635215Y149494D01*
X635808Y149152D01*
X636311Y149017D01*
Y151075D01*
D02*
G37*
%LPD*%
G36*
X633975Y255915D02*
X633621Y255494D01*
X633309Y255063D01*
X633039Y254624D01*
X632810Y254175D01*
X632623Y253717D01*
X632477Y253250D01*
X632373Y252774D01*
X632311Y252289D01*
X632290Y251794D01*
X631490D01*
X631469Y252289D01*
X631407Y252774D01*
X631302Y253250D01*
X631157Y253717D01*
X630970Y254175D01*
X630741Y254624D01*
X630470Y255063D01*
X630158Y255494D01*
X629805Y255915D01*
X629410Y256328D01*
X634370D01*
X633975Y255915D01*
D02*
G37*
G36*
X643975D02*
X643621Y255494D01*
X643309Y255063D01*
X643039Y254624D01*
X642810Y254175D01*
X642623Y253717D01*
X642477Y253250D01*
X642373Y252774D01*
X642311Y252289D01*
X642290Y251794D01*
X641490D01*
X641469Y252289D01*
X641407Y252774D01*
X641302Y253250D01*
X641157Y253717D01*
X640970Y254175D01*
X640741Y254624D01*
X640470Y255063D01*
X640158Y255494D01*
X639805Y255915D01*
X639409Y256328D01*
X644370D01*
X643975Y255915D01*
D02*
G37*
%LPC*%
G36*
X206209Y252558D02*
Y250500D01*
X208266D01*
X208132Y251004D01*
X207789Y251596D01*
X207305Y252080D01*
X206712Y252423D01*
X206209Y252558D01*
D02*
G37*
G36*
X205209D02*
X204705Y252423D01*
X204112Y252080D01*
X203628Y251596D01*
X203286Y251004D01*
X203151Y250500D01*
X205209D01*
Y252558D01*
D02*
G37*
G36*
X367626Y252066D02*
Y250008D01*
X369684D01*
X369549Y250511D01*
X369207Y251104D01*
X368722Y251588D01*
X368129Y251931D01*
X367626Y252066D01*
D02*
G37*
G36*
X366626D02*
X366122Y251931D01*
X365529Y251588D01*
X365045Y251104D01*
X364703Y250511D01*
X364568Y250008D01*
X366626D01*
Y252066D01*
D02*
G37*
G36*
X208266Y249500D02*
X206209D01*
Y247442D01*
X206712Y247577D01*
X207305Y247920D01*
X207789Y248404D01*
X208132Y248996D01*
X208266Y249500D01*
D02*
G37*
G36*
X205209D02*
X203151D01*
X203286Y248996D01*
X203628Y248404D01*
X204112Y247920D01*
X204705Y247577D01*
X205209Y247442D01*
Y249500D01*
D02*
G37*
G36*
X369684Y249008D02*
X367626D01*
Y246950D01*
X368129Y247085D01*
X368722Y247427D01*
X369207Y247911D01*
X369549Y248504D01*
X369684Y249008D01*
D02*
G37*
G36*
X366626D02*
X364568D01*
X364703Y248504D01*
X365045Y247911D01*
X365529Y247427D01*
X366122Y247085D01*
X366626Y246950D01*
Y249008D01*
D02*
G37*
G36*
X285441Y244684D02*
Y242626D01*
X287499D01*
X287364Y243130D01*
X287021Y243722D01*
X286537Y244207D01*
X285945Y244549D01*
X285441Y244684D01*
D02*
G37*
G36*
X284441D02*
X283937Y244549D01*
X283345Y244207D01*
X282860Y243722D01*
X282518Y243130D01*
X282383Y242626D01*
X284441D01*
Y244684D01*
D02*
G37*
G36*
X273138D02*
Y242626D01*
X275196D01*
X275061Y243130D01*
X274718Y243722D01*
X274234Y244207D01*
X273641Y244549D01*
X273138Y244684D01*
D02*
G37*
G36*
X272138D02*
X271634Y244549D01*
X271041Y244207D01*
X270557Y243722D01*
X270215Y243130D01*
X270080Y242626D01*
X272138D01*
Y244684D01*
D02*
G37*
G36*
X232784Y243207D02*
Y241150D01*
X234841D01*
X234706Y241653D01*
X234364Y242246D01*
X233880Y242730D01*
X233287Y243072D01*
X232784Y243207D01*
D02*
G37*
G36*
X231784D02*
X231280Y243072D01*
X230687Y242730D01*
X230203Y242246D01*
X229861Y241653D01*
X229726Y241150D01*
X231784D01*
Y243207D01*
D02*
G37*
G36*
X287499Y241626D02*
X285441D01*
Y239568D01*
X285945Y239703D01*
X286537Y240045D01*
X287021Y240530D01*
X287364Y241122D01*
X287499Y241626D01*
D02*
G37*
G36*
X284441D02*
X282383D01*
X282518Y241122D01*
X282860Y240530D01*
X283345Y240045D01*
X283937Y239703D01*
X284441Y239568D01*
Y241626D01*
D02*
G37*
G36*
X275196D02*
X273138D01*
Y239568D01*
X273641Y239703D01*
X274234Y240045D01*
X274718Y240530D01*
X275061Y241122D01*
X275196Y241626D01*
D02*
G37*
G36*
X272138D02*
X270080D01*
X270215Y241122D01*
X270557Y240530D01*
X271041Y240045D01*
X271634Y239703D01*
X272138Y239568D01*
Y241626D01*
D02*
G37*
G36*
X234841Y240150D02*
X232784D01*
Y238092D01*
X233287Y238227D01*
X233880Y238569D01*
X234364Y239053D01*
X234706Y239646D01*
X234841Y240150D01*
D02*
G37*
G36*
X231784D02*
X229726D01*
X229861Y239646D01*
X230203Y239053D01*
X230687Y238569D01*
X231280Y238227D01*
X231784Y238092D01*
Y240150D01*
D02*
G37*
G36*
X143709Y230389D02*
Y228331D01*
X145766D01*
X145632Y228834D01*
X145289Y229427D01*
X144805Y229911D01*
X144212Y230254D01*
X143709Y230389D01*
D02*
G37*
G36*
X142709D02*
X142205Y230254D01*
X141612Y229911D01*
X141128Y229427D01*
X140786Y228834D01*
X140651Y228331D01*
X142709D01*
Y230389D01*
D02*
G37*
G36*
X145766Y227331D02*
X143709D01*
Y225273D01*
X144212Y225408D01*
X144805Y225750D01*
X145289Y226234D01*
X145632Y226827D01*
X145766Y227331D01*
D02*
G37*
G36*
X142709D02*
X140651D01*
X140786Y226827D01*
X141128Y226234D01*
X141612Y225750D01*
X142205Y225408D01*
X142709Y225273D01*
Y227331D01*
D02*
G37*
G36*
X270677Y220077D02*
Y218020D01*
X272735D01*
X272600Y218523D01*
X272258Y219116D01*
X271774Y219600D01*
X271181Y219942D01*
X270677Y220077D01*
D02*
G37*
G36*
X269677D02*
X269174Y219942D01*
X268581Y219600D01*
X268097Y219116D01*
X267754Y218523D01*
X267619Y218020D01*
X269677D01*
Y220077D01*
D02*
G37*
G36*
X272735Y217020D02*
X270677D01*
Y214962D01*
X271181Y215097D01*
X271774Y215439D01*
X272258Y215923D01*
X272600Y216516D01*
X272735Y217020D01*
D02*
G37*
G36*
X269677D02*
X267619D01*
X267754Y216516D01*
X268097Y215923D01*
X268581Y215439D01*
X269174Y215097D01*
X269677Y214962D01*
Y217020D01*
D02*
G37*
G36*
X144178Y220904D02*
X143223D01*
X142341Y220539D01*
X141666Y219863D01*
X141301Y218981D01*
Y218026D01*
X141666Y217144D01*
X142341Y216469D01*
X143223Y216104D01*
X144178D01*
X145060Y216469D01*
X145735Y217144D01*
X145771Y217229D01*
X204826D01*
X205277Y217013D01*
Y216058D01*
X205643Y215176D01*
X206318Y214501D01*
X207200Y214135D01*
X208155D01*
X209037Y214501D01*
X209712Y215176D01*
X210077Y216058D01*
Y217013D01*
X209712Y217895D01*
X209037Y218570D01*
X208155Y218935D01*
X207200D01*
X207115Y218900D01*
X206610Y219405D01*
X206196Y219681D01*
X205709Y219778D01*
X145771D01*
X145735Y219863D01*
X145060Y220539D01*
X144178Y220904D01*
D02*
G37*
G36*
X170283Y209251D02*
Y207193D01*
X172341D01*
X172206Y207697D01*
X171864Y208289D01*
X171380Y208773D01*
X170787Y209116D01*
X170283Y209251D01*
D02*
G37*
G36*
X169283D02*
X168780Y209116D01*
X168187Y208773D01*
X167703Y208289D01*
X167361Y207697D01*
X167226Y207193D01*
X169283D01*
Y209251D01*
D02*
G37*
G36*
X172341Y206193D02*
X170283D01*
Y204135D01*
X170787Y204270D01*
X171380Y204612D01*
X171864Y205097D01*
X172206Y205689D01*
X172341Y206193D01*
D02*
G37*
G36*
X169283D02*
X167226D01*
X167361Y205689D01*
X167703Y205097D01*
X168187Y204612D01*
X168780Y204270D01*
X169283Y204135D01*
Y206193D01*
D02*
G37*
G36*
X123017Y212046D02*
X122062D01*
X121180Y211680D01*
X120505Y211005D01*
X120139Y210123D01*
Y209168D01*
X120505Y208286D01*
X121180Y207611D01*
X121316Y207555D01*
Y202288D01*
X120816Y202153D01*
X120683Y202384D01*
X120199Y202868D01*
X119606Y203210D01*
X119102Y203345D01*
Y200787D01*
Y198230D01*
X119606Y198365D01*
X120199Y198707D01*
X120683Y199191D01*
X121025Y199784D01*
X121065Y199934D01*
X121607Y200023D01*
X121674Y199922D01*
X122071Y199657D01*
X122539Y199564D01*
X126237D01*
Y155634D01*
X126101Y155578D01*
X125426Y154903D01*
X125061Y154021D01*
Y153066D01*
X125426Y152184D01*
X126101Y151509D01*
X126983Y151143D01*
X127938D01*
X128820Y151509D01*
X129495Y152184D01*
X129861Y153066D01*
Y154021D01*
X129495Y154903D01*
X128820Y155578D01*
X128684Y155634D01*
Y199564D01*
X141610D01*
X141666Y199428D01*
X142341Y198753D01*
X143223Y198387D01*
X144178D01*
X145060Y198753D01*
X145735Y199428D01*
X146101Y200310D01*
Y201265D01*
X145735Y202147D01*
X145060Y202822D01*
X144178Y203187D01*
X143223D01*
X142341Y202822D01*
X141666Y202147D01*
X141610Y202011D01*
X123763D01*
Y207555D01*
X123899Y207611D01*
X124574Y208286D01*
X124939Y209168D01*
Y210123D01*
X124574Y211005D01*
X123899Y211680D01*
X123017Y212046D01*
D02*
G37*
G36*
X118102Y203345D02*
X117599Y203210D01*
X117006Y202868D01*
X116522Y202384D01*
X116180Y201791D01*
X116045Y201287D01*
X118102D01*
Y203345D01*
D02*
G37*
G36*
Y200287D02*
X116045D01*
X116180Y199784D01*
X116522Y199191D01*
X117006Y198707D01*
X117599Y198365D01*
X118102Y198230D01*
Y200287D01*
D02*
G37*
G36*
X302665Y198916D02*
Y196858D01*
X304723D01*
X304588Y197362D01*
X304246Y197955D01*
X303762Y198439D01*
X303169Y198781D01*
X302665Y198916D01*
D02*
G37*
G36*
X301665D02*
X301162Y198781D01*
X300569Y198439D01*
X300085Y197955D01*
X299743Y197362D01*
X299608Y196858D01*
X301665D01*
Y198916D01*
D02*
G37*
G36*
X225871Y253876D02*
X224916D01*
X224034Y253511D01*
X223359Y252836D01*
X222994Y251954D01*
Y250999D01*
X223359Y250117D01*
X224034Y249442D01*
X224170Y249385D01*
Y199926D01*
X224034Y199869D01*
X223359Y199194D01*
X223303Y199058D01*
X201099D01*
X200630Y198965D01*
X200233Y198700D01*
X199765Y198231D01*
X199499Y197834D01*
X199406Y197366D01*
Y149611D01*
X199396Y149355D01*
X199342Y148940D01*
X199253Y148534D01*
X199129Y148134D01*
X198968Y147740D01*
X198769Y147351D01*
X198532Y146965D01*
X198255Y146583D01*
X197937Y146204D01*
X197561Y145811D01*
X197523Y145752D01*
X197154Y145383D01*
X196583Y144393D01*
X196287Y143288D01*
Y142145D01*
X196583Y141040D01*
X197154Y140050D01*
X197963Y139241D01*
X198953Y138669D01*
X200058Y138373D01*
X201202D01*
X202306Y138669D01*
X203297Y139241D01*
X204105Y140050D01*
X204677Y141040D01*
X204973Y142145D01*
Y143288D01*
X204677Y144393D01*
X204105Y145383D01*
X203737Y145752D01*
X203699Y145811D01*
X203323Y146204D01*
X203005Y146583D01*
X202728Y146965D01*
X202491Y147351D01*
X202292Y147740D01*
X202131Y148134D01*
X202006Y148534D01*
X201918Y148940D01*
X201864Y149355D01*
X201853Y149611D01*
Y196611D01*
X223303D01*
X223359Y196475D01*
X224034Y195800D01*
X224916Y195435D01*
X225871D01*
X226753Y195800D01*
X227428Y196475D01*
X227794Y197357D01*
Y198312D01*
X227428Y199194D01*
X226753Y199869D01*
X226617Y199926D01*
Y249385D01*
X226753Y249442D01*
X227428Y250117D01*
X227794Y250999D01*
Y251954D01*
X227428Y252836D01*
X226753Y253511D01*
X225871Y253876D01*
D02*
G37*
G36*
X119102Y196948D02*
Y194890D01*
X121160D01*
X121025Y195393D01*
X120683Y195986D01*
X120199Y196470D01*
X119606Y196813D01*
X119102Y196948D01*
D02*
G37*
G36*
X118102D02*
X117599Y196813D01*
X117006Y196470D01*
X116522Y195986D01*
X116180Y195393D01*
X116045Y194890D01*
X118102D01*
Y196948D01*
D02*
G37*
G36*
X304723Y195858D02*
X302665D01*
Y193800D01*
X303169Y193935D01*
X303762Y194278D01*
X304246Y194762D01*
X304588Y195355D01*
X304723Y195858D01*
D02*
G37*
G36*
X301665D02*
X299608D01*
X299743Y195355D01*
X300085Y194762D01*
X300569Y194278D01*
X301162Y193935D01*
X301665Y193800D01*
Y195858D01*
D02*
G37*
G36*
X121160Y193890D02*
X119102D01*
Y191832D01*
X119606Y191967D01*
X120199Y192309D01*
X120683Y192793D01*
X121025Y193386D01*
X121160Y193890D01*
D02*
G37*
G36*
X118102D02*
X116045D01*
X116180Y193386D01*
X116522Y192793D01*
X117006Y192309D01*
X117599Y191967D01*
X118102Y191832D01*
Y193890D01*
D02*
G37*
G36*
X119102Y190550D02*
Y188492D01*
X121160D01*
X121025Y188996D01*
X120683Y189589D01*
X120199Y190073D01*
X119606Y190415D01*
X119102Y190550D01*
D02*
G37*
G36*
X118102D02*
X117599Y190415D01*
X117006Y190073D01*
X116522Y189589D01*
X116180Y188996D01*
X116045Y188492D01*
X118102D01*
Y190550D01*
D02*
G37*
G36*
X121160Y187492D02*
X119102D01*
Y185434D01*
X119606Y185569D01*
X120199Y185912D01*
X120683Y186396D01*
X121025Y186989D01*
X121160Y187492D01*
D02*
G37*
G36*
X118102D02*
X116045D01*
X116180Y186989D01*
X116522Y186396D01*
X117006Y185912D01*
X117599Y185569D01*
X118102Y185434D01*
Y187492D01*
D02*
G37*
G36*
X252961Y179723D02*
Y177665D01*
X255018D01*
X254883Y178169D01*
X254541Y178762D01*
X254057Y179246D01*
X253464Y179588D01*
X252961Y179723D01*
D02*
G37*
G36*
X251961D02*
X251457Y179588D01*
X250864Y179246D01*
X250380Y178762D01*
X250038Y178169D01*
X249903Y177665D01*
X251961D01*
Y179723D01*
D02*
G37*
G36*
X255018Y176665D02*
X252961D01*
Y174608D01*
X253464Y174742D01*
X254057Y175085D01*
X254541Y175569D01*
X254883Y176162D01*
X255018Y176665D01*
D02*
G37*
G36*
X251961D02*
X249903D01*
X250038Y176162D01*
X250380Y175569D01*
X250864Y175085D01*
X251457Y174742D01*
X251961Y174608D01*
Y176665D01*
D02*
G37*
G36*
X188000Y173818D02*
Y171760D01*
X190058D01*
X189923Y172263D01*
X189581Y172856D01*
X189096Y173340D01*
X188504Y173683D01*
X188000Y173818D01*
D02*
G37*
G36*
X187000D02*
X186496Y173683D01*
X185904Y173340D01*
X185419Y172856D01*
X185077Y172263D01*
X184942Y171760D01*
X187000D01*
Y173818D01*
D02*
G37*
G36*
X190058Y170760D02*
X188000D01*
Y168702D01*
X188504Y168837D01*
X189096Y169179D01*
X189581Y169663D01*
X189923Y170256D01*
X190058Y170760D01*
D02*
G37*
G36*
X187000D02*
X184942D01*
X185077Y170256D01*
X185419Y169663D01*
X185904Y169179D01*
X186496Y168837D01*
X187000Y168702D01*
Y170760D01*
D02*
G37*
G36*
X327272Y164959D02*
Y162902D01*
X329329D01*
X329194Y163405D01*
X328852Y163998D01*
X328368Y164482D01*
X327775Y164824D01*
X327272Y164959D01*
D02*
G37*
G36*
X326272D02*
X325768Y164824D01*
X325175Y164482D01*
X324691Y163998D01*
X324349Y163405D01*
X324214Y162902D01*
X326272D01*
Y164959D01*
D02*
G37*
G36*
X212591Y163483D02*
X212087Y163348D01*
X211494Y163006D01*
X211010Y162522D01*
X210668Y161929D01*
X210533Y161425D01*
X212591D01*
Y163483D01*
D02*
G37*
G36*
X329329Y161902D02*
X327272D01*
Y159844D01*
X327775Y159979D01*
X328368Y160321D01*
X328852Y160805D01*
X329194Y161398D01*
X329329Y161902D01*
D02*
G37*
G36*
X326272D02*
X324214D01*
X324349Y161398D01*
X324691Y160805D01*
X325175Y160321D01*
X325768Y159979D01*
X326272Y159844D01*
Y161902D01*
D02*
G37*
G36*
X212591Y160425D02*
X210533D01*
X210668Y159922D01*
X211010Y159329D01*
X211494Y158845D01*
X212087Y158502D01*
X212591Y158368D01*
Y160425D01*
D02*
G37*
G36*
X282980Y159054D02*
Y156996D01*
X285038D01*
X284903Y157500D01*
X284561Y158092D01*
X284077Y158577D01*
X283484Y158919D01*
X282980Y159054D01*
D02*
G37*
G36*
X281980D02*
X281477Y158919D01*
X280884Y158577D01*
X280400Y158092D01*
X280058Y157500D01*
X279923Y156996D01*
X281980D01*
Y159054D01*
D02*
G37*
G36*
X134336Y167262D02*
X133381D01*
X132499Y166897D01*
X131824Y166222D01*
X131458Y165340D01*
Y164385D01*
X131824Y163503D01*
X132499Y162828D01*
X132635Y162771D01*
Y158465D01*
X132728Y157996D01*
X132993Y157599D01*
X133949Y156643D01*
X133742Y156143D01*
X133516D01*
X132855Y155966D01*
X132262Y155624D01*
X131778Y155140D01*
X131435Y154547D01*
X131300Y154043D01*
X136416D01*
X136281Y154547D01*
X136151Y154773D01*
X136440Y155273D01*
X167200D01*
X167257Y155137D01*
X167932Y154461D01*
X168814Y154096D01*
X169769D01*
X170651Y154461D01*
X171326Y155137D01*
X171691Y156019D01*
Y156974D01*
X171326Y157856D01*
X170651Y158531D01*
X169769Y158896D01*
X168814D01*
X167932Y158531D01*
X167257Y157856D01*
X167200Y157720D01*
X136334D01*
X135082Y158971D01*
Y162771D01*
X135218Y162828D01*
X135893Y163503D01*
X136258Y164385D01*
Y165340D01*
X135893Y166222D01*
X135218Y166897D01*
X134336Y167262D01*
D02*
G37*
G36*
X285038Y155996D02*
X282980D01*
Y153938D01*
X283484Y154073D01*
X284077Y154416D01*
X284561Y154900D01*
X284903Y155492D01*
X285038Y155996D01*
D02*
G37*
G36*
X281980D02*
X279923D01*
X280058Y155492D01*
X280400Y154900D01*
X280884Y154416D01*
X281477Y154073D01*
X281980Y153938D01*
Y155996D01*
D02*
G37*
G36*
X136416Y153043D02*
X134358D01*
Y150986D01*
X134862Y151120D01*
X135455Y151463D01*
X135939Y151947D01*
X136281Y152540D01*
X136416Y153043D01*
D02*
G37*
G36*
X133358D02*
X131300D01*
X131435Y152540D01*
X131778Y151947D01*
X132262Y151463D01*
X132855Y151120D01*
X133358Y150986D01*
Y153043D01*
D02*
G37*
G36*
X231228Y147260D02*
X231130D01*
Y143217D01*
X235173D01*
Y143315D01*
X234864Y144470D01*
X234265Y145506D01*
X233420Y146352D01*
X232384Y146950D01*
X231228Y147260D01*
D02*
G37*
G36*
X230130D02*
X230032D01*
X228876Y146950D01*
X227840Y146352D01*
X226994Y145506D01*
X226396Y144470D01*
X226087Y143315D01*
Y143217D01*
X230130D01*
Y147260D01*
D02*
G37*
G36*
X221202Y147060D02*
X220058D01*
X218953Y146764D01*
X217963Y146192D01*
X217154Y145383D01*
X216583Y144393D01*
X216287Y143288D01*
Y142145D01*
X216583Y141040D01*
X217154Y140050D01*
X217963Y139241D01*
X218953Y138669D01*
X220058Y138373D01*
X221202D01*
X222306Y138669D01*
X223297Y139241D01*
X224105Y140050D01*
X224677Y141040D01*
X224973Y142145D01*
Y143288D01*
X224677Y144393D01*
X224105Y145383D01*
X223297Y146192D01*
X222306Y146764D01*
X221202Y147060D01*
D02*
G37*
G36*
X207170Y192361D02*
X206216D01*
X205333Y191995D01*
X204658Y191320D01*
X204293Y190438D01*
Y189483D01*
X204658Y188601D01*
X205333Y187926D01*
X205469Y187870D01*
Y155020D01*
X205562Y154551D01*
X205828Y154155D01*
X209406Y150576D01*
Y149611D01*
X209396Y149355D01*
X209342Y148940D01*
X209253Y148534D01*
X209129Y148134D01*
X208968Y147740D01*
X208769Y147351D01*
X208532Y146965D01*
X208255Y146583D01*
X207937Y146204D01*
X207561Y145811D01*
X207523Y145752D01*
X207154Y145383D01*
X206583Y144393D01*
X206287Y143288D01*
Y142145D01*
X206583Y141040D01*
X207154Y140050D01*
X207963Y139241D01*
X208953Y138669D01*
X210058Y138373D01*
X211202D01*
X212306Y138669D01*
X213297Y139241D01*
X214105Y140050D01*
X214677Y141040D01*
X214973Y142145D01*
Y143288D01*
X214677Y144393D01*
X214105Y145383D01*
X213737Y145752D01*
X213699Y145811D01*
X213322Y146204D01*
X213005Y146583D01*
X212728Y146965D01*
X212491Y147351D01*
X212292Y147740D01*
X212131Y148134D01*
X212006Y148534D01*
X211918Y148940D01*
X211864Y149355D01*
X211853Y149611D01*
Y151083D01*
X211760Y151551D01*
X211495Y151948D01*
X207916Y155526D01*
Y187870D01*
X208052Y187926D01*
X208728Y188601D01*
X209093Y189483D01*
Y190438D01*
X208728Y191320D01*
X208052Y191995D01*
X207170Y192361D01*
D02*
G37*
G36*
X175197Y185895D02*
X148622D01*
X147891Y185799D01*
X147210Y185517D01*
X146625Y185068D01*
X146176Y184483D01*
X145894Y183802D01*
X145798Y183071D01*
X145894Y182340D01*
X146176Y181659D01*
X146625Y181074D01*
X147210Y180625D01*
X147891Y180343D01*
X148622Y180247D01*
X172373D01*
Y142717D01*
X172469Y141986D01*
X172751Y141305D01*
X173200Y140720D01*
X173785Y140271D01*
X174466Y139989D01*
X175197Y139892D01*
X186287D01*
Y138373D01*
X194973D01*
Y147060D01*
X186287D01*
Y145541D01*
X178021D01*
Y183071D01*
X177925Y183802D01*
X177643Y184483D01*
X177194Y185068D01*
X176609Y185517D01*
X175928Y185799D01*
X175197Y185895D01*
D02*
G37*
G36*
X235173Y142217D02*
X231130D01*
Y138173D01*
X231228D01*
X232384Y138483D01*
X233420Y139081D01*
X234265Y139927D01*
X234864Y140963D01*
X235173Y142118D01*
Y142217D01*
D02*
G37*
G36*
X230130D02*
X226087D01*
Y142118D01*
X226396Y140963D01*
X226994Y139927D01*
X227840Y139081D01*
X228876Y138483D01*
X230032Y138173D01*
X230130D01*
Y142217D01*
D02*
G37*
%LPD*%
G36*
X201051Y149286D02*
X201113Y148801D01*
X201217Y148325D01*
X201363Y147858D01*
X201550Y147400D01*
X201779Y146951D01*
X202049Y146511D01*
X202361Y146081D01*
X202715Y145659D01*
X203110Y145247D01*
X198150D01*
X198545Y145659D01*
X198898Y146081D01*
X199211Y146511D01*
X199481Y146951D01*
X199710Y147400D01*
X199897Y147858D01*
X200043Y148325D01*
X200147Y148801D01*
X200209Y149286D01*
X200230Y149780D01*
X201030D01*
X201051Y149286D01*
D02*
G37*
G36*
X211051D02*
X211113Y148801D01*
X211217Y148325D01*
X211363Y147858D01*
X211550Y147400D01*
X211779Y146951D01*
X212049Y146511D01*
X212361Y146081D01*
X212715Y145659D01*
X213110Y145247D01*
X208150D01*
X208545Y145659D01*
X208898Y146081D01*
X209211Y146511D01*
X209481Y146951D01*
X209710Y147400D01*
X209897Y147858D01*
X210043Y148325D01*
X210147Y148801D01*
X210209Y149286D01*
X210230Y149780D01*
X211030D01*
X211051Y149286D01*
D02*
G37*
%LPC*%
G36*
X612488Y129543D02*
X612390D01*
Y125500D01*
X616433D01*
Y125598D01*
X616123Y126754D01*
X615525Y127790D01*
X614679Y128636D01*
X613643Y129234D01*
X612488Y129543D01*
D02*
G37*
G36*
X611390D02*
X611292D01*
X610136Y129234D01*
X609100Y128636D01*
X608254Y127790D01*
X607656Y126754D01*
X607346Y125598D01*
Y125500D01*
X611390D01*
Y129543D01*
D02*
G37*
G36*
X622462Y129343D02*
X621318D01*
X620213Y129047D01*
X619223Y128475D01*
X618414Y127667D01*
X617842Y126676D01*
X617547Y125572D01*
Y124428D01*
X617842Y123324D01*
X618414Y122333D01*
X619223Y121525D01*
X620213Y120953D01*
X621318Y120657D01*
X622462D01*
X623566Y120953D01*
X624557Y121525D01*
X625365Y122333D01*
X625937Y123324D01*
X626233Y124428D01*
Y125572D01*
X625937Y126676D01*
X625365Y127667D01*
X624557Y128475D01*
X623566Y129047D01*
X622462Y129343D01*
D02*
G37*
G36*
X616433Y124500D02*
X612390D01*
Y120457D01*
X612488D01*
X613643Y120766D01*
X614679Y121364D01*
X615525Y122210D01*
X616123Y123246D01*
X616433Y124402D01*
Y124500D01*
D02*
G37*
G36*
X611390D02*
X607346D01*
Y124402D01*
X607656Y123246D01*
X608254Y122210D01*
X609100Y121364D01*
X610136Y120766D01*
X611292Y120457D01*
X611390D01*
Y124500D01*
D02*
G37*
G36*
X709161Y116731D02*
Y114673D01*
X711219D01*
X711084Y115177D01*
X710742Y115770D01*
X710258Y116254D01*
X709665Y116596D01*
X709161Y116731D01*
D02*
G37*
G36*
X708161D02*
X707658Y116596D01*
X707065Y116254D01*
X706581Y115770D01*
X706239Y115177D01*
X706104Y114673D01*
X708161D01*
Y116731D01*
D02*
G37*
G36*
X711219Y113673D02*
X706104D01*
X706239Y113170D01*
X706369Y112944D01*
X706080Y112444D01*
X675319D01*
X675263Y112580D01*
X674588Y113255D01*
X673706Y113620D01*
X672751D01*
X671869Y113255D01*
X671194Y112580D01*
X670828Y111698D01*
Y110743D01*
X671194Y109861D01*
X671869Y109186D01*
X672751Y108820D01*
X673706D01*
X674588Y109186D01*
X675263Y109861D01*
X675319Y109997D01*
X706186D01*
X707438Y108745D01*
Y104945D01*
X707302Y104889D01*
X706627Y104214D01*
X706261Y103332D01*
Y102377D01*
X706627Y101495D01*
X707302Y100820D01*
X708184Y100454D01*
X709139D01*
X710021Y100820D01*
X710696Y101495D01*
X711061Y102377D01*
Y103332D01*
X710696Y104214D01*
X710021Y104889D01*
X709885Y104945D01*
Y109252D01*
X709792Y109720D01*
X709527Y110117D01*
X708570Y111073D01*
X708778Y111573D01*
X709004D01*
X709665Y111750D01*
X710258Y112093D01*
X710742Y112577D01*
X711084Y113170D01*
X711219Y113673D01*
D02*
G37*
G36*
X560539Y113778D02*
Y111721D01*
X562597D01*
X562462Y112224D01*
X562120Y112817D01*
X561636Y113301D01*
X561043Y113643D01*
X560539Y113778D01*
D02*
G37*
G36*
X559539D02*
X559036Y113643D01*
X558443Y113301D01*
X557959Y112817D01*
X557617Y112224D01*
X557482Y111721D01*
X559539D01*
Y113778D01*
D02*
G37*
G36*
X562597Y110721D02*
X560539D01*
Y108663D01*
X561043Y108798D01*
X561636Y109140D01*
X562120Y109624D01*
X562462Y110217D01*
X562597Y110721D01*
D02*
G37*
G36*
X559539D02*
X557482D01*
X557617Y110217D01*
X557959Y109624D01*
X558443Y109140D01*
X559036Y108798D01*
X559539Y108663D01*
Y110721D01*
D02*
G37*
G36*
X629929Y109349D02*
Y107291D01*
X631987D01*
X631852Y107795D01*
X631510Y108388D01*
X631026Y108872D01*
X630433Y109214D01*
X629929Y109349D01*
D02*
G37*
G36*
X516248Y107873D02*
Y105815D01*
X518306D01*
X518171Y106318D01*
X517829Y106911D01*
X517345Y107396D01*
X516752Y107738D01*
X516248Y107873D01*
D02*
G37*
G36*
X515248D02*
X514745Y107738D01*
X514152Y107396D01*
X513667Y106911D01*
X513325Y106318D01*
X513190Y105815D01*
X515248D01*
Y107873D01*
D02*
G37*
G36*
X631987Y106291D02*
X629929D01*
Y104234D01*
X630433Y104368D01*
X631026Y104711D01*
X631510Y105195D01*
X631852Y105788D01*
X631987Y106291D01*
D02*
G37*
G36*
X518306Y104815D02*
X516248D01*
Y102757D01*
X516752Y102892D01*
X517345Y103234D01*
X517829Y103718D01*
X518171Y104311D01*
X518306Y104815D01*
D02*
G37*
G36*
X515248D02*
X513190D01*
X513325Y104311D01*
X513667Y103718D01*
X514152Y103234D01*
X514745Y102892D01*
X515248Y102757D01*
Y104815D01*
D02*
G37*
G36*
X655520Y99014D02*
Y96957D01*
X657577D01*
X657443Y97460D01*
X657100Y98053D01*
X656616Y98537D01*
X656023Y98879D01*
X655520Y99014D01*
D02*
G37*
G36*
X654520D02*
X654016Y98879D01*
X653423Y98537D01*
X652939Y98053D01*
X652597Y97460D01*
X652462Y96957D01*
X654520D01*
Y99014D01*
D02*
G37*
G36*
X657577Y95957D02*
X655520D01*
Y93899D01*
X656023Y94034D01*
X656616Y94376D01*
X657100Y94860D01*
X657443Y95453D01*
X657577Y95957D01*
D02*
G37*
G36*
X654520D02*
X652462D01*
X652597Y95453D01*
X652939Y94860D01*
X653423Y94376D01*
X654016Y94034D01*
X654520Y93899D01*
Y95957D01*
D02*
G37*
G36*
X590559Y93109D02*
Y91051D01*
X592617D01*
X592482Y91555D01*
X592140Y92148D01*
X591655Y92632D01*
X591063Y92974D01*
X590559Y93109D01*
D02*
G37*
G36*
X589559D02*
X589055Y92974D01*
X588463Y92632D01*
X587979Y92148D01*
X587636Y91555D01*
X587501Y91051D01*
X589559D01*
Y93109D01*
D02*
G37*
G36*
X592617Y90051D02*
X590559D01*
Y87993D01*
X591063Y88128D01*
X591655Y88471D01*
X592140Y88955D01*
X592482Y89548D01*
X592617Y90051D01*
D02*
G37*
G36*
X589559D02*
X587501D01*
X587636Y89548D01*
X587979Y88955D01*
X588463Y88471D01*
X589055Y88128D01*
X589559Y87993D01*
Y90051D01*
D02*
G37*
G36*
X656233Y129343D02*
X647546D01*
Y120657D01*
X656233D01*
Y122176D01*
X664499D01*
Y84646D01*
X664595Y83915D01*
X664877Y83234D01*
X665326Y82649D01*
X665911Y82200D01*
X666592Y81918D01*
X667323Y81822D01*
X693898D01*
X694629Y81918D01*
X695310Y82200D01*
X695895Y82649D01*
X696343Y83234D01*
X696626Y83915D01*
X696722Y84646D01*
X696626Y85377D01*
X696343Y86058D01*
X695895Y86643D01*
X695310Y87091D01*
X694629Y87374D01*
X693898Y87470D01*
X670147D01*
Y125000D01*
X670051Y125731D01*
X669769Y126412D01*
X669320Y126997D01*
X668735Y127446D01*
X668054Y127728D01*
X667323Y127824D01*
X656233D01*
Y129343D01*
D02*
G37*
G36*
X724417Y82282D02*
Y80224D01*
X726475D01*
X726340Y80728D01*
X725998Y81321D01*
X725514Y81805D01*
X724921Y82147D01*
X724417Y82282D01*
D02*
G37*
G36*
X723417D02*
X722914Y82147D01*
X722321Y81805D01*
X721837Y81321D01*
X721494Y80728D01*
X721360Y80224D01*
X723417D01*
Y82282D01*
D02*
G37*
G36*
X726475Y79224D02*
X724417D01*
Y77167D01*
X724921Y77302D01*
X725514Y77644D01*
X725998Y78128D01*
X726340Y78721D01*
X726475Y79224D01*
D02*
G37*
G36*
X723417D02*
X721360D01*
X721494Y78721D01*
X721837Y78128D01*
X722321Y77644D01*
X722914Y77302D01*
X723417Y77167D01*
Y79224D01*
D02*
G37*
G36*
X632462Y129343D02*
X631318D01*
X630213Y129047D01*
X629223Y128475D01*
X628414Y127667D01*
X627843Y126676D01*
X627547Y125572D01*
Y124428D01*
X627843Y123324D01*
X628414Y122333D01*
X628783Y121965D01*
X628821Y121905D01*
X629197Y121512D01*
X629515Y121134D01*
X629792Y120752D01*
X630029Y120366D01*
X630228Y119976D01*
X630389Y119582D01*
X630513Y119183D01*
X630602Y118776D01*
X630655Y118361D01*
X630666Y118105D01*
Y116634D01*
X630759Y116166D01*
X631025Y115769D01*
X634603Y112190D01*
Y79847D01*
X634467Y79791D01*
X633792Y79115D01*
X633427Y78233D01*
Y77279D01*
X633792Y76396D01*
X634467Y75721D01*
X635349Y75356D01*
X636304D01*
X637186Y75721D01*
X637861Y76396D01*
X638227Y77279D01*
Y78233D01*
X637861Y79115D01*
X637186Y79791D01*
X637050Y79847D01*
Y112697D01*
X636957Y113165D01*
X636692Y113562D01*
X633113Y117141D01*
Y118105D01*
X633124Y118361D01*
X633178Y118776D01*
X633266Y119183D01*
X633391Y119582D01*
X633552Y119976D01*
X633751Y120366D01*
X633988Y120751D01*
X634265Y121134D01*
X634582Y121512D01*
X634959Y121905D01*
X634997Y121965D01*
X635365Y122333D01*
X635937Y123324D01*
X636233Y124428D01*
Y125572D01*
X635937Y126676D01*
X635365Y127667D01*
X634557Y128475D01*
X633566Y129047D01*
X632462Y129343D01*
D02*
G37*
G36*
X724417Y75884D02*
Y73827D01*
X726475D01*
X726340Y74330D01*
X725998Y74923D01*
X725514Y75407D01*
X724921Y75750D01*
X724417Y75884D01*
D02*
G37*
G36*
X723417D02*
X722914Y75750D01*
X722321Y75407D01*
X721837Y74923D01*
X721494Y74330D01*
X721360Y73827D01*
X723417D01*
Y75884D01*
D02*
G37*
G36*
X540854Y73916D02*
Y71858D01*
X542912D01*
X542777Y72362D01*
X542435Y72955D01*
X541951Y73439D01*
X541358Y73781D01*
X540854Y73916D01*
D02*
G37*
G36*
X539854D02*
X539351Y73781D01*
X538758Y73439D01*
X538274Y72955D01*
X537931Y72362D01*
X537797Y71858D01*
X539854D01*
Y73916D01*
D02*
G37*
G36*
X642462Y129343D02*
X641318D01*
X640213Y129047D01*
X639223Y128475D01*
X638414Y127667D01*
X637843Y126676D01*
X637546Y125572D01*
Y124428D01*
X637843Y123324D01*
X638414Y122333D01*
X638783Y121965D01*
X638821Y121905D01*
X639197Y121512D01*
X639515Y121134D01*
X639792Y120752D01*
X640029Y120366D01*
X640228Y119976D01*
X640389Y119582D01*
X640513Y119183D01*
X640602Y118776D01*
X640656Y118361D01*
X640666Y118105D01*
Y71105D01*
X619217D01*
X619161Y71241D01*
X618485Y71917D01*
X617603Y72282D01*
X616649D01*
X615766Y71917D01*
X615091Y71241D01*
X614726Y70359D01*
Y69405D01*
X615091Y68522D01*
X615766Y67847D01*
X615903Y67791D01*
Y18331D01*
X615766Y18275D01*
X615091Y17600D01*
X614726Y16717D01*
Y15763D01*
X615091Y14881D01*
X615766Y14206D01*
X616649Y13840D01*
X617603D01*
X618485Y14206D01*
X619161Y14881D01*
X619526Y15763D01*
Y16717D01*
X619161Y17600D01*
X618485Y18275D01*
X618350Y18331D01*
Y67791D01*
X618485Y67847D01*
X619161Y68522D01*
X619217Y68658D01*
X641421D01*
X641889Y68752D01*
X642286Y69017D01*
X642755Y69485D01*
X643020Y69882D01*
X643113Y70350D01*
Y118105D01*
X643124Y118361D01*
X643178Y118776D01*
X643266Y119183D01*
X643391Y119582D01*
X643552Y119976D01*
X643751Y120366D01*
X643988Y120751D01*
X644265Y121134D01*
X644582Y121512D01*
X644959Y121905D01*
X644997Y121965D01*
X645365Y122333D01*
X645937Y123324D01*
X646233Y124428D01*
Y125572D01*
X645937Y126676D01*
X645365Y127667D01*
X644557Y128475D01*
X643566Y129047D01*
X642462Y129343D01*
D02*
G37*
G36*
X726475Y72827D02*
X724417D01*
Y70769D01*
X724921Y70904D01*
X725514Y71246D01*
X725998Y71730D01*
X726340Y72323D01*
X726475Y72827D01*
D02*
G37*
G36*
X723417D02*
X721360D01*
X721494Y72323D01*
X721837Y71730D01*
X722321Y71246D01*
X722914Y70904D01*
X723417Y70769D01*
Y72827D01*
D02*
G37*
G36*
X542912Y70858D02*
X540854D01*
Y68800D01*
X541358Y68936D01*
X541951Y69278D01*
X542435Y69762D01*
X542777Y70355D01*
X542912Y70858D01*
D02*
G37*
G36*
X539854D02*
X537797D01*
X537931Y70355D01*
X538274Y69762D01*
X538758Y69278D01*
X539351Y68936D01*
X539854Y68800D01*
Y70858D01*
D02*
G37*
G36*
X715536Y116573D02*
X714582D01*
X713700Y116208D01*
X713024Y115533D01*
X712659Y114651D01*
Y113696D01*
X713024Y112814D01*
X713700Y112139D01*
X713835Y112082D01*
Y68153D01*
X700910D01*
X700853Y68289D01*
X700178Y68964D01*
X699296Y69329D01*
X698342D01*
X697459Y68964D01*
X696784Y68289D01*
X696419Y67406D01*
Y66452D01*
X696784Y65570D01*
X697459Y64894D01*
X698342Y64529D01*
X699296D01*
X700178Y64894D01*
X700853Y65570D01*
X700910Y65706D01*
X718757D01*
Y60162D01*
X718621Y60106D01*
X717946Y59430D01*
X717580Y58548D01*
Y57594D01*
X717946Y56711D01*
X718621Y56036D01*
X719503Y55671D01*
X720458D01*
X721340Y56036D01*
X722015Y56711D01*
X722380Y57594D01*
Y58548D01*
X722015Y59430D01*
X721340Y60106D01*
X721204Y60162D01*
Y65429D01*
X721704Y65563D01*
X721837Y65333D01*
X722321Y64849D01*
X722914Y64506D01*
X723417Y64371D01*
Y66929D01*
Y69487D01*
X722914Y69352D01*
X722321Y69010D01*
X721837Y68526D01*
X721494Y67933D01*
X721454Y67783D01*
X720913Y67694D01*
X720846Y67794D01*
X720448Y68059D01*
X719980Y68153D01*
X716283D01*
Y112082D01*
X716419Y112139D01*
X717094Y112814D01*
X717459Y113696D01*
Y114651D01*
X717094Y115533D01*
X716419Y116208D01*
X715536Y116573D01*
D02*
G37*
G36*
X724417Y69487D02*
Y67429D01*
X726475D01*
X726340Y67933D01*
X725998Y68526D01*
X725514Y69010D01*
X724921Y69352D01*
X724417Y69487D01*
D02*
G37*
G36*
X726475Y66429D02*
X724417D01*
Y64371D01*
X724921Y64506D01*
X725514Y64849D01*
X725998Y65333D01*
X726340Y65926D01*
X726475Y66429D01*
D02*
G37*
G36*
X673236Y63581D02*
Y61524D01*
X675294D01*
X675159Y62027D01*
X674817Y62620D01*
X674333Y63104D01*
X673740Y63446D01*
X673236Y63581D01*
D02*
G37*
G36*
X672236D02*
X671733Y63446D01*
X671140Y63104D01*
X670656Y62620D01*
X670313Y62027D01*
X670179Y61524D01*
X672236D01*
Y63581D01*
D02*
G37*
G36*
X675294Y60524D02*
X673236D01*
Y58466D01*
X673740Y58601D01*
X674333Y58943D01*
X674817Y59427D01*
X675159Y60020D01*
X675294Y60524D01*
D02*
G37*
G36*
X672236D02*
X670179D01*
X670313Y60020D01*
X670656Y59427D01*
X671140Y58943D01*
X671733Y58601D01*
X672236Y58466D01*
Y60524D01*
D02*
G37*
G36*
X572843Y52755D02*
Y50697D01*
X574900D01*
X574765Y51200D01*
X574423Y51793D01*
X573939Y52277D01*
X573346Y52620D01*
X572843Y52755D01*
D02*
G37*
G36*
X571842D02*
X571339Y52620D01*
X570746Y52277D01*
X570262Y51793D01*
X569920Y51200D01*
X569785Y50697D01*
X571842D01*
Y52755D01*
D02*
G37*
G36*
X574900Y49697D02*
X572843D01*
Y47639D01*
X573346Y47774D01*
X573939Y48116D01*
X574423Y48600D01*
X574765Y49193D01*
X574900Y49697D01*
D02*
G37*
G36*
X571842D02*
X569785D01*
X569920Y49193D01*
X570262Y48600D01*
X570746Y48116D01*
X571339Y47774D01*
X571842Y47639D01*
Y49697D01*
D02*
G37*
G36*
X635320Y53581D02*
X634365D01*
X633483Y53216D01*
X632808Y52541D01*
X632443Y51658D01*
Y50704D01*
X632808Y49822D01*
X633483Y49147D01*
X634365Y48781D01*
X635320D01*
X635405Y48816D01*
X635910Y48311D01*
X636323Y48035D01*
X636811Y47938D01*
X696749D01*
X696784Y47853D01*
X697459Y47178D01*
X698342Y46813D01*
X699296D01*
X700178Y47178D01*
X700853Y47853D01*
X701219Y48735D01*
Y49690D01*
X700853Y50572D01*
X700178Y51247D01*
X699296Y51613D01*
X698342D01*
X697459Y51247D01*
X696784Y50572D01*
X696749Y50487D01*
X637694D01*
X637243Y50704D01*
Y51658D01*
X636877Y52541D01*
X636202Y53216D01*
X635320Y53581D01*
D02*
G37*
G36*
X699811Y42443D02*
Y40386D01*
X701869D01*
X701734Y40889D01*
X701392Y41482D01*
X700908Y41966D01*
X700315Y42309D01*
X699811Y42443D01*
D02*
G37*
G36*
X698811D02*
X698308Y42309D01*
X697715Y41966D01*
X697230Y41482D01*
X696888Y40889D01*
X696753Y40386D01*
X698811D01*
Y42443D01*
D02*
G37*
G36*
X701869Y39386D02*
X699811D01*
Y37328D01*
X700315Y37463D01*
X700908Y37805D01*
X701392Y38289D01*
X701734Y38882D01*
X701869Y39386D01*
D02*
G37*
G36*
X698811D02*
X696753D01*
X696888Y38882D01*
X697230Y38289D01*
X697715Y37805D01*
X698308Y37463D01*
X698811Y37328D01*
Y39386D01*
D02*
G37*
G36*
X610736Y29625D02*
Y27567D01*
X612794D01*
X612659Y28071D01*
X612317Y28663D01*
X611833Y29147D01*
X611240Y29490D01*
X610736Y29625D01*
D02*
G37*
G36*
X609736D02*
X609233Y29490D01*
X608640Y29147D01*
X608156Y28663D01*
X607813Y28071D01*
X607679Y27567D01*
X609736D01*
Y29625D01*
D02*
G37*
G36*
X570382Y28148D02*
Y26091D01*
X572440D01*
X572305Y26594D01*
X571962Y27187D01*
X571478Y27671D01*
X570886Y28013D01*
X570382Y28148D01*
D02*
G37*
G36*
X569382D02*
X568878Y28013D01*
X568286Y27671D01*
X567801Y27187D01*
X567459Y26594D01*
X567324Y26091D01*
X569382D01*
Y28148D01*
D02*
G37*
G36*
X558079D02*
Y26091D01*
X560137D01*
X560002Y26594D01*
X559659Y27187D01*
X559175Y27671D01*
X558582Y28013D01*
X558079Y28148D01*
D02*
G37*
G36*
X557079D02*
X556575Y28013D01*
X555982Y27671D01*
X555498Y27187D01*
X555156Y26594D01*
X555021Y26091D01*
X557079D01*
Y28148D01*
D02*
G37*
G36*
X612794Y26567D02*
X610736D01*
Y24509D01*
X611240Y24644D01*
X611833Y24986D01*
X612317Y25471D01*
X612659Y26063D01*
X612794Y26567D01*
D02*
G37*
G36*
X609736D02*
X607679D01*
X607813Y26063D01*
X608156Y25471D01*
X608640Y24986D01*
X609233Y24644D01*
X609736Y24509D01*
Y26567D01*
D02*
G37*
G36*
X572440Y25091D02*
X570382D01*
Y23033D01*
X570886Y23168D01*
X571478Y23510D01*
X571962Y23994D01*
X572305Y24587D01*
X572440Y25091D01*
D02*
G37*
G36*
X569382D02*
X567324D01*
X567459Y24587D01*
X567801Y23994D01*
X568286Y23510D01*
X568878Y23168D01*
X569382Y23033D01*
Y25091D01*
D02*
G37*
G36*
X560137D02*
X558079D01*
Y23033D01*
X558582Y23168D01*
X559175Y23510D01*
X559659Y23994D01*
X560002Y24587D01*
X560137Y25091D01*
D02*
G37*
G36*
X557079D02*
X555021D01*
X555156Y24587D01*
X555498Y23994D01*
X555982Y23510D01*
X556575Y23168D01*
X557079Y23033D01*
Y25091D01*
D02*
G37*
G36*
X475894Y20766D02*
Y18709D01*
X477951D01*
X477816Y19212D01*
X477474Y19805D01*
X476990Y20289D01*
X476397Y20631D01*
X475894Y20766D01*
D02*
G37*
G36*
X474894D02*
X474390Y20631D01*
X473797Y20289D01*
X473313Y19805D01*
X472971Y19212D01*
X472836Y18709D01*
X474894D01*
Y20766D01*
D02*
G37*
G36*
X637311Y20274D02*
Y18216D01*
X639369D01*
X639234Y18720D01*
X638892Y19313D01*
X638408Y19797D01*
X637815Y20139D01*
X637311Y20274D01*
D02*
G37*
G36*
X636311D02*
X635808Y20139D01*
X635215Y19797D01*
X634730Y19313D01*
X634388Y18720D01*
X634253Y18216D01*
X636311D01*
Y20274D01*
D02*
G37*
G36*
X477951Y17709D02*
X475894D01*
Y15651D01*
X476397Y15786D01*
X476990Y16128D01*
X477474Y16612D01*
X477816Y17205D01*
X477951Y17709D01*
D02*
G37*
G36*
X474894D02*
X472836D01*
X472971Y17205D01*
X473313Y16612D01*
X473797Y16128D01*
X474390Y15786D01*
X474894Y15651D01*
Y17709D01*
D02*
G37*
G36*
X639369Y17217D02*
X637311D01*
Y15159D01*
X637815Y15294D01*
X638408Y15636D01*
X638892Y16120D01*
X639234Y16713D01*
X639369Y17217D01*
D02*
G37*
G36*
X636311D02*
X634253D01*
X634388Y16713D01*
X634730Y16120D01*
X635215Y15636D01*
X635808Y15294D01*
X636311Y15159D01*
Y17217D01*
D02*
G37*
%LPD*%
G36*
X633975Y122057D02*
X633621Y121636D01*
X633309Y121205D01*
X633039Y120765D01*
X632810Y120317D01*
X632623Y119859D01*
X632477Y119392D01*
X632373Y118916D01*
X632311Y118430D01*
X632290Y117936D01*
X631490D01*
X631469Y118430D01*
X631407Y118916D01*
X631302Y119392D01*
X631157Y119859D01*
X630970Y120317D01*
X630741Y120765D01*
X630470Y121205D01*
X630158Y121636D01*
X629805Y122057D01*
X629410Y122470D01*
X634370D01*
X633975Y122057D01*
D02*
G37*
G36*
X643975D02*
X643621Y121636D01*
X643309Y121205D01*
X643039Y120765D01*
X642810Y120317D01*
X642623Y119859D01*
X642477Y119392D01*
X642373Y118916D01*
X642311Y118430D01*
X642290Y117936D01*
X641490D01*
X641469Y118430D01*
X641407Y118916D01*
X641302Y119392D01*
X641157Y119859D01*
X640970Y120317D01*
X640741Y120765D01*
X640470Y121205D01*
X640158Y121636D01*
X639805Y122057D01*
X639409Y122470D01*
X644370D01*
X643975Y122057D01*
D02*
G37*
%LPC*%
G36*
X206209Y118700D02*
Y116642D01*
X208266D01*
X208132Y117145D01*
X207789Y117738D01*
X207305Y118222D01*
X206712Y118565D01*
X206209Y118700D01*
D02*
G37*
G36*
X205209D02*
X204705Y118565D01*
X204112Y118222D01*
X203628Y117738D01*
X203286Y117145D01*
X203151Y116642D01*
X205209D01*
Y118700D01*
D02*
G37*
G36*
X367626Y118207D02*
Y116150D01*
X369684D01*
X369549Y116653D01*
X369207Y117246D01*
X368722Y117730D01*
X368129Y118072D01*
X367626Y118207D01*
D02*
G37*
G36*
X366626D02*
X366122Y118072D01*
X365529Y117730D01*
X365045Y117246D01*
X364703Y116653D01*
X364568Y116150D01*
X366626D01*
Y118207D01*
D02*
G37*
G36*
X208266Y115642D02*
X206209D01*
Y113584D01*
X206712Y113719D01*
X207305Y114061D01*
X207789Y114545D01*
X208132Y115138D01*
X208266Y115642D01*
D02*
G37*
G36*
X205209D02*
X203151D01*
X203286Y115138D01*
X203628Y114545D01*
X204112Y114061D01*
X204705Y113719D01*
X205209Y113584D01*
Y115642D01*
D02*
G37*
G36*
X369684Y115150D02*
X367626D01*
Y113092D01*
X368129Y113227D01*
X368722Y113569D01*
X369207Y114053D01*
X369549Y114646D01*
X369684Y115150D01*
D02*
G37*
G36*
X366626D02*
X364568D01*
X364703Y114646D01*
X365045Y114053D01*
X365529Y113569D01*
X366122Y113227D01*
X366626Y113092D01*
Y115150D01*
D02*
G37*
G36*
X285441Y110826D02*
Y108768D01*
X287499D01*
X287364Y109271D01*
X287021Y109864D01*
X286537Y110348D01*
X285945Y110690D01*
X285441Y110826D01*
D02*
G37*
G36*
X284441D02*
X283937Y110690D01*
X283345Y110348D01*
X282860Y109864D01*
X282518Y109271D01*
X282383Y108768D01*
X284441D01*
Y110826D01*
D02*
G37*
G36*
X273138D02*
Y108768D01*
X275196D01*
X275061Y109271D01*
X274718Y109864D01*
X274234Y110348D01*
X273641Y110690D01*
X273138Y110826D01*
D02*
G37*
G36*
X272138D02*
X271634Y110690D01*
X271041Y110348D01*
X270557Y109864D01*
X270215Y109271D01*
X270080Y108768D01*
X272138D01*
Y110826D01*
D02*
G37*
G36*
X232784Y109349D02*
Y107291D01*
X234841D01*
X234706Y107795D01*
X234364Y108388D01*
X233880Y108872D01*
X233287Y109214D01*
X232784Y109349D01*
D02*
G37*
G36*
X231784D02*
X231280Y109214D01*
X230687Y108872D01*
X230203Y108388D01*
X229861Y107795D01*
X229726Y107291D01*
X231784D01*
Y109349D01*
D02*
G37*
G36*
X287499Y107768D02*
X285441D01*
Y105710D01*
X285945Y105845D01*
X286537Y106187D01*
X287021Y106671D01*
X287364Y107264D01*
X287499Y107768D01*
D02*
G37*
G36*
X284441D02*
X282383D01*
X282518Y107264D01*
X282860Y106671D01*
X283345Y106187D01*
X283937Y105845D01*
X284441Y105710D01*
Y107768D01*
D02*
G37*
G36*
X275196D02*
X273138D01*
Y105710D01*
X273641Y105845D01*
X274234Y106187D01*
X274718Y106671D01*
X275061Y107264D01*
X275196Y107768D01*
D02*
G37*
G36*
X272138D02*
X270080D01*
X270215Y107264D01*
X270557Y106671D01*
X271041Y106187D01*
X271634Y105845D01*
X272138Y105710D01*
Y107768D01*
D02*
G37*
G36*
X234841Y106291D02*
X232784D01*
Y104234D01*
X233287Y104368D01*
X233880Y104711D01*
X234364Y105195D01*
X234706Y105788D01*
X234841Y106291D01*
D02*
G37*
G36*
X231784D02*
X229726D01*
X229861Y105788D01*
X230203Y105195D01*
X230687Y104711D01*
X231280Y104368D01*
X231784Y104234D01*
Y106291D01*
D02*
G37*
G36*
X143709Y96530D02*
Y94473D01*
X145766D01*
X145632Y94976D01*
X145289Y95569D01*
X144805Y96053D01*
X144212Y96395D01*
X143709Y96530D01*
D02*
G37*
G36*
X142709D02*
X142205Y96395D01*
X141612Y96053D01*
X141128Y95569D01*
X140786Y94976D01*
X140651Y94473D01*
X142709D01*
Y96530D01*
D02*
G37*
G36*
X145766Y93473D02*
X143709D01*
Y91415D01*
X144212Y91550D01*
X144805Y91892D01*
X145289Y92376D01*
X145632Y92969D01*
X145766Y93473D01*
D02*
G37*
G36*
X142709D02*
X140651D01*
X140786Y92969D01*
X141128Y92376D01*
X141612Y91892D01*
X142205Y91550D01*
X142709Y91415D01*
Y93473D01*
D02*
G37*
G36*
X270677Y86219D02*
Y84161D01*
X272735D01*
X272600Y84665D01*
X272258Y85258D01*
X271774Y85742D01*
X271181Y86084D01*
X270677Y86219D01*
D02*
G37*
G36*
X269677D02*
X269174Y86084D01*
X268581Y85742D01*
X268097Y85258D01*
X267754Y84665D01*
X267619Y84161D01*
X269677D01*
Y86219D01*
D02*
G37*
G36*
X272735Y83161D02*
X270677D01*
Y81104D01*
X271181Y81239D01*
X271774Y81581D01*
X272258Y82065D01*
X272600Y82658D01*
X272735Y83161D01*
D02*
G37*
G36*
X269677D02*
X267619D01*
X267754Y82658D01*
X268097Y82065D01*
X268581Y81581D01*
X269174Y81239D01*
X269677Y81104D01*
Y83161D01*
D02*
G37*
G36*
X144178Y87046D02*
X143223D01*
X142341Y86680D01*
X141666Y86005D01*
X141301Y85123D01*
Y84168D01*
X141666Y83286D01*
X142341Y82611D01*
X143223Y82246D01*
X144178D01*
X145060Y82611D01*
X145735Y83286D01*
X145771Y83371D01*
X204826D01*
X205277Y83154D01*
Y82200D01*
X205643Y81318D01*
X206318Y80643D01*
X207200Y80277D01*
X208155D01*
X209037Y80643D01*
X209712Y81318D01*
X210077Y82200D01*
Y83155D01*
X209712Y84037D01*
X209037Y84712D01*
X208155Y85077D01*
X207200D01*
X207115Y85042D01*
X206610Y85547D01*
X206196Y85823D01*
X205709Y85920D01*
X145771D01*
X145735Y86005D01*
X145060Y86680D01*
X144178Y87046D01*
D02*
G37*
G36*
X170283Y75392D02*
Y73335D01*
X172341D01*
X172206Y73838D01*
X171864Y74431D01*
X171380Y74915D01*
X170787Y75257D01*
X170283Y75392D01*
D02*
G37*
G36*
X169283D02*
X168780Y75257D01*
X168187Y74915D01*
X167703Y74431D01*
X167361Y73838D01*
X167226Y73335D01*
X169283D01*
Y75392D01*
D02*
G37*
G36*
X172341Y72335D02*
X170283D01*
Y70277D01*
X170787Y70412D01*
X171380Y70754D01*
X171864Y71238D01*
X172206Y71831D01*
X172341Y72335D01*
D02*
G37*
G36*
X169283D02*
X167226D01*
X167361Y71831D01*
X167703Y71238D01*
X168187Y70754D01*
X168780Y70412D01*
X169283Y70277D01*
Y72335D01*
D02*
G37*
G36*
X123017Y78187D02*
X122062D01*
X121180Y77822D01*
X120505Y77147D01*
X120139Y76265D01*
Y75310D01*
X120505Y74428D01*
X121180Y73753D01*
X121316Y73697D01*
Y68429D01*
X120816Y68295D01*
X120683Y68526D01*
X120199Y69010D01*
X119606Y69352D01*
X119102Y69487D01*
Y66929D01*
Y64371D01*
X119606Y64506D01*
X120199Y64849D01*
X120683Y65333D01*
X121025Y65926D01*
X121065Y66075D01*
X121607Y66165D01*
X121674Y66064D01*
X122071Y65799D01*
X122539Y65706D01*
X126237D01*
Y21776D01*
X126101Y21720D01*
X125426Y21045D01*
X125061Y20162D01*
Y19208D01*
X125426Y18326D01*
X126101Y17650D01*
X126983Y17285D01*
X127938D01*
X128820Y17650D01*
X129495Y18326D01*
X129861Y19208D01*
Y20162D01*
X129495Y21045D01*
X128820Y21720D01*
X128684Y21776D01*
Y65706D01*
X141610D01*
X141666Y65570D01*
X142341Y64894D01*
X143223Y64529D01*
X144178D01*
X145060Y64894D01*
X145735Y65570D01*
X146101Y66452D01*
Y67406D01*
X145735Y68289D01*
X145060Y68964D01*
X144178Y69329D01*
X143223D01*
X142341Y68964D01*
X141666Y68289D01*
X141610Y68153D01*
X123763D01*
Y73697D01*
X123899Y73753D01*
X124574Y74428D01*
X124939Y75310D01*
Y76265D01*
X124574Y77147D01*
X123899Y77822D01*
X123017Y78187D01*
D02*
G37*
G36*
X118102Y69487D02*
X117599Y69352D01*
X117006Y69010D01*
X116522Y68526D01*
X116180Y67933D01*
X116045Y67429D01*
X118102D01*
Y69487D01*
D02*
G37*
G36*
Y66429D02*
X116045D01*
X116180Y65926D01*
X116522Y65333D01*
X117006Y64849D01*
X117599Y64506D01*
X118102Y64371D01*
Y66429D01*
D02*
G37*
G36*
X302665Y65058D02*
Y63000D01*
X304723D01*
X304588Y63504D01*
X304246Y64096D01*
X303762Y64581D01*
X303169Y64923D01*
X302665Y65058D01*
D02*
G37*
G36*
X301665D02*
X301162Y64923D01*
X300569Y64581D01*
X300085Y64096D01*
X299743Y63504D01*
X299608Y63000D01*
X301665D01*
Y65058D01*
D02*
G37*
G36*
X225871Y120018D02*
X224916D01*
X224034Y119653D01*
X223359Y118978D01*
X222994Y118096D01*
Y117141D01*
X223359Y116259D01*
X224034Y115584D01*
X224170Y115527D01*
Y66067D01*
X224034Y66011D01*
X223359Y65336D01*
X223303Y65200D01*
X201099D01*
X200630Y65107D01*
X200233Y64842D01*
X199765Y64373D01*
X199499Y63976D01*
X199406Y63508D01*
Y15753D01*
X199396Y15497D01*
X199342Y15082D01*
X199253Y14675D01*
X199129Y14276D01*
X198968Y13882D01*
X198769Y13492D01*
X198532Y13107D01*
X198255Y12725D01*
X197937Y12346D01*
X197561Y11953D01*
X197523Y11893D01*
X197154Y11525D01*
X196583Y10535D01*
X196287Y9430D01*
Y8286D01*
X196583Y7182D01*
X197154Y6191D01*
X197963Y5383D01*
X198953Y4811D01*
X200058Y4515D01*
X201202D01*
X202306Y4811D01*
X203297Y5383D01*
X204105Y6191D01*
X204677Y7182D01*
X204973Y8286D01*
Y9430D01*
X204677Y10535D01*
X204105Y11525D01*
X203737Y11893D01*
X203699Y11953D01*
X203323Y12346D01*
X203005Y12725D01*
X202728Y13107D01*
X202491Y13492D01*
X202292Y13882D01*
X202131Y14276D01*
X202006Y14675D01*
X201918Y15082D01*
X201864Y15497D01*
X201853Y15753D01*
Y62753D01*
X223303D01*
X223359Y62617D01*
X224034Y61942D01*
X224916Y61576D01*
X225871D01*
X226753Y61942D01*
X227428Y62617D01*
X227794Y63499D01*
Y64454D01*
X227428Y65336D01*
X226753Y66011D01*
X226617Y66067D01*
Y115527D01*
X226753Y115584D01*
X227428Y116259D01*
X227794Y117141D01*
Y118096D01*
X227428Y118978D01*
X226753Y119653D01*
X225871Y120018D01*
D02*
G37*
G36*
X119102Y63089D02*
Y61032D01*
X121160D01*
X121025Y61535D01*
X120683Y62128D01*
X120199Y62612D01*
X119606Y62954D01*
X119102Y63089D01*
D02*
G37*
G36*
X118102D02*
X117599Y62954D01*
X117006Y62612D01*
X116522Y62128D01*
X116180Y61535D01*
X116045Y61032D01*
X118102D01*
Y63089D01*
D02*
G37*
G36*
X304723Y62000D02*
X302665D01*
Y59942D01*
X303169Y60077D01*
X303762Y60419D01*
X304246Y60904D01*
X304588Y61496D01*
X304723Y62000D01*
D02*
G37*
G36*
X301665D02*
X299608D01*
X299743Y61496D01*
X300085Y60904D01*
X300569Y60419D01*
X301162Y60077D01*
X301665Y59942D01*
Y62000D01*
D02*
G37*
G36*
X121160Y60031D02*
X119102D01*
Y57974D01*
X119606Y58109D01*
X120199Y58451D01*
X120683Y58935D01*
X121025Y59528D01*
X121160Y60031D01*
D02*
G37*
G36*
X118102D02*
X116045D01*
X116180Y59528D01*
X116522Y58935D01*
X117006Y58451D01*
X117599Y58109D01*
X118102Y57974D01*
Y60031D01*
D02*
G37*
G36*
X119102Y56692D02*
Y54634D01*
X121160D01*
X121025Y55137D01*
X120683Y55730D01*
X120199Y56214D01*
X119606Y56557D01*
X119102Y56692D01*
D02*
G37*
G36*
X118102D02*
X117599Y56557D01*
X117006Y56214D01*
X116522Y55730D01*
X116180Y55137D01*
X116045Y54634D01*
X118102D01*
Y56692D01*
D02*
G37*
G36*
X121160Y53634D02*
X119102D01*
Y51576D01*
X119606Y51711D01*
X120199Y52053D01*
X120683Y52537D01*
X121025Y53130D01*
X121160Y53634D01*
D02*
G37*
G36*
X118102D02*
X116045D01*
X116180Y53130D01*
X116522Y52537D01*
X117006Y52053D01*
X117599Y51711D01*
X118102Y51576D01*
Y53634D01*
D02*
G37*
G36*
X252961Y45865D02*
Y43807D01*
X255018D01*
X254883Y44311D01*
X254541Y44903D01*
X254057Y45388D01*
X253464Y45730D01*
X252961Y45865D01*
D02*
G37*
G36*
X251961D02*
X251457Y45730D01*
X250864Y45388D01*
X250380Y44903D01*
X250038Y44311D01*
X249903Y43807D01*
X251961D01*
Y45865D01*
D02*
G37*
G36*
X255018Y42807D02*
X252961D01*
Y40749D01*
X253464Y40884D01*
X254057Y41227D01*
X254541Y41711D01*
X254883Y42303D01*
X255018Y42807D01*
D02*
G37*
G36*
X251961D02*
X249903D01*
X250038Y42303D01*
X250380Y41711D01*
X250864Y41227D01*
X251457Y40884D01*
X251961Y40749D01*
Y42807D01*
D02*
G37*
G36*
X188000Y39959D02*
Y37902D01*
X190058D01*
X189923Y38405D01*
X189581Y38998D01*
X189096Y39482D01*
X188504Y39824D01*
X188000Y39959D01*
D02*
G37*
G36*
X187000D02*
X186496Y39824D01*
X185904Y39482D01*
X185419Y38998D01*
X185077Y38405D01*
X184942Y37902D01*
X187000D01*
Y39959D01*
D02*
G37*
G36*
X190058Y36902D02*
X188000D01*
Y34844D01*
X188504Y34979D01*
X189096Y35321D01*
X189581Y35805D01*
X189923Y36398D01*
X190058Y36902D01*
D02*
G37*
G36*
X187000D02*
X184942D01*
X185077Y36398D01*
X185419Y35805D01*
X185904Y35321D01*
X186496Y34979D01*
X187000Y34844D01*
Y36902D01*
D02*
G37*
G36*
X327272Y31101D02*
Y29043D01*
X329329D01*
X329194Y29547D01*
X328852Y30140D01*
X328368Y30624D01*
X327775Y30966D01*
X327272Y31101D01*
D02*
G37*
G36*
X326272D02*
X325768Y30966D01*
X325175Y30624D01*
X324691Y30140D01*
X324349Y29547D01*
X324214Y29043D01*
X326272D01*
Y31101D01*
D02*
G37*
G36*
X212591Y29625D02*
X212087Y29490D01*
X211494Y29147D01*
X211010Y28663D01*
X210668Y28071D01*
X210533Y27567D01*
X212591D01*
Y29625D01*
D02*
G37*
G36*
X329329Y28043D02*
X327272D01*
Y25986D01*
X327775Y26120D01*
X328368Y26463D01*
X328852Y26947D01*
X329194Y27540D01*
X329329Y28043D01*
D02*
G37*
G36*
X326272D02*
X324214D01*
X324349Y27540D01*
X324691Y26947D01*
X325175Y26463D01*
X325768Y26120D01*
X326272Y25986D01*
Y28043D01*
D02*
G37*
G36*
X212591Y26567D02*
X210533D01*
X210668Y26063D01*
X211010Y25471D01*
X211494Y24986D01*
X212087Y24644D01*
X212591Y24509D01*
Y26567D01*
D02*
G37*
G36*
X282980Y25196D02*
Y23138D01*
X285038D01*
X284903Y23641D01*
X284561Y24234D01*
X284077Y24718D01*
X283484Y25061D01*
X282980Y25196D01*
D02*
G37*
G36*
X281980D02*
X281477Y25061D01*
X280884Y24718D01*
X280400Y24234D01*
X280058Y23641D01*
X279923Y23138D01*
X281980D01*
Y25196D01*
D02*
G37*
G36*
X134336Y33404D02*
X133381D01*
X132499Y33038D01*
X131824Y32363D01*
X131458Y31481D01*
Y30527D01*
X131824Y29644D01*
X132499Y28969D01*
X132635Y28913D01*
Y24606D01*
X132728Y24138D01*
X132993Y23741D01*
X133949Y22785D01*
X133742Y22285D01*
X133516D01*
X132855Y22108D01*
X132262Y21766D01*
X131778Y21282D01*
X131435Y20689D01*
X131300Y20185D01*
X136416D01*
X136281Y20689D01*
X136151Y20914D01*
X136440Y21414D01*
X167200D01*
X167257Y21278D01*
X167932Y20603D01*
X168814Y20238D01*
X169769D01*
X170651Y20603D01*
X171326Y21278D01*
X171691Y22160D01*
Y23115D01*
X171326Y23997D01*
X170651Y24672D01*
X169769Y25038D01*
X168814D01*
X167932Y24672D01*
X167257Y23997D01*
X167200Y23861D01*
X136334D01*
X135082Y25113D01*
Y28913D01*
X135218Y28969D01*
X135893Y29644D01*
X136258Y30527D01*
Y31481D01*
X135893Y32363D01*
X135218Y33038D01*
X134336Y33404D01*
D02*
G37*
G36*
X285038Y22138D02*
X282980D01*
Y20080D01*
X283484Y20215D01*
X284077Y20557D01*
X284561Y21041D01*
X284903Y21634D01*
X285038Y22138D01*
D02*
G37*
G36*
X281980D02*
X279923D01*
X280058Y21634D01*
X280400Y21041D01*
X280884Y20557D01*
X281477Y20215D01*
X281980Y20080D01*
Y22138D01*
D02*
G37*
G36*
X136416Y19185D02*
X134358D01*
Y17127D01*
X134862Y17262D01*
X135455Y17605D01*
X135939Y18089D01*
X136281Y18681D01*
X136416Y19185D01*
D02*
G37*
G36*
X133358D02*
X131300D01*
X131435Y18681D01*
X131778Y18089D01*
X132262Y17605D01*
X132855Y17262D01*
X133358Y17127D01*
Y19185D01*
D02*
G37*
G36*
X231228Y13402D02*
X231130D01*
Y9358D01*
X235173D01*
Y9456D01*
X234864Y10612D01*
X234265Y11648D01*
X233420Y12494D01*
X232384Y13092D01*
X231228Y13402D01*
D02*
G37*
G36*
X230130D02*
X230032D01*
X228876Y13092D01*
X227840Y12494D01*
X226994Y11648D01*
X226396Y10612D01*
X226087Y9456D01*
Y9358D01*
X230130D01*
Y13402D01*
D02*
G37*
G36*
X221202Y13202D02*
X220058D01*
X218953Y12906D01*
X217963Y12334D01*
X217154Y11525D01*
X216583Y10535D01*
X216287Y9430D01*
Y8286D01*
X216583Y7182D01*
X217154Y6191D01*
X217963Y5383D01*
X218953Y4811D01*
X220058Y4515D01*
X221202D01*
X222306Y4811D01*
X223297Y5383D01*
X224105Y6191D01*
X224677Y7182D01*
X224973Y8286D01*
Y9430D01*
X224677Y10535D01*
X224105Y11525D01*
X223297Y12334D01*
X222306Y12906D01*
X221202Y13202D01*
D02*
G37*
G36*
X207170Y58502D02*
X206216D01*
X205333Y58137D01*
X204658Y57462D01*
X204293Y56580D01*
Y55625D01*
X204658Y54743D01*
X205333Y54068D01*
X205469Y54011D01*
Y21161D01*
X205562Y20693D01*
X205828Y20296D01*
X209406Y16718D01*
Y15753D01*
X209396Y15497D01*
X209342Y15082D01*
X209253Y14675D01*
X209129Y14276D01*
X208968Y13882D01*
X208769Y13492D01*
X208532Y13107D01*
X208255Y12725D01*
X207937Y12346D01*
X207561Y11953D01*
X207523Y11893D01*
X207154Y11525D01*
X206583Y10535D01*
X206287Y9430D01*
Y8286D01*
X206583Y7182D01*
X207154Y6191D01*
X207963Y5383D01*
X208953Y4811D01*
X210058Y4515D01*
X211202D01*
X212306Y4811D01*
X213297Y5383D01*
X214105Y6191D01*
X214677Y7182D01*
X214973Y8286D01*
Y9430D01*
X214677Y10535D01*
X214105Y11525D01*
X213737Y11893D01*
X213699Y11953D01*
X213322Y12346D01*
X213005Y12725D01*
X212728Y13107D01*
X212491Y13492D01*
X212292Y13882D01*
X212131Y14276D01*
X212006Y14675D01*
X211918Y15082D01*
X211864Y15497D01*
X211853Y15753D01*
Y17224D01*
X211760Y17693D01*
X211495Y18090D01*
X207916Y21668D01*
Y54011D01*
X208052Y54068D01*
X208728Y54743D01*
X209093Y55625D01*
Y56580D01*
X208728Y57462D01*
X208052Y58137D01*
X207170Y58502D01*
D02*
G37*
G36*
X175197Y52037D02*
X148622D01*
X147891Y51941D01*
X147210Y51658D01*
X146625Y51210D01*
X146176Y50625D01*
X145894Y49944D01*
X145798Y49213D01*
X145894Y48482D01*
X146176Y47800D01*
X146625Y47216D01*
X147210Y46767D01*
X147891Y46485D01*
X148622Y46388D01*
X172373D01*
Y8858D01*
X172469Y8127D01*
X172751Y7446D01*
X173200Y6861D01*
X173785Y6413D01*
X174466Y6130D01*
X175197Y6034D01*
X186287D01*
Y4515D01*
X194973D01*
Y13202D01*
X186287D01*
Y11682D01*
X178021D01*
Y49213D01*
X177925Y49944D01*
X177643Y50625D01*
X177194Y51210D01*
X176609Y51658D01*
X175928Y51941D01*
X175197Y52037D01*
D02*
G37*
G36*
X235173Y8358D02*
X231130D01*
Y4315D01*
X231228D01*
X232384Y4625D01*
X233420Y5223D01*
X234265Y6069D01*
X234864Y7105D01*
X235173Y8260D01*
Y8358D01*
D02*
G37*
G36*
X230130D02*
X226087D01*
Y8260D01*
X226396Y7105D01*
X226994Y6069D01*
X227840Y5223D01*
X228876Y4625D01*
X230032Y4315D01*
X230130D01*
Y8358D01*
D02*
G37*
%LPD*%
G36*
X201051Y15428D02*
X201113Y14943D01*
X201217Y14467D01*
X201363Y13999D01*
X201550Y13542D01*
X201779Y13093D01*
X202049Y12653D01*
X202361Y12223D01*
X202715Y11801D01*
X203110Y11389D01*
X198150D01*
X198545Y11801D01*
X198898Y12223D01*
X199211Y12653D01*
X199481Y13093D01*
X199710Y13542D01*
X199897Y13999D01*
X200043Y14467D01*
X200147Y14943D01*
X200209Y15428D01*
X200230Y15922D01*
X201030D01*
X201051Y15428D01*
D02*
G37*
G36*
X211051D02*
X211113Y14943D01*
X211217Y14467D01*
X211363Y13999D01*
X211550Y13542D01*
X211779Y13093D01*
X212049Y12653D01*
X212361Y12223D01*
X212715Y11801D01*
X213110Y11389D01*
X208150D01*
X208545Y11801D01*
X208898Y12223D01*
X209211Y12653D01*
X209481Y13093D01*
X209710Y13542D01*
X209897Y13999D01*
X210043Y14467D01*
X210147Y14943D01*
X210209Y15428D01*
X210230Y15922D01*
X211030D01*
X211051Y15428D01*
D02*
G37*
G54D26*
X641890Y258858D02*
Y204209D01*
X706693Y245079D02*
X673228D01*
X708661Y243110D02*
X706693Y245079D01*
X604331Y261319D02*
X469646D01*
X468661Y262303D02*
X468012D01*
X469646Y261319D02*
X468661Y262303D01*
X601894Y259350D02*
X460630D01*
X602362Y258882D02*
X601894Y259350D01*
X602362Y258882D02*
Y249484D01*
X708661Y243110D02*
Y236713D01*
X628937Y223917D02*
X625984Y226870D01*
Y250676D02*
X625516Y251145D01*
X625984Y250676D02*
Y226870D01*
X625516Y251145D02*
X604799D01*
X625492Y217520D02*
X623524Y219488D01*
Y248547D02*
Y219488D01*
X623055Y249016D02*
X602831D01*
X623524Y248547D02*
X623055Y249016D01*
X635827Y246555D02*
Y211614D01*
X628937Y223917D02*
Y215059D01*
X635827Y246555D02*
X631890Y250492D01*
Y258858D02*
Y250492D01*
X617126Y203740D02*
Y150098D01*
X641890Y204209D02*
X641421Y203740D01*
X617126D01*
X715059Y200787D02*
X698819D01*
X719980D02*
X715059D01*
X719980D02*
Y191929D01*
X602831Y249016D02*
X602362Y249484D01*
X604331Y261319D02*
Y251614D01*
X604799Y251145D02*
X604331Y251614D01*
X715059Y248031D02*
Y200787D01*
X641890Y125000D02*
Y70350D01*
X706693Y111221D02*
X673228D01*
X708661Y109252D02*
X706693Y111221D01*
X604331Y127461D02*
X469646D01*
X468661Y128445D02*
X468012D01*
X469646Y127461D02*
X468661Y128445D01*
X601894Y125492D02*
X460630D01*
X602362Y125023D02*
X601894Y125492D01*
X602362Y125023D02*
Y115626D01*
X708661Y109252D02*
Y102854D01*
X628937Y90059D02*
X625984Y93012D01*
Y116818D02*
X625516Y117287D01*
X625984Y116818D02*
Y93012D01*
X625516Y117287D02*
X604799D01*
X625492Y83661D02*
X623524Y85630D01*
Y114689D02*
Y85630D01*
X623055Y115157D02*
X602831D01*
X623524Y114689D02*
X623055Y115157D01*
X635827Y112697D02*
Y77756D01*
X628937Y90059D02*
Y81201D01*
X635827Y112697D02*
X631890Y116634D01*
Y125000D02*
Y116634D01*
X617126Y69882D02*
Y16240D01*
X641890Y70350D02*
X641421Y69882D01*
X617126D01*
X715059Y66929D02*
X698819D01*
X719980D02*
X715059D01*
X719980D02*
Y58071D01*
X602831Y115157D02*
X602362Y115626D01*
X604331Y127461D02*
Y117755D01*
X604799Y117287D02*
X604331Y117755D01*
X715059Y114173D02*
Y66929D01*
X200630Y8858D02*
Y63508D01*
X135827Y22638D02*
X169291D01*
X133858Y24606D02*
X135827Y22638D01*
X238189Y6398D02*
X372874D01*
X373858Y5413D02*
X374508D01*
X372874Y6398D02*
X373858Y5413D01*
X240626Y8366D02*
X381890D01*
X240158Y8835D02*
X240626Y8366D01*
X240158Y8835D02*
Y18232D01*
X133858Y24606D02*
Y31004D01*
X213583Y43799D02*
X216535Y40846D01*
Y17040D02*
X217004Y16571D01*
X216535Y17040D02*
Y40846D01*
X217004Y16571D02*
X237720D01*
X217028Y50197D02*
X218996Y48228D01*
Y19169D02*
Y48228D01*
X219465Y18701D02*
X239689D01*
X218996Y19169D02*
X219465Y18701D01*
X206693Y21161D02*
Y56102D01*
X213583Y43799D02*
Y52658D01*
X206693Y21161D02*
X210630Y17224D01*
Y8858D02*
Y17224D01*
X225394Y63976D02*
Y117618D01*
X200630Y63508D02*
X201099Y63976D01*
X225394D01*
X127461Y66929D02*
X143701D01*
X122539D02*
X127461D01*
X122539D02*
Y75787D01*
X239689Y18701D02*
X240158Y18232D01*
X238189Y6398D02*
Y16103D01*
X237720Y16571D02*
X238189Y16103D01*
X127461Y19685D02*
Y66929D01*
X200630Y142717D02*
Y197366D01*
X135827Y156496D02*
X169291D01*
X133858Y158465D02*
X135827Y156496D01*
X238189Y140256D02*
X372874D01*
X373858Y139272D02*
X374508D01*
X372874Y140256D02*
X373858Y139272D01*
X240626Y142224D02*
X381890D01*
X240158Y142693D02*
X240626Y142224D01*
X240158Y142693D02*
Y152090D01*
X133858Y158465D02*
Y164862D01*
X213583Y177657D02*
X216535Y174705D01*
Y150898D02*
X217004Y150430D01*
X216535Y150898D02*
Y174705D01*
X217004Y150430D02*
X237720D01*
X217028Y184055D02*
X218996Y182087D01*
Y153028D02*
Y182087D01*
X219465Y152559D02*
X239689D01*
X218996Y153028D02*
X219465Y152559D01*
X206693Y155020D02*
Y189961D01*
X213583Y177657D02*
Y186516D01*
X206693Y155020D02*
X210630Y151083D01*
Y142717D02*
Y151083D01*
X225394Y197835D02*
Y251476D01*
X200630Y197366D02*
X201099Y197835D01*
X225394D01*
X127461Y200787D02*
X143701D01*
X122539D02*
X127461D01*
X122539D02*
Y209646D01*
X239689Y152559D02*
X240158Y152090D01*
X238189Y140256D02*
Y149961D01*
X237720Y150430D02*
X238189Y149961D01*
X127461Y153543D02*
Y200787D01*
G54D27*
X693898Y218504D02*
X667323D01*
Y258858D02*
Y218504D01*
Y258858D02*
X651890D01*
X754921Y192913D02*
X747638D01*
X754921Y231159D02*
Y192913D01*
Y231159D02*
X744095D01*
X693898Y84646D02*
X667323D01*
Y125000D02*
Y84646D01*
Y125000D02*
X651890D01*
X754921Y59055D02*
X747638D01*
X754921Y97301D02*
Y59055D01*
Y97301D02*
X744095D01*
X148622Y49213D02*
X175197D01*
Y8858D02*
Y49213D01*
Y8858D02*
X190630D01*
X87598Y74803D02*
X94882D01*
X87598Y36557D02*
Y74803D01*
Y36557D02*
X98425D01*
X148622Y183071D02*
X175197D01*
Y142717D02*
Y183071D01*
Y142717D02*
X190630D01*
X87598Y208661D02*
X94882D01*
X87598Y170415D02*
Y208661D01*
Y170415D02*
X98425D01*
G54D28*
X636811Y183071D02*
X634842Y185039D01*
X698819Y183071D02*
X636811D01*
Y49213D02*
X634842Y51181D01*
X698819Y49213D02*
X636811D01*
X205709Y84646D02*
X207677Y82677D01*
X143701Y84646D02*
X205709D01*
Y218504D02*
X207677Y216535D01*
X143701Y218504D02*
X205709D01*
G54D35*
X811024Y-12795D02*
D03*
X19685D02*
D03*
G54D36*
X832677Y188976D02*
D03*
Y169291D02*
D03*
Y55118D02*
D03*
Y35433D02*
D03*
X9843Y78740D02*
D03*
Y98425D02*
D03*
Y212598D02*
D03*
Y232283D02*
D03*
G54D37*
X832677Y149606D02*
D03*
Y15748D02*
D03*
X9843Y118110D02*
D03*
Y251969D02*
D03*
G54D38*
X739764Y169291D02*
D03*
X795669Y145669D02*
D03*
Y192913D02*
D03*
X739764Y35433D02*
D03*
X795669Y11811D02*
D03*
Y59055D02*
D03*
X102756Y98425D02*
D03*
X46850Y122047D02*
D03*
Y74803D02*
D03*
X102756Y232283D02*
D03*
X46850Y255906D02*
D03*
Y208661D02*
D03*
G54D39*
X747638Y145669D02*
D03*
Y11811D02*
D03*
X94882Y122047D02*
D03*
Y255906D02*
D03*
G54D40*
X747638Y192913D02*
D03*
Y59055D02*
D03*
X94882Y74803D02*
D03*
Y208661D02*
D03*
G54D41*
X744095Y231159D02*
D03*
Y97301D02*
D03*
X98425Y36557D02*
D03*
Y170415D02*
D03*
G54D42*
X744095Y217659D02*
D03*
Y83801D02*
D03*
X98425Y50057D02*
D03*
Y183915D02*
D03*
G54D43*
X811516Y242323D02*
D03*
Y108465D02*
D03*
X31004Y25394D02*
D03*
Y159252D02*
D03*
G54D44*
X835138Y242323D02*
D03*
Y108465D02*
D03*
X7382Y25394D02*
D03*
Y159252D02*
D03*
G54D45*
X823327Y260827D02*
D03*
Y126969D02*
D03*
X19193Y6890D02*
D03*
Y140748D02*
D03*
G54D46*
X641890Y258858D02*
D03*
X631890D02*
D03*
X621890D02*
D03*
X611890D02*
D03*
X641890Y125000D02*
D03*
X631890D02*
D03*
X621890D02*
D03*
X611890D02*
D03*
X200630Y8858D02*
D03*
X210630D02*
D03*
X220630D02*
D03*
X230630D02*
D03*
X200630Y142717D02*
D03*
X210630D02*
D03*
X220630D02*
D03*
X230630D02*
D03*
G54D47*
X651890Y258858D02*
D03*
Y125000D02*
D03*
X190630Y8858D02*
D03*
Y142717D02*
D03*
G54D48*
X519685Y145669D02*
D03*
X744095Y255906D02*
D03*
X519685Y11811D02*
D03*
X744095Y122047D02*
D03*
X322835D02*
D03*
X98425Y11811D02*
D03*
X322835Y255906D02*
D03*
X98425Y145669D02*
D03*
G54D49*
X723917Y207185D02*
D03*
Y213583D02*
D03*
X540354Y205217D02*
D03*
X610236Y160925D02*
D03*
X629429Y240650D02*
D03*
X708661Y248031D02*
D03*
X468012Y262303D02*
D03*
X475394Y152067D02*
D03*
X572342Y184055D02*
D03*
X673228Y245079D02*
D03*
X693898Y218504D02*
D03*
X636811Y151575D02*
D03*
X590059Y224410D02*
D03*
X635827Y211614D02*
D03*
X617126Y150098D02*
D03*
Y203740D02*
D03*
X655020Y230315D02*
D03*
X557579Y159449D02*
D03*
X569882D02*
D03*
X672736Y194882D02*
D03*
X628937Y215059D02*
D03*
X515748Y239173D02*
D03*
X699311Y173744D02*
D03*
X625492Y217520D02*
D03*
X698819Y183071D02*
D03*
Y200787D02*
D03*
X723917D02*
D03*
X719980Y191929D02*
D03*
X460630Y259350D02*
D03*
X634842Y185039D02*
D03*
X715059Y248031D02*
D03*
X708661Y236713D02*
D03*
X560039Y245079D02*
D03*
X723917Y73327D02*
D03*
Y79724D02*
D03*
X540354Y71358D02*
D03*
X610236Y27067D02*
D03*
X629429Y106791D02*
D03*
X708661Y114173D02*
D03*
X468012Y128445D02*
D03*
X475394Y18209D02*
D03*
X572342Y50197D02*
D03*
X673228Y111221D02*
D03*
X693898Y84646D02*
D03*
X636811Y17717D02*
D03*
X590059Y90551D02*
D03*
X635827Y77756D02*
D03*
X617126Y16240D02*
D03*
Y69882D02*
D03*
X655020Y96457D02*
D03*
X557579Y25591D02*
D03*
X569882D02*
D03*
X672736Y61024D02*
D03*
X628937Y81201D02*
D03*
X515748Y105315D02*
D03*
X699311Y39886D02*
D03*
X625492Y83661D02*
D03*
X698819Y49213D02*
D03*
Y66929D02*
D03*
X723917D02*
D03*
X719980Y58071D02*
D03*
X460630Y125492D02*
D03*
X634842Y51181D02*
D03*
X715059Y114173D02*
D03*
X708661Y102854D02*
D03*
X560039Y111221D02*
D03*
X118602Y60532D02*
D03*
Y54134D02*
D03*
X302165Y62500D02*
D03*
X232283Y106791D02*
D03*
X213090Y27067D02*
D03*
X133858Y19685D02*
D03*
X374508Y5413D02*
D03*
X367126Y115650D02*
D03*
X270177Y83661D02*
D03*
X169291Y22638D02*
D03*
X148622Y49213D02*
D03*
X205709Y116142D02*
D03*
X252461Y43307D02*
D03*
X206693Y56102D02*
D03*
X225394Y117618D02*
D03*
Y63976D02*
D03*
X187500Y37402D02*
D03*
X284941Y108268D02*
D03*
X272638D02*
D03*
X169783Y72835D02*
D03*
X213583Y52658D02*
D03*
X326772Y28543D02*
D03*
X143209Y93973D02*
D03*
X217028Y50197D02*
D03*
X143701Y84646D02*
D03*
Y66929D02*
D03*
X118602D02*
D03*
X122539Y75787D02*
D03*
X381890Y8366D02*
D03*
X207677Y82677D02*
D03*
X127461Y19685D02*
D03*
X133858Y31004D02*
D03*
X282480Y22638D02*
D03*
X118602Y194390D02*
D03*
Y187992D02*
D03*
X302165Y196358D02*
D03*
X232283Y240650D02*
D03*
X213090Y160925D02*
D03*
X133858Y153543D02*
D03*
X374508Y139272D02*
D03*
X367126Y249508D02*
D03*
X270177Y217520D02*
D03*
X169291Y156496D02*
D03*
X148622Y183071D02*
D03*
X205709Y250000D02*
D03*
X252461Y177165D02*
D03*
X206693Y189961D02*
D03*
X225394Y251476D02*
D03*
Y197835D02*
D03*
X187500Y171260D02*
D03*
X284941Y242126D02*
D03*
X272638D02*
D03*
X169783Y206693D02*
D03*
X213583Y186516D02*
D03*
X326772Y162402D02*
D03*
X143209Y227831D02*
D03*
X217028Y184055D02*
D03*
X143701Y218504D02*
D03*
Y200787D02*
D03*
X118602D02*
D03*
X122539Y209646D02*
D03*
X381890Y142224D02*
D03*
X207677Y216535D02*
D03*
X127461Y153543D02*
D03*
X133858Y164862D02*
D03*
X282480Y156496D02*
D03*
G54D50*
X756906Y157864D02*
Y162863D01*
X757905Y163862D01*
X759905D01*
X760904Y162863D01*
Y157864D01*
X762904D02*
X766902D01*
X764903D01*
Y163862D01*
X768902D02*
Y157864D01*
X772900Y163862D01*
Y157864D01*
X784897D02*
X780898D01*
Y160863D01*
X782897D01*
X780898D01*
Y163862D01*
X786896D02*
Y157864D01*
X789895D01*
X790895Y158864D01*
Y160863D01*
X789895Y161863D01*
X786896D01*
X788895D02*
X790895Y163862D01*
X792894Y157864D02*
Y163862D01*
X795893D01*
X796893Y162863D01*
Y161863D01*
X795893Y160863D01*
X792894D01*
X795893D01*
X796893Y159863D01*
Y158864D01*
X795893Y157864D01*
X792894D01*
X798892Y163862D02*
Y159863D01*
X800891Y157864D01*
X802891Y159863D01*
Y163862D01*
Y160863D01*
X798892D01*
X756906Y24006D02*
Y29004D01*
X757905Y30004D01*
X759905D01*
X760904Y29004D01*
Y24006D01*
X762904D02*
X766902D01*
X764903D01*
Y30004D01*
X768902D02*
Y24006D01*
X772900Y30004D01*
Y24006D01*
X784897D02*
X780898D01*
Y27005D01*
X782897D01*
X780898D01*
Y30004D01*
X786896D02*
Y24006D01*
X789895D01*
X790895Y25006D01*
Y27005D01*
X789895Y28005D01*
X786896D01*
X788895D02*
X790895Y30004D01*
X792894Y24006D02*
Y30004D01*
X795893D01*
X796893Y29004D01*
Y28005D01*
X795893Y27005D01*
X792894D01*
X795893D01*
X796893Y26005D01*
Y25006D01*
X795893Y24006D01*
X792894D01*
X798892Y30004D02*
Y26005D01*
X800891Y24006D01*
X802891Y26005D01*
Y30004D01*
Y27005D01*
X798892D01*
X85614Y109852D02*
Y104854D01*
X84614Y103854D01*
X82615D01*
X81616Y104854D01*
Y109852D01*
X79616D02*
X75617D01*
X77617D01*
Y103854D01*
X73618D02*
Y109852D01*
X69619Y103854D01*
Y109852D01*
X57623D02*
X61622D01*
Y106853D01*
X59623D01*
X61622D01*
Y103854D01*
X55624D02*
Y109852D01*
X52625D01*
X51625Y108853D01*
Y106853D01*
X52625Y105854D01*
X55624D01*
X53624D02*
X51625Y103854D01*
X49626Y109852D02*
Y103854D01*
X46627D01*
X45627Y104854D01*
Y105854D01*
X46627Y106853D01*
X49626D01*
X46627D01*
X45627Y107853D01*
Y108853D01*
X46627Y109852D01*
X49626D01*
X43628Y103854D02*
Y107853D01*
X41628Y109852D01*
X39629Y107853D01*
Y103854D01*
Y106853D01*
X43628D01*
X85614Y243711D02*
Y238712D01*
X84614Y237713D01*
X82615D01*
X81616Y238712D01*
Y243711D01*
X79616D02*
X75617D01*
X77617D01*
Y237713D01*
X73618D02*
Y243711D01*
X69619Y237713D01*
Y243711D01*
X57623D02*
X61622D01*
Y240712D01*
X59623D01*
X61622D01*
Y237713D01*
X55624D02*
Y243711D01*
X52625D01*
X51625Y242711D01*
Y240712D01*
X52625Y239712D01*
X55624D01*
X53624D02*
X51625Y237713D01*
X49626Y243711D02*
Y237713D01*
X46627D01*
X45627Y238712D01*
Y239712D01*
X46627Y240712D01*
X49626D01*
X46627D01*
X45627Y241711D01*
Y242711D01*
X46627Y243711D01*
X49626D01*
X43628Y237713D02*
Y241711D01*
X41628Y243711D01*
X39629Y241711D01*
Y237713D01*
Y240712D01*
X43628D01*
M02*
